<svg width="206" height="206" viewBox="0 0 206 206" fill="none" xmlns="http://www.w3.org/2000/svg">
<g clip-path="url(#clip0_354_4537)">
<rect width="206" height="206" fill="white"/>
<path d="M0 0V206H206V0H0ZM112.104 160.662C112.104 180.71 100.333 189.86 83.1817 189.86C67.6857 189.86 58.7192 181.859 54.121 172.157L69.8929 162.639C72.9277 168.019 75.6866 172.571 82.354 172.571C88.6996 172.571 92.746 170.088 92.746 160.386V94.5853H112.104V160.662ZM157.903 189.86C139.924 189.86 128.29 181.308 122.634 170.088L138.406 160.983C142.545 167.743 147.971 172.755 157.489 172.755C165.49 172.755 170.64 168.754 170.64 163.191C170.64 156.569 165.398 154.224 156.523 150.316L151.695 148.246C137.717 142.315 128.474 134.82 128.474 119.048C128.474 104.517 139.556 93.4817 156.799 93.4817C169.122 93.4817 177.951 97.758 184.296 108.978L169.214 118.634C165.904 112.702 162.317 110.357 156.753 110.357C151.097 110.357 147.511 113.944 147.511 118.634C147.511 124.428 151.097 126.773 159.42 130.405L164.248 132.475C180.71 139.51 189.952 146.729 189.952 162.915C189.952 180.296 176.25 189.86 157.903 189.86Z" fill="#34D399"/>
</g>
<defs>
<clipPath id="clip0_354_4537">
<rect width="206" height="206" fill="white"/>
</clipPath>
</defs>
</svg>
