<svg width="676" height="413" viewBox="0 0 676 413" fill="none" xmlns="http://www.w3.org/2000/svg">
<g clip-path="url(#clip0_340_2943)">
<rect width="413" height="676" transform="translate(676) rotate(90)" fill="#BFDDE0"/>
<path d="M46.2312 23.3861L54.7016 31.4772C55.0531 31.8129 55.5172 32 56 32C56.4828 32 56.9469 31.8129 57.2984 31.4772L65.7687 23.3861C67.1937 22.0288 68 20.1247 68 18.1343V17.8561C68 14.5036 65.6328 11.645 62.4031 11.0935C60.2656 10.729 58.0906 11.4436 56.5625 13.0072L56 13.5827L55.4375 13.0072C53.9094 11.4436 51.7344 10.729 49.5969 11.0935C46.3672 11.645 44 14.5036 44 17.8561V18.1343C44 20.1247 44.8062 22.0288 46.2312 23.3861Z" fill="#146566" fill-opacity="0.05"/>
<path d="M46.2312 115.386L54.7016 123.477C55.0531 123.813 55.5172 124 56 124C56.4828 124 56.9469 123.813 57.2984 123.477L65.7687 115.386C67.1937 114.029 68 112.125 68 110.134V109.856C68 106.504 65.6328 103.645 62.4031 103.093C60.2656 102.729 58.0906 103.444 56.5625 105.007L56 105.583L55.4375 105.007C53.9094 103.444 51.7344 102.729 49.5969 103.093C46.3672 103.645 44 106.504 44 109.856V110.134C44 112.125 44.8062 114.029 46.2312 115.386Z" fill="#146566" fill-opacity="0.05"/>
<path d="M46.2312 207.386L54.7016 215.477C55.0531 215.813 55.5172 216 56 216C56.4828 216 56.9469 215.813 57.2984 215.477L65.7687 207.386C67.1937 206.029 68 204.125 68 202.134V201.856C68 198.504 65.6328 195.645 62.4031 195.093C60.2656 194.729 58.0906 195.444 56.5625 197.007L56 197.583L55.4375 197.007C53.9094 195.444 51.7344 194.729 49.5969 195.093C46.3672 195.645 44 198.504 44 201.856V202.134C44 204.125 44.8062 206.029 46.2312 207.386Z" fill="#146566" fill-opacity="0.05"/>
<path d="M46.2312 299.386L54.7016 307.477C55.0531 307.813 55.5172 308 56 308C56.4828 308 56.9469 307.813 57.2984 307.477L65.7687 299.386C67.1937 298.029 68 296.125 68 294.134V293.856C68 290.504 65.6328 287.645 62.4031 287.093C60.2656 286.729 58.0906 287.444 56.5625 289.007L56 289.583L55.4375 289.007C53.9094 287.444 51.7344 286.729 49.5969 287.093C46.3672 287.645 44 290.504 44 293.856V294.134C44 296.125 44.8062 298.029 46.2312 299.386Z" fill="#146566" fill-opacity="0.05"/>
<path d="M46.2312 391.386L54.7016 399.477C55.0531 399.813 55.5172 400 56 400C56.4828 400 56.9469 399.813 57.2984 399.477L65.7687 391.386C67.1937 390.029 68 388.125 68 386.134V385.856C68 382.504 65.6328 379.645 62.4031 379.093C60.2656 378.729 58.0906 379.444 56.5625 381.007L56 381.583L55.4375 381.007C53.9094 379.444 51.7344 378.729 49.5969 379.093C46.3672 379.645 44 382.504 44 385.856V386.134C44 388.125 44.8062 390.029 46.2312 391.386Z" fill="#146566" fill-opacity="0.05"/>
<path d="M21.2312 69.3861L29.7016 77.4772C30.0531 77.8129 30.5172 78 31 78C31.4828 78 31.9469 77.8129 32.2984 77.4772L40.7687 69.3861C42.1937 68.0288 43 66.1247 43 64.1343V63.8561C43 60.5036 40.6328 57.645 37.4031 57.0935C35.2656 56.729 33.0906 57.4436 31.5625 59.0072L31 59.5827L30.4375 59.0072C28.9094 57.4436 26.7344 56.729 24.5969 57.0935C21.3672 57.645 19 60.5036 19 63.8561V64.1343C19 66.1247 19.8062 68.0288 21.2312 69.3861Z" fill="#146566" fill-opacity="0.05"/>
<path d="M21.2312 69.3861L29.7016 77.4772C30.0531 77.8129 30.5172 78 31 78C31.4828 78 31.9469 77.8129 32.2984 77.4772L40.7687 69.3861C42.1937 68.0288 43 66.1247 43 64.1343V63.8561C43 60.5036 40.6328 57.645 37.4031 57.0935C35.2656 56.729 33.0906 57.4436 31.5625 59.0072L31 59.5827L30.4375 59.0072C28.9094 57.4436 26.7344 56.729 24.5969 57.0935C21.3672 57.645 19 60.5036 19 63.8561V64.1343C19 66.1247 19.8062 68.0288 21.2312 69.3861Z" fill="#146566" fill-opacity="0.05"/>
<path d="M21.2312 161.386L29.7016 169.477C30.0531 169.813 30.5172 170 31 170C31.4828 170 31.9469 169.813 32.2984 169.477L40.7687 161.386C42.1937 160.029 43 158.125 43 156.134V155.856C43 152.504 40.6328 149.645 37.4031 149.093C35.2656 148.729 33.0906 149.444 31.5625 151.007L31 151.583L30.4375 151.007C28.9094 149.444 26.7344 148.729 24.5969 149.093C21.3672 149.645 19 152.504 19 155.856V156.134C19 158.125 19.8062 160.029 21.2312 161.386Z" fill="#146566" fill-opacity="0.05"/>
<path d="M21.2312 253.386L29.7016 261.477C30.0531 261.813 30.5172 262 31 262C31.4828 262 31.9469 261.813 32.2984 261.477L40.7687 253.386C42.1937 252.029 43 250.125 43 248.134V247.856C43 244.504 40.6328 241.645 37.4031 241.093C35.2656 240.729 33.0906 241.444 31.5625 243.007L31 243.583L30.4375 243.007C28.9094 241.444 26.7344 240.729 24.5969 241.093C21.3672 241.645 19 244.504 19 247.856V248.134C19 250.125 19.8062 252.029 21.2312 253.386Z" fill="#146566" fill-opacity="0.05"/>
<path d="M21.2312 345.386L29.7016 353.477C30.0531 353.813 30.5172 354 31 354C31.4828 354 31.9469 353.813 32.2984 353.477L40.7687 345.386C42.1937 344.029 43 342.125 43 340.134V339.856C43 336.504 40.6328 333.645 37.4031 333.093C35.2656 332.729 33.0906 333.444 31.5625 335.007L31 335.583L30.4375 335.007C28.9094 333.444 26.7344 332.729 24.5969 333.093C21.3672 333.645 19 336.504 19 339.856V340.134C19 342.125 19.8062 344.029 21.2312 345.386Z" fill="#146566" fill-opacity="0.05"/>
<path d="M340.231 23.3861L348.702 31.4772C349.053 31.8129 349.517 32 350 32C350.483 32 350.947 31.8129 351.298 31.4772L359.769 23.3861C361.194 22.0288 362 20.1247 362 18.1343V17.8561C362 14.5036 359.633 11.645 356.403 11.0935C354.266 10.729 352.091 11.4436 350.562 13.0072L350 13.5827L349.438 13.0072C347.909 11.4436 345.734 10.729 343.597 11.0935C340.367 11.645 338 14.5036 338 17.8561V18.1343C338 20.1247 338.806 22.0288 340.231 23.3861Z" fill="#146566" fill-opacity="0.05"/>
<path d="M340.231 115.386L348.702 123.477C349.053 123.813 349.517 124 350 124C350.483 124 350.947 123.813 351.298 123.477L359.769 115.386C361.194 114.029 362 112.125 362 110.134V109.856C362 106.504 359.633 103.645 356.403 103.093C354.266 102.729 352.091 103.444 350.562 105.007L350 105.583L349.438 105.007C347.909 103.444 345.734 102.729 343.597 103.093C340.367 103.645 338 106.504 338 109.856V110.134C338 112.125 338.806 114.029 340.231 115.386Z" fill="#146566" fill-opacity="0.05"/>
<path d="M340.231 207.386L348.702 215.477C349.053 215.813 349.517 216 350 216C350.483 216 350.947 215.813 351.298 215.477L359.769 207.386C361.194 206.029 362 204.125 362 202.134V201.856C362 198.504 359.633 195.645 356.403 195.093C354.266 194.729 352.091 195.444 350.562 197.007L350 197.583L349.438 197.007C347.909 195.444 345.734 194.729 343.597 195.093C340.367 195.645 338 198.504 338 201.856V202.134C338 204.125 338.806 206.029 340.231 207.386Z" fill="#146566" fill-opacity="0.05"/>
<path d="M340.231 299.386L348.702 307.477C349.053 307.813 349.517 308 350 308C350.483 308 350.947 307.813 351.298 307.477L359.769 299.386C361.194 298.029 362 296.125 362 294.134V293.856C362 290.504 359.633 287.645 356.403 287.093C354.266 286.729 352.091 287.444 350.562 289.007L350 289.583L349.438 289.007C347.909 287.444 345.734 286.729 343.597 287.093C340.367 287.645 338 290.504 338 293.856V294.134C338 296.125 338.806 298.029 340.231 299.386Z" fill="#146566" fill-opacity="0.05"/>
<path d="M340.231 391.386L348.702 399.477C349.053 399.813 349.517 400 350 400C350.483 400 350.947 399.813 351.298 399.477L359.769 391.386C361.194 390.029 362 388.125 362 386.134V385.856C362 382.504 359.633 379.645 356.403 379.093C354.266 378.729 352.091 379.444 350.562 381.007L350 381.583L349.438 381.007C347.909 379.444 345.734 378.729 343.597 379.093C340.367 379.645 338 382.504 338 385.856V386.134C338 388.125 338.806 390.029 340.231 391.386Z" fill="#146566" fill-opacity="0.05"/>
<path d="M315.231 69.3861L323.702 77.4772C324.053 77.8129 324.517 78 325 78C325.483 78 325.947 77.8129 326.298 77.4772L334.769 69.3861C336.194 68.0288 337 66.1247 337 64.1343V63.8561C337 60.5036 334.633 57.645 331.403 57.0935C329.266 56.729 327.091 57.4436 325.562 59.0072L325 59.5827L324.438 59.0072C322.909 57.4436 320.734 56.729 318.597 57.0935C315.367 57.645 313 60.5036 313 63.8561V64.1343C313 66.1247 313.806 68.0288 315.231 69.3861Z" fill="#146566" fill-opacity="0.05"/>
<path d="M315.231 161.386L323.702 169.477C324.053 169.813 324.517 170 325 170C325.483 170 325.947 169.813 326.298 169.477L334.769 161.386C336.194 160.029 337 158.125 337 156.134V155.856C337 152.504 334.633 149.645 331.403 149.093C329.266 148.729 327.091 149.444 325.562 151.007L325 151.583L324.438 151.007C322.909 149.444 320.734 148.729 318.597 149.093C315.367 149.645 313 152.504 313 155.856V156.134C313 158.125 313.806 160.029 315.231 161.386Z" fill="#146566" fill-opacity="0.05"/>
<path d="M315.231 253.386L323.702 261.477C324.053 261.813 324.517 262 325 262C325.483 262 325.947 261.813 326.298 261.477L334.769 253.386C336.194 252.029 337 250.125 337 248.134V247.856C337 244.504 334.633 241.645 331.403 241.093C329.266 240.729 327.091 241.444 325.562 243.007L325 243.583L324.438 243.007C322.909 241.444 320.734 240.729 318.597 241.093C315.367 241.645 313 244.504 313 247.856V248.134C313 250.125 313.806 252.029 315.231 253.386Z" fill="#146566" fill-opacity="0.05"/>
<path d="M315.231 345.386L323.702 353.477C324.053 353.813 324.517 354 325 354C325.483 354 325.947 353.813 326.298 353.477L334.769 345.386C336.194 344.029 337 342.125 337 340.134V339.856C337 336.504 334.633 333.645 331.403 333.093C329.266 332.729 327.091 333.444 325.562 335.007L325 335.583L324.438 335.007C322.909 333.444 320.734 332.729 318.597 333.093C315.367 333.645 313 336.504 313 339.856V340.134C313 342.125 313.806 344.029 315.231 345.386Z" fill="#146566" fill-opacity="0.05"/>
<path d="M634.231 23.3861L642.702 31.4772C643.053 31.8129 643.517 32 644 32C644.483 32 644.947 31.8129 645.298 31.4772L653.769 23.3861C655.194 22.0288 656 20.1247 656 18.1343V17.8561C656 14.5036 653.633 11.645 650.403 11.0935C648.266 10.729 646.091 11.4436 644.562 13.0072L644 13.5827L643.438 13.0072C641.909 11.4436 639.734 10.729 637.597 11.0935C634.367 11.645 632 14.5036 632 17.8561V18.1343C632 20.1247 632.806 22.0288 634.231 23.3861Z" fill="#146566" fill-opacity="0.05"/>
<path d="M634.231 115.386L642.702 123.477C643.053 123.813 643.517 124 644 124C644.483 124 644.947 123.813 645.298 123.477L653.769 115.386C655.194 114.029 656 112.125 656 110.134V109.856C656 106.504 653.633 103.645 650.403 103.093C648.266 102.729 646.091 103.444 644.562 105.007L644 105.583L643.438 105.007C641.909 103.444 639.734 102.729 637.597 103.093C634.367 103.645 632 106.504 632 109.856V110.134C632 112.125 632.806 114.029 634.231 115.386Z" fill="#146566" fill-opacity="0.05"/>
<path d="M634.231 207.386L642.702 215.477C643.053 215.813 643.517 216 644 216C644.483 216 644.947 215.813 645.298 215.477L653.769 207.386C655.194 206.029 656 204.125 656 202.134V201.856C656 198.504 653.633 195.645 650.403 195.093C648.266 194.729 646.091 195.444 644.562 197.007L644 197.583L643.438 197.007C641.909 195.444 639.734 194.729 637.597 195.093C634.367 195.645 632 198.504 632 201.856V202.134C632 204.125 632.806 206.029 634.231 207.386Z" fill="#146566" fill-opacity="0.05"/>
<path d="M634.231 299.386L642.702 307.477C643.053 307.813 643.517 308 644 308C644.483 308 644.947 307.813 645.298 307.477L653.769 299.386C655.194 298.029 656 296.125 656 294.134V293.856C656 290.504 653.633 287.645 650.403 287.093C648.266 286.729 646.091 287.444 644.562 289.007L644 289.583L643.438 289.007C641.909 287.444 639.734 286.729 637.597 287.093C634.367 287.645 632 290.504 632 293.856V294.134C632 296.125 632.806 298.029 634.231 299.386Z" fill="#146566" fill-opacity="0.05"/>
<path d="M634.231 391.386L642.702 399.477C643.053 399.813 643.517 400 644 400C644.483 400 644.947 399.813 645.298 399.477L653.769 391.386C655.194 390.029 656 388.125 656 386.134V385.856C656 382.504 653.633 379.645 650.403 379.093C648.266 378.729 646.091 379.444 644.562 381.007L644 381.583L643.438 381.007C641.909 379.444 639.734 378.729 637.597 379.093C634.367 379.645 632 382.504 632 385.856V386.134C632 388.125 632.806 390.029 634.231 391.386Z" fill="#146566" fill-opacity="0.05"/>
<path d="M609.231 69.3861L617.702 77.4772C618.053 77.8129 618.517 78 619 78C619.483 78 619.947 77.8129 620.298 77.4772L628.769 69.3861C630.194 68.0288 631 66.1247 631 64.1343V63.8561C631 60.5036 628.633 57.645 625.403 57.0935C623.266 56.729 621.091 57.4436 619.562 59.0072L619 59.5827L618.438 59.0072C616.909 57.4436 614.734 56.729 612.597 57.0935C609.367 57.645 607 60.5036 607 63.8561V64.1343C607 66.1247 607.806 68.0288 609.231 69.3861Z" fill="#146566" fill-opacity="0.05"/>
<path d="M609.231 161.386L617.702 169.477C618.053 169.813 618.517 170 619 170C619.483 170 619.947 169.813 620.298 169.477L628.769 161.386C630.194 160.029 631 158.125 631 156.134V155.856C631 152.504 628.633 149.645 625.403 149.093C623.266 148.729 621.091 149.444 619.562 151.007L619 151.583L618.438 151.007C616.909 149.444 614.734 148.729 612.597 149.093C609.367 149.645 607 152.504 607 155.856V156.134C607 158.125 607.806 160.029 609.231 161.386Z" fill="#146566" fill-opacity="0.05"/>
<path d="M609.231 253.386L617.702 261.477C618.053 261.813 618.517 262 619 262C619.483 262 619.947 261.813 620.298 261.477L628.769 253.386C630.194 252.029 631 250.125 631 248.134V247.856C631 244.504 628.633 241.645 625.403 241.093C623.266 240.729 621.091 241.444 619.562 243.007L619 243.583L618.438 243.007C616.909 241.444 614.734 240.729 612.597 241.093C609.367 241.645 607 244.504 607 247.856V248.134C607 250.125 607.806 252.029 609.231 253.386Z" fill="#146566" fill-opacity="0.05"/>
<path d="M609.231 345.386L617.702 353.477C618.053 353.813 618.517 354 619 354C619.483 354 619.947 353.813 620.298 353.477L628.769 345.386C630.194 344.029 631 342.125 631 340.134V339.856C631 336.504 628.633 333.645 625.403 333.093C623.266 332.729 621.091 333.444 619.562 335.007L619 335.583L618.438 335.007C616.909 333.444 614.734 332.729 612.597 333.093C609.367 333.645 607 336.504 607 339.856V340.134C607 342.125 607.806 344.029 609.231 345.386Z" fill="#146566" fill-opacity="0.05"/>
<path d="M93 18.5C93 16.8453 94.3453 15.5 96 15.5C96.0234 15.5 96.0516 15.5 96.075 15.5C96.4219 13.7891 97.9359 12.5 99.75 12.5C100.453 12.5 101.109 12.6922 101.667 13.025C102.291 11.825 103.552 11 105 11C106.448 11 107.709 11.825 108.333 13.025C108.891 12.6922 109.547 12.5 110.25 12.5C112.064 12.5 113.578 13.7891 113.925 15.5C113.948 15.5 113.977 15.5 114 15.5C115.655 15.5 117 16.8453 117 18.5C117 19.0484 116.855 19.5594 116.597 20H93.4031C93.1453 19.5594 93 19.0484 93 18.5ZM93 22.7844C93 22.0766 93.5766 21.5 94.2844 21.5H115.711C116.419 21.5 116.995 22.0766 116.995 22.7844C116.995 26.0891 114.914 28.9109 111.994 30.0078L111.914 30.6875C111.82 31.4375 111.183 32 110.423 32H99.5719C98.8172 32 98.175 31.4375 98.0813 30.6875L97.9969 30.0125C95.0812 28.9109 93 26.0891 93 22.7844Z" fill="#146566" fill-opacity="0.05"/>
<path d="M93 110.5C93 108.845 94.3453 107.5 96 107.5C96.0234 107.5 96.0516 107.5 96.075 107.5C96.4219 105.789 97.9359 104.5 99.75 104.5C100.453 104.5 101.109 104.692 101.667 105.025C102.291 103.825 103.552 103 105 103C106.448 103 107.709 103.825 108.333 105.025C108.891 104.692 109.547 104.5 110.25 104.5C112.064 104.5 113.578 105.789 113.925 107.5C113.948 107.5 113.977 107.5 114 107.5C115.655 107.5 117 108.845 117 110.5C117 111.048 116.855 111.559 116.597 112H93.4031C93.1453 111.559 93 111.048 93 110.5ZM93 114.784C93 114.077 93.5766 113.5 94.2844 113.5H115.711C116.419 113.5 116.995 114.077 116.995 114.784C116.995 118.089 114.914 120.911 111.994 122.008L111.914 122.688C111.82 123.438 111.183 124 110.423 124H99.5719C98.8172 124 98.175 123.438 98.0813 122.688L97.9969 122.013C95.0812 120.911 93 118.089 93 114.784Z" fill="#146566" fill-opacity="0.05"/>
<path d="M93 202.5C93 200.845 94.3453 199.5 96 199.5C96.0234 199.5 96.0516 199.5 96.075 199.5C96.4219 197.789 97.9359 196.5 99.75 196.5C100.453 196.5 101.109 196.692 101.667 197.025C102.291 195.825 103.552 195 105 195C106.448 195 107.709 195.825 108.333 197.025C108.891 196.692 109.547 196.5 110.25 196.5C112.064 196.5 113.578 197.789 113.925 199.5C113.948 199.5 113.977 199.5 114 199.5C115.655 199.5 117 200.845 117 202.5C117 203.048 116.855 203.559 116.597 204H93.4031C93.1453 203.559 93 203.048 93 202.5ZM93 206.784C93 206.077 93.5766 205.5 94.2844 205.5H115.711C116.419 205.5 116.995 206.077 116.995 206.784C116.995 210.089 114.914 212.911 111.994 214.008L111.914 214.688C111.82 215.438 111.183 216 110.423 216H99.5719C98.8172 216 98.175 215.438 98.0813 214.688L97.9969 214.013C95.0812 212.911 93 210.089 93 206.784Z" fill="#146566" fill-opacity="0.05"/>
<path d="M93 294.5C93 292.845 94.3453 291.5 96 291.5C96.0234 291.5 96.0516 291.5 96.075 291.5C96.4219 289.789 97.9359 288.5 99.75 288.5C100.453 288.5 101.109 288.692 101.667 289.025C102.291 287.825 103.552 287 105 287C106.448 287 107.709 287.825 108.333 289.025C108.891 288.692 109.547 288.5 110.25 288.5C112.064 288.5 113.578 289.789 113.925 291.5C113.948 291.5 113.977 291.5 114 291.5C115.655 291.5 117 292.845 117 294.5C117 295.048 116.855 295.559 116.597 296H93.4031C93.1453 295.559 93 295.048 93 294.5ZM93 298.784C93 298.077 93.5766 297.5 94.2844 297.5H115.711C116.419 297.5 116.995 298.077 116.995 298.784C116.995 302.089 114.914 304.911 111.994 306.008L111.914 306.688C111.82 307.438 111.183 308 110.423 308H99.5719C98.8172 308 98.175 307.438 98.0813 306.688L97.9969 306.013C95.0812 304.911 93 302.089 93 298.784Z" fill="#146566" fill-opacity="0.05"/>
<path d="M93 386.5C93 384.845 94.3453 383.5 96 383.5C96.0234 383.5 96.0516 383.5 96.075 383.5C96.4219 381.789 97.9359 380.5 99.75 380.5C100.453 380.5 101.109 380.692 101.667 381.025C102.291 379.825 103.552 379 105 379C106.448 379 107.709 379.825 108.333 381.025C108.891 380.692 109.547 380.5 110.25 380.5C112.064 380.5 113.578 381.789 113.925 383.5C113.948 383.5 113.977 383.5 114 383.5C115.655 383.5 117 384.845 117 386.5C117 387.048 116.855 387.559 116.597 388H93.4031C93.1453 387.559 93 387.048 93 386.5ZM93 390.784C93 390.077 93.5766 389.5 94.2844 389.5H115.711C116.419 389.5 116.995 390.077 116.995 390.784C116.995 394.089 114.914 396.911 111.994 398.008L111.914 398.688C111.82 399.438 111.183 400 110.423 400H99.5719C98.8172 400 98.175 399.438 98.0813 398.688L97.9969 398.013C95.0812 396.911 93 394.089 93 390.784Z" fill="#146566" fill-opacity="0.05"/>
<path d="M68 64.5C68 62.8453 69.3453 61.5 71 61.5C71.0234 61.5 71.0516 61.5 71.075 61.5C71.4219 59.7891 72.9359 58.5 74.75 58.5C75.4531 58.5 76.1094 58.6922 76.6672 59.025C77.2906 57.825 78.5516 57 80 57C81.4484 57 82.7094 57.825 83.3328 59.025C83.8906 58.6922 84.5469 58.5 85.25 58.5C87.0641 58.5 88.5781 59.7891 88.925 61.5C88.9484 61.5 88.9766 61.5 89 61.5C90.6547 61.5 92 62.8453 92 64.5C92 65.0484 91.8547 65.5594 91.5969 66H68.4031C68.1453 65.5594 68 65.0484 68 64.5ZM68 68.7844C68 68.0766 68.5766 67.5 69.2844 67.5H90.7109C91.4188 67.5 91.9953 68.0766 91.9953 68.7844C91.9953 72.0891 89.9141 74.9109 86.9938 76.0078L86.9141 76.6875C86.8203 77.4375 86.1828 78 85.4234 78H74.5719C73.8172 78 73.175 77.4375 73.0813 76.6875L72.9969 76.0125C70.0812 74.9109 68 72.0891 68 68.7844Z" fill="#146566" fill-opacity="0.05"/>
<path d="M68 156.5C68 154.845 69.3453 153.5 71 153.5C71.0234 153.5 71.0516 153.5 71.075 153.5C71.4219 151.789 72.9359 150.5 74.75 150.5C75.4531 150.5 76.1094 150.692 76.6672 151.025C77.2906 149.825 78.5516 149 80 149C81.4484 149 82.7094 149.825 83.3328 151.025C83.8906 150.692 84.5469 150.5 85.25 150.5C87.0641 150.5 88.5781 151.789 88.925 153.5C88.9484 153.5 88.9766 153.5 89 153.5C90.6547 153.5 92 154.845 92 156.5C92 157.048 91.8547 157.559 91.5969 158H68.4031C68.1453 157.559 68 157.048 68 156.5ZM68 160.784C68 160.077 68.5766 159.5 69.2844 159.5H90.7109C91.4188 159.5 91.9953 160.077 91.9953 160.784C91.9953 164.089 89.9141 166.911 86.9938 168.008L86.9141 168.688C86.8203 169.438 86.1828 170 85.4234 170H74.5719C73.8172 170 73.175 169.438 73.0813 168.688L72.9969 168.013C70.0812 166.911 68 164.089 68 160.784Z" fill="#146566" fill-opacity="0.05"/>
<path d="M68 248.5C68 246.845 69.3453 245.5 71 245.5C71.0234 245.5 71.0516 245.5 71.075 245.5C71.4219 243.789 72.9359 242.5 74.75 242.5C75.4531 242.5 76.1094 242.692 76.6672 243.025C77.2906 241.825 78.5516 241 80 241C81.4484 241 82.7094 241.825 83.3328 243.025C83.8906 242.692 84.5469 242.5 85.25 242.5C87.0641 242.5 88.5781 243.789 88.925 245.5C88.9484 245.5 88.9766 245.5 89 245.5C90.6547 245.5 92 246.845 92 248.5C92 249.048 91.8547 249.559 91.5969 250H68.4031C68.1453 249.559 68 249.048 68 248.5ZM68 252.784C68 252.077 68.5766 251.5 69.2844 251.5H90.7109C91.4188 251.5 91.9953 252.077 91.9953 252.784C91.9953 256.089 89.9141 258.911 86.9938 260.008L86.9141 260.688C86.8203 261.438 86.1828 262 85.4234 262H74.5719C73.8172 262 73.175 261.438 73.0813 260.688L72.9969 260.013C70.0812 258.911 68 256.089 68 252.784Z" fill="#146566" fill-opacity="0.05"/>
<path d="M68 340.5C68 338.845 69.3453 337.5 71 337.5C71.0234 337.5 71.0516 337.5 71.075 337.5C71.4219 335.789 72.9359 334.5 74.75 334.5C75.4531 334.5 76.1094 334.692 76.6672 335.025C77.2906 333.825 78.5516 333 80 333C81.4484 333 82.7094 333.825 83.3328 335.025C83.8906 334.692 84.5469 334.5 85.25 334.5C87.0641 334.5 88.5781 335.789 88.925 337.5C88.9484 337.5 88.9766 337.5 89 337.5C90.6547 337.5 92 338.845 92 340.5C92 341.048 91.8547 341.559 91.5969 342H68.4031C68.1453 341.559 68 341.048 68 340.5ZM68 344.784C68 344.077 68.5766 343.5 69.2844 343.5H90.7109C91.4188 343.5 91.9953 344.077 91.9953 344.784C91.9953 348.089 89.9141 350.911 86.9938 352.008L86.9141 352.688C86.8203 353.438 86.1828 354 85.4234 354H74.5719C73.8172 354 73.175 353.438 73.0813 352.688L72.9969 352.013C70.0812 350.911 68 348.089 68 344.784Z" fill="#146566" fill-opacity="0.05"/>
<path d="M387 18.5C387 16.8453 388.345 15.5 390 15.5C390.023 15.5 390.052 15.5 390.075 15.5C390.422 13.7891 391.936 12.5 393.75 12.5C394.453 12.5 395.109 12.6922 395.667 13.025C396.291 11.825 397.552 11 399 11C400.448 11 401.709 11.825 402.333 13.025C402.891 12.6922 403.547 12.5 404.25 12.5C406.064 12.5 407.578 13.7891 407.925 15.5C407.948 15.5 407.977 15.5 408 15.5C409.655 15.5 411 16.8453 411 18.5C411 19.0484 410.855 19.5594 410.597 20H387.403C387.145 19.5594 387 19.0484 387 18.5ZM387 22.7844C387 22.0766 387.577 21.5 388.284 21.5H409.711C410.419 21.5 410.995 22.0766 410.995 22.7844C410.995 26.0891 408.914 28.9109 405.994 30.0078L405.914 30.6875C405.82 31.4375 405.183 32 404.423 32H393.572C392.817 32 392.175 31.4375 392.081 30.6875L391.997 30.0125C389.081 28.9109 387 26.0891 387 22.7844Z" fill="#146566" fill-opacity="0.05"/>
<path d="M387 110.5C387 108.845 388.345 107.5 390 107.5C390.023 107.5 390.052 107.5 390.075 107.5C390.422 105.789 391.936 104.5 393.75 104.5C394.453 104.5 395.109 104.692 395.667 105.025C396.291 103.825 397.552 103 399 103C400.448 103 401.709 103.825 402.333 105.025C402.891 104.692 403.547 104.5 404.25 104.5C406.064 104.5 407.578 105.789 407.925 107.5C407.948 107.5 407.977 107.5 408 107.5C409.655 107.5 411 108.845 411 110.5C411 111.048 410.855 111.559 410.597 112H387.403C387.145 111.559 387 111.048 387 110.5ZM387 114.784C387 114.077 387.577 113.5 388.284 113.5H409.711C410.419 113.5 410.995 114.077 410.995 114.784C410.995 118.089 408.914 120.911 405.994 122.008L405.914 122.688C405.82 123.438 405.183 124 404.423 124H393.572C392.817 124 392.175 123.438 392.081 122.688L391.997 122.013C389.081 120.911 387 118.089 387 114.784Z" fill="#146566" fill-opacity="0.05"/>
<path d="M387 202.5C387 200.845 388.345 199.5 390 199.5C390.023 199.5 390.052 199.5 390.075 199.5C390.422 197.789 391.936 196.5 393.75 196.5C394.453 196.5 395.109 196.692 395.667 197.025C396.291 195.825 397.552 195 399 195C400.448 195 401.709 195.825 402.333 197.025C402.891 196.692 403.547 196.5 404.25 196.5C406.064 196.5 407.578 197.789 407.925 199.5C407.948 199.5 407.977 199.5 408 199.5C409.655 199.5 411 200.845 411 202.5C411 203.048 410.855 203.559 410.597 204H387.403C387.145 203.559 387 203.048 387 202.5ZM387 206.784C387 206.077 387.577 205.5 388.284 205.5H409.711C410.419 205.5 410.995 206.077 410.995 206.784C410.995 210.089 408.914 212.911 405.994 214.008L405.914 214.688C405.82 215.438 405.183 216 404.423 216H393.572C392.817 216 392.175 215.438 392.081 214.688L391.997 214.013C389.081 212.911 387 210.089 387 206.784Z" fill="#146566" fill-opacity="0.05"/>
<path d="M387 294.5C387 292.845 388.345 291.5 390 291.5C390.023 291.5 390.052 291.5 390.075 291.5C390.422 289.789 391.936 288.5 393.75 288.5C394.453 288.5 395.109 288.692 395.667 289.025C396.291 287.825 397.552 287 399 287C400.448 287 401.709 287.825 402.333 289.025C402.891 288.692 403.547 288.5 404.25 288.5C406.064 288.5 407.578 289.789 407.925 291.5C407.948 291.5 407.977 291.5 408 291.5C409.655 291.5 411 292.845 411 294.5C411 295.048 410.855 295.559 410.597 296H387.403C387.145 295.559 387 295.048 387 294.5ZM387 298.784C387 298.077 387.577 297.5 388.284 297.5H409.711C410.419 297.5 410.995 298.077 410.995 298.784C410.995 302.089 408.914 304.911 405.994 306.008L405.914 306.688C405.82 307.438 405.183 308 404.423 308H393.572C392.817 308 392.175 307.438 392.081 306.688L391.997 306.013C389.081 304.911 387 302.089 387 298.784Z" fill="#146566" fill-opacity="0.05"/>
<path d="M387 386.5C387 384.845 388.345 383.5 390 383.5C390.023 383.5 390.052 383.5 390.075 383.5C390.422 381.789 391.936 380.5 393.75 380.5C394.453 380.5 395.109 380.692 395.667 381.025C396.291 379.825 397.552 379 399 379C400.448 379 401.709 379.825 402.333 381.025C402.891 380.692 403.547 380.5 404.25 380.5C406.064 380.5 407.578 381.789 407.925 383.5C407.948 383.5 407.977 383.5 408 383.5C409.655 383.5 411 384.845 411 386.5C411 387.048 410.855 387.559 410.597 388H387.403C387.145 387.559 387 387.048 387 386.5ZM387 390.784C387 390.077 387.577 389.5 388.284 389.5H409.711C410.419 389.5 410.995 390.077 410.995 390.784C410.995 394.089 408.914 396.911 405.994 398.008L405.914 398.688C405.82 399.438 405.183 400 404.423 400H393.572C392.817 400 392.175 399.438 392.081 398.688L391.997 398.013C389.081 396.911 387 394.089 387 390.784Z" fill="#146566" fill-opacity="0.05"/>
<path d="M362 64.5C362 62.8453 363.345 61.5 365 61.5C365.023 61.5 365.052 61.5 365.075 61.5C365.422 59.7891 366.936 58.5 368.75 58.5C369.453 58.5 370.109 58.6922 370.667 59.025C371.291 57.825 372.552 57 374 57C375.448 57 376.709 57.825 377.333 59.025C377.891 58.6922 378.547 58.5 379.25 58.5C381.064 58.5 382.578 59.7891 382.925 61.5C382.948 61.5 382.977 61.5 383 61.5C384.655 61.5 386 62.8453 386 64.5C386 65.0484 385.855 65.5594 385.597 66H362.403C362.145 65.5594 362 65.0484 362 64.5ZM362 68.7844C362 68.0766 362.577 67.5 363.284 67.5H384.711C385.419 67.5 385.995 68.0766 385.995 68.7844C385.995 72.0891 383.914 74.9109 380.994 76.0078L380.914 76.6875C380.82 77.4375 380.183 78 379.423 78H368.572C367.817 78 367.175 77.4375 367.081 76.6875L366.997 76.0125C364.081 74.9109 362 72.0891 362 68.7844Z" fill="#146566" fill-opacity="0.05"/>
<path d="M362 156.5C362 154.845 363.345 153.5 365 153.5C365.023 153.5 365.052 153.5 365.075 153.5C365.422 151.789 366.936 150.5 368.75 150.5C369.453 150.5 370.109 150.692 370.667 151.025C371.291 149.825 372.552 149 374 149C375.448 149 376.709 149.825 377.333 151.025C377.891 150.692 378.547 150.5 379.25 150.5C381.064 150.5 382.578 151.789 382.925 153.5C382.948 153.5 382.977 153.5 383 153.5C384.655 153.5 386 154.845 386 156.5C386 157.048 385.855 157.559 385.597 158H362.403C362.145 157.559 362 157.048 362 156.5ZM362 160.784C362 160.077 362.577 159.5 363.284 159.5H384.711C385.419 159.5 385.995 160.077 385.995 160.784C385.995 164.089 383.914 166.911 380.994 168.008L380.914 168.688C380.82 169.438 380.183 170 379.423 170H368.572C367.817 170 367.175 169.438 367.081 168.688L366.997 168.013C364.081 166.911 362 164.089 362 160.784Z" fill="#146566" fill-opacity="0.05"/>
<path d="M362 248.5C362 246.845 363.345 245.5 365 245.5C365.023 245.5 365.052 245.5 365.075 245.5C365.422 243.789 366.936 242.5 368.75 242.5C369.453 242.5 370.109 242.692 370.667 243.025C371.291 241.825 372.552 241 374 241C375.448 241 376.709 241.825 377.333 243.025C377.891 242.692 378.547 242.5 379.25 242.5C381.064 242.5 382.578 243.789 382.925 245.5C382.948 245.5 382.977 245.5 383 245.5C384.655 245.5 386 246.845 386 248.5C386 249.048 385.855 249.559 385.597 250H362.403C362.145 249.559 362 249.048 362 248.5ZM362 252.784C362 252.077 362.577 251.5 363.284 251.5H384.711C385.419 251.5 385.995 252.077 385.995 252.784C385.995 256.089 383.914 258.911 380.994 260.008L380.914 260.688C380.82 261.438 380.183 262 379.423 262H368.572C367.817 262 367.175 261.438 367.081 260.688L366.997 260.013C364.081 258.911 362 256.089 362 252.784Z" fill="#146566" fill-opacity="0.05"/>
<path d="M362 340.5C362 338.845 363.345 337.5 365 337.5C365.023 337.5 365.052 337.5 365.075 337.5C365.422 335.789 366.936 334.5 368.75 334.5C369.453 334.5 370.109 334.692 370.667 335.025C371.291 333.825 372.552 333 374 333C375.448 333 376.709 333.825 377.333 335.025C377.891 334.692 378.547 334.5 379.25 334.5C381.064 334.5 382.578 335.789 382.925 337.5C382.948 337.5 382.977 337.5 383 337.5C384.655 337.5 386 338.845 386 340.5C386 341.048 385.855 341.559 385.597 342H362.403C362.145 341.559 362 341.048 362 340.5ZM362 344.784C362 344.077 362.577 343.5 363.284 343.5H384.711C385.419 343.5 385.995 344.077 385.995 344.784C385.995 348.089 383.914 350.911 380.994 352.008L380.914 352.688C380.82 353.438 380.183 354 379.423 354H368.572C367.817 354 367.175 353.438 367.081 352.688L366.997 352.013C364.081 350.911 362 348.089 362 344.784Z" fill="#146566" fill-opacity="0.05"/>
<path d="M144.719 11C143.218 11 142 12.1758 142 13.625C142 14.4508 142.402 15.2273 143.088 15.725L155.413 24.65C156.058 25.1148 156.942 25.1148 157.588 24.65L169.912 15.725C170.598 15.2273 171 14.4508 171 13.625C171 12.1758 169.782 11 168.281 11H144.719ZM142 17.125V28.5C142 30.4305 143.626 32 145.625 32H167.375C169.374 32 171 30.4305 171 28.5V17.125L158.675 26.05C157.384 26.9852 155.616 26.9852 154.325 26.05L142 17.125Z" fill="#146566" fill-opacity="0.05"/>
<path d="M-7.28125 11C-8.78223 11 -10 12.1758 -10 13.625C-10 14.4508 -9.59785 15.2273 -8.9125 15.725L3.4125 24.65C4.0582 25.1148 4.9418 25.1148 5.5875 24.65L17.9125 15.725C18.5979 15.2273 19 14.4508 19 13.625C19 12.1758 17.7822 11 16.2812 11H-7.28125ZM-10 17.125V28.5C-10 30.4305 -8.37441 32 -6.375 32H15.375C17.3744 32 19 30.4305 19 28.5V17.125L6.675 26.05C5.38359 26.9852 3.61641 26.9852 2.325 26.05L-10 17.125Z" fill="#146566" fill-opacity="0.05"/>
<path d="M-7.28125 103C-8.78223 103 -10 104.176 -10 105.625C-10 106.451 -9.59785 107.227 -8.9125 107.725L3.4125 116.65C4.0582 117.115 4.9418 117.115 5.5875 116.65L17.9125 107.725C18.5979 107.227 19 106.451 19 105.625C19 104.176 17.7822 103 16.2812 103H-7.28125ZM-10 109.125V120.5C-10 122.43 -8.37441 124 -6.375 124H15.375C17.3744 124 19 122.43 19 120.5V109.125L6.675 118.05C5.38359 118.985 3.61641 118.985 2.325 118.05L-10 109.125Z" fill="#146566" fill-opacity="0.05"/>
<path d="M-7.28125 195C-8.78223 195 -10 196.176 -10 197.625C-10 198.451 -9.59785 199.227 -8.9125 199.725L3.4125 208.65C4.0582 209.115 4.9418 209.115 5.5875 208.65L17.9125 199.725C18.5979 199.227 19 198.451 19 197.625C19 196.176 17.7822 195 16.2812 195H-7.28125ZM-10 201.125V212.5C-10 214.43 -8.37441 216 -6.375 216H15.375C17.3744 216 19 214.43 19 212.5V201.125L6.675 210.05C5.38359 210.985 3.61641 210.985 2.325 210.05L-10 201.125Z" fill="#146566" fill-opacity="0.05"/>
<path d="M-7.28125 287C-8.78223 287 -10 288.176 -10 289.625C-10 290.451 -9.59785 291.227 -8.9125 291.725L3.4125 300.65C4.0582 301.115 4.9418 301.115 5.5875 300.65L17.9125 291.725C18.5979 291.227 19 290.451 19 289.625C19 288.176 17.7822 287 16.2812 287H-7.28125ZM-10 293.125V304.5C-10 306.43 -8.37441 308 -6.375 308H15.375C17.3744 308 19 306.43 19 304.5V293.125L6.675 302.05C5.38359 302.985 3.61641 302.985 2.325 302.05L-10 293.125Z" fill="#146566" fill-opacity="0.05"/>
<path d="M-7.28125 379C-8.78223 379 -10 380.176 -10 381.625C-10 382.451 -9.59785 383.227 -8.9125 383.725L3.4125 392.65C4.0582 393.115 4.9418 393.115 5.5875 392.65L17.9125 383.725C18.5979 383.227 19 382.451 19 381.625C19 380.176 17.7822 379 16.2812 379H-7.28125ZM-10 385.125V396.5C-10 398.43 -8.37441 400 -6.375 400H15.375C17.3744 400 19 398.43 19 396.5V385.125L6.675 394.05C5.38359 394.985 3.61641 394.985 2.325 394.05L-10 385.125Z" fill="#146566" fill-opacity="0.05"/>
<path d="M144.719 103C143.218 103 142 104.176 142 105.625C142 106.451 142.402 107.227 143.088 107.725L155.413 116.65C156.058 117.115 156.942 117.115 157.588 116.65L169.912 107.725C170.598 107.227 171 106.451 171 105.625C171 104.176 169.782 103 168.281 103H144.719ZM142 109.125V120.5C142 122.43 143.626 124 145.625 124H167.375C169.374 124 171 122.43 171 120.5V109.125L158.675 118.05C157.384 118.985 155.616 118.985 154.325 118.05L142 109.125Z" fill="#146566" fill-opacity="0.05"/>
<path d="M144.719 195C143.218 195 142 196.176 142 197.625C142 198.451 142.402 199.227 143.088 199.725L155.413 208.65C156.058 209.115 156.942 209.115 157.588 208.65L169.912 199.725C170.598 199.227 171 198.451 171 197.625C171 196.176 169.782 195 168.281 195H144.719ZM142 201.125V212.5C142 214.43 143.626 216 145.625 216H167.375C169.374 216 171 214.43 171 212.5V201.125L158.675 210.05C157.384 210.985 155.616 210.985 154.325 210.05L142 201.125Z" fill="#146566" fill-opacity="0.05"/>
<path d="M144.719 287C143.218 287 142 288.176 142 289.625C142 290.451 142.402 291.227 143.088 291.725L155.413 300.65C156.058 301.115 156.942 301.115 157.588 300.65L169.912 291.725C170.598 291.227 171 290.451 171 289.625C171 288.176 169.782 287 168.281 287H144.719ZM142 293.125V304.5C142 306.43 143.626 308 145.625 308H167.375C169.374 308 171 306.43 171 304.5V293.125L158.675 302.05C157.384 302.985 155.616 302.985 154.325 302.05L142 293.125Z" fill="#146566" fill-opacity="0.05"/>
<path d="M144.719 379C143.218 379 142 380.176 142 381.625C142 382.451 142.402 383.227 143.088 383.725L155.413 392.65C156.058 393.115 156.942 393.115 157.588 392.65L169.912 383.725C170.598 383.227 171 382.451 171 381.625C171 380.176 169.782 379 168.281 379H144.719ZM142 385.125V396.5C142 398.43 143.626 400 145.625 400H167.375C169.374 400 171 398.43 171 396.5V385.125L158.675 394.05C157.384 394.985 155.616 394.985 154.325 394.05L142 385.125Z" fill="#146566" fill-opacity="0.05"/>
<path d="M119.719 57C118.218 57 117 58.1758 117 59.625C117 60.4508 117.402 61.2273 118.088 61.725L130.413 70.65C131.058 71.1148 131.942 71.1148 132.588 70.65L144.912 61.725C145.598 61.2273 146 60.4508 146 59.625C146 58.1758 144.782 57 143.281 57H119.719ZM117 63.125V74.5C117 76.4305 118.626 78 120.625 78H142.375C144.374 78 146 76.4305 146 74.5V63.125L133.675 72.05C132.384 72.9852 130.616 72.9852 129.325 72.05L117 63.125Z" fill="#146566" fill-opacity="0.05"/>
<path d="M119.719 149C118.218 149 117 150.176 117 151.625C117 152.451 117.402 153.227 118.088 153.725L130.413 162.65C131.058 163.115 131.942 163.115 132.588 162.65L144.912 153.725C145.598 153.227 146 152.451 146 151.625C146 150.176 144.782 149 143.281 149H119.719ZM117 155.125V166.5C117 168.43 118.626 170 120.625 170H142.375C144.374 170 146 168.43 146 166.5V155.125L133.675 164.05C132.384 164.985 130.616 164.985 129.325 164.05L117 155.125Z" fill="#146566" fill-opacity="0.05"/>
<path d="M119.719 241C118.218 241 117 242.176 117 243.625C117 244.451 117.402 245.227 118.088 245.725L130.413 254.65C131.058 255.115 131.942 255.115 132.588 254.65L144.912 245.725C145.598 245.227 146 244.451 146 243.625C146 242.176 144.782 241 143.281 241H119.719ZM117 247.125V258.5C117 260.43 118.626 262 120.625 262H142.375C144.374 262 146 260.43 146 258.5V247.125L133.675 256.05C132.384 256.985 130.616 256.985 129.325 256.05L117 247.125Z" fill="#146566" fill-opacity="0.05"/>
<path d="M119.719 333C118.218 333 117 334.176 117 335.625C117 336.451 117.402 337.227 118.088 337.725L130.413 346.65C131.058 347.115 131.942 347.115 132.588 346.65L144.912 337.725C145.598 337.227 146 336.451 146 335.625C146 334.176 144.782 333 143.281 333H119.719ZM117 339.125V350.5C117 352.43 118.626 354 120.625 354H142.375C144.374 354 146 352.43 146 350.5V339.125L133.675 348.05C132.384 348.985 130.616 348.985 129.325 348.05L117 339.125Z" fill="#146566" fill-opacity="0.05"/>
<path d="M438.719 11C437.218 11 436 12.1758 436 13.625C436 14.4508 436.402 15.2273 437.088 15.725L449.413 24.65C450.058 25.1148 450.942 25.1148 451.588 24.65L463.912 15.725C464.598 15.2273 465 14.4508 465 13.625C465 12.1758 463.782 11 462.281 11H438.719ZM436 17.125V28.5C436 30.4305 437.626 32 439.625 32H461.375C463.374 32 465 30.4305 465 28.5V17.125L452.675 26.05C451.384 26.9852 449.616 26.9852 448.325 26.05L436 17.125Z" fill="#146566" fill-opacity="0.05"/>
<path d="M438.719 103C437.218 103 436 104.176 436 105.625C436 106.451 436.402 107.227 437.088 107.725L449.413 116.65C450.058 117.115 450.942 117.115 451.588 116.65L463.912 107.725C464.598 107.227 465 106.451 465 105.625C465 104.176 463.782 103 462.281 103H438.719ZM436 109.125V120.5C436 122.43 437.626 124 439.625 124H461.375C463.374 124 465 122.43 465 120.5V109.125L452.675 118.05C451.384 118.985 449.616 118.985 448.325 118.05L436 109.125Z" fill="#146566" fill-opacity="0.05"/>
<path d="M438.719 195C437.218 195 436 196.176 436 197.625C436 198.451 436.402 199.227 437.088 199.725L449.413 208.65C450.058 209.115 450.942 209.115 451.588 208.65L463.912 199.725C464.598 199.227 465 198.451 465 197.625C465 196.176 463.782 195 462.281 195H438.719ZM436 201.125V212.5C436 214.43 437.626 216 439.625 216H461.375C463.374 216 465 214.43 465 212.5V201.125L452.675 210.05C451.384 210.985 449.616 210.985 448.325 210.05L436 201.125Z" fill="#146566" fill-opacity="0.05"/>
<path d="M438.719 287C437.218 287 436 288.176 436 289.625C436 290.451 436.402 291.227 437.088 291.725L449.413 300.65C450.058 301.115 450.942 301.115 451.588 300.65L463.912 291.725C464.598 291.227 465 290.451 465 289.625C465 288.176 463.782 287 462.281 287H438.719ZM436 293.125V304.5C436 306.43 437.626 308 439.625 308H461.375C463.374 308 465 306.43 465 304.5V293.125L452.675 302.05C451.384 302.985 449.616 302.985 448.325 302.05L436 293.125Z" fill="#146566" fill-opacity="0.05"/>
<path d="M438.719 379C437.218 379 436 380.176 436 381.625C436 382.451 436.402 383.227 437.088 383.725L449.413 392.65C450.058 393.115 450.942 393.115 451.588 392.65L463.912 383.725C464.598 383.227 465 382.451 465 381.625C465 380.176 463.782 379 462.281 379H438.719ZM436 385.125V396.5C436 398.43 437.626 400 439.625 400H461.375C463.374 400 465 398.43 465 396.5V385.125L452.675 394.05C451.384 394.985 449.616 394.985 448.325 394.05L436 385.125Z" fill="#146566" fill-opacity="0.05"/>
<path d="M413.719 57C412.218 57 411 58.1758 411 59.625C411 60.4508 411.402 61.2273 412.088 61.725L424.413 70.65C425.058 71.1148 425.942 71.1148 426.588 70.65L438.912 61.725C439.598 61.2273 440 60.4508 440 59.625C440 58.1758 438.782 57 437.281 57H413.719ZM411 63.125V74.5C411 76.4305 412.626 78 414.625 78H436.375C438.374 78 440 76.4305 440 74.5V63.125L427.675 72.05C426.384 72.9852 424.616 72.9852 423.325 72.05L411 63.125Z" fill="#146566" fill-opacity="0.05"/>
<path d="M413.719 149C412.218 149 411 150.176 411 151.625C411 152.451 411.402 153.227 412.088 153.725L424.413 162.65C425.058 163.115 425.942 163.115 426.588 162.65L438.912 153.725C439.598 153.227 440 152.451 440 151.625C440 150.176 438.782 149 437.281 149H413.719ZM411 155.125V166.5C411 168.43 412.626 170 414.625 170H436.375C438.374 170 440 168.43 440 166.5V155.125L427.675 164.05C426.384 164.985 424.616 164.985 423.325 164.05L411 155.125Z" fill="#146566" fill-opacity="0.05"/>
<path d="M413.719 241C412.218 241 411 242.176 411 243.625C411 244.451 411.402 245.227 412.088 245.725L424.413 254.65C425.058 255.115 425.942 255.115 426.588 254.65L438.912 245.725C439.598 245.227 440 244.451 440 243.625C440 242.176 438.782 241 437.281 241H413.719ZM411 247.125V258.5C411 260.43 412.626 262 414.625 262H436.375C438.374 262 440 260.43 440 258.5V247.125L427.675 256.05C426.384 256.985 424.616 256.985 423.325 256.05L411 247.125Z" fill="#146566" fill-opacity="0.05"/>
<path d="M413.719 333C412.218 333 411 334.176 411 335.625C411 336.451 411.402 337.227 412.088 337.725L424.413 346.65C425.058 347.115 425.942 347.115 426.588 346.65L438.912 337.725C439.598 337.227 440 336.451 440 335.625C440 334.176 438.782 333 437.281 333H413.719ZM411 339.125V350.5C411 352.43 412.626 354 414.625 354H436.375C438.374 354 440 352.43 440 350.5V339.125L427.675 348.05C426.384 348.985 424.616 348.985 423.325 348.05L411 339.125Z" fill="#146566" fill-opacity="0.05"/>
<path d="M196.175 12.0735C196.472 11.4172 197.1 11 197.797 11H217.205C217.902 11 218.531 11.4172 218.827 12.0735C219.124 12.7297 219.034 13.5032 218.594 14.0657L210.376 24.5426V30.5006C210.376 31.0678 210.071 31.5881 209.581 31.8413C209.092 32.0944 208.512 32.0428 208.076 31.7006L205.201 29.4506C204.837 29.1693 204.626 28.724 204.626 28.2505V24.5426L196.404 14.061C195.968 13.5032 195.874 12.7251 196.175 12.0735Z" fill="#146566" fill-opacity="0.05"/>
<path d="M196.175 104.073C196.472 103.417 197.1 103 197.797 103H217.205C217.902 103 218.531 103.417 218.827 104.073C219.124 104.73 219.034 105.503 218.594 106.066L210.376 116.543V122.501C210.376 123.068 210.071 123.588 209.581 123.841C209.092 124.094 208.512 124.043 208.076 123.701L205.201 121.451C204.837 121.169 204.626 120.724 204.626 120.251V116.543L196.404 106.061C195.968 105.503 195.874 104.725 196.175 104.073Z" fill="#146566" fill-opacity="0.05"/>
<path d="M196.175 196.073C196.472 195.417 197.1 195 197.797 195H217.205C217.902 195 218.531 195.417 218.827 196.073C219.124 196.73 219.034 197.503 218.594 198.066L210.376 208.543V214.501C210.376 215.068 210.071 215.588 209.581 215.841C209.092 216.094 208.512 216.043 208.076 215.701L205.201 213.451C204.837 213.169 204.626 212.724 204.626 212.251V208.543L196.404 198.061C195.968 197.503 195.874 196.725 196.175 196.073Z" fill="#146566" fill-opacity="0.05"/>
<path d="M196.175 288.073C196.472 287.417 197.1 287 197.797 287H217.205C217.902 287 218.531 287.417 218.827 288.073C219.124 288.73 219.034 289.503 218.594 290.066L210.376 300.543V306.501C210.376 307.068 210.071 307.588 209.581 307.841C209.092 308.094 208.512 308.043 208.076 307.701L205.201 305.451C204.837 305.169 204.626 304.724 204.626 304.251V300.543L196.404 290.061C195.968 289.503 195.874 288.725 196.175 288.073Z" fill="#146566" fill-opacity="0.05"/>
<path d="M196.175 380.073C196.472 379.417 197.1 379 197.797 379H217.205C217.902 379 218.531 379.417 218.827 380.073C219.124 380.73 219.034 381.503 218.594 382.066L210.376 392.543V398.501C210.376 399.068 210.071 399.588 209.581 399.841C209.092 400.094 208.512 400.043 208.076 399.701L205.201 397.451C204.837 397.169 204.626 396.724 204.626 396.251V392.543L196.404 382.061C195.968 381.503 195.874 380.725 196.175 380.073Z" fill="#146566" fill-opacity="0.05"/>
<path d="M171.175 58.0735C171.472 57.4172 172.1 57 172.797 57H192.205C192.902 57 193.531 57.4172 193.827 58.0735C194.124 58.7297 194.034 59.5032 193.594 60.0657L185.376 70.5426V76.5006C185.376 77.0678 185.071 77.5881 184.581 77.8413C184.092 78.0944 183.512 78.0428 183.076 77.7006L180.201 75.4506C179.837 75.1693 179.626 74.724 179.626 74.2505V70.5426L171.404 60.061C170.968 59.5032 170.874 58.7251 171.175 58.0735Z" fill="#146566" fill-opacity="0.05"/>
<path d="M171.175 150.073C171.472 149.417 172.1 149 172.797 149H192.205C192.902 149 193.531 149.417 193.827 150.073C194.124 150.73 194.034 151.503 193.594 152.066L185.376 162.543V168.501C185.376 169.068 185.071 169.588 184.581 169.841C184.092 170.094 183.512 170.043 183.076 169.701L180.201 167.451C179.837 167.169 179.626 166.724 179.626 166.251V162.543L171.404 152.061C170.968 151.503 170.874 150.725 171.175 150.073Z" fill="#146566" fill-opacity="0.05"/>
<path d="M171.175 242.073C171.472 241.417 172.1 241 172.797 241H192.205C192.902 241 193.531 241.417 193.827 242.073C194.124 242.73 194.034 243.503 193.594 244.066L185.376 254.543V260.501C185.376 261.068 185.071 261.588 184.581 261.841C184.092 262.094 183.512 262.043 183.076 261.701L180.201 259.451C179.837 259.169 179.626 258.724 179.626 258.251V254.543L171.404 244.061C170.968 243.503 170.874 242.725 171.175 242.073Z" fill="#146566" fill-opacity="0.05"/>
<path d="M171.175 334.073C171.472 333.417 172.1 333 172.797 333H192.205C192.902 333 193.531 333.417 193.827 334.073C194.124 334.73 194.034 335.503 193.594 336.066L185.376 346.543V352.501C185.376 353.068 185.071 353.588 184.581 353.841C184.092 354.094 183.512 354.043 183.076 353.701L180.201 351.451C179.837 351.169 179.626 350.724 179.626 350.251V346.543L171.404 336.061C170.968 335.503 170.874 334.725 171.175 334.073Z" fill="#146566" fill-opacity="0.05"/>
<path d="M490.175 12.0735C490.472 11.4172 491.1 11 491.797 11H511.205C511.902 11 512.531 11.4172 512.827 12.0735C513.124 12.7297 513.034 13.5032 512.594 14.0657L504.376 24.5426V30.5006C504.376 31.0678 504.071 31.5881 503.581 31.8413C503.092 32.0944 502.512 32.0428 502.076 31.7006L499.201 29.4506C498.837 29.1693 498.626 28.724 498.626 28.2505V24.5426L490.404 14.061C489.968 13.5032 489.874 12.7251 490.175 12.0735Z" fill="#146566" fill-opacity="0.05"/>
<path d="M490.175 104.073C490.472 103.417 491.1 103 491.797 103H511.205C511.902 103 512.531 103.417 512.827 104.073C513.124 104.73 513.034 105.503 512.594 106.066L504.376 116.543V122.501C504.376 123.068 504.071 123.588 503.581 123.841C503.092 124.094 502.512 124.043 502.076 123.701L499.201 121.451C498.837 121.169 498.626 120.724 498.626 120.251V116.543L490.404 106.061C489.968 105.503 489.874 104.725 490.175 104.073Z" fill="#146566" fill-opacity="0.05"/>
<path d="M490.175 196.073C490.472 195.417 491.1 195 491.797 195H511.205C511.902 195 512.531 195.417 512.827 196.073C513.124 196.73 513.034 197.503 512.594 198.066L504.376 208.543V214.501C504.376 215.068 504.071 215.588 503.581 215.841C503.092 216.094 502.512 216.043 502.076 215.701L499.201 213.451C498.837 213.169 498.626 212.724 498.626 212.251V208.543L490.404 198.061C489.968 197.503 489.874 196.725 490.175 196.073Z" fill="#146566" fill-opacity="0.05"/>
<path d="M490.175 288.073C490.472 287.417 491.1 287 491.797 287H511.205C511.902 287 512.531 287.417 512.827 288.073C513.124 288.73 513.034 289.503 512.594 290.066L504.376 300.543V306.501C504.376 307.068 504.071 307.588 503.581 307.841C503.092 308.094 502.512 308.043 502.076 307.701L499.201 305.451C498.837 305.169 498.626 304.724 498.626 304.251V300.543L490.404 290.061C489.968 289.503 489.874 288.725 490.175 288.073Z" fill="#146566" fill-opacity="0.05"/>
<path d="M490.175 380.073C490.472 379.417 491.1 379 491.797 379H511.205C511.902 379 512.531 379.417 512.827 380.073C513.124 380.73 513.034 381.503 512.594 382.066L504.376 392.543V398.501C504.376 399.068 504.071 399.588 503.581 399.841C503.092 400.094 502.512 400.043 502.076 399.701L499.201 397.451C498.837 397.169 498.626 396.724 498.626 396.251V392.543L490.404 382.061C489.968 381.503 489.874 380.725 490.175 380.073Z" fill="#146566" fill-opacity="0.05"/>
<path d="M465.175 58.0735C465.472 57.4172 466.1 57 466.797 57H486.205C486.902 57 487.531 57.4172 487.827 58.0735C488.124 58.7297 488.034 59.5032 487.594 60.0657L479.376 70.5426V76.5006C479.376 77.0678 479.071 77.5881 478.581 77.8413C478.092 78.0944 477.512 78.0428 477.076 77.7006L474.201 75.4506C473.837 75.1693 473.626 74.724 473.626 74.2505V70.5426L465.404 60.061C464.968 59.5032 464.874 58.7251 465.175 58.0735Z" fill="#146566" fill-opacity="0.05"/>
<path d="M465.175 150.073C465.472 149.417 466.1 149 466.797 149H486.205C486.902 149 487.531 149.417 487.827 150.073C488.124 150.73 488.034 151.503 487.594 152.066L479.376 162.543V168.501C479.376 169.068 479.071 169.588 478.581 169.841C478.092 170.094 477.512 170.043 477.076 169.701L474.201 167.451C473.837 167.169 473.626 166.724 473.626 166.251V162.543L465.404 152.061C464.968 151.503 464.874 150.725 465.175 150.073Z" fill="#146566" fill-opacity="0.05"/>
<path d="M465.175 242.073C465.472 241.417 466.1 241 466.797 241H486.205C486.902 241 487.531 241.417 487.827 242.073C488.124 242.73 488.034 243.503 487.594 244.066L479.376 254.543V260.501C479.376 261.068 479.071 261.588 478.581 261.841C478.092 262.094 477.512 262.043 477.076 261.701L474.201 259.451C473.837 259.169 473.626 258.724 473.626 258.251V254.543L465.404 244.061C464.968 243.503 464.874 242.725 465.175 242.073Z" fill="#146566" fill-opacity="0.05"/>
<path d="M465.175 334.073C465.472 333.417 466.1 333 466.797 333H486.205C486.902 333 487.531 333.417 487.827 334.073C488.124 334.73 488.034 335.503 487.594 336.066L479.376 346.543V352.501C479.376 353.068 479.071 353.588 478.581 353.841C478.092 354.094 477.512 354.043 477.076 353.701L474.201 351.451C473.837 351.169 473.626 350.724 473.626 350.251V346.543L465.404 336.061C464.968 335.503 464.874 334.725 465.175 334.073Z" fill="#146566" fill-opacity="0.05"/>
<path d="M251.219 13.45V15.2H257.781V13.45C257.781 13.2575 257.634 13.1 257.453 13.1H251.547C251.366 13.1 251.219 13.2575 251.219 13.45ZM249.25 15.2V13.45C249.25 12.0981 250.279 11 251.547 11H257.453C258.721 11 259.75 12.0981 259.75 13.45V15.2V16.6V32H249.25V16.6V15.2ZM246.625 15.2H247.938V32H246.625C245.177 32 244 30.7444 244 29.2V18C244 16.4556 245.177 15.2 246.625 15.2ZM262.375 32H261.062V15.2H262.375C263.823 15.2 265 16.4556 265 18V29.2C265 30.7444 263.823 32 262.375 32Z" fill="#146566" fill-opacity="0.05"/>
<path d="M251.219 105.45V107.2H257.781V105.45C257.781 105.257 257.634 105.1 257.453 105.1H251.547C251.366 105.1 251.219 105.257 251.219 105.45ZM249.25 107.2V105.45C249.25 104.098 250.279 103 251.547 103H257.453C258.721 103 259.75 104.098 259.75 105.45V107.2V108.6V124H249.25V108.6V107.2ZM246.625 107.2H247.938V124H246.625C245.177 124 244 122.744 244 121.2V110C244 108.456 245.177 107.2 246.625 107.2ZM262.375 124H261.062V107.2H262.375C263.823 107.2 265 108.456 265 110V121.2C265 122.744 263.823 124 262.375 124Z" fill="#146566" fill-opacity="0.05"/>
<path d="M251.219 197.45V199.2H257.781V197.45C257.781 197.257 257.634 197.1 257.453 197.1H251.547C251.366 197.1 251.219 197.257 251.219 197.45ZM249.25 199.2V197.45C249.25 196.098 250.279 195 251.547 195H257.453C258.721 195 259.75 196.098 259.75 197.45V199.2V200.6V216H249.25V200.6V199.2ZM246.625 199.2H247.938V216H246.625C245.177 216 244 214.744 244 213.2V202C244 200.456 245.177 199.2 246.625 199.2ZM262.375 216H261.062V199.2H262.375C263.823 199.2 265 200.456 265 202V213.2C265 214.744 263.823 216 262.375 216Z" fill="#146566" fill-opacity="0.05"/>
<path d="M251.219 289.45V291.2H257.781V289.45C257.781 289.257 257.634 289.1 257.453 289.1H251.547C251.366 289.1 251.219 289.257 251.219 289.45ZM249.25 291.2V289.45C249.25 288.098 250.279 287 251.547 287H257.453C258.721 287 259.75 288.098 259.75 289.45V291.2V292.6V308H249.25V292.6V291.2ZM246.625 291.2H247.938V308H246.625C245.177 308 244 306.744 244 305.2V294C244 292.456 245.177 291.2 246.625 291.2ZM262.375 308H261.062V291.2H262.375C263.823 291.2 265 292.456 265 294V305.2C265 306.744 263.823 308 262.375 308Z" fill="#146566" fill-opacity="0.05"/>
<path d="M251.219 381.45V383.2H257.781V381.45C257.781 381.257 257.634 381.1 257.453 381.1H251.547C251.366 381.1 251.219 381.257 251.219 381.45ZM249.25 383.2V381.45C249.25 380.098 250.279 379 251.547 379H257.453C258.721 379 259.75 380.098 259.75 381.45V383.2V384.6V400H249.25V384.6V383.2ZM246.625 383.2H247.938V400H246.625C245.177 400 244 398.744 244 397.2V386C244 384.456 245.177 383.2 246.625 383.2ZM262.375 400H261.062V383.2H262.375C263.823 383.2 265 384.456 265 386V397.2C265 398.744 263.823 400 262.375 400Z" fill="#146566" fill-opacity="0.05"/>
<path d="M226.219 59.45V61.2H232.781V59.45C232.781 59.2575 232.634 59.1 232.453 59.1H226.547C226.366 59.1 226.219 59.2575 226.219 59.45ZM224.25 61.2V59.45C224.25 58.0981 225.279 57 226.547 57H232.453C233.721 57 234.75 58.0981 234.75 59.45V61.2V62.6V78H224.25V62.6V61.2ZM221.625 61.2H222.938V78H221.625C220.177 78 219 76.7444 219 75.2V64C219 62.4556 220.177 61.2 221.625 61.2ZM237.375 78H236.062V61.2H237.375C238.823 61.2 240 62.4556 240 64V75.2C240 76.7444 238.823 78 237.375 78Z" fill="#146566" fill-opacity="0.05"/>
<path d="M226.219 151.45V153.2H232.781V151.45C232.781 151.257 232.634 151.1 232.453 151.1H226.547C226.366 151.1 226.219 151.257 226.219 151.45ZM224.25 153.2V151.45C224.25 150.098 225.279 149 226.547 149H232.453C233.721 149 234.75 150.098 234.75 151.45V153.2V154.6V170H224.25V154.6V153.2ZM221.625 153.2H222.938V170H221.625C220.177 170 219 168.744 219 167.2V156C219 154.456 220.177 153.2 221.625 153.2ZM237.375 170H236.062V153.2H237.375C238.823 153.2 240 154.456 240 156V167.2C240 168.744 238.823 170 237.375 170Z" fill="#146566" fill-opacity="0.05"/>
<path d="M226.219 243.45V245.2H232.781V243.45C232.781 243.257 232.634 243.1 232.453 243.1H226.547C226.366 243.1 226.219 243.257 226.219 243.45ZM224.25 245.2V243.45C224.25 242.098 225.279 241 226.547 241H232.453C233.721 241 234.75 242.098 234.75 243.45V245.2V246.6V262H224.25V246.6V245.2ZM221.625 245.2H222.938V262H221.625C220.177 262 219 260.744 219 259.2V248C219 246.456 220.177 245.2 221.625 245.2ZM237.375 262H236.062V245.2H237.375C238.823 245.2 240 246.456 240 248V259.2C240 260.744 238.823 262 237.375 262Z" fill="#146566" fill-opacity="0.05"/>
<path d="M226.219 335.45V337.2H232.781V335.45C232.781 335.257 232.634 335.1 232.453 335.1H226.547C226.366 335.1 226.219 335.257 226.219 335.45ZM224.25 337.2V335.45C224.25 334.098 225.279 333 226.547 333H232.453C233.721 333 234.75 334.098 234.75 335.45V337.2V338.6V354H224.25V338.6V337.2ZM221.625 337.2H222.938V354H221.625C220.177 354 219 352.744 219 351.2V340C219 338.456 220.177 337.2 221.625 337.2ZM237.375 354H236.062V337.2H237.375C238.823 337.2 240 338.456 240 340V351.2C240 352.744 238.823 354 237.375 354Z" fill="#146566" fill-opacity="0.05"/>
<path d="M545.219 13.45V15.2H551.781V13.45C551.781 13.2575 551.634 13.1 551.453 13.1H545.547C545.366 13.1 545.219 13.2575 545.219 13.45ZM543.25 15.2V13.45C543.25 12.0981 544.279 11 545.547 11H551.453C552.721 11 553.75 12.0981 553.75 13.45V15.2V16.6V32H543.25V16.6V15.2ZM540.625 15.2H541.938V32H540.625C539.177 32 538 30.7444 538 29.2V18C538 16.4556 539.177 15.2 540.625 15.2ZM556.375 32H555.062V15.2H556.375C557.823 15.2 559 16.4556 559 18V29.2C559 30.7444 557.823 32 556.375 32Z" fill="#146566" fill-opacity="0.05"/>
<path d="M545.219 105.45V107.2H551.781V105.45C551.781 105.257 551.634 105.1 551.453 105.1H545.547C545.366 105.1 545.219 105.257 545.219 105.45ZM543.25 107.2V105.45C543.25 104.098 544.279 103 545.547 103H551.453C552.721 103 553.75 104.098 553.75 105.45V107.2V108.6V124H543.25V108.6V107.2ZM540.625 107.2H541.938V124H540.625C539.177 124 538 122.744 538 121.2V110C538 108.456 539.177 107.2 540.625 107.2ZM556.375 124H555.062V107.2H556.375C557.823 107.2 559 108.456 559 110V121.2C559 122.744 557.823 124 556.375 124Z" fill="#146566" fill-opacity="0.05"/>
<path d="M545.219 197.45V199.2H551.781V197.45C551.781 197.257 551.634 197.1 551.453 197.1H545.547C545.366 197.1 545.219 197.257 545.219 197.45ZM543.25 199.2V197.45C543.25 196.098 544.279 195 545.547 195H551.453C552.721 195 553.75 196.098 553.75 197.45V199.2V200.6V216H543.25V200.6V199.2ZM540.625 199.2H541.938V216H540.625C539.177 216 538 214.744 538 213.2V202C538 200.456 539.177 199.2 540.625 199.2ZM556.375 216H555.062V199.2H556.375C557.823 199.2 559 200.456 559 202V213.2C559 214.744 557.823 216 556.375 216Z" fill="#146566" fill-opacity="0.05"/>
<path d="M545.219 289.45V291.2H551.781V289.45C551.781 289.257 551.634 289.1 551.453 289.1H545.547C545.366 289.1 545.219 289.257 545.219 289.45ZM543.25 291.2V289.45C543.25 288.098 544.279 287 545.547 287H551.453C552.721 287 553.75 288.098 553.75 289.45V291.2V292.6V308H543.25V292.6V291.2ZM540.625 291.2H541.938V308H540.625C539.177 308 538 306.744 538 305.2V294C538 292.456 539.177 291.2 540.625 291.2ZM556.375 308H555.062V291.2H556.375C557.823 291.2 559 292.456 559 294V305.2C559 306.744 557.823 308 556.375 308Z" fill="#146566" fill-opacity="0.05"/>
<path d="M545.219 381.45V383.2H551.781V381.45C551.781 381.257 551.634 381.1 551.453 381.1H545.547C545.366 381.1 545.219 381.257 545.219 381.45ZM543.25 383.2V381.45C543.25 380.098 544.279 379 545.547 379H551.453C552.721 379 553.75 380.098 553.75 381.45V383.2V384.6V400H543.25V384.6V383.2ZM540.625 383.2H541.938V400H540.625C539.177 400 538 398.744 538 397.2V386C538 384.456 539.177 383.2 540.625 383.2ZM556.375 400H555.062V383.2H556.375C557.823 383.2 559 384.456 559 386V397.2C559 398.744 557.823 400 556.375 400Z" fill="#146566" fill-opacity="0.05"/>
<path d="M520.219 59.45V61.2H526.781V59.45C526.781 59.2575 526.634 59.1 526.453 59.1H520.547C520.366 59.1 520.219 59.2575 520.219 59.45ZM518.25 61.2V59.45C518.25 58.0981 519.279 57 520.547 57H526.453C527.721 57 528.75 58.0981 528.75 59.45V61.2V62.6V78H518.25V62.6V61.2ZM515.625 61.2H516.938V78H515.625C514.177 78 513 76.7444 513 75.2V64C513 62.4556 514.177 61.2 515.625 61.2ZM531.375 78H530.062V61.2H531.375C532.823 61.2 534 62.4556 534 64V75.2C534 76.7444 532.823 78 531.375 78Z" fill="#146566" fill-opacity="0.05"/>
<path d="M664.219 59.45V61.2H670.781V59.45C670.781 59.2575 670.634 59.1 670.453 59.1H664.547C664.366 59.1 664.219 59.2575 664.219 59.45ZM662.25 61.2V59.45C662.25 58.0981 663.279 57 664.547 57H670.453C671.721 57 672.75 58.0981 672.75 59.45V61.2V62.6V78H662.25V62.6V61.2ZM659.625 61.2H660.938V78H659.625C658.177 78 657 76.7444 657 75.2V64C657 62.4556 658.177 61.2 659.625 61.2ZM675.375 78H674.062V61.2H675.375C676.823 61.2 678 62.4556 678 64V75.2C678 76.7444 676.823 78 675.375 78Z" fill="#146566" fill-opacity="0.05"/>
<path d="M664.219 151.45V153.2H670.781V151.45C670.781 151.257 670.634 151.1 670.453 151.1H664.547C664.366 151.1 664.219 151.257 664.219 151.45ZM662.25 153.2V151.45C662.25 150.098 663.279 149 664.547 149H670.453C671.721 149 672.75 150.098 672.75 151.45V153.2V154.6V170H662.25V154.6V153.2ZM659.625 153.2H660.938V170H659.625C658.177 170 657 168.744 657 167.2V156C657 154.456 658.177 153.2 659.625 153.2ZM675.375 170H674.062V153.2H675.375C676.823 153.2 678 154.456 678 156V167.2C678 168.744 676.823 170 675.375 170Z" fill="#146566" fill-opacity="0.05"/>
<path d="M664.219 243.45V245.2H670.781V243.45C670.781 243.257 670.634 243.1 670.453 243.1H664.547C664.366 243.1 664.219 243.257 664.219 243.45ZM662.25 245.2V243.45C662.25 242.098 663.279 241 664.547 241H670.453C671.721 241 672.75 242.098 672.75 243.45V245.2V246.6V262H662.25V246.6V245.2ZM659.625 245.2H660.938V262H659.625C658.177 262 657 260.744 657 259.2V248C657 246.456 658.177 245.2 659.625 245.2ZM675.375 262H674.062V245.2H675.375C676.823 245.2 678 246.456 678 248V259.2C678 260.744 676.823 262 675.375 262Z" fill="#146566" fill-opacity="0.05"/>
<path d="M664.219 335.45V337.2H670.781V335.45C670.781 335.257 670.634 335.1 670.453 335.1H664.547C664.366 335.1 664.219 335.257 664.219 335.45ZM662.25 337.2V335.45C662.25 334.098 663.279 333 664.547 333H670.453C671.721 333 672.75 334.098 672.75 335.45V337.2V338.6V354H662.25V338.6V337.2ZM659.625 337.2H660.938V354H659.625C658.177 354 657 352.744 657 351.2V340C657 338.456 658.177 337.2 659.625 337.2ZM675.375 354H674.062V337.2H675.375C676.823 337.2 678 338.456 678 340V351.2C678 352.744 676.823 354 675.375 354Z" fill="#146566" fill-opacity="0.05"/>
<path d="M520.219 151.45V153.2H526.781V151.45C526.781 151.257 526.634 151.1 526.453 151.1H520.547C520.366 151.1 520.219 151.257 520.219 151.45ZM518.25 153.2V151.45C518.25 150.098 519.279 149 520.547 149H526.453C527.721 149 528.75 150.098 528.75 151.45V153.2V154.6V170H518.25V154.6V153.2ZM515.625 153.2H516.938V170H515.625C514.177 170 513 168.744 513 167.2V156C513 154.456 514.177 153.2 515.625 153.2ZM531.375 170H530.062V153.2H531.375C532.823 153.2 534 154.456 534 156V167.2C534 168.744 532.823 170 531.375 170Z" fill="#146566" fill-opacity="0.05"/>
<path d="M520.219 243.45V245.2H526.781V243.45C526.781 243.257 526.634 243.1 526.453 243.1H520.547C520.366 243.1 520.219 243.257 520.219 243.45ZM518.25 245.2V243.45C518.25 242.098 519.279 241 520.547 241H526.453C527.721 241 528.75 242.098 528.75 243.45V245.2V246.6V262H518.25V246.6V245.2ZM515.625 245.2H516.938V262H515.625C514.177 262 513 260.744 513 259.2V248C513 246.456 514.177 245.2 515.625 245.2ZM531.375 262H530.062V245.2H531.375C532.823 245.2 534 246.456 534 248V259.2C534 260.744 532.823 262 531.375 262Z" fill="#146566" fill-opacity="0.05"/>
<path d="M520.219 335.45V337.2H526.781V335.45C526.781 335.257 526.634 335.1 526.453 335.1H520.547C520.366 335.1 520.219 335.257 520.219 335.45ZM518.25 337.2V335.45C518.25 334.098 519.279 333 520.547 333H526.453C527.721 333 528.75 334.098 528.75 335.45V337.2V338.6V354H518.25V338.6V337.2ZM515.625 337.2H516.938V354H515.625C514.177 354 513 352.744 513 351.2V340C513 338.456 514.177 337.2 515.625 337.2ZM531.375 354H530.062V337.2H531.375C532.823 337.2 534 338.456 534 340V351.2C534 352.744 532.823 354 531.375 354Z" fill="#146566" fill-opacity="0.05"/>
<path d="M312.994 21.4774C312.994 22.2156 312.395 22.7938 311.716 22.7938H310.438L310.466 29.3632C310.466 29.4739 310.458 29.5847 310.446 29.6954V30.3597C310.446 31.266 309.731 32 308.848 32H308.209C308.165 32 308.121 32 308.077 31.9959C308.021 32 307.965 32 307.909 32L306.611 31.9959H305.653C304.77 31.9959 304.055 31.2619 304.055 30.3556V29.3714V26.7469C304.055 26.0211 303.484 25.4347 302.777 25.4347H300.221C299.514 25.4347 298.943 26.0211 298.943 26.7469V29.3714V30.3556C298.943 31.2619 298.228 31.9959 297.345 31.9959H296.387H295.112C295.053 31.9959 294.993 31.9918 294.933 31.9877C294.885 31.9918 294.837 31.9959 294.789 31.9959H294.15C293.267 31.9959 292.552 31.2619 292.552 30.3556V25.7627C292.552 25.7258 292.552 25.6848 292.556 25.6479V22.7897H291.278C290.559 22.7897 290 22.2156 290 21.4733C290 21.1043 290.12 20.7762 290.399 20.4892L300.636 11.3281C300.916 11.041 301.235 11 301.515 11C301.795 11 302.114 11.082 302.354 11.2871L312.555 20.4933C312.874 20.7803 313.034 21.1084 312.994 21.4774Z" fill="#146566" fill-opacity="0.05"/>
<path d="M312.994 113.477C312.994 114.216 312.395 114.794 311.716 114.794H310.438L310.466 121.363C310.466 121.474 310.458 121.585 310.446 121.695V122.36C310.446 123.266 309.731 124 308.848 124H308.209C308.165 124 308.121 124 308.077 123.996C308.021 124 307.965 124 307.909 124L306.611 123.996H305.653C304.77 123.996 304.055 123.262 304.055 122.356V121.371V118.747C304.055 118.021 303.484 117.435 302.777 117.435H300.221C299.514 117.435 298.943 118.021 298.943 118.747V121.371V122.356C298.943 123.262 298.228 123.996 297.345 123.996H296.387H295.112C295.053 123.996 294.993 123.992 294.933 123.988C294.885 123.992 294.837 123.996 294.789 123.996H294.15C293.267 123.996 292.552 123.262 292.552 122.356V117.763C292.552 117.726 292.552 117.685 292.556 117.648V114.79H291.278C290.559 114.79 290 114.216 290 113.473C290 113.104 290.12 112.776 290.399 112.489L300.636 103.328C300.916 103.041 301.235 103 301.515 103C301.795 103 302.114 103.082 302.354 103.287L312.555 112.493C312.874 112.78 313.034 113.108 312.994 113.477Z" fill="#146566" fill-opacity="0.05"/>
<path d="M312.994 205.477C312.994 206.216 312.395 206.794 311.716 206.794H310.438L310.466 213.363C310.466 213.474 310.458 213.585 310.446 213.695V214.36C310.446 215.266 309.731 216 308.848 216H308.209C308.165 216 308.121 216 308.077 215.996C308.021 216 307.965 216 307.909 216L306.611 215.996H305.653C304.77 215.996 304.055 215.262 304.055 214.356V213.371V210.747C304.055 210.021 303.484 209.435 302.777 209.435H300.221C299.514 209.435 298.943 210.021 298.943 210.747V213.371V214.356C298.943 215.262 298.228 215.996 297.345 215.996H296.387H295.112C295.053 215.996 294.993 215.992 294.933 215.988C294.885 215.992 294.837 215.996 294.789 215.996H294.15C293.267 215.996 292.552 215.262 292.552 214.356V209.763C292.552 209.726 292.552 209.685 292.556 209.648V206.79H291.278C290.559 206.79 290 206.216 290 205.473C290 205.104 290.12 204.776 290.399 204.489L300.636 195.328C300.916 195.041 301.235 195 301.515 195C301.795 195 302.114 195.082 302.354 195.287L312.555 204.493C312.874 204.78 313.034 205.108 312.994 205.477Z" fill="#146566" fill-opacity="0.05"/>
<path d="M312.994 297.477C312.994 298.216 312.395 298.794 311.716 298.794H310.438L310.466 305.363C310.466 305.474 310.458 305.585 310.446 305.695V306.36C310.446 307.266 309.731 308 308.848 308H308.209C308.165 308 308.121 308 308.077 307.996C308.021 308 307.965 308 307.909 308L306.611 307.996H305.653C304.77 307.996 304.055 307.262 304.055 306.356V305.371V302.747C304.055 302.021 303.484 301.435 302.777 301.435H300.221C299.514 301.435 298.943 302.021 298.943 302.747V305.371V306.356C298.943 307.262 298.228 307.996 297.345 307.996H296.387H295.112C295.053 307.996 294.993 307.992 294.933 307.988C294.885 307.992 294.837 307.996 294.789 307.996H294.15C293.267 307.996 292.552 307.262 292.552 306.356V301.763C292.552 301.726 292.552 301.685 292.556 301.648V298.79H291.278C290.559 298.79 290 298.216 290 297.473C290 297.104 290.12 296.776 290.399 296.489L300.636 287.328C300.916 287.041 301.235 287 301.515 287C301.795 287 302.114 287.082 302.354 287.287L312.555 296.493C312.874 296.78 313.034 297.108 312.994 297.477Z" fill="#146566" fill-opacity="0.05"/>
<path d="M312.994 389.477C312.994 390.216 312.395 390.794 311.716 390.794H310.438L310.466 397.363C310.466 397.474 310.458 397.585 310.446 397.695V398.36C310.446 399.266 309.731 400 308.848 400H308.209C308.165 400 308.121 400 308.077 399.996C308.021 400 307.965 400 307.909 400L306.611 399.996H305.653C304.77 399.996 304.055 399.262 304.055 398.356V397.371V394.747C304.055 394.021 303.484 393.435 302.777 393.435H300.221C299.514 393.435 298.943 394.021 298.943 394.747V397.371V398.356C298.943 399.262 298.228 399.996 297.345 399.996H296.387H295.112C295.053 399.996 294.993 399.992 294.933 399.988C294.885 399.992 294.837 399.996 294.789 399.996H294.15C293.267 399.996 292.552 399.262 292.552 398.356V393.763C292.552 393.726 292.552 393.685 292.556 393.648V390.79H291.278C290.559 390.79 290 390.216 290 389.473C290 389.104 290.12 388.776 290.399 388.489L300.636 379.328C300.916 379.041 301.235 379 301.515 379C301.795 379 302.114 379.082 302.354 379.287L312.555 388.493C312.874 388.78 313.034 389.108 312.994 389.477Z" fill="#146566" fill-opacity="0.05"/>
<path d="M287.994 67.4774C287.994 68.2156 287.395 68.7938 286.716 68.7938H285.438L285.466 75.3632C285.466 75.4739 285.458 75.5847 285.446 75.6954V76.3597C285.446 77.266 284.731 78 283.848 78H283.209C283.165 78 283.121 78 283.077 77.9959C283.021 78 282.965 78 282.909 78L281.611 77.9959H280.653C279.77 77.9959 279.055 77.2619 279.055 76.3556V75.3714V72.7469C279.055 72.0211 278.484 71.4347 277.777 71.4347H275.221C274.514 71.4347 273.943 72.0211 273.943 72.7469V75.3714V76.3556C273.943 77.2619 273.228 77.9959 272.345 77.9959H271.387H270.112C270.053 77.9959 269.993 77.9918 269.933 77.9877C269.885 77.9918 269.837 77.9959 269.789 77.9959H269.15C268.267 77.9959 267.552 77.2619 267.552 76.3556V71.7627C267.552 71.7258 267.552 71.6848 267.556 71.6479V68.7897H266.278C265.559 68.7897 265 68.2156 265 67.4733C265 67.1043 265.12 66.7762 265.399 66.4892L275.636 57.3281C275.916 57.041 276.235 57 276.515 57C276.795 57 277.114 57.082 277.354 57.2871L287.555 66.4933C287.874 66.7803 288.034 67.1084 287.994 67.4774Z" fill="#146566" fill-opacity="0.05"/>
<path d="M287.994 159.477C287.994 160.216 287.395 160.794 286.716 160.794H285.438L285.466 167.363C285.466 167.474 285.458 167.585 285.446 167.695V168.36C285.446 169.266 284.731 170 283.848 170H283.209C283.165 170 283.121 170 283.077 169.996C283.021 170 282.965 170 282.909 170L281.611 169.996H280.653C279.77 169.996 279.055 169.262 279.055 168.356V167.371V164.747C279.055 164.021 278.484 163.435 277.777 163.435H275.221C274.514 163.435 273.943 164.021 273.943 164.747V167.371V168.356C273.943 169.262 273.228 169.996 272.345 169.996H271.387H270.112C270.053 169.996 269.993 169.992 269.933 169.988C269.885 169.992 269.837 169.996 269.789 169.996H269.15C268.267 169.996 267.552 169.262 267.552 168.356V163.763C267.552 163.726 267.552 163.685 267.556 163.648V160.79H266.278C265.559 160.79 265 160.216 265 159.473C265 159.104 265.12 158.776 265.399 158.489L275.636 149.328C275.916 149.041 276.235 149 276.515 149C276.795 149 277.114 149.082 277.354 149.287L287.555 158.493C287.874 158.78 288.034 159.108 287.994 159.477Z" fill="#146566" fill-opacity="0.05"/>
<path d="M287.994 251.477C287.994 252.216 287.395 252.794 286.716 252.794H285.438L285.466 259.363C285.466 259.474 285.458 259.585 285.446 259.695V260.36C285.446 261.266 284.731 262 283.848 262H283.209C283.165 262 283.121 262 283.077 261.996C283.021 262 282.965 262 282.909 262L281.611 261.996H280.653C279.77 261.996 279.055 261.262 279.055 260.356V259.371V256.747C279.055 256.021 278.484 255.435 277.777 255.435H275.221C274.514 255.435 273.943 256.021 273.943 256.747V259.371V260.356C273.943 261.262 273.228 261.996 272.345 261.996H271.387H270.112C270.053 261.996 269.993 261.992 269.933 261.988C269.885 261.992 269.837 261.996 269.789 261.996H269.15C268.267 261.996 267.552 261.262 267.552 260.356V255.763C267.552 255.726 267.552 255.685 267.556 255.648V252.79H266.278C265.559 252.79 265 252.216 265 251.473C265 251.104 265.12 250.776 265.399 250.489L275.636 241.328C275.916 241.041 276.235 241 276.515 241C276.795 241 277.114 241.082 277.354 241.287L287.555 250.493C287.874 250.78 288.034 251.108 287.994 251.477Z" fill="#146566" fill-opacity="0.05"/>
<path d="M287.994 343.477C287.994 344.216 287.395 344.794 286.716 344.794H285.438L285.466 351.363C285.466 351.474 285.458 351.585 285.446 351.695V352.36C285.446 353.266 284.731 354 283.848 354H283.209C283.165 354 283.121 354 283.077 353.996C283.021 354 282.965 354 282.909 354L281.611 353.996H280.653C279.77 353.996 279.055 353.262 279.055 352.356V351.371V348.747C279.055 348.021 278.484 347.435 277.777 347.435H275.221C274.514 347.435 273.943 348.021 273.943 348.747V351.371V352.356C273.943 353.262 273.228 353.996 272.345 353.996H271.387H270.112C270.053 353.996 269.993 353.992 269.933 353.988C269.885 353.992 269.837 353.996 269.789 353.996H269.15C268.267 353.996 267.552 353.262 267.552 352.356V347.763C267.552 347.726 267.552 347.685 267.556 347.648V344.79H266.278C265.559 344.79 265 344.216 265 343.473C265 343.104 265.12 342.776 265.399 342.489L275.636 333.328C275.916 333.041 276.235 333 276.515 333C276.795 333 277.114 333.082 277.354 333.287L287.555 342.493C287.874 342.78 288.034 343.108 287.994 343.477Z" fill="#146566" fill-opacity="0.05"/>
<path d="M606.994 21.4774C606.994 22.2156 606.395 22.7938 605.716 22.7938H604.438L604.466 29.3632C604.466 29.4739 604.458 29.5847 604.446 29.6954V30.3597C604.446 31.266 603.731 32 602.848 32H602.209C602.165 32 602.121 32 602.077 31.9959C602.021 32 601.965 32 601.909 32L600.611 31.9959H599.653C598.77 31.9959 598.055 31.2619 598.055 30.3556V29.3714V26.7469C598.055 26.0211 597.484 25.4347 596.777 25.4347H594.221C593.514 25.4347 592.943 26.0211 592.943 26.7469V29.3714V30.3556C592.943 31.2619 592.228 31.9959 591.345 31.9959H590.387H589.112C589.053 31.9959 588.993 31.9918 588.933 31.9877C588.885 31.9918 588.837 31.9959 588.789 31.9959H588.15C587.267 31.9959 586.552 31.2619 586.552 30.3556V25.7627C586.552 25.7258 586.552 25.6848 586.556 25.6479V22.7897H585.278C584.559 22.7897 584 22.2156 584 21.4733C584 21.1043 584.12 20.7762 584.399 20.4892L594.636 11.3281C594.916 11.041 595.235 11 595.515 11C595.795 11 596.114 11.082 596.354 11.2871L606.555 20.4933C606.874 20.7803 607.034 21.1084 606.994 21.4774Z" fill="#146566" fill-opacity="0.05"/>
<path d="M606.994 113.477C606.994 114.216 606.395 114.794 605.716 114.794H604.438L604.466 121.363C604.466 121.474 604.458 121.585 604.446 121.695V122.36C604.446 123.266 603.731 124 602.848 124H602.209C602.165 124 602.121 124 602.077 123.996C602.021 124 601.965 124 601.909 124L600.611 123.996H599.653C598.77 123.996 598.055 123.262 598.055 122.356V121.371V118.747C598.055 118.021 597.484 117.435 596.777 117.435H594.221C593.514 117.435 592.943 118.021 592.943 118.747V121.371V122.356C592.943 123.262 592.228 123.996 591.345 123.996H590.387H589.112C589.053 123.996 588.993 123.992 588.933 123.988C588.885 123.992 588.837 123.996 588.789 123.996H588.15C587.267 123.996 586.552 123.262 586.552 122.356V117.763C586.552 117.726 586.552 117.685 586.556 117.648V114.79H585.278C584.559 114.79 584 114.216 584 113.473C584 113.104 584.12 112.776 584.399 112.489L594.636 103.328C594.916 103.041 595.235 103 595.515 103C595.795 103 596.114 103.082 596.354 103.287L606.555 112.493C606.874 112.78 607.034 113.108 606.994 113.477Z" fill="#146566" fill-opacity="0.05"/>
<path d="M606.994 205.477C606.994 206.216 606.395 206.794 605.716 206.794H604.438L604.466 213.363C604.466 213.474 604.458 213.585 604.446 213.695V214.36C604.446 215.266 603.731 216 602.848 216H602.209C602.165 216 602.121 216 602.077 215.996C602.021 216 601.965 216 601.909 216L600.611 215.996H599.653C598.77 215.996 598.055 215.262 598.055 214.356V213.371V210.747C598.055 210.021 597.484 209.435 596.777 209.435H594.221C593.514 209.435 592.943 210.021 592.943 210.747V213.371V214.356C592.943 215.262 592.228 215.996 591.345 215.996H590.387H589.112C589.053 215.996 588.993 215.992 588.933 215.988C588.885 215.992 588.837 215.996 588.789 215.996H588.15C587.267 215.996 586.552 215.262 586.552 214.356V209.763C586.552 209.726 586.552 209.685 586.556 209.648V206.79H585.278C584.559 206.79 584 206.216 584 205.473C584 205.104 584.12 204.776 584.399 204.489L594.636 195.328C594.916 195.041 595.235 195 595.515 195C595.795 195 596.114 195.082 596.354 195.287L606.555 204.493C606.874 204.78 607.034 205.108 606.994 205.477Z" fill="#146566" fill-opacity="0.05"/>
<path d="M606.994 297.477C606.994 298.216 606.395 298.794 605.716 298.794H604.438L604.466 305.363C604.466 305.474 604.458 305.585 604.446 305.695V306.36C604.446 307.266 603.731 308 602.848 308H602.209C602.165 308 602.121 308 602.077 307.996C602.021 308 601.965 308 601.909 308L600.611 307.996H599.653C598.77 307.996 598.055 307.262 598.055 306.356V305.371V302.747C598.055 302.021 597.484 301.435 596.777 301.435H594.221C593.514 301.435 592.943 302.021 592.943 302.747V305.371V306.356C592.943 307.262 592.228 307.996 591.345 307.996H590.387H589.112C589.053 307.996 588.993 307.992 588.933 307.988C588.885 307.992 588.837 307.996 588.789 307.996H588.15C587.267 307.996 586.552 307.262 586.552 306.356V301.763C586.552 301.726 586.552 301.685 586.556 301.648V298.79H585.278C584.559 298.79 584 298.216 584 297.473C584 297.104 584.12 296.776 584.399 296.489L594.636 287.328C594.916 287.041 595.235 287 595.515 287C595.795 287 596.114 287.082 596.354 287.287L606.555 296.493C606.874 296.78 607.034 297.108 606.994 297.477Z" fill="#146566" fill-opacity="0.05"/>
<path d="M606.994 389.477C606.994 390.216 606.395 390.794 605.716 390.794H604.438L604.466 397.363C604.466 397.474 604.458 397.585 604.446 397.695V398.36C604.446 399.266 603.731 400 602.848 400H602.209C602.165 400 602.121 400 602.077 399.996C602.021 400 601.965 400 601.909 400L600.611 399.996H599.653C598.77 399.996 598.055 399.262 598.055 398.356V397.371V394.747C598.055 394.021 597.484 393.435 596.777 393.435H594.221C593.514 393.435 592.943 394.021 592.943 394.747V397.371V398.356C592.943 399.262 592.228 399.996 591.345 399.996H590.387H589.112C589.053 399.996 588.993 399.992 588.933 399.988C588.885 399.992 588.837 399.996 588.789 399.996H588.15C587.267 399.996 586.552 399.262 586.552 398.356V393.763C586.552 393.726 586.552 393.685 586.556 393.648V390.79H585.278C584.559 390.79 584 390.216 584 389.473C584 389.104 584.12 388.776 584.399 388.489L594.636 379.328C594.916 379.041 595.235 379 595.515 379C595.795 379 596.114 379.082 596.354 379.287L606.555 388.493C606.874 388.78 607.034 389.108 606.994 389.477Z" fill="#146566" fill-opacity="0.05"/>
<path d="M581.994 67.4774C581.994 68.2156 581.395 68.7938 580.716 68.7938H579.438L579.466 75.3632C579.466 75.4739 579.458 75.5847 579.446 75.6954V76.3597C579.446 77.266 578.731 78 577.848 78H577.209C577.165 78 577.121 78 577.077 77.9959C577.021 78 576.965 78 576.909 78L575.611 77.9959H574.653C573.77 77.9959 573.055 77.2619 573.055 76.3556V75.3714V72.7469C573.055 72.0211 572.484 71.4347 571.777 71.4347H569.221C568.514 71.4347 567.943 72.0211 567.943 72.7469V75.3714V76.3556C567.943 77.2619 567.228 77.9959 566.345 77.9959H565.387H564.112C564.053 77.9959 563.993 77.9918 563.933 77.9877C563.885 77.9918 563.837 77.9959 563.789 77.9959H563.15C562.267 77.9959 561.552 77.2619 561.552 76.3556V71.7627C561.552 71.7258 561.552 71.6848 561.556 71.6479V68.7897H560.278C559.559 68.7897 559 68.2156 559 67.4733C559 67.1043 559.12 66.7762 559.399 66.4892L569.636 57.3281C569.916 57.041 570.235 57 570.515 57C570.795 57 571.114 57.082 571.354 57.2871L581.555 66.4933C581.874 66.7803 582.034 67.1084 581.994 67.4774Z" fill="#146566" fill-opacity="0.05"/>
<path d="M581.994 159.477C581.994 160.216 581.395 160.794 580.716 160.794H579.438L579.466 167.363C579.466 167.474 579.458 167.585 579.446 167.695V168.36C579.446 169.266 578.731 170 577.848 170H577.209C577.165 170 577.121 170 577.077 169.996C577.021 170 576.965 170 576.909 170L575.611 169.996H574.653C573.77 169.996 573.055 169.262 573.055 168.356V167.371V164.747C573.055 164.021 572.484 163.435 571.777 163.435H569.221C568.514 163.435 567.943 164.021 567.943 164.747V167.371V168.356C567.943 169.262 567.228 169.996 566.345 169.996H565.387H564.112C564.053 169.996 563.993 169.992 563.933 169.988C563.885 169.992 563.837 169.996 563.789 169.996H563.15C562.267 169.996 561.552 169.262 561.552 168.356V163.763C561.552 163.726 561.552 163.685 561.556 163.648V160.79H560.278C559.559 160.79 559 160.216 559 159.473C559 159.104 559.12 158.776 559.399 158.489L569.636 149.328C569.916 149.041 570.235 149 570.515 149C570.795 149 571.114 149.082 571.354 149.287L581.555 158.493C581.874 158.78 582.034 159.108 581.994 159.477Z" fill="#146566" fill-opacity="0.05"/>
<path d="M581.994 251.477C581.994 252.216 581.395 252.794 580.716 252.794H579.438L579.466 259.363C579.466 259.474 579.458 259.585 579.446 259.695V260.36C579.446 261.266 578.731 262 577.848 262H577.209C577.165 262 577.121 262 577.077 261.996C577.021 262 576.965 262 576.909 262L575.611 261.996H574.653C573.77 261.996 573.055 261.262 573.055 260.356V259.371V256.747C573.055 256.021 572.484 255.435 571.777 255.435H569.221C568.514 255.435 567.943 256.021 567.943 256.747V259.371V260.356C567.943 261.262 567.228 261.996 566.345 261.996H565.387H564.112C564.053 261.996 563.993 261.992 563.933 261.988C563.885 261.992 563.837 261.996 563.789 261.996H563.15C562.267 261.996 561.552 261.262 561.552 260.356V255.763C561.552 255.726 561.552 255.685 561.556 255.648V252.79H560.278C559.559 252.79 559 252.216 559 251.473C559 251.104 559.12 250.776 559.399 250.489L569.636 241.328C569.916 241.041 570.235 241 570.515 241C570.795 241 571.114 241.082 571.354 241.287L581.555 250.493C581.874 250.78 582.034 251.108 581.994 251.477Z" fill="#146566" fill-opacity="0.05"/>
<path d="M581.994 343.477C581.994 344.216 581.395 344.794 580.716 344.794H579.438L579.466 351.363C579.466 351.474 579.458 351.585 579.446 351.695V352.36C579.446 353.266 578.731 354 577.848 354H577.209C577.165 354 577.121 354 577.077 353.996C577.021 354 576.965 354 576.909 354L575.611 353.996H574.653C573.77 353.996 573.055 353.262 573.055 352.356V351.371V348.747C573.055 348.021 572.484 347.435 571.777 347.435H569.221C568.514 347.435 567.943 348.021 567.943 348.747V351.371V352.356C567.943 353.262 567.228 353.996 566.345 353.996H565.387H564.112C564.053 353.996 563.993 353.992 563.933 353.988C563.885 353.992 563.837 353.996 563.789 353.996H563.15C562.267 353.996 561.552 353.262 561.552 352.356V347.763C561.552 347.726 561.552 347.685 561.556 347.648V344.79H560.278C559.559 344.79 559 344.216 559 343.473C559 343.104 559.12 342.776 559.399 342.489L569.636 333.328C569.916 333.041 570.235 333 570.515 333C570.795 333 571.114 333.082 571.354 333.287L581.555 342.493C581.874 342.78 582.034 343.108 581.994 343.477Z" fill="#146566" fill-opacity="0.05"/>
<path d="M327.72 79.4265C334.46 74.8013 337.081 65.9364 337.549 62.082C345.413 212.401 338.018 301.051 333.337 326.586L327.72 320.804C232.239 222.519 287.936 118.933 327.72 79.4265Z" fill="#136669" stroke="#136669"/>
<path d="M348.596 82.0779C344.118 76.1904 338.333 64.9062 336 60C340.479 125.939 338.799 242.51 337.4 292.553C339.639 314.926 345.797 322.481 348.596 323.462C447.127 235.151 389.651 125.743 348.596 82.0779Z" fill="#0C494C" stroke="#0C494C"/>
<path d="M336.25 296.387L332 326.812C335.4 333.767 336.25 351.926 336.25 360.136L344.75 363.033V332.608L349 323.915C343.333 321.597 338.139 304.597 336.25 296.387Z" fill="#E8E8D6"/>
</g>
<defs>
<clipPath id="clip0_340_2943">
<rect width="413" height="676" fill="white" transform="translate(676) rotate(90)"/>
</clipPath>
</defs>
</svg>
