<svg width="600" height="413" viewBox="0 0 600 413" fill="none" xmlns="http://www.w3.org/2000/svg">
<g clip-path="url(#clip0_340_2943)">
<rect width="413" height="600" transform="translate(600) rotate(90)" fill="#BFDDE0"/>
<path d="M7.23128 17.3861L15.7016 25.4772C16.0532 25.8129 16.5172 26 17 26C17.4828 26 17.9469 25.8129 18.2985 25.4772L26.7688 17.3861C28.1938 16.0288 29 14.1247 29 12.1343V11.8561C29 8.50356 26.6328 5.64504 23.4032 5.09348C21.2657 4.72897 19.0907 5.4436 17.5625 7.00716L17 7.5827L16.4375 7.00716C14.9094 5.4436 12.7344 4.72897 10.5969 5.09348C7.36722 5.64504 5.00003 8.50356 5.00003 11.8561V12.1343C5.00003 14.1247 5.80628 16.0288 7.23128 17.3861Z" fill="#146566" fill-opacity="0.05"/>
<path d="M7.23128 109.386L15.7016 117.477C16.0532 117.813 16.5172 118 17 118C17.4828 118 17.9469 117.813 18.2985 117.477L26.7688 109.386C28.1938 108.029 29 106.125 29 104.134V103.856C29 100.504 26.6328 97.645 23.4032 97.0935C21.2657 96.729 19.0907 97.4436 17.5625 99.0072L17 99.5827L16.4375 99.0072C14.9094 97.4436 12.7344 96.729 10.5969 97.0935C7.36722 97.645 5.00003 100.504 5.00003 103.856V104.134C5.00003 106.125 5.80628 108.029 7.23128 109.386Z" fill="#146566" fill-opacity="0.05"/>
<path d="M7.23127 201.386L15.7016 209.477C16.0531 209.813 16.5172 210 17 210C17.4828 210 17.9469 209.813 18.2985 209.477L26.7688 201.386C28.1938 200.029 29 198.125 29 196.134V195.856C29 192.504 26.6328 189.645 23.4031 189.093C21.2656 188.729 19.0906 189.444 17.5625 191.007L17 191.583L16.4375 191.007C14.9094 189.444 12.7344 188.729 10.5969 189.093C7.3672 189.645 5.00002 192.504 5.00002 195.856V196.134C5.00002 198.125 5.80627 200.029 7.23127 201.386Z" fill="#146566" fill-opacity="0.05"/>
<path d="M7.23127 293.386L15.7016 301.477C16.0531 301.813 16.5172 302 17 302C17.4828 302 17.9469 301.813 18.2985 301.477L26.7688 293.386C28.1938 292.029 29 290.125 29 288.134V287.856C29 284.504 26.6328 281.645 23.4031 281.093C21.2656 280.729 19.0906 281.444 17.5625 283.007L17 283.583L16.4375 283.007C14.9094 281.444 12.7344 280.729 10.5969 281.093C7.3672 281.645 5.00002 284.504 5.00002 287.856V288.134C5.00002 290.125 5.80627 292.029 7.23127 293.386Z" fill="#146566" fill-opacity="0.05"/>
<path d="M7.23127 385.386L15.7016 393.477C16.0531 393.813 16.5172 394 17 394C17.4828 394 17.9469 393.813 18.2985 393.477L26.7688 385.386C28.1938 384.029 29 382.125 29 380.134V379.856C29 376.504 26.6328 373.645 23.4031 373.093C21.2656 372.729 19.0906 373.444 17.5625 375.007L17 375.583L16.4375 375.007C14.9094 373.444 12.7344 372.729 10.5969 373.093C7.3672 373.645 5.00002 376.504 5.00002 379.856V380.134C5.00002 382.125 5.80627 384.029 7.23127 385.386Z" fill="#146566" fill-opacity="0.05"/>
<path d="M-17.7687 63.3861L-9.29841 71.4772C-8.94684 71.8129 -8.48278 72 -7.99997 72C-7.51716 72 -7.05309 71.8129 -6.70153 71.4772L1.76878 63.3861C3.19378 62.0288 4.00003 60.1247 4.00003 58.1343V57.8561C4.00003 54.5036 1.63284 51.645 -1.59684 51.0935C-3.73434 50.729 -5.90934 51.4436 -7.43747 53.0072L-7.99997 53.5827L-8.56247 53.0072C-10.0906 51.4436 -12.2656 50.729 -14.4031 51.0935C-17.6328 51.645 -20 54.5036 -20 57.8561V58.1343C-20 60.1247 -19.1937 62.0288 -17.7687 63.3861Z" fill="#146566" fill-opacity="0.05"/>
<path d="M-17.7687 155.386L-9.29841 163.477C-8.94684 163.813 -8.48278 164 -7.99997 164C-7.51716 164 -7.05309 163.813 -6.70153 163.477L1.76878 155.386C3.19378 154.029 4.00003 152.125 4.00003 150.134V149.856C4.00003 146.504 1.63284 143.645 -1.59684 143.093C-3.73434 142.729 -5.90934 143.444 -7.43747 145.007L-7.99997 145.583L-8.56247 145.007C-10.0906 143.444 -12.2656 142.729 -14.4031 143.093C-17.6328 143.645 -20 146.504 -20 149.856V150.134C-20 152.125 -19.1937 154.029 -17.7687 155.386Z" fill="#146566" fill-opacity="0.05"/>
<path d="M-17.7687 247.386L-9.29842 255.477C-8.94686 255.813 -8.4828 256 -7.99998 256C-7.51717 256 -7.05311 255.813 -6.70155 255.477L1.76876 247.386C3.19376 246.029 4.00002 244.125 4.00002 242.134V241.856C4.00002 238.504 1.63283 235.645 -1.59686 235.093C-3.73436 234.729 -5.90936 235.444 -7.43748 237.007L-7.99998 237.583L-8.56248 237.007C-10.0906 235.444 -12.2656 234.729 -14.4031 235.093C-17.6328 235.645 -20 238.504 -20 241.856V242.134C-20 244.125 -19.1937 246.029 -17.7687 247.386Z" fill="#146566" fill-opacity="0.05"/>
<path d="M-17.7688 339.386L-9.29848 347.477C-8.94692 347.813 -8.48286 348 -8.00005 348C-7.51723 348 -7.05317 347.813 -6.70161 347.477L1.7687 339.386C3.1937 338.029 3.99995 336.125 3.99995 334.134V333.856C3.99995 330.504 1.63277 327.645 -1.59692 327.093C-3.73442 326.729 -5.90942 327.444 -7.43755 329.007L-8.00005 329.583L-8.56255 329.007C-10.0907 327.444 -12.2657 326.729 -14.4032 327.093C-17.6329 327.645 -20 330.504 -20 333.856V334.134C-20 336.125 -19.1938 338.029 -17.7688 339.386Z" fill="#146566" fill-opacity="0.05"/>
<path d="M301.231 17.3861L309.702 25.4772C310.053 25.8129 310.517 26 311 26C311.483 26 311.947 25.8129 312.298 25.4772L320.769 17.3861C322.194 16.0288 323 14.1247 323 12.1343V11.8561C323 8.50356 320.633 5.64504 317.403 5.09348C315.266 4.72897 313.091 5.4436 311.562 7.00716L311 7.5827L310.437 7.00716C308.909 5.4436 306.734 4.72897 304.597 5.09348C301.367 5.64504 299 8.50356 299 11.8561V12.1343C299 14.1247 299.806 16.0288 301.231 17.3861Z" fill="#146566" fill-opacity="0.05"/>
<path d="M301.231 109.386L309.701 117.477C310.053 117.813 310.517 118 311 118C311.483 118 311.947 117.813 312.298 117.477L320.769 109.386C322.194 108.029 323 106.125 323 104.134V103.856C323 100.504 320.633 97.645 317.403 97.0935C315.266 96.729 313.091 97.4436 311.562 99.0072L311 99.5827L310.437 99.0072C308.909 97.4436 306.734 96.729 304.597 97.0935C301.367 97.645 299 100.504 299 103.856V104.134C299 106.125 299.806 108.029 301.231 109.386Z" fill="#146566" fill-opacity="0.05"/>
<path d="M301.231 201.386L309.701 209.477C310.053 209.813 310.517 210 311 210C311.483 210 311.947 209.813 312.298 209.477L320.769 201.386C322.194 200.029 323 198.125 323 196.134V195.856C323 192.504 320.633 189.645 317.403 189.093C315.266 188.729 313.091 189.444 311.562 191.007L311 191.583L310.437 191.007C308.909 189.444 306.734 188.729 304.597 189.093C301.367 189.645 299 192.504 299 195.856V196.134C299 198.125 299.806 200.029 301.231 201.386Z" fill="#146566" fill-opacity="0.05"/>
<path d="M301.231 293.386L309.701 301.477C310.053 301.813 310.517 302 311 302C311.483 302 311.947 301.813 312.298 301.477L320.769 293.386C322.194 292.029 323 290.125 323 288.134V287.856C323 284.504 320.633 281.645 317.403 281.093C315.266 280.729 313.091 281.444 311.562 283.007L311 283.583L310.437 283.007C308.909 281.444 306.734 280.729 304.597 281.093C301.367 281.645 299 284.504 299 287.856V288.134C299 290.125 299.806 292.029 301.231 293.386Z" fill="#146566" fill-opacity="0.05"/>
<path d="M301.231 385.386L309.701 393.477C310.053 393.813 310.517 394 311 394C311.483 394 311.947 393.813 312.298 393.477L320.769 385.386C322.194 384.029 323 382.125 323 380.134V379.856C323 376.504 320.633 373.645 317.403 373.093C315.266 372.729 313.091 373.444 311.562 375.007L311 375.583L310.437 375.007C308.909 373.444 306.734 372.729 304.597 373.093C301.367 373.645 299 376.504 299 379.856V380.134C299 382.125 299.806 384.029 301.231 385.386Z" fill="#146566" fill-opacity="0.05"/>
<path d="M276.231 63.3861L284.702 71.4772C285.053 71.8129 285.517 72 286 72C286.483 72 286.947 71.8129 287.298 71.4772L295.769 63.3861C297.194 62.0288 298 60.1247 298 58.1343V57.8561C298 54.5036 295.633 51.645 292.403 51.0935C290.266 50.729 288.091 51.4436 286.562 53.0072L286 53.5827L285.437 53.0072C283.909 51.4436 281.734 50.729 279.597 51.0935C276.367 51.645 274 54.5036 274 57.8561V58.1343C274 60.1247 274.806 62.0288 276.231 63.3861Z" fill="#146566" fill-opacity="0.05"/>
<path d="M276.231 155.386L284.701 163.477C285.053 163.813 285.517 164 286 164C286.483 164 286.947 163.813 287.298 163.477L295.769 155.386C297.194 154.029 298 152.125 298 150.134V149.856C298 146.504 295.633 143.645 292.403 143.093C290.266 142.729 288.091 143.444 286.562 145.007L286 145.583L285.437 145.007C283.909 143.444 281.734 142.729 279.597 143.093C276.367 143.645 274 146.504 274 149.856V150.134C274 152.125 274.806 154.029 276.231 155.386Z" fill="#146566" fill-opacity="0.05"/>
<path d="M276.231 247.386L284.701 255.477C285.053 255.813 285.517 256 286 256C286.483 256 286.947 255.813 287.298 255.477L295.769 247.386C297.194 246.029 298 244.125 298 242.134V241.856C298 238.504 295.633 235.645 292.403 235.093C290.266 234.729 288.091 235.444 286.562 237.007L286 237.583L285.437 237.007C283.909 235.444 281.734 234.729 279.597 235.093C276.367 235.645 274 238.504 274 241.856V242.134C274 244.125 274.806 246.029 276.231 247.386Z" fill="#146566" fill-opacity="0.05"/>
<path d="M276.231 339.386L284.701 347.477C285.053 347.813 285.517 348 286 348C286.483 348 286.947 347.813 287.298 347.477L295.769 339.386C297.194 338.029 298 336.125 298 334.134V333.856C298 330.504 295.633 327.645 292.403 327.093C290.265 326.729 288.09 327.444 286.562 329.007L286 329.583L285.437 329.007C283.909 327.444 281.734 326.729 279.597 327.093C276.367 327.645 274 330.504 274 333.856V334.134C274 336.125 274.806 338.029 276.231 339.386Z" fill="#146566" fill-opacity="0.05"/>
<path d="M595.231 17.3861L603.702 25.4772C604.053 25.8129 604.517 26 605 26C605.483 26 605.947 25.8129 606.298 25.4772L614.769 17.3861C616.194 16.0288 617 14.1247 617 12.1343V11.8561C617 8.50356 614.633 5.64504 611.403 5.09348C609.266 4.72897 607.091 5.4436 605.562 7.00716L605 7.5827L604.438 7.00716C602.909 5.4436 600.734 4.72897 598.597 5.09348C595.367 5.64504 593 8.50356 593 11.8561V12.1343C593 14.1247 593.806 16.0288 595.231 17.3861Z" fill="#146566" fill-opacity="0.05"/>
<path d="M595.231 109.386L603.702 117.477C604.053 117.813 604.517 118 605 118C605.483 118 605.947 117.813 606.298 117.477L614.769 109.386C616.194 108.029 617 106.125 617 104.134V103.856C617 100.504 614.633 97.645 611.403 97.0935C609.266 96.729 607.091 97.4436 605.562 99.0072L605 99.5827L604.437 99.0072C602.909 97.4436 600.734 96.729 598.597 97.0935C595.367 97.645 593 100.504 593 103.856V104.134C593 106.125 593.806 108.029 595.231 109.386Z" fill="#146566" fill-opacity="0.05"/>
<path d="M595.231 201.386L603.702 209.477C604.053 209.813 604.517 210 605 210C605.483 210 605.947 209.813 606.298 209.477L614.769 201.386C616.194 200.029 617 198.125 617 196.134V195.856C617 192.504 614.633 189.645 611.403 189.093C609.266 188.729 607.091 189.444 605.562 191.007L605 191.583L604.437 191.007C602.909 189.444 600.734 188.729 598.597 189.093C595.367 189.645 593 192.504 593 195.856V196.134C593 198.125 593.806 200.029 595.231 201.386Z" fill="#146566" fill-opacity="0.05"/>
<path d="M595.231 293.386L603.702 301.477C604.053 301.813 604.517 302 605 302C605.483 302 605.947 301.813 606.298 301.477L614.769 293.386C616.194 292.029 617 290.125 617 288.134V287.856C617 284.504 614.633 281.645 611.403 281.093C609.266 280.729 607.091 281.444 605.562 283.007L605 283.583L604.437 283.007C602.909 281.444 600.734 280.729 598.597 281.093C595.367 281.645 593 284.504 593 287.856V288.134C593 290.125 593.806 292.029 595.231 293.386Z" fill="#146566" fill-opacity="0.05"/>
<path d="M595.231 385.386L603.702 393.477C604.053 393.813 604.517 394 605 394C605.483 394 605.947 393.813 606.298 393.477L614.769 385.386C616.194 384.029 617 382.125 617 380.134V379.856C617 376.504 614.633 373.645 611.403 373.093C609.266 372.729 607.091 373.444 605.562 375.007L605 375.583L604.437 375.007C602.909 373.444 600.734 372.729 598.597 373.093C595.367 373.645 593 376.504 593 379.856V380.134C593 382.125 593.806 384.029 595.231 385.386Z" fill="#146566" fill-opacity="0.05"/>
<path d="M570.231 63.3861L578.702 71.4772C579.053 71.8129 579.517 72 580 72C580.483 72 580.947 71.8129 581.298 71.4772L589.769 63.3861C591.194 62.0288 592 60.1247 592 58.1343V57.8561C592 54.5036 589.633 51.645 586.403 51.0935C584.266 50.729 582.091 51.4436 580.562 53.0072L580 53.5827L579.438 53.0072C577.909 51.4436 575.734 50.729 573.597 51.0935C570.367 51.645 568 54.5036 568 57.8561V58.1343C568 60.1247 568.806 62.0288 570.231 63.3861Z" fill="#146566" fill-opacity="0.05"/>
<path d="M570.231 155.386L578.702 163.477C579.053 163.813 579.517 164 580 164C580.483 164 580.947 163.813 581.298 163.477L589.769 155.386C591.194 154.029 592 152.125 592 150.134V149.856C592 146.504 589.633 143.645 586.403 143.093C584.266 142.729 582.091 143.444 580.562 145.007L580 145.583L579.437 145.007C577.909 143.444 575.734 142.729 573.597 143.093C570.367 143.645 568 146.504 568 149.856V150.134C568 152.125 568.806 154.029 570.231 155.386Z" fill="#146566" fill-opacity="0.05"/>
<path d="M570.231 247.386L578.702 255.477C579.053 255.813 579.517 256 580 256C580.483 256 580.947 255.813 581.298 255.477L589.769 247.386C591.194 246.029 592 244.125 592 242.134V241.856C592 238.504 589.633 235.645 586.403 235.093C584.266 234.729 582.091 235.444 580.562 237.007L580 237.583L579.437 237.007C577.909 235.444 575.734 234.729 573.597 235.093C570.367 235.645 568 238.504 568 241.856V242.134C568 244.125 568.806 246.029 570.231 247.386Z" fill="#146566" fill-opacity="0.05"/>
<path d="M570.231 339.386L578.701 347.477C579.053 347.813 579.517 348 580 348C580.483 348 580.947 347.813 581.298 347.477L589.769 339.386C591.194 338.029 592 336.125 592 334.134V333.856C592 330.504 589.633 327.645 586.403 327.093C584.266 326.729 582.091 327.444 580.562 329.007L580 329.583L579.437 329.007C577.909 327.444 575.734 326.729 573.597 327.093C570.367 327.645 568 330.504 568 333.856V334.134C568 336.125 568.806 338.029 570.231 339.386Z" fill="#146566" fill-opacity="0.05"/>
<path d="M54 12.5C54 10.8453 55.3453 9.5 57 9.5C57.0235 9.5 57.0516 9.5 57.075 9.5C57.4219 7.78906 58.936 6.5 60.75 6.5C61.4532 6.5 62.1094 6.69219 62.6672 7.025C63.2907 5.825 64.5516 5 66 5C67.4485 5 68.7094 5.825 69.3328 7.025C69.8907 6.69219 70.5469 6.5 71.25 6.5C73.0641 6.5 74.5782 7.78906 74.925 9.5C74.9485 9.5 74.9766 9.5 75 9.5C76.6547 9.5 78 10.8453 78 12.5C78 13.0484 77.8547 13.5594 77.5969 14H54.4032C54.1453 13.5594 54 13.0484 54 12.5ZM54 16.7844C54 16.0766 54.5766 15.5 55.2844 15.5H76.711C77.4188 15.5 77.9953 16.0766 77.9953 16.7844C77.9953 20.0891 75.9141 22.9109 72.9938 24.0078L72.9141 24.6875C72.8203 25.4375 72.1828 26 71.4235 26H60.5719C59.8172 26 59.175 25.4375 59.0813 24.6875L58.9969 24.0125C56.0813 22.9109 54 20.0891 54 16.7844Z" fill="#146566" fill-opacity="0.05"/>
<path d="M54 104.5C54 102.845 55.3453 101.5 57 101.5C57.0235 101.5 57.0516 101.5 57.075 101.5C57.4219 99.7891 58.936 98.5 60.75 98.5C61.4532 98.5 62.1094 98.6922 62.6672 99.025C63.2907 97.825 64.5516 97 66 97C67.4485 97 68.7094 97.825 69.3328 99.025C69.8907 98.6922 70.5469 98.5 71.25 98.5C73.0641 98.5 74.5782 99.7891 74.925 101.5C74.9485 101.5 74.9766 101.5 75 101.5C76.6547 101.5 78 102.845 78 104.5C78 105.048 77.8547 105.559 77.5969 106H54.4032C54.1453 105.559 54 105.048 54 104.5ZM54 108.784C54 108.077 54.5766 107.5 55.2844 107.5H76.711C77.4188 107.5 77.9953 108.077 77.9953 108.784C77.9953 112.089 75.9141 114.911 72.9938 116.008L72.9141 116.688C72.8203 117.438 72.1828 118 71.4235 118H60.5719C59.8172 118 59.175 117.438 59.0813 116.688L58.9969 116.013C56.0813 114.911 54 112.089 54 108.784Z" fill="#146566" fill-opacity="0.05"/>
<path d="M54 196.5C54 194.845 55.3453 193.5 57 193.5C57.0235 193.5 57.0516 193.5 57.075 193.5C57.4219 191.789 58.936 190.5 60.75 190.5C61.4531 190.5 62.1094 190.692 62.6672 191.025C63.2906 189.825 64.5516 189 66 189C67.4485 189 68.7094 189.825 69.3328 191.025C69.8906 190.692 70.5469 190.5 71.25 190.5C73.0641 190.5 74.5781 191.789 74.925 193.5C74.9485 193.5 74.9766 193.5 75 193.5C76.6547 193.5 78 194.845 78 196.5C78 197.048 77.8547 197.559 77.5969 198H54.4031C54.1453 197.559 54 197.048 54 196.5ZM54 200.784C54 200.077 54.5766 199.5 55.2844 199.5H76.711C77.4188 199.5 77.9953 200.077 77.9953 200.784C77.9953 204.089 75.9141 206.911 72.9938 208.008L72.9141 208.688C72.8203 209.438 72.1828 210 71.4235 210H60.5719C59.8172 210 59.175 209.438 59.0813 208.688L58.9969 208.013C56.0813 206.911 54 204.089 54 200.784Z" fill="#146566" fill-opacity="0.05"/>
<path d="M54 288.5C54 286.845 55.3453 285.5 57 285.5C57.0235 285.5 57.0516 285.5 57.075 285.5C57.4219 283.789 58.936 282.5 60.75 282.5C61.4531 282.5 62.1094 282.692 62.6672 283.025C63.2906 281.825 64.5516 281 66 281C67.4485 281 68.7094 281.825 69.3328 283.025C69.8906 282.692 70.5469 282.5 71.25 282.5C73.0641 282.5 74.5781 283.789 74.925 285.5C74.9485 285.5 74.9766 285.5 75 285.5C76.6547 285.5 78 286.845 78 288.5C78 289.048 77.8547 289.559 77.5969 290H54.4031C54.1453 289.559 54 289.048 54 288.5ZM54 292.784C54 292.077 54.5766 291.5 55.2844 291.5H76.711C77.4188 291.5 77.9953 292.077 77.9953 292.784C77.9953 296.089 75.9141 298.911 72.9938 300.008L72.9141 300.688C72.8203 301.438 72.1828 302 71.4235 302H60.5719C59.8172 302 59.175 301.438 59.0813 300.688L58.9969 300.013C56.0813 298.911 54 296.089 54 292.784Z" fill="#146566" fill-opacity="0.05"/>
<path d="M54 380.5C54 378.845 55.3453 377.5 57 377.5C57.0235 377.5 57.0516 377.5 57.075 377.5C57.4219 375.789 58.936 374.5 60.75 374.5C61.4531 374.5 62.1094 374.692 62.6672 375.025C63.2906 373.825 64.5516 373 66 373C67.4485 373 68.7094 373.825 69.3328 375.025C69.8906 374.692 70.5469 374.5 71.25 374.5C73.0641 374.5 74.5781 375.789 74.925 377.5C74.9485 377.5 74.9766 377.5 75 377.5C76.6547 377.5 78 378.845 78 380.5C78 381.048 77.8547 381.559 77.5969 382H54.4031C54.1453 381.559 54 381.048 54 380.5ZM54 384.784C54 384.077 54.5766 383.5 55.2844 383.5H76.711C77.4188 383.5 77.9953 384.077 77.9953 384.784C77.9953 388.089 75.9141 390.911 72.9938 392.008L72.9141 392.688C72.8203 393.438 72.1828 394 71.4235 394H60.5719C59.8172 394 59.175 393.438 59.0813 392.688L58.9969 392.013C56.0813 390.911 54 388.089 54 384.784Z" fill="#146566" fill-opacity="0.05"/>
<path d="M29 58.5C29 56.8453 30.3453 55.5 32 55.5C32.0235 55.5 32.0516 55.5 32.075 55.5C32.4219 53.7891 33.936 52.5 35.75 52.5C36.4532 52.5 37.1094 52.6922 37.6672 53.025C38.2907 51.825 39.5516 51 41 51C42.4485 51 43.7094 51.825 44.3328 53.025C44.8907 52.6922 45.5469 52.5 46.25 52.5C48.0641 52.5 49.5782 53.7891 49.925 55.5C49.9485 55.5 49.9766 55.5 50 55.5C51.6547 55.5 53 56.8453 53 58.5C53 59.0484 52.8547 59.5594 52.5969 60H29.4032C29.1453 59.5594 29 59.0484 29 58.5ZM29 62.7844C29 62.0766 29.5766 61.5 30.2844 61.5H51.711C52.4188 61.5 52.9953 62.0766 52.9953 62.7844C52.9953 66.0891 50.9141 68.9109 47.9938 70.0078L47.9141 70.6875C47.8203 71.4375 47.1828 72 46.4235 72H35.5719C34.8172 72 34.175 71.4375 34.0813 70.6875L33.9969 70.0125C31.0813 68.9109 29 66.0891 29 62.7844Z" fill="#146566" fill-opacity="0.05"/>
<path d="M29 150.5C29 148.845 30.3453 147.5 32 147.5C32.0235 147.5 32.0516 147.5 32.075 147.5C32.4219 145.789 33.936 144.5 35.75 144.5C36.4532 144.5 37.1094 144.692 37.6672 145.025C38.2907 143.825 39.5516 143 41 143C42.4485 143 43.7094 143.825 44.3328 145.025C44.8907 144.692 45.5469 144.5 46.25 144.5C48.0641 144.5 49.5782 145.789 49.925 147.5C49.9485 147.5 49.9766 147.5 50 147.5C51.6547 147.5 53 148.845 53 150.5C53 151.048 52.8547 151.559 52.5969 152H29.4032C29.1453 151.559 29 151.048 29 150.5ZM29 154.784C29 154.077 29.5766 153.5 30.2844 153.5H51.711C52.4188 153.5 52.9953 154.077 52.9953 154.784C52.9953 158.089 50.9141 160.911 47.9938 162.008L47.9141 162.688C47.8203 163.438 47.1828 164 46.4235 164H35.5719C34.8172 164 34.175 163.438 34.0813 162.688L33.9969 162.013C31.0813 160.911 29 158.089 29 154.784Z" fill="#146566" fill-opacity="0.05"/>
<path d="M29 242.5C29 240.845 30.3453 239.5 32 239.5C32.0235 239.5 32.0516 239.5 32.075 239.5C32.4219 237.789 33.936 236.5 35.75 236.5C36.4531 236.5 37.1094 236.692 37.6672 237.025C38.2906 235.825 39.5516 235 41 235C42.4485 235 43.7094 235.825 44.3328 237.025C44.8906 236.692 45.5469 236.5 46.25 236.5C48.0641 236.5 49.5781 237.789 49.925 239.5C49.9485 239.5 49.9766 239.5 50 239.5C51.6547 239.5 53 240.845 53 242.5C53 243.048 52.8547 243.559 52.5969 244H29.4031C29.1453 243.559 29 243.048 29 242.5ZM29 246.784C29 246.077 29.5766 245.5 30.2844 245.5H51.711C52.4188 245.5 52.9953 246.077 52.9953 246.784C52.9953 250.089 50.9141 252.911 47.9938 254.008L47.9141 254.688C47.8203 255.438 47.1828 256 46.4235 256H35.5719C34.8172 256 34.175 255.438 34.0813 254.688L33.9969 254.013C31.0813 252.911 29 250.089 29 246.784Z" fill="#146566" fill-opacity="0.05"/>
<path d="M29 334.5C29 332.845 30.3453 331.5 32 331.5C32.0234 331.5 32.0515 331.5 32.075 331.5C32.4218 329.789 33.9359 328.5 35.75 328.5C36.4531 328.5 37.1093 328.692 37.6671 329.025C38.2906 327.825 39.5515 327 41 327C42.4484 327 43.7093 327.825 44.3328 329.025C44.8906 328.692 45.5468 328.5 46.25 328.5C48.064 328.5 49.5781 329.789 49.925 331.5C49.9484 331.5 49.9765 331.5 50 331.5C51.6546 331.5 53 332.845 53 334.5C53 335.048 52.8546 335.559 52.5968 336H29.4031C29.1453 335.559 29 335.048 29 334.5ZM29 338.784C29 338.077 29.5765 337.5 30.2843 337.5H51.7109C52.4187 337.5 52.9953 338.077 52.9953 338.784C52.9953 342.089 50.914 344.911 47.9937 346.008L47.914 346.688C47.8203 347.438 47.1828 348 46.4234 348H35.5718C34.8171 348 34.175 347.438 34.0812 346.688L33.9968 346.013C31.0812 344.911 29 342.089 29 338.784Z" fill="#146566" fill-opacity="0.05"/>
<path d="M348 12.5C348 10.8453 349.345 9.5 351 9.5C351.023 9.5 351.052 9.5 351.075 9.5C351.422 7.78906 352.936 6.5 354.75 6.5C355.453 6.5 356.109 6.69219 356.667 7.025C357.291 5.825 358.552 5 360 5C361.448 5 362.709 5.825 363.333 7.025C363.891 6.69219 364.547 6.5 365.25 6.5C367.064 6.5 368.578 7.78906 368.925 9.5C368.948 9.5 368.977 9.5 369 9.5C370.655 9.5 372 10.8453 372 12.5C372 13.0484 371.855 13.5594 371.597 14H348.403C348.145 13.5594 348 13.0484 348 12.5ZM348 16.7844C348 16.0766 348.577 15.5 349.284 15.5H370.711C371.419 15.5 371.995 16.0766 371.995 16.7844C371.995 20.0891 369.914 22.9109 366.994 24.0078L366.914 24.6875C366.82 25.4375 366.183 26 365.423 26H354.572C353.817 26 353.175 25.4375 353.081 24.6875L352.997 24.0125C350.081 22.9109 348 20.0891 348 16.7844Z" fill="#146566" fill-opacity="0.05"/>
<path d="M348 104.5C348 102.845 349.345 101.5 351 101.5C351.023 101.5 351.052 101.5 351.075 101.5C351.422 99.7891 352.936 98.5 354.75 98.5C355.453 98.5 356.109 98.6922 356.667 99.025C357.291 97.825 358.552 97 360 97C361.448 97 362.709 97.825 363.333 99.025C363.891 98.6922 364.547 98.5 365.25 98.5C367.064 98.5 368.578 99.7891 368.925 101.5C368.948 101.5 368.977 101.5 369 101.5C370.655 101.5 372 102.845 372 104.5C372 105.048 371.855 105.559 371.597 106H348.403C348.145 105.559 348 105.048 348 104.5ZM348 108.784C348 108.077 348.577 107.5 349.284 107.5H370.711C371.419 107.5 371.995 108.077 371.995 108.784C371.995 112.089 369.914 114.911 366.994 116.008L366.914 116.688C366.82 117.438 366.183 118 365.423 118H354.572C353.817 118 353.175 117.438 353.081 116.688L352.997 116.013C350.081 114.911 348 112.089 348 108.784Z" fill="#146566" fill-opacity="0.05"/>
<path d="M348 196.5C348 194.845 349.345 193.5 351 193.5C351.023 193.5 351.052 193.5 351.075 193.5C351.422 191.789 352.936 190.5 354.75 190.5C355.453 190.5 356.109 190.692 356.667 191.025C357.291 189.825 358.552 189 360 189C361.448 189 362.709 189.825 363.333 191.025C363.891 190.692 364.547 190.5 365.25 190.5C367.064 190.5 368.578 191.789 368.925 193.5C368.948 193.5 368.977 193.5 369 193.5C370.655 193.5 372 194.845 372 196.5C372 197.048 371.855 197.559 371.597 198H348.403C348.145 197.559 348 197.048 348 196.5ZM348 200.784C348 200.077 348.577 199.5 349.284 199.5H370.711C371.419 199.5 371.995 200.077 371.995 200.784C371.995 204.089 369.914 206.911 366.994 208.008L366.914 208.688C366.82 209.438 366.183 210 365.423 210H354.572C353.817 210 353.175 209.438 353.081 208.688L352.997 208.013C350.081 206.911 348 204.089 348 200.784Z" fill="#146566" fill-opacity="0.05"/>
<path d="M348 288.5C348 286.845 349.345 285.5 351 285.5C351.023 285.5 351.052 285.5 351.075 285.5C351.422 283.789 352.936 282.5 354.75 282.5C355.453 282.5 356.109 282.692 356.667 283.025C357.291 281.825 358.552 281 360 281C361.448 281 362.709 281.825 363.333 283.025C363.891 282.692 364.547 282.5 365.25 282.5C367.064 282.5 368.578 283.789 368.925 285.5C368.948 285.5 368.977 285.5 369 285.5C370.655 285.5 372 286.845 372 288.5C372 289.048 371.855 289.559 371.597 290H348.403C348.145 289.559 348 289.048 348 288.5ZM348 292.784C348 292.077 348.577 291.5 349.284 291.5H370.711C371.419 291.5 371.995 292.077 371.995 292.784C371.995 296.089 369.914 298.911 366.994 300.008L366.914 300.688C366.82 301.438 366.183 302 365.423 302H354.572C353.817 302 353.175 301.438 353.081 300.688L352.997 300.013C350.081 298.911 348 296.089 348 292.784Z" fill="#146566" fill-opacity="0.05"/>
<path d="M348 380.5C348 378.845 349.345 377.5 351 377.5C351.023 377.5 351.052 377.5 351.075 377.5C351.422 375.789 352.936 374.5 354.75 374.5C355.453 374.5 356.109 374.692 356.667 375.025C357.291 373.825 358.552 373 360 373C361.448 373 362.709 373.825 363.333 375.025C363.891 374.692 364.547 374.5 365.25 374.5C367.064 374.5 368.578 375.789 368.925 377.5C368.948 377.5 368.977 377.5 369 377.5C370.655 377.5 372 378.845 372 380.5C372 381.048 371.855 381.559 371.597 382H348.403C348.145 381.559 348 381.048 348 380.5ZM348 384.784C348 384.077 348.577 383.5 349.284 383.5H370.711C371.419 383.5 371.995 384.077 371.995 384.784C371.995 388.089 369.914 390.911 366.994 392.008L366.914 392.688C366.82 393.438 366.183 394 365.423 394H354.572C353.817 394 353.175 393.438 353.081 392.688L352.997 392.013C350.081 390.911 348 388.089 348 384.784Z" fill="#146566" fill-opacity="0.05"/>
<path d="M323 58.5C323 56.8453 324.345 55.5 326 55.5C326.023 55.5 326.052 55.5 326.075 55.5C326.422 53.7891 327.936 52.5 329.75 52.5C330.453 52.5 331.109 52.6922 331.667 53.025C332.291 51.825 333.552 51 335 51C336.448 51 337.709 51.825 338.333 53.025C338.891 52.6922 339.547 52.5 340.25 52.5C342.064 52.5 343.578 53.7891 343.925 55.5C343.948 55.5 343.977 55.5 344 55.5C345.655 55.5 347 56.8453 347 58.5C347 59.0484 346.855 59.5594 346.597 60H323.403C323.145 59.5594 323 59.0484 323 58.5ZM323 62.7844C323 62.0766 323.577 61.5 324.284 61.5H345.711C346.419 61.5 346.995 62.0766 346.995 62.7844C346.995 66.0891 344.914 68.9109 341.994 70.0078L341.914 70.6875C341.82 71.4375 341.183 72 340.423 72H329.572C328.817 72 328.175 71.4375 328.081 70.6875L327.997 70.0125C325.081 68.9109 323 66.0891 323 62.7844Z" fill="#146566" fill-opacity="0.05"/>
<path d="M323 150.5C323 148.845 324.345 147.5 326 147.5C326.023 147.5 326.052 147.5 326.075 147.5C326.422 145.789 327.936 144.5 329.75 144.5C330.453 144.5 331.109 144.692 331.667 145.025C332.291 143.825 333.552 143 335 143C336.448 143 337.709 143.825 338.333 145.025C338.891 144.692 339.547 144.5 340.25 144.5C342.064 144.5 343.578 145.789 343.925 147.5C343.948 147.5 343.977 147.5 344 147.5C345.655 147.5 347 148.845 347 150.5C347 151.048 346.855 151.559 346.597 152H323.403C323.145 151.559 323 151.048 323 150.5ZM323 154.784C323 154.077 323.577 153.5 324.284 153.5H345.711C346.419 153.5 346.995 154.077 346.995 154.784C346.995 158.089 344.914 160.911 341.994 162.008L341.914 162.688C341.82 163.438 341.183 164 340.423 164H329.572C328.817 164 328.175 163.438 328.081 162.688L327.997 162.013C325.081 160.911 323 158.089 323 154.784Z" fill="#146566" fill-opacity="0.05"/>
<path d="M323 242.5C323 240.845 324.345 239.5 326 239.5C326.023 239.5 326.051 239.5 326.075 239.5C326.422 237.789 327.936 236.5 329.75 236.5C330.453 236.5 331.109 236.692 331.667 237.025C332.291 235.825 333.551 235 335 235C336.448 235 337.709 235.825 338.333 237.025C338.891 236.692 339.547 236.5 340.25 236.5C342.064 236.5 343.578 237.789 343.925 239.5C343.948 239.5 343.976 239.5 344 239.5C345.655 239.5 347 240.845 347 242.5C347 243.048 346.855 243.559 346.597 244H323.403C323.145 243.559 323 243.048 323 242.5ZM323 246.784C323 246.077 323.576 245.5 324.284 245.5H345.711C346.419 245.5 346.995 246.077 346.995 246.784C346.995 250.089 344.914 252.911 341.994 254.008L341.914 254.688C341.82 255.438 341.183 256 340.423 256H329.572C328.817 256 328.175 255.438 328.081 254.688L327.997 254.013C325.081 252.911 323 250.089 323 246.784Z" fill="#146566" fill-opacity="0.05"/>
<path d="M323 334.5C323 332.845 324.345 331.5 326 331.5C326.023 331.5 326.051 331.5 326.075 331.5C326.422 329.789 327.936 328.5 329.75 328.5C330.453 328.5 331.109 328.692 331.667 329.025C332.291 327.825 333.551 327 335 327C336.448 327 337.709 327.825 338.333 329.025C338.891 328.692 339.547 328.5 340.25 328.5C342.064 328.5 343.578 329.789 343.925 331.5C343.948 331.5 343.976 331.5 344 331.5C345.655 331.5 347 332.845 347 334.5C347 335.048 346.855 335.559 346.597 336H323.403C323.145 335.559 323 335.048 323 334.5ZM323 338.784C323 338.077 323.576 337.5 324.284 337.5H345.711C346.419 337.5 346.995 338.077 346.995 338.784C346.995 342.089 344.914 344.911 341.994 346.008L341.914 346.688C341.82 347.438 341.183 348 340.423 348H329.572C328.817 348 328.175 347.438 328.081 346.688L327.997 346.013C325.081 344.911 323 342.089 323 338.784Z" fill="#146566" fill-opacity="0.05"/>
<path d="M105.719 5C104.218 5 103 6.17578 103 7.625C103 8.45078 103.402 9.22734 104.087 9.725L116.412 18.65C117.058 19.1148 117.942 19.1148 118.587 18.65L130.912 9.725C131.598 9.22734 132 8.45078 132 7.625C132 6.17578 130.782 5 129.281 5H105.719ZM103 11.125V22.5C103 24.4305 104.626 26 106.625 26H128.375C130.374 26 132 24.4305 132 22.5V11.125L119.675 20.05C118.384 20.9852 116.616 20.9852 115.325 20.05L103 11.125Z" fill="#146566" fill-opacity="0.05"/>
<path d="M105.719 97C104.218 97 103 98.1758 103 99.625C103 100.451 103.402 101.227 104.087 101.725L116.412 110.65C117.058 111.115 117.942 111.115 118.587 110.65L130.912 101.725C131.598 101.227 132 100.451 132 99.625C132 98.1758 130.782 97 129.281 97H105.719ZM103 103.125V114.5C103 116.43 104.626 118 106.625 118H128.375C130.374 118 132 116.43 132 114.5V103.125L119.675 112.05C118.384 112.985 116.616 112.985 115.325 112.05L103 103.125Z" fill="#146566" fill-opacity="0.05"/>
<path d="M105.719 189C104.218 189 103 190.176 103 191.625C103 192.451 103.402 193.227 104.087 193.725L116.412 202.65C117.058 203.115 117.942 203.115 118.587 202.65L130.912 193.725C131.598 193.227 132 192.451 132 191.625C132 190.176 130.782 189 129.281 189H105.719ZM103 195.125V206.5C103 208.43 104.626 210 106.625 210H128.375C130.374 210 132 208.43 132 206.5V195.125L119.675 204.05C118.384 204.985 116.616 204.985 115.325 204.05L103 195.125Z" fill="#146566" fill-opacity="0.05"/>
<path d="M105.719 281C104.218 281 103 282.176 103 283.625C103 284.451 103.402 285.227 104.087 285.725L116.412 294.65C117.058 295.115 117.942 295.115 118.587 294.65L130.912 285.725C131.598 285.227 132 284.451 132 283.625C132 282.176 130.782 281 129.281 281H105.719ZM103 287.125V298.5C103 300.43 104.626 302 106.625 302H128.375C130.374 302 132 300.43 132 298.5V287.125L119.675 296.05C118.384 296.985 116.616 296.985 115.325 296.05L103 287.125Z" fill="#146566" fill-opacity="0.05"/>
<path d="M105.719 373C104.218 373 103 374.176 103 375.625C103 376.451 103.402 377.227 104.087 377.725L116.412 386.65C117.058 387.115 117.942 387.115 118.587 386.65L130.912 377.725C131.598 377.227 132 376.451 132 375.625C132 374.176 130.782 373 129.281 373H105.719ZM103 379.125V390.5C103 392.43 104.626 394 106.625 394H128.375C130.374 394 132 392.43 132 390.5V379.125L119.675 388.05C118.384 388.985 116.616 388.985 115.325 388.05L103 379.125Z" fill="#146566" fill-opacity="0.05"/>
<path d="M80.7187 51C79.2177 51 78 52.1758 78 53.625C78 54.4508 78.4021 55.2273 79.0875 55.725L91.4125 64.65C92.0582 65.1148 92.9418 65.1148 93.5875 64.65L105.912 55.725C106.598 55.2273 107 54.4508 107 53.625C107 52.1758 105.782 51 104.281 51H80.7187ZM78 57.125V68.5C78 70.4305 79.6256 72 81.625 72H103.375C105.374 72 107 70.4305 107 68.5V57.125L94.675 66.05C93.3836 66.9852 91.6164 66.9852 90.325 66.05L78 57.125Z" fill="#146566" fill-opacity="0.05"/>
<path d="M80.7187 143C79.2177 143 78 144.176 78 145.625C78 146.451 78.4021 147.227 79.0875 147.725L91.4125 156.65C92.0582 157.115 92.9418 157.115 93.5875 156.65L105.912 147.725C106.598 147.227 107 146.451 107 145.625C107 144.176 105.782 143 104.281 143H80.7187ZM78 149.125V160.5C78 162.43 79.6256 164 81.625 164H103.375C105.374 164 107 162.43 107 160.5V149.125L94.675 158.05C93.3836 158.985 91.6164 158.985 90.325 158.05L78 149.125Z" fill="#146566" fill-opacity="0.05"/>
<path d="M80.7187 235C79.2177 235 78 236.176 78 237.625C78 238.451 78.4021 239.227 79.0875 239.725L91.4125 248.65C92.0582 249.115 92.9418 249.115 93.5875 248.65L105.912 239.725C106.598 239.227 107 238.451 107 237.625C107 236.176 105.782 235 104.281 235H80.7187ZM78 241.125V252.5C78 254.43 79.6255 256 81.625 256H103.375C105.374 256 107 254.43 107 252.5V241.125L94.675 250.05C93.3835 250.985 91.6164 250.985 90.325 250.05L78 241.125Z" fill="#146566" fill-opacity="0.05"/>
<path d="M80.7186 327C79.2177 327 77.9999 328.176 77.9999 329.625C77.9999 330.451 78.402 331.227 79.0874 331.725L91.4124 340.65C92.0581 341.115 92.9417 341.115 93.5874 340.65L105.912 331.725C106.598 331.227 107 330.451 107 329.625C107 328.176 105.782 327 104.281 327H80.7186ZM77.9999 333.125V344.5C77.9999 346.43 79.6255 348 81.6249 348H103.375C105.374 348 107 346.43 107 344.5V333.125L94.6749 342.05C93.3835 342.985 91.6163 342.985 90.3249 342.05L77.9999 333.125Z" fill="#146566" fill-opacity="0.05"/>
<path d="M399.719 5C398.218 5 397 6.17578 397 7.625C397 8.45078 397.402 9.22734 398.087 9.725L410.412 18.65C411.058 19.1148 411.942 19.1148 412.587 18.65L424.912 9.725C425.598 9.22734 426 8.45078 426 7.625C426 6.17578 424.782 5 423.281 5H399.719ZM397 11.125V22.5C397 24.4305 398.626 26 400.625 26H422.375C424.374 26 426 24.4305 426 22.5V11.125L413.675 20.05C412.384 20.9852 410.616 20.9852 409.325 20.05L397 11.125Z" fill="#146566" fill-opacity="0.05"/>
<path d="M399.719 97C398.218 97 397 98.1758 397 99.625C397 100.451 397.402 101.227 398.087 101.725L410.412 110.65C411.058 111.115 411.942 111.115 412.587 110.65L424.912 101.725C425.598 101.227 426 100.451 426 99.625C426 98.1758 424.782 97 423.281 97H399.719ZM397 103.125V114.5C397 116.43 398.626 118 400.625 118H422.375C424.374 118 426 116.43 426 114.5V103.125L413.675 112.05C412.384 112.985 410.616 112.985 409.325 112.05L397 103.125Z" fill="#146566" fill-opacity="0.05"/>
<path d="M399.719 189C398.218 189 397 190.176 397 191.625C397 192.451 397.402 193.227 398.087 193.725L410.412 202.65C411.058 203.115 411.942 203.115 412.587 202.65L424.912 193.725C425.598 193.227 426 192.451 426 191.625C426 190.176 424.782 189 423.281 189H399.719ZM397 195.125V206.5C397 208.43 398.626 210 400.625 210H422.375C424.374 210 426 208.43 426 206.5V195.125L413.675 204.05C412.384 204.985 410.616 204.985 409.325 204.05L397 195.125Z" fill="#146566" fill-opacity="0.05"/>
<path d="M399.719 281C398.218 281 397 282.176 397 283.625C397 284.451 397.402 285.227 398.087 285.725L410.412 294.65C411.058 295.115 411.942 295.115 412.587 294.65L424.912 285.725C425.598 285.227 426 284.451 426 283.625C426 282.176 424.782 281 423.281 281H399.719ZM397 287.125V298.5C397 300.43 398.626 302 400.625 302H422.375C424.374 302 426 300.43 426 298.5V287.125L413.675 296.05C412.384 296.985 410.616 296.985 409.325 296.05L397 287.125Z" fill="#146566" fill-opacity="0.05"/>
<path d="M399.719 373C398.218 373 397 374.176 397 375.625C397 376.451 397.402 377.227 398.087 377.725L410.412 386.65C411.058 387.115 411.942 387.115 412.587 386.65L424.912 377.725C425.598 377.227 426 376.451 426 375.625C426 374.176 424.782 373 423.281 373H399.719ZM397 379.125V390.5C397 392.43 398.626 394 400.625 394H422.375C424.374 394 426 392.43 426 390.5V379.125L413.675 388.05C412.384 388.985 410.616 388.985 409.325 388.05L397 379.125Z" fill="#146566" fill-opacity="0.05"/>
<path d="M374.719 51C373.218 51 372 52.1758 372 53.625C372 54.4508 372.402 55.2273 373.087 55.725L385.412 64.65C386.058 65.1148 386.942 65.1148 387.587 64.65L399.912 55.725C400.598 55.2273 401 54.4508 401 53.625C401 52.1758 399.782 51 398.281 51H374.719ZM372 57.125V68.5C372 70.4305 373.626 72 375.625 72H397.375C399.374 72 401 70.4305 401 68.5V57.125L388.675 66.05C387.384 66.9852 385.616 66.9852 384.325 66.05L372 57.125Z" fill="#146566" fill-opacity="0.05"/>
<path d="M374.719 143C373.218 143 372 144.176 372 145.625C372 146.451 372.402 147.227 373.087 147.725L385.412 156.65C386.058 157.115 386.942 157.115 387.587 156.65L399.912 147.725C400.598 147.227 401 146.451 401 145.625C401 144.176 399.782 143 398.281 143H374.719ZM372 149.125V160.5C372 162.43 373.626 164 375.625 164H397.375C399.374 164 401 162.43 401 160.5V149.125L388.675 158.05C387.384 158.985 385.616 158.985 384.325 158.05L372 149.125Z" fill="#146566" fill-opacity="0.05"/>
<path d="M374.719 235C373.218 235 372 236.176 372 237.625C372 238.451 372.402 239.227 373.087 239.725L385.412 248.65C386.058 249.115 386.942 249.115 387.587 248.65L399.912 239.725C400.598 239.227 401 238.451 401 237.625C401 236.176 399.782 235 398.281 235H374.719ZM372 241.125V252.5C372 254.43 373.625 256 375.625 256H397.375C399.374 256 401 254.43 401 252.5V241.125L388.675 250.05C387.384 250.985 385.616 250.985 384.325 250.05L372 241.125Z" fill="#146566" fill-opacity="0.05"/>
<path d="M374.719 327C373.218 327 372 328.176 372 329.625C372 330.451 372.402 331.227 373.087 331.725L385.412 340.65C386.058 341.115 386.942 341.115 387.587 340.65L399.912 331.725C400.598 331.227 401 330.451 401 329.625C401 328.176 399.782 327 398.281 327H374.719ZM372 333.125V344.5C372 346.43 373.625 348 375.625 348H397.375C399.374 348 401 346.43 401 344.5V333.125L388.675 342.05C387.383 342.985 385.616 342.985 384.325 342.05L372 333.125Z" fill="#146566" fill-opacity="0.05"/>
<path d="M157.175 6.07347C157.471 5.4172 158.1 5 158.797 5H178.205C178.902 5 179.531 5.4172 179.827 6.07347C180.124 6.72974 180.034 7.5032 179.594 8.06572L171.376 18.5426V24.5006C171.376 25.0678 171.071 25.5881 170.581 25.8413C170.092 26.0944 169.512 26.0428 169.076 25.7006L166.201 23.4506C165.837 23.1693 165.626 22.724 165.626 22.2505V18.5426L157.404 8.06103C156.968 7.5032 156.874 6.72505 157.175 6.07347Z" fill="#146566" fill-opacity="0.05"/>
<path d="M157.175 98.0735C157.471 97.4172 158.1 97 158.797 97H178.205C178.902 97 179.531 97.4172 179.827 98.0735C180.124 98.7297 180.034 99.5032 179.594 100.066L171.376 110.543V116.501C171.376 117.068 171.071 117.588 170.581 117.841C170.091 118.094 169.512 118.043 169.076 117.701L166.201 115.451C165.837 115.169 165.626 114.724 165.626 114.251V110.543L157.404 100.061C156.968 99.5032 156.874 98.7251 157.175 98.0735Z" fill="#146566" fill-opacity="0.05"/>
<path d="M157.175 190.073C157.471 189.417 158.1 189 158.797 189H178.205C178.902 189 179.531 189.417 179.827 190.073C180.124 190.73 180.034 191.503 179.594 192.066L171.376 202.543V208.501C171.376 209.068 171.071 209.588 170.581 209.841C170.091 210.094 169.512 210.043 169.076 209.701L166.201 207.451C165.837 207.169 165.626 206.724 165.626 206.251V202.543L157.404 192.061C156.968 191.503 156.874 190.725 157.175 190.073Z" fill="#146566" fill-opacity="0.05"/>
<path d="M157.175 282.073C157.471 281.417 158.1 281 158.797 281H178.205C178.902 281 179.531 281.417 179.827 282.073C180.124 282.73 180.034 283.503 179.594 284.066L171.376 294.543V300.501C171.376 301.068 171.071 301.588 170.581 301.841C170.091 302.094 169.512 302.043 169.076 301.701L166.201 299.451C165.837 299.169 165.626 298.724 165.626 298.251V294.543L157.404 284.061C156.968 283.503 156.874 282.725 157.175 282.073Z" fill="#146566" fill-opacity="0.05"/>
<path d="M157.175 374.073C157.471 373.417 158.1 373 158.797 373H178.205C178.902 373 179.531 373.417 179.827 374.073C180.124 374.73 180.034 375.503 179.594 376.066L171.376 386.543V392.501C171.376 393.068 171.071 393.588 170.581 393.841C170.091 394.094 169.512 394.043 169.076 393.701L166.201 391.451C165.837 391.169 165.626 390.724 165.626 390.251V386.543L157.404 376.061C156.968 375.503 156.874 374.725 157.175 374.073Z" fill="#146566" fill-opacity="0.05"/>
<path d="M132.175 52.0735C132.471 51.4172 133.1 51 133.797 51H153.205C153.902 51 154.531 51.4172 154.827 52.0735C155.124 52.7297 155.034 53.5032 154.594 54.0657L146.376 64.5426V70.5006C146.376 71.0678 146.071 71.5881 145.581 71.8413C145.092 72.0944 144.512 72.0428 144.076 71.7006L141.201 69.4506C140.837 69.1693 140.626 68.724 140.626 68.2505V64.5426L132.404 54.061C131.968 53.5032 131.874 52.7251 132.175 52.0735Z" fill="#146566" fill-opacity="0.05"/>
<path d="M132.175 144.073C132.471 143.417 133.1 143 133.797 143H153.205C153.902 143 154.531 143.417 154.827 144.073C155.124 144.73 155.034 145.503 154.594 146.066L146.376 156.543V162.501C146.376 163.068 146.071 163.588 145.581 163.841C145.091 164.094 144.512 164.043 144.076 163.701L141.201 161.451C140.837 161.169 140.626 160.724 140.626 160.251V156.543L132.404 146.061C131.968 145.503 131.874 144.725 132.175 144.073Z" fill="#146566" fill-opacity="0.05"/>
<path d="M132.175 236.073C132.471 235.417 133.1 235 133.797 235H153.205C153.902 235 154.531 235.417 154.827 236.073C155.124 236.73 155.034 237.503 154.594 238.066L146.376 248.543V254.501C146.376 255.068 146.071 255.588 145.581 255.841C145.091 256.094 144.512 256.043 144.076 255.701L141.201 253.451C140.837 253.169 140.626 252.724 140.626 252.251V248.543L132.404 238.061C131.968 237.503 131.874 236.725 132.175 236.073Z" fill="#146566" fill-opacity="0.05"/>
<path d="M132.175 328.073C132.471 327.417 133.1 327 133.797 327H153.205C153.902 327 154.531 327.417 154.827 328.073C155.124 328.73 155.034 329.503 154.593 330.066L146.376 340.543V346.501C146.376 347.068 146.071 347.588 145.581 347.841C145.091 348.094 144.512 348.043 144.076 347.701L141.201 345.451C140.837 345.169 140.626 344.724 140.626 344.251V340.543L132.404 330.061C131.968 329.503 131.874 328.725 132.175 328.073Z" fill="#146566" fill-opacity="0.05"/>
<path d="M451.175 6.07347C451.472 5.4172 452.1 5 452.797 5H472.205C472.902 5 473.531 5.4172 473.827 6.07347C474.124 6.72974 474.034 7.5032 473.594 8.06572L465.376 18.5426V24.5006C465.376 25.0678 465.071 25.5881 464.581 25.8413C464.092 26.0944 463.512 26.0428 463.076 25.7006L460.201 23.4506C459.837 23.1693 459.626 22.724 459.626 22.2505V18.5426L451.404 8.06103C450.968 7.5032 450.874 6.72505 451.175 6.07347Z" fill="#146566" fill-opacity="0.05"/>
<path d="M451.175 98.0735C451.471 97.4172 452.1 97 452.797 97H472.205C472.902 97 473.531 97.4172 473.827 98.0735C474.124 98.7297 474.034 99.5032 473.594 100.066L465.376 110.543V116.501C465.376 117.068 465.071 117.588 464.581 117.841C464.092 118.094 463.512 118.043 463.076 117.701L460.201 115.451C459.837 115.169 459.626 114.724 459.626 114.251V110.543L451.404 100.061C450.968 99.5032 450.874 98.7251 451.175 98.0735Z" fill="#146566" fill-opacity="0.05"/>
<path d="M451.175 190.073C451.471 189.417 452.1 189 452.797 189H472.205C472.902 189 473.531 189.417 473.827 190.073C474.124 190.73 474.034 191.503 473.594 192.066L465.376 202.543V208.501C465.376 209.068 465.071 209.588 464.581 209.841C464.092 210.094 463.512 210.043 463.076 209.701L460.201 207.451C459.837 207.169 459.626 206.724 459.626 206.251V202.543L451.404 192.061C450.968 191.503 450.874 190.725 451.175 190.073Z" fill="#146566" fill-opacity="0.05"/>
<path d="M451.175 282.073C451.471 281.417 452.1 281 452.797 281H472.205C472.902 281 473.531 281.417 473.827 282.073C474.124 282.73 474.034 283.503 473.594 284.066L465.376 294.543V300.501C465.376 301.068 465.071 301.588 464.581 301.841C464.092 302.094 463.512 302.043 463.076 301.701L460.201 299.451C459.837 299.169 459.626 298.724 459.626 298.251V294.543L451.404 284.061C450.968 283.503 450.874 282.725 451.175 282.073Z" fill="#146566" fill-opacity="0.05"/>
<path d="M451.175 374.073C451.471 373.417 452.1 373 452.797 373H472.205C472.902 373 473.531 373.417 473.827 374.073C474.124 374.73 474.034 375.503 473.594 376.066L465.376 386.543V392.501C465.376 393.068 465.071 393.588 464.581 393.841C464.092 394.094 463.512 394.043 463.076 393.701L460.201 391.451C459.837 391.169 459.626 390.724 459.626 390.251V386.543L451.404 376.061C450.968 375.503 450.874 374.725 451.175 374.073Z" fill="#146566" fill-opacity="0.05"/>
<path d="M426.175 52.0735C426.472 51.4172 427.1 51 427.797 51H447.205C447.902 51 448.531 51.4172 448.827 52.0735C449.124 52.7297 449.034 53.5032 448.594 54.0657L440.376 64.5426V70.5006C440.376 71.0678 440.071 71.5881 439.581 71.8413C439.092 72.0944 438.512 72.0428 438.076 71.7006L435.201 69.4506C434.837 69.1693 434.626 68.724 434.626 68.2505V64.5426L426.404 54.061C425.968 53.5032 425.874 52.7251 426.175 52.0735Z" fill="#146566" fill-opacity="0.05"/>
<path d="M426.175 144.073C426.471 143.417 427.1 143 427.797 143H447.205C447.902 143 448.531 143.417 448.827 144.073C449.124 144.73 449.034 145.503 448.594 146.066L440.376 156.543V162.501C440.376 163.068 440.071 163.588 439.581 163.841C439.092 164.094 438.512 164.043 438.076 163.701L435.201 161.451C434.837 161.169 434.626 160.724 434.626 160.251V156.543L426.404 146.061C425.968 145.503 425.874 144.725 426.175 144.073Z" fill="#146566" fill-opacity="0.05"/>
<path d="M426.175 236.073C426.471 235.417 427.1 235 427.797 235H447.205C447.902 235 448.531 235.417 448.827 236.073C449.124 236.73 449.034 237.503 448.594 238.066L440.376 248.543V254.501C440.376 255.068 440.071 255.588 439.581 255.841C439.091 256.094 438.512 256.043 438.076 255.701L435.201 253.451C434.837 253.169 434.626 252.724 434.626 252.251V248.543L426.404 238.061C425.968 237.503 425.874 236.725 426.175 236.073Z" fill="#146566" fill-opacity="0.05"/>
<path d="M426.175 328.073C426.471 327.417 427.1 327 427.797 327H447.205C447.902 327 448.531 327.417 448.827 328.073C449.124 328.73 449.034 329.503 448.594 330.066L440.376 340.543V346.501C440.376 347.068 440.071 347.588 439.581 347.841C439.091 348.094 438.512 348.043 438.076 347.701L435.201 345.451C434.837 345.169 434.626 344.724 434.626 344.251V340.543L426.404 330.061C425.968 329.503 425.874 328.725 426.175 328.073Z" fill="#146566" fill-opacity="0.05"/>
<path d="M212.219 7.45V9.2H218.781V7.45C218.781 7.2575 218.634 7.1 218.453 7.1H212.547C212.366 7.1 212.219 7.2575 212.219 7.45ZM210.25 9.2V7.45C210.25 6.09812 211.279 5 212.547 5H218.453C219.72 5 220.75 6.09812 220.75 7.45V9.2V10.6V26H210.25V10.6V9.2ZM207.625 9.2H208.937V26H207.625C206.177 26 205 24.7444 205 23.2V12C205 10.4556 206.177 9.2 207.625 9.2ZM223.375 26H222.062V9.2H223.375C224.823 9.2 226 10.4556 226 12V23.2C226 24.7444 224.823 26 223.375 26Z" fill="#146566" fill-opacity="0.05"/>
<path d="M212.219 99.45V101.2H218.781V99.45C218.781 99.2575 218.634 99.1 218.453 99.1H212.547C212.366 99.1 212.219 99.2575 212.219 99.45ZM210.25 101.2V99.45C210.25 98.0981 211.279 97 212.547 97H218.453C219.72 97 220.75 98.0981 220.75 99.45V101.2V102.6V118H210.25V102.6V101.2ZM207.625 101.2H208.937V118H207.625C206.177 118 205 116.744 205 115.2V104C205 102.456 206.177 101.2 207.625 101.2ZM223.375 118H222.062V101.2H223.375C224.823 101.2 226 102.456 226 104V115.2C226 116.744 224.823 118 223.375 118Z" fill="#146566" fill-opacity="0.05"/>
<path d="M212.219 191.45V193.2H218.781V191.45C218.781 191.257 218.634 191.1 218.453 191.1H212.547C212.366 191.1 212.219 191.257 212.219 191.45ZM210.25 193.2V191.45C210.25 190.098 211.279 189 212.547 189H218.453C219.72 189 220.75 190.098 220.75 191.45V193.2V194.6V210H210.25V194.6V193.2ZM207.625 193.2H208.937V210H207.625C206.177 210 205 208.744 205 207.2V196C205 194.456 206.177 193.2 207.625 193.2ZM223.375 210H222.062V193.2H223.375C224.823 193.2 226 194.456 226 196V207.2C226 208.744 224.823 210 223.375 210Z" fill="#146566" fill-opacity="0.05"/>
<path d="M212.219 283.45V285.2H218.781V283.45C218.781 283.257 218.634 283.1 218.453 283.1H212.547C212.366 283.1 212.219 283.257 212.219 283.45ZM210.25 285.2V283.45C210.25 282.098 211.279 281 212.547 281H218.453C219.72 281 220.75 282.098 220.75 283.45V285.2V286.6V302H210.25V286.6V285.2ZM207.625 285.2H208.937V302H207.625C206.177 302 205 300.744 205 299.2V288C205 286.456 206.177 285.2 207.625 285.2ZM223.375 302H222.062V285.2H223.375C224.823 285.2 226 286.456 226 288V299.2C226 300.744 224.823 302 223.375 302Z" fill="#146566" fill-opacity="0.05"/>
<path d="M212.219 375.45V377.2H218.781V375.45C218.781 375.257 218.634 375.1 218.453 375.1H212.547C212.366 375.1 212.219 375.257 212.219 375.45ZM210.25 377.2V375.45C210.25 374.098 211.279 373 212.547 373H218.453C219.72 373 220.75 374.098 220.75 375.45V377.2V378.6V394H210.25V378.6V377.2ZM207.625 377.2H208.937V394H207.625C206.177 394 205 392.744 205 391.2V380C205 378.456 206.177 377.2 207.625 377.2ZM223.375 394H222.062V377.2H223.375C224.823 377.2 226 378.456 226 380V391.2C226 392.744 224.823 394 223.375 394Z" fill="#146566" fill-opacity="0.05"/>
<path d="M187.219 53.45V55.2H193.781V53.45C193.781 53.2575 193.634 53.1 193.453 53.1H187.547C187.366 53.1 187.219 53.2575 187.219 53.45ZM185.25 55.2V53.45C185.25 52.0981 186.279 51 187.547 51H193.453C194.72 51 195.75 52.0981 195.75 53.45V55.2V56.6V72H185.25V56.6V55.2ZM182.625 55.2H183.937V72H182.625C181.177 72 180 70.7444 180 69.2V58C180 56.4556 181.177 55.2 182.625 55.2ZM198.375 72H197.062V55.2H198.375C199.823 55.2 201 56.4556 201 58V69.2C201 70.7444 199.823 72 198.375 72Z" fill="#146566" fill-opacity="0.05"/>
<path d="M187.219 145.45V147.2H193.781V145.45C193.781 145.257 193.634 145.1 193.453 145.1H187.547C187.366 145.1 187.219 145.257 187.219 145.45ZM185.25 147.2V145.45C185.25 144.098 186.279 143 187.547 143H193.453C194.72 143 195.75 144.098 195.75 145.45V147.2V148.6V164H185.25V148.6V147.2ZM182.625 147.2H183.937V164H182.625C181.177 164 180 162.744 180 161.2V150C180 148.456 181.177 147.2 182.625 147.2ZM198.375 164H197.062V147.2H198.375C199.823 147.2 201 148.456 201 150V161.2C201 162.744 199.823 164 198.375 164Z" fill="#146566" fill-opacity="0.05"/>
<path d="M187.219 237.45V239.2H193.781V237.45C193.781 237.257 193.633 237.1 193.453 237.1H187.547C187.366 237.1 187.219 237.257 187.219 237.45ZM185.25 239.2V237.45C185.25 236.098 186.279 235 187.547 235H193.453C194.72 235 195.75 236.098 195.75 237.45V239.2V240.6V256H185.25V240.6V239.2ZM182.625 239.2H183.937V256H182.625C181.177 256 180 254.744 180 253.2V242C180 240.456 181.177 239.2 182.625 239.2ZM198.375 256H197.062V239.2H198.375C199.823 239.2 201 240.456 201 242V253.2C201 254.744 199.823 256 198.375 256Z" fill="#146566" fill-opacity="0.05"/>
<path d="M187.219 329.45V331.2H193.781V329.45C193.781 329.257 193.633 329.1 193.453 329.1H187.547C187.366 329.1 187.219 329.257 187.219 329.45ZM185.25 331.2V329.45C185.25 328.098 186.279 327 187.547 327H193.453C194.72 327 195.75 328.098 195.75 329.45V331.2V332.6V348H185.25V332.6V331.2ZM182.625 331.2H183.937V348H182.625C181.177 348 180 346.744 180 345.2V334C180 332.456 181.177 331.2 182.625 331.2ZM198.375 348H197.062V331.2H198.375C199.823 331.2 201 332.456 201 334V345.2C201 346.744 199.823 348 198.375 348Z" fill="#146566" fill-opacity="0.05"/>
<path d="M506.219 7.45V9.2H512.781V7.45C512.781 7.2575 512.634 7.1 512.453 7.1H506.547C506.366 7.1 506.219 7.2575 506.219 7.45ZM504.25 9.2V7.45C504.25 6.09812 505.279 5 506.547 5H512.453C513.721 5 514.75 6.09812 514.75 7.45V9.2V10.6V26H504.25V10.6V9.2ZM501.625 9.2H502.938V26H501.625C500.177 26 499 24.7444 499 23.2V12C499 10.4556 500.177 9.2 501.625 9.2ZM517.375 26H516.062V9.2H517.375C518.823 9.2 520 10.4556 520 12V23.2C520 24.7444 518.823 26 517.375 26Z" fill="#146566" fill-opacity="0.05"/>
<path d="M506.219 99.45V101.2H512.781V99.45C512.781 99.2575 512.634 99.1 512.453 99.1H506.547C506.366 99.1 506.219 99.2575 506.219 99.45ZM504.25 101.2V99.45C504.25 98.0981 505.279 97 506.547 97H512.453C513.72 97 514.75 98.0981 514.75 99.45V101.2V102.6V118H504.25V102.6V101.2ZM501.625 101.2H502.937V118H501.625C500.177 118 499 116.744 499 115.2V104C499 102.456 500.177 101.2 501.625 101.2ZM517.375 118H516.062V101.2H517.375C518.823 101.2 520 102.456 520 104V115.2C520 116.744 518.823 118 517.375 118Z" fill="#146566" fill-opacity="0.05"/>
<path d="M506.219 191.45V193.2H512.781V191.45C512.781 191.257 512.634 191.1 512.453 191.1H506.547C506.366 191.1 506.219 191.257 506.219 191.45ZM504.25 193.2V191.45C504.25 190.098 505.279 189 506.547 189H512.453C513.72 189 514.75 190.098 514.75 191.45V193.2V194.6V210H504.25V194.6V193.2ZM501.625 193.2H502.937V210H501.625C500.177 210 499 208.744 499 207.2V196C499 194.456 500.177 193.2 501.625 193.2ZM517.375 210H516.062V193.2H517.375C518.823 193.2 520 194.456 520 196V207.2C520 208.744 518.823 210 517.375 210Z" fill="#146566" fill-opacity="0.05"/>
<path d="M506.219 283.45V285.2H512.781V283.45C512.781 283.257 512.634 283.1 512.453 283.1H506.547C506.366 283.1 506.219 283.257 506.219 283.45ZM504.25 285.2V283.45C504.25 282.098 505.279 281 506.547 281H512.453C513.72 281 514.75 282.098 514.75 283.45V285.2V286.6V302H504.25V286.6V285.2ZM501.625 285.2H502.937V302H501.625C500.177 302 499 300.744 499 299.2V288C499 286.456 500.177 285.2 501.625 285.2ZM517.375 302H516.062V285.2H517.375C518.823 285.2 520 286.456 520 288V299.2C520 300.744 518.823 302 517.375 302Z" fill="#146566" fill-opacity="0.05"/>
<path d="M506.219 375.45V377.2H512.781V375.45C512.781 375.257 512.634 375.1 512.453 375.1H506.547C506.366 375.1 506.219 375.257 506.219 375.45ZM504.25 377.2V375.45C504.25 374.098 505.279 373 506.547 373H512.453C513.72 373 514.75 374.098 514.75 375.45V377.2V378.6V394H504.25V378.6V377.2ZM501.625 377.2H502.937V394H501.625C500.177 394 499 392.744 499 391.2V380C499 378.456 500.177 377.2 501.625 377.2ZM517.375 394H516.062V377.2H517.375C518.823 377.2 520 378.456 520 380V391.2C520 392.744 518.823 394 517.375 394Z" fill="#146566" fill-opacity="0.05"/>
<path d="M481.219 53.45V55.2H487.781V53.45C487.781 53.2575 487.634 53.1 487.453 53.1H481.547C481.366 53.1 481.219 53.2575 481.219 53.45ZM479.25 55.2V53.45C479.25 52.0981 480.279 51 481.547 51H487.453C488.721 51 489.75 52.0981 489.75 53.45V55.2V56.6V72H479.25V56.6V55.2ZM476.625 55.2H477.938V72H476.625C475.177 72 474 70.7444 474 69.2V58C474 56.4556 475.177 55.2 476.625 55.2ZM492.375 72H491.062V55.2H492.375C493.823 55.2 495 56.4556 495 58V69.2C495 70.7444 493.823 72 492.375 72Z" fill="#146566" fill-opacity="0.05"/>
<path d="M481.219 145.45V147.2H487.781V145.45C487.781 145.257 487.634 145.1 487.453 145.1H481.547C481.366 145.1 481.219 145.257 481.219 145.45ZM479.25 147.2V145.45C479.25 144.098 480.279 143 481.547 143H487.453C488.72 143 489.75 144.098 489.75 145.45V147.2V148.6V164H479.25V148.6V147.2ZM476.625 147.2H477.937V164H476.625C475.177 164 474 162.744 474 161.2V150C474 148.456 475.177 147.2 476.625 147.2ZM492.375 164H491.062V147.2H492.375C493.823 147.2 495 148.456 495 150V161.2C495 162.744 493.823 164 492.375 164Z" fill="#146566" fill-opacity="0.05"/>
<path d="M481.219 237.45V239.2H487.781V237.45C487.781 237.257 487.634 237.1 487.453 237.1H481.547C481.366 237.1 481.219 237.257 481.219 237.45ZM479.25 239.2V237.45C479.25 236.098 480.279 235 481.547 235H487.453C488.72 235 489.75 236.098 489.75 237.45V239.2V240.6V256H479.25V240.6V239.2ZM476.625 239.2H477.937V256H476.625C475.177 256 474 254.744 474 253.2V242C474 240.456 475.177 239.2 476.625 239.2ZM492.375 256H491.062V239.2H492.375C493.823 239.2 495 240.456 495 242V253.2C495 254.744 493.823 256 492.375 256Z" fill="#146566" fill-opacity="0.05"/>
<path d="M481.219 329.45V331.2H487.781V329.45C487.781 329.257 487.634 329.1 487.453 329.1H481.547C481.366 329.1 481.219 329.257 481.219 329.45ZM479.25 331.2V329.45C479.25 328.098 480.279 327 481.547 327H487.453C488.72 327 489.75 328.098 489.75 329.45V331.2V332.6V348H479.25V332.6V331.2ZM476.625 331.2H477.937V348H476.625C475.177 348 474 346.744 474 345.2V334C474 332.456 475.177 331.2 476.625 331.2ZM492.375 348H491.062V331.2H492.375C493.823 331.2 495 332.456 495 334V345.2C495 346.744 493.823 348 492.375 348Z" fill="#146566" fill-opacity="0.05"/>
<path d="M273.994 15.4774C273.994 16.2156 273.395 16.7938 272.716 16.7938H271.438L271.466 23.3632C271.466 23.4739 271.458 23.5847 271.446 23.6954V24.3597C271.446 25.266 270.731 26 269.848 26H269.209C269.165 26 269.121 26 269.077 25.9959C269.021 26 268.965 26 268.909 26L267.611 25.9959H266.653C265.77 25.9959 265.055 25.2619 265.055 24.3556V23.3714V20.7469C265.055 20.0211 264.484 19.4347 263.777 19.4347H261.221C260.514 19.4347 259.943 20.0211 259.943 20.7469V23.3714V24.3556C259.943 25.2619 259.228 25.9959 258.345 25.9959H257.387H256.112C256.052 25.9959 255.993 25.9918 255.933 25.9877C255.885 25.9918 255.837 25.9959 255.789 25.9959H255.15C254.267 25.9959 253.552 25.2619 253.552 24.3556V19.7627C253.552 19.7258 253.552 19.6848 253.556 19.6479V16.7897H252.278C251.559 16.7897 251 16.2156 251 15.4733C251 15.1043 251.12 14.7762 251.399 14.4892L261.636 5.32806C261.916 5.04101 262.235 5 262.515 5C262.795 5 263.114 5.08202 263.354 5.28705L273.555 14.4933C273.874 14.7803 274.034 15.1084 273.994 15.4774Z" fill="#146566" fill-opacity="0.05"/>
<path d="M273.994 107.477C273.994 108.216 273.395 108.794 272.716 108.794H271.438L271.466 115.363C271.466 115.474 271.458 115.585 271.446 115.695V116.36C271.446 117.266 270.731 118 269.848 118H269.209C269.165 118 269.121 118 269.077 117.996C269.021 118 268.965 118 268.909 118L267.611 117.996H266.653C265.77 117.996 265.055 117.262 265.055 116.356V115.371V112.747C265.055 112.021 264.484 111.435 263.777 111.435H261.221C260.514 111.435 259.943 112.021 259.943 112.747V115.371V116.356C259.943 117.262 259.228 117.996 258.345 117.996H257.386H256.112C256.052 117.996 255.993 117.992 255.933 117.988C255.885 117.992 255.837 117.996 255.789 117.996H255.15C254.267 117.996 253.552 117.262 253.552 116.356V111.763C253.552 111.726 253.552 111.685 253.556 111.648V108.79H252.278C251.559 108.79 251 108.216 251 107.473C251 107.104 251.12 106.776 251.399 106.489L261.636 97.3281C261.916 97.041 262.235 97 262.515 97C262.794 97 263.114 97.082 263.354 97.2871L273.555 106.493C273.874 106.78 274.034 107.108 273.994 107.477Z" fill="#146566" fill-opacity="0.05"/>
<path d="M273.994 199.477C273.994 200.216 273.395 200.794 272.716 200.794H271.438L271.466 207.363C271.466 207.474 271.458 207.585 271.446 207.695V208.36C271.446 209.266 270.731 210 269.848 210H269.209C269.165 210 269.121 210 269.077 209.996C269.021 210 268.965 210 268.909 210L267.611 209.996H266.653C265.77 209.996 265.055 209.262 265.055 208.356V207.371V204.747C265.055 204.021 264.484 203.435 263.777 203.435H261.221C260.514 203.435 259.943 204.021 259.943 204.747V207.371V208.356C259.943 209.262 259.228 209.996 258.345 209.996H257.386H256.112C256.052 209.996 255.993 209.992 255.933 209.988C255.885 209.992 255.837 209.996 255.789 209.996H255.15C254.267 209.996 253.552 209.262 253.552 208.356V203.763C253.552 203.726 253.552 203.685 253.556 203.648V200.79H252.278C251.559 200.79 251 200.216 251 199.473C251 199.104 251.12 198.776 251.399 198.489L261.636 189.328C261.916 189.041 262.235 189 262.515 189C262.794 189 263.114 189.082 263.354 189.287L273.555 198.493C273.874 198.78 274.034 199.108 273.994 199.477Z" fill="#146566" fill-opacity="0.05"/>
<path d="M273.994 291.477C273.994 292.216 273.395 292.794 272.716 292.794H271.438L271.466 299.363C271.466 299.474 271.458 299.585 271.446 299.695V300.36C271.446 301.266 270.731 302 269.848 302H269.209C269.165 302 269.121 302 269.077 301.996C269.021 302 268.965 302 268.909 302L267.611 301.996H266.653C265.77 301.996 265.055 301.262 265.055 300.356V299.371V296.747C265.055 296.021 264.484 295.435 263.777 295.435H261.221C260.514 295.435 259.943 296.021 259.943 296.747V299.371V300.356C259.943 301.262 259.228 301.996 258.345 301.996H257.386H256.112C256.052 301.996 255.993 301.992 255.933 301.988C255.885 301.992 255.837 301.996 255.789 301.996H255.15C254.267 301.996 253.552 301.262 253.552 300.356V295.763C253.552 295.726 253.552 295.685 253.556 295.648V292.79H252.278C251.559 292.79 251 292.216 251 291.473C251 291.104 251.12 290.776 251.399 290.489L261.636 281.328C261.916 281.041 262.235 281 262.515 281C262.794 281 263.114 281.082 263.354 281.287L273.555 290.493C273.874 290.78 274.034 291.108 273.994 291.477Z" fill="#146566" fill-opacity="0.05"/>
<path d="M273.994 383.477C273.994 384.216 273.395 384.794 272.716 384.794H271.438L271.466 391.363C271.466 391.474 271.458 391.585 271.446 391.695V392.36C271.446 393.266 270.731 394 269.848 394H269.209C269.165 394 269.121 394 269.077 393.996C269.021 394 268.965 394 268.909 394L267.611 393.996H266.653C265.77 393.996 265.055 393.262 265.055 392.356V391.371V388.747C265.055 388.021 264.484 387.435 263.777 387.435H261.221C260.514 387.435 259.943 388.021 259.943 388.747V391.371V392.356C259.943 393.262 259.228 393.996 258.345 393.996H257.386H256.112C256.052 393.996 255.993 393.992 255.933 393.988C255.885 393.992 255.837 393.996 255.789 393.996H255.15C254.267 393.996 253.552 393.262 253.552 392.356V387.763C253.552 387.726 253.552 387.685 253.556 387.648V384.79H252.278C251.559 384.79 251 384.216 251 383.473C251 383.104 251.12 382.776 251.399 382.489L261.636 373.328C261.916 373.041 262.235 373 262.515 373C262.794 373 263.114 373.082 263.354 373.287L273.555 382.493C273.874 382.78 274.034 383.108 273.994 383.477Z" fill="#146566" fill-opacity="0.05"/>
<path d="M248.994 61.4774C248.994 62.2156 248.395 62.7938 247.716 62.7938H246.438L246.466 69.3632C246.466 69.4739 246.458 69.5847 246.446 69.6954V70.3597C246.446 71.266 245.731 72 244.848 72H244.209C244.165 72 244.121 72 244.077 71.9959C244.021 72 243.965 72 243.909 72L242.611 71.9959H241.653C240.77 71.9959 240.055 71.2619 240.055 70.3556V69.3714V66.7469C240.055 66.0211 239.484 65.4347 238.777 65.4347H236.221C235.514 65.4347 234.943 66.0211 234.943 66.7469V69.3714V70.3556C234.943 71.2619 234.228 71.9959 233.345 71.9959H232.387H231.112C231.052 71.9959 230.993 71.9918 230.933 71.9877C230.885 71.9918 230.837 71.9959 230.789 71.9959H230.15C229.267 71.9959 228.552 71.2619 228.552 70.3556V65.7627C228.552 65.7258 228.552 65.6848 228.556 65.6479V62.7897H227.278C226.559 62.7897 226 62.2156 226 61.4733C226 61.1043 226.12 60.7762 226.399 60.4892L236.636 51.3281C236.916 51.041 237.235 51 237.515 51C237.795 51 238.114 51.082 238.354 51.2871L248.555 60.4933C248.874 60.7803 249.034 61.1084 248.994 61.4774Z" fill="#146566" fill-opacity="0.05"/>
<path d="M248.994 153.477C248.994 154.216 248.395 154.794 247.716 154.794H246.438L246.466 161.363C246.466 161.474 246.458 161.585 246.446 161.695V162.36C246.446 163.266 245.731 164 244.848 164H244.209C244.165 164 244.121 164 244.077 163.996C244.021 164 243.965 164 243.909 164L242.611 163.996H241.653C240.77 163.996 240.055 163.262 240.055 162.356V161.371V158.747C240.055 158.021 239.484 157.435 238.777 157.435H236.221C235.514 157.435 234.943 158.021 234.943 158.747V161.371V162.356C234.943 163.262 234.228 163.996 233.345 163.996H232.386H231.112C231.052 163.996 230.993 163.992 230.933 163.988C230.885 163.992 230.837 163.996 230.789 163.996H230.15C229.267 163.996 228.552 163.262 228.552 162.356V157.763C228.552 157.726 228.552 157.685 228.556 157.648V154.79H227.278C226.559 154.79 226 154.216 226 153.473C226 153.104 226.12 152.776 226.399 152.489L236.636 143.328C236.916 143.041 237.235 143 237.515 143C237.794 143 238.114 143.082 238.354 143.287L248.555 152.493C248.874 152.78 249.034 153.108 248.994 153.477Z" fill="#146566" fill-opacity="0.05"/>
<path d="M248.994 245.477C248.994 246.216 248.395 246.794 247.716 246.794H246.438L246.466 253.363C246.466 253.474 246.458 253.585 246.446 253.695V254.36C246.446 255.266 245.731 256 244.848 256H244.209C244.165 256 244.121 256 244.077 255.996C244.021 256 243.965 256 243.909 256L242.611 255.996H241.653C240.77 255.996 240.055 255.262 240.055 254.356V253.371V250.747C240.055 250.021 239.484 249.435 238.777 249.435H236.221C235.514 249.435 234.943 250.021 234.943 250.747V253.371V254.356C234.943 255.262 234.228 255.996 233.345 255.996H232.386H231.112C231.052 255.996 230.993 255.992 230.933 255.988C230.885 255.992 230.837 255.996 230.789 255.996H230.15C229.267 255.996 228.552 255.262 228.552 254.356V249.763C228.552 249.726 228.552 249.685 228.556 249.648V246.79H227.278C226.559 246.79 226 246.216 226 245.473C226 245.104 226.12 244.776 226.399 244.489L236.636 235.328C236.916 235.041 237.235 235 237.515 235C237.794 235 238.114 235.082 238.354 235.287L248.555 244.493C248.874 244.78 249.034 245.108 248.994 245.477Z" fill="#146566" fill-opacity="0.05"/>
<path d="M248.994 337.477C248.994 338.216 248.395 338.794 247.716 338.794H246.438L246.466 345.363C246.466 345.474 246.458 345.585 246.446 345.695V346.36C246.446 347.266 245.731 348 244.848 348H244.209C244.165 348 244.121 348 244.077 347.996C244.021 348 243.965 348 243.909 348L242.611 347.996H241.653C240.77 347.996 240.055 347.262 240.055 346.356V345.371V342.747C240.055 342.021 239.484 341.435 238.777 341.435H236.221C235.514 341.435 234.943 342.021 234.943 342.747V345.371V346.356C234.943 347.262 234.228 347.996 233.345 347.996H232.386H231.112C231.052 347.996 230.992 347.992 230.933 347.988C230.885 347.992 230.837 347.996 230.789 347.996H230.15C229.267 347.996 228.552 347.262 228.552 346.356V341.763C228.552 341.726 228.552 341.685 228.556 341.648V338.79H227.278C226.559 338.79 226 338.216 226 337.473C226 337.104 226.12 336.776 226.399 336.489L236.636 327.328C236.916 327.041 237.235 327 237.515 327C237.794 327 238.114 327.082 238.354 327.287L248.554 336.493C248.874 336.78 249.034 337.108 248.994 337.477Z" fill="#146566" fill-opacity="0.05"/>
<path d="M567.994 15.4774C567.994 16.2156 567.395 16.7938 566.716 16.7938H565.438L565.466 23.3632C565.466 23.4739 565.458 23.5847 565.446 23.6954V24.3597C565.446 25.266 564.731 26 563.848 26H563.209C563.165 26 563.121 26 563.077 25.9959C563.021 26 562.965 26 562.909 26L561.611 25.9959H560.653C559.77 25.9959 559.055 25.2619 559.055 24.3556V23.3714V20.7469C559.055 20.0211 558.484 19.4347 557.777 19.4347H555.221C554.514 19.4347 553.943 20.0211 553.943 20.7469V23.3714V24.3556C553.943 25.2619 553.228 25.9959 552.345 25.9959H551.387H550.112C550.053 25.9959 549.993 25.9918 549.933 25.9877C549.885 25.9918 549.837 25.9959 549.789 25.9959H549.15C548.267 25.9959 547.552 25.2619 547.552 24.3556V19.7627C547.552 19.7258 547.552 19.6848 547.556 19.6479V16.7897H546.278C545.559 16.7897 545 16.2156 545 15.4733C545 15.1043 545.12 14.7762 545.399 14.4892L555.636 5.32806C555.916 5.04101 556.235 5 556.515 5C556.795 5 557.114 5.08202 557.354 5.28705L567.555 14.4933C567.874 14.7803 568.034 15.1084 567.994 15.4774Z" fill="#146566" fill-opacity="0.05"/>
<path d="M567.994 107.477C567.994 108.216 567.395 108.794 566.716 108.794H565.438L565.466 115.363C565.466 115.474 565.458 115.585 565.446 115.695V116.36C565.446 117.266 564.731 118 563.848 118H563.209C563.165 118 563.121 118 563.077 117.996C563.021 118 562.965 118 562.909 118L561.611 117.996H560.653C559.77 117.996 559.055 117.262 559.055 116.356V115.371V112.747C559.055 112.021 558.484 111.435 557.777 111.435H555.221C554.514 111.435 553.943 112.021 553.943 112.747V115.371V116.356C553.943 117.262 553.228 117.996 552.345 117.996H551.387H550.112C550.052 117.996 549.993 117.992 549.933 117.988C549.885 117.992 549.837 117.996 549.789 117.996H549.15C548.267 117.996 547.552 117.262 547.552 116.356V111.763C547.552 111.726 547.552 111.685 547.556 111.648V108.79H546.278C545.559 108.79 545 108.216 545 107.473C545 107.104 545.12 106.776 545.399 106.489L555.636 97.3281C555.916 97.041 556.235 97 556.515 97C556.795 97 557.114 97.082 557.354 97.2871L567.555 106.493C567.874 106.78 568.034 107.108 567.994 107.477Z" fill="#146566" fill-opacity="0.05"/>
<path d="M567.994 199.477C567.994 200.216 567.395 200.794 566.716 200.794H565.438L565.466 207.363C565.466 207.474 565.458 207.585 565.446 207.695V208.36C565.446 209.266 564.731 210 563.848 210H563.209C563.165 210 563.121 210 563.077 209.996C563.021 210 562.965 210 562.909 210L561.611 209.996H560.653C559.77 209.996 559.055 209.262 559.055 208.356V207.371V204.747C559.055 204.021 558.484 203.435 557.777 203.435H555.221C554.514 203.435 553.943 204.021 553.943 204.747V207.371V208.356C553.943 209.262 553.228 209.996 552.345 209.996H551.387H550.112C550.052 209.996 549.993 209.992 549.933 209.988C549.885 209.992 549.837 209.996 549.789 209.996H549.15C548.267 209.996 547.552 209.262 547.552 208.356V203.763C547.552 203.726 547.552 203.685 547.556 203.648V200.79H546.278C545.559 200.79 545 200.216 545 199.473C545 199.104 545.12 198.776 545.399 198.489L555.636 189.328C555.916 189.041 556.235 189 556.515 189C556.795 189 557.114 189.082 557.354 189.287L567.555 198.493C567.874 198.78 568.034 199.108 567.994 199.477Z" fill="#146566" fill-opacity="0.05"/>
<path d="M567.994 291.477C567.994 292.216 567.395 292.794 566.716 292.794H565.438L565.466 299.363C565.466 299.474 565.458 299.585 565.446 299.695V300.36C565.446 301.266 564.731 302 563.848 302H563.209C563.165 302 563.121 302 563.077 301.996C563.021 302 562.965 302 562.909 302L561.611 301.996H560.653C559.77 301.996 559.055 301.262 559.055 300.356V299.371V296.747C559.055 296.021 558.484 295.435 557.777 295.435H555.221C554.514 295.435 553.943 296.021 553.943 296.747V299.371V300.356C553.943 301.262 553.228 301.996 552.345 301.996H551.387H550.112C550.052 301.996 549.993 301.992 549.933 301.988C549.885 301.992 549.837 301.996 549.789 301.996H549.15C548.267 301.996 547.552 301.262 547.552 300.356V295.763C547.552 295.726 547.552 295.685 547.556 295.648V292.79H546.278C545.559 292.79 545 292.216 545 291.473C545 291.104 545.12 290.776 545.399 290.489L555.636 281.328C555.916 281.041 556.235 281 556.515 281C556.795 281 557.114 281.082 557.354 281.287L567.555 290.493C567.874 290.78 568.034 291.108 567.994 291.477Z" fill="#146566" fill-opacity="0.05"/>
<path d="M567.994 383.477C567.994 384.216 567.395 384.794 566.716 384.794H565.438L565.466 391.363C565.466 391.474 565.458 391.585 565.446 391.695V392.36C565.446 393.266 564.731 394 563.848 394H563.209C563.165 394 563.121 394 563.077 393.996C563.021 394 562.965 394 562.909 394L561.611 393.996H560.653C559.77 393.996 559.055 393.262 559.055 392.356V391.371V388.747C559.055 388.021 558.484 387.435 557.777 387.435H555.221C554.514 387.435 553.943 388.021 553.943 388.747V391.371V392.356C553.943 393.262 553.228 393.996 552.345 393.996H551.387H550.112C550.052 393.996 549.993 393.992 549.933 393.988C549.885 393.992 549.837 393.996 549.789 393.996H549.15C548.267 393.996 547.552 393.262 547.552 392.356V387.763C547.552 387.726 547.552 387.685 547.556 387.648V384.79H546.278C545.559 384.79 545 384.216 545 383.473C545 383.104 545.12 382.776 545.399 382.489L555.636 373.328C555.916 373.041 556.235 373 556.515 373C556.795 373 557.114 373.082 557.354 373.287L567.555 382.493C567.874 382.78 568.034 383.108 567.994 383.477Z" fill="#146566" fill-opacity="0.05"/>
<path d="M542.994 61.4774C542.994 62.2156 542.395 62.7938 541.716 62.7938H540.438L540.466 69.3632C540.466 69.4739 540.458 69.5847 540.446 69.6954V70.3597C540.446 71.266 539.731 72 538.848 72H538.209C538.165 72 538.121 72 538.077 71.9959C538.021 72 537.965 72 537.909 72L536.611 71.9959H535.653C534.77 71.9959 534.055 71.2619 534.055 70.3556V69.3714V66.7469C534.055 66.0211 533.484 65.4347 532.777 65.4347H530.221C529.514 65.4347 528.943 66.0211 528.943 66.7469V69.3714V70.3556C528.943 71.2619 528.228 71.9959 527.345 71.9959H526.387H525.112C525.053 71.9959 524.993 71.9918 524.933 71.9877C524.885 71.9918 524.837 71.9959 524.789 71.9959H524.15C523.267 71.9959 522.552 71.2619 522.552 70.3556V65.7627C522.552 65.7258 522.552 65.6848 522.556 65.6479V62.7897H521.278C520.559 62.7897 520 62.2156 520 61.4733C520 61.1043 520.12 60.7762 520.399 60.4892L530.636 51.3281C530.916 51.041 531.235 51 531.515 51C531.795 51 532.114 51.082 532.354 51.2871L542.555 60.4933C542.874 60.7803 543.034 61.1084 542.994 61.4774Z" fill="#146566" fill-opacity="0.05"/>
<path d="M542.994 153.477C542.994 154.216 542.395 154.794 541.716 154.794H540.438L540.466 161.363C540.466 161.474 540.458 161.585 540.446 161.695V162.36C540.446 163.266 539.731 164 538.848 164H538.209C538.165 164 538.121 164 538.077 163.996C538.021 164 537.965 164 537.909 164L536.611 163.996H535.653C534.77 163.996 534.055 163.262 534.055 162.356V161.371V158.747C534.055 158.021 533.484 157.435 532.777 157.435H530.221C529.514 157.435 528.943 158.021 528.943 158.747V161.371V162.356C528.943 163.262 528.228 163.996 527.345 163.996H526.387H525.112C525.052 163.996 524.993 163.992 524.933 163.988C524.885 163.992 524.837 163.996 524.789 163.996H524.15C523.267 163.996 522.552 163.262 522.552 162.356V157.763C522.552 157.726 522.552 157.685 522.556 157.648V154.79H521.278C520.559 154.79 520 154.216 520 153.473C520 153.104 520.12 152.776 520.399 152.489L530.636 143.328C530.916 143.041 531.235 143 531.515 143C531.795 143 532.114 143.082 532.354 143.287L542.555 152.493C542.874 152.78 543.034 153.108 542.994 153.477Z" fill="#146566" fill-opacity="0.05"/>
<path d="M542.994 245.477C542.994 246.216 542.395 246.794 541.716 246.794H540.438L540.466 253.363C540.466 253.474 540.458 253.585 540.446 253.695V254.36C540.446 255.266 539.731 256 538.848 256H538.209C538.165 256 538.121 256 538.077 255.996C538.021 256 537.965 256 537.909 256L536.611 255.996H535.653C534.77 255.996 534.055 255.262 534.055 254.356V253.371V250.747C534.055 250.021 533.484 249.435 532.777 249.435H530.221C529.514 249.435 528.943 250.021 528.943 250.747V253.371V254.356C528.943 255.262 528.228 255.996 527.345 255.996H526.386H525.112C525.052 255.996 524.993 255.992 524.933 255.988C524.885 255.992 524.837 255.996 524.789 255.996H524.15C523.267 255.996 522.552 255.262 522.552 254.356V249.763C522.552 249.726 522.552 249.685 522.556 249.648V246.79H521.278C520.559 246.79 520 246.216 520 245.473C520 245.104 520.12 244.776 520.399 244.489L530.636 235.328C530.916 235.041 531.235 235 531.515 235C531.794 235 532.114 235.082 532.354 235.287L542.555 244.493C542.874 244.78 543.034 245.108 542.994 245.477Z" fill="#146566" fill-opacity="0.05"/>
<path d="M542.994 337.477C542.994 338.216 542.395 338.794 541.716 338.794H540.438L540.466 345.363C540.466 345.474 540.458 345.585 540.446 345.695V346.36C540.446 347.266 539.731 348 538.848 348H538.209C538.165 348 538.121 348 538.077 347.996C538.021 348 537.965 348 537.909 348L536.611 347.996H535.653C534.77 347.996 534.055 347.262 534.055 346.356V345.371V342.747C534.055 342.021 533.484 341.435 532.777 341.435H530.221C529.514 341.435 528.943 342.021 528.943 342.747V345.371V346.356C528.943 347.262 528.228 347.996 527.345 347.996H526.386H525.112C525.052 347.996 524.993 347.992 524.933 347.988C524.885 347.992 524.837 347.996 524.789 347.996H524.15C523.267 347.996 522.552 347.262 522.552 346.356V341.763C522.552 341.726 522.552 341.685 522.556 341.648V338.79H521.278C520.559 338.79 520 338.216 520 337.473C520 337.104 520.12 336.776 520.399 336.489L530.636 327.328C530.916 327.041 531.235 327 531.515 327C531.794 327 532.114 327.082 532.354 327.287L542.555 336.493C542.874 336.78 543.034 337.108 542.994 337.477Z" fill="#146566" fill-opacity="0.05"/>
<path d="M288.72 73.4265C295.46 68.8013 298.081 59.9364 298.549 56.082C306.413 206.401 299.018 295.051 294.337 320.586L288.72 314.804C193.239 216.519 248.936 112.933 288.72 73.4265Z" fill="#136669" stroke="#136669"/>
<path d="M309.596 76.0779C305.118 70.1904 299.333 58.9062 297 54C301.479 119.939 299.799 236.51 298.4 286.553C300.639 308.926 306.797 316.481 309.596 317.462C408.127 229.151 350.651 119.743 309.596 76.0779Z" fill="#0C494C" stroke="#0C494C"/>
<path d="M297.25 290.387L293 320.812C296.4 327.767 297.25 345.926 297.25 354.136L305.75 357.033V326.608L310 317.915C304.333 315.597 299.139 298.597 297.25 290.387Z" fill="#E8E8D6"/>
</g>
<defs>
<clipPath id="clip0_340_2943">
<rect width="413" height="600" fill="white" transform="translate(600) rotate(90)"/>
</clipPath>
</defs>
</svg>
