<svg width="413" height="600" viewBox="0 0 413 600" fill="none" xmlns="http://www.w3.org/2000/svg">
<g clip-path="url(#clip0_330_996)">
<rect width="413" height="600" fill="#BFDDE0"/>
<path d="M7.23125 17.3861L15.7016 25.4772C16.0531 25.8129 16.5172 26 17 26C17.4828 26 17.9469 25.8129 18.2984 25.4772L26.7687 17.3861C28.1937 16.0288 29 14.1247 29 12.1343V11.8561C29 8.50356 26.6328 5.64504 23.4031 5.09348C21.2656 4.72897 19.0906 5.4436 17.5625 7.00716L17 7.5827L16.4375 7.00716C14.9094 5.4436 12.7344 4.72897 10.5969 5.09348C7.36719 5.64504 5 8.50356 5 11.8561V12.1343C5 14.1247 5.80625 16.0288 7.23125 17.3861Z" fill="#146566" fill-opacity="0.05"/>
<path d="M7.23125 109.386L15.7016 117.477C16.0531 117.813 16.5172 118 17 118C17.4828 118 17.9469 117.813 18.2984 117.477L26.7687 109.386C28.1937 108.029 29 106.125 29 104.134V103.856C29 100.504 26.6328 97.645 23.4031 97.0935C21.2656 96.729 19.0906 97.4436 17.5625 99.0072L17 99.5827L16.4375 99.0072C14.9094 97.4436 12.7344 96.729 10.5969 97.0935C7.36719 97.645 5 100.504 5 103.856V104.134C5 106.125 5.80625 108.029 7.23125 109.386Z" fill="#146566" fill-opacity="0.05"/>
<path d="M7.23125 201.386L15.7016 209.477C16.0531 209.813 16.5172 210 17 210C17.4828 210 17.9469 209.813 18.2984 209.477L26.7687 201.386C28.1937 200.029 29 198.125 29 196.134V195.856C29 192.504 26.6328 189.645 23.4031 189.093C21.2656 188.729 19.0906 189.444 17.5625 191.007L17 191.583L16.4375 191.007C14.9094 189.444 12.7344 188.729 10.5969 189.093C7.36719 189.645 5 192.504 5 195.856V196.134C5 198.125 5.80625 200.029 7.23125 201.386Z" fill="#146566" fill-opacity="0.05"/>
<path d="M7.23125 293.386L15.7016 301.477C16.0531 301.813 16.5172 302 17 302C17.4828 302 17.9469 301.813 18.2984 301.477L26.7687 293.386C28.1937 292.029 29 290.125 29 288.134V287.856C29 284.504 26.6328 281.645 23.4031 281.093C21.2656 280.729 19.0906 281.444 17.5625 283.007L17 283.583L16.4375 283.007C14.9094 281.444 12.7344 280.729 10.5969 281.093C7.36719 281.645 5 284.504 5 287.856V288.134C5 290.125 5.80625 292.029 7.23125 293.386Z" fill="#146566" fill-opacity="0.05"/>
<path d="M7.23125 385.386L15.7016 393.477C16.0531 393.813 16.5172 394 17 394C17.4828 394 17.9469 393.813 18.2984 393.477L26.7687 385.386C28.1937 384.029 29 382.125 29 380.134V379.856C29 376.504 26.6328 373.645 23.4031 373.093C21.2656 372.729 19.0906 373.444 17.5625 375.007L17 375.583L16.4375 375.007C14.9094 373.444 12.7344 372.729 10.5969 373.093C7.36719 373.645 5 376.504 5 379.856V380.134C5 382.125 5.80625 384.029 7.23125 385.386Z" fill="#146566" fill-opacity="0.05"/>
<path d="M7.23125 477.386L15.7016 485.477C16.0531 485.813 16.5172 486 17 486C17.4828 486 17.9469 485.813 18.2984 485.477L26.7687 477.386C28.1937 476.029 29 474.125 29 472.134V471.856C29 468.504 26.6328 465.645 23.4031 465.093C21.2656 464.729 19.0906 465.444 17.5625 467.007L17 467.583L16.4375 467.007C14.9094 465.444 12.7344 464.729 10.5969 465.093C7.36719 465.645 5 468.504 5 471.856V472.134C5 474.125 5.80625 476.029 7.23125 477.386Z" fill="#146566" fill-opacity="0.05"/>
<path d="M7.23125 569.386L15.7016 577.477C16.0531 577.813 16.5172 578 17 578C17.4828 578 17.9469 577.813 18.2984 577.477L26.7687 569.386C28.1937 568.029 29 566.125 29 564.134V563.856C29 560.504 26.6328 557.645 23.4031 557.093C21.2656 556.729 19.0906 557.444 17.5625 559.007L17 559.583L16.4375 559.007C14.9094 557.444 12.7344 556.729 10.5969 557.093C7.36719 557.645 5 560.504 5 563.856V564.134C5 566.125 5.80625 568.029 7.23125 569.386Z" fill="#146566" fill-opacity="0.05"/>
<path d="M-17.7688 63.3861L-9.29844 71.4772C-8.94687 71.8129 -8.48281 72 -8 72C-7.51719 72 -7.05312 71.8129 -6.70156 71.4772L1.76875 63.3861C3.19375 62.0288 4 60.1247 4 58.1343V57.8561C4 54.5036 1.63281 51.645 -1.59687 51.0935C-3.73437 50.729 -5.90938 51.4436 -7.4375 53.0072L-8 53.5827L-8.5625 53.0072C-10.0906 51.4436 -12.2656 50.729 -14.4031 51.0935C-17.6328 51.645 -20 54.5036 -20 57.8561V58.1343C-20 60.1247 -19.1938 62.0288 -17.7688 63.3861Z" fill="#146566" fill-opacity="0.05"/>
<path d="M-17.7688 155.386L-9.29844 163.477C-8.94687 163.813 -8.48281 164 -8 164C-7.51719 164 -7.05312 163.813 -6.70156 163.477L1.76875 155.386C3.19375 154.029 4 152.125 4 150.134V149.856C4 146.504 1.63281 143.645 -1.59687 143.093C-3.73437 142.729 -5.90938 143.444 -7.4375 145.007L-8 145.583L-8.5625 145.007C-10.0906 143.444 -12.2656 142.729 -14.4031 143.093C-17.6328 143.645 -20 146.504 -20 149.856V150.134C-20 152.125 -19.1938 154.029 -17.7688 155.386Z" fill="#146566" fill-opacity="0.05"/>
<path d="M-17.7688 247.386L-9.29844 255.477C-8.94687 255.813 -8.48281 256 -8 256C-7.51719 256 -7.05312 255.813 -6.70156 255.477L1.76875 247.386C3.19375 246.029 4 244.125 4 242.134V241.856C4 238.504 1.63281 235.645 -1.59687 235.093C-3.73437 234.729 -5.90938 235.444 -7.4375 237.007L-8 237.583L-8.5625 237.007C-10.0906 235.444 -12.2656 234.729 -14.4031 235.093C-17.6328 235.645 -20 238.504 -20 241.856V242.134C-20 244.125 -19.1938 246.029 -17.7688 247.386Z" fill="#146566" fill-opacity="0.05"/>
<path d="M-17.7688 339.386L-9.29844 347.477C-8.94687 347.813 -8.48281 348 -8 348C-7.51719 348 -7.05312 347.813 -6.70156 347.477L1.76875 339.386C3.19375 338.029 4 336.125 4 334.134V333.856C4 330.504 1.63281 327.645 -1.59687 327.093C-3.73437 326.729 -5.90938 327.444 -7.4375 329.007L-8 329.583L-8.5625 329.007C-10.0906 327.444 -12.2656 326.729 -14.4031 327.093C-17.6328 327.645 -20 330.504 -20 333.856V334.134C-20 336.125 -19.1938 338.029 -17.7688 339.386Z" fill="#146566" fill-opacity="0.05"/>
<path d="M-17.7688 431.386L-9.29844 439.477C-8.94687 439.813 -8.48281 440 -8 440C-7.51719 440 -7.05312 439.813 -6.70156 439.477L1.76875 431.386C3.19375 430.029 4 428.125 4 426.134V425.856C4 422.504 1.63281 419.645 -1.59687 419.093C-3.73437 418.729 -5.90938 419.444 -7.4375 421.007L-8 421.583L-8.5625 421.007C-10.0906 419.444 -12.2656 418.729 -14.4031 419.093C-17.6328 419.645 -20 422.504 -20 425.856V426.134C-20 428.125 -19.1938 430.029 -17.7688 431.386Z" fill="#146566" fill-opacity="0.05"/>
<path d="M-17.7688 523.386L-9.29844 531.477C-8.94687 531.813 -8.48281 532 -8 532C-7.51719 532 -7.05312 531.813 -6.70156 531.477L1.76875 523.386C3.19375 522.029 4 520.125 4 518.134V517.856C4 514.504 1.63281 511.645 -1.59687 511.093C-3.73437 510.729 -5.90938 511.444 -7.4375 513.007L-8 513.583L-8.5625 513.007C-10.0906 511.444 -12.2656 510.729 -14.4031 511.093C-17.6328 511.645 -20 514.504 -20 517.856V518.134C-20 520.125 -19.1938 522.029 -17.7688 523.386Z" fill="#146566" fill-opacity="0.05"/>
<path d="M301.231 17.3861L309.702 25.4772C310.053 25.8129 310.517 26 311 26C311.483 26 311.947 25.8129 312.298 25.4772L320.769 17.3861C322.194 16.0288 323 14.1247 323 12.1343V11.8561C323 8.50356 320.633 5.64504 317.403 5.09348C315.266 4.72897 313.091 5.4436 311.562 7.00716L311 7.5827L310.438 7.00716C308.909 5.4436 306.734 4.72897 304.597 5.09348C301.367 5.64504 299 8.50356 299 11.8561V12.1343C299 14.1247 299.806 16.0288 301.231 17.3861Z" fill="#146566" fill-opacity="0.05"/>
<path d="M301.231 109.386L309.702 117.477C310.053 117.813 310.517 118 311 118C311.483 118 311.947 117.813 312.298 117.477L320.769 109.386C322.194 108.029 323 106.125 323 104.134V103.856C323 100.504 320.633 97.645 317.403 97.0935C315.266 96.729 313.091 97.4436 311.562 99.0072L311 99.5827L310.438 99.0072C308.909 97.4436 306.734 96.729 304.597 97.0935C301.367 97.645 299 100.504 299 103.856V104.134C299 106.125 299.806 108.029 301.231 109.386Z" fill="#146566" fill-opacity="0.05"/>
<path d="M301.231 201.386L309.702 209.477C310.053 209.813 310.517 210 311 210C311.483 210 311.947 209.813 312.298 209.477L320.769 201.386C322.194 200.029 323 198.125 323 196.134V195.856C323 192.504 320.633 189.645 317.403 189.093C315.266 188.729 313.091 189.444 311.562 191.007L311 191.583L310.438 191.007C308.909 189.444 306.734 188.729 304.597 189.093C301.367 189.645 299 192.504 299 195.856V196.134C299 198.125 299.806 200.029 301.231 201.386Z" fill="#146566" fill-opacity="0.05"/>
<path d="M301.231 293.386L309.702 301.477C310.053 301.813 310.517 302 311 302C311.483 302 311.947 301.813 312.298 301.477L320.769 293.386C322.194 292.029 323 290.125 323 288.134V287.856C323 284.504 320.633 281.645 317.403 281.093C315.266 280.729 313.091 281.444 311.562 283.007L311 283.583L310.438 283.007C308.909 281.444 306.734 280.729 304.597 281.093C301.367 281.645 299 284.504 299 287.856V288.134C299 290.125 299.806 292.029 301.231 293.386Z" fill="#146566" fill-opacity="0.05"/>
<path d="M301.231 385.386L309.702 393.477C310.053 393.813 310.517 394 311 394C311.483 394 311.947 393.813 312.298 393.477L320.769 385.386C322.194 384.029 323 382.125 323 380.134V379.856C323 376.504 320.633 373.645 317.403 373.093C315.266 372.729 313.091 373.444 311.562 375.007L311 375.583L310.438 375.007C308.909 373.444 306.734 372.729 304.597 373.093C301.367 373.645 299 376.504 299 379.856V380.134C299 382.125 299.806 384.029 301.231 385.386Z" fill="#146566" fill-opacity="0.05"/>
<path d="M301.231 477.386L309.702 485.477C310.053 485.813 310.517 486 311 486C311.483 486 311.947 485.813 312.298 485.477L320.769 477.386C322.194 476.029 323 474.125 323 472.134V471.856C323 468.504 320.633 465.645 317.403 465.093C315.266 464.729 313.091 465.444 311.562 467.007L311 467.583L310.438 467.007C308.909 465.444 306.734 464.729 304.597 465.093C301.367 465.645 299 468.504 299 471.856V472.134C299 474.125 299.806 476.029 301.231 477.386Z" fill="#146566" fill-opacity="0.05"/>
<path d="M301.231 569.386L309.702 577.477C310.053 577.813 310.517 578 311 578C311.483 578 311.947 577.813 312.298 577.477L320.769 569.386C322.194 568.029 323 566.125 323 564.134V563.856C323 560.504 320.633 557.645 317.403 557.093C315.266 556.729 313.091 557.444 311.562 559.007L311 559.583L310.438 559.007C308.909 557.444 306.734 556.729 304.597 557.093C301.367 557.645 299 560.504 299 563.856V564.134C299 566.125 299.806 568.029 301.231 569.386Z" fill="#146566" fill-opacity="0.05"/>
<path d="M276.231 63.3861L284.702 71.4772C285.053 71.8129 285.517 72 286 72C286.483 72 286.947 71.8129 287.298 71.4772L295.769 63.3861C297.194 62.0288 298 60.1247 298 58.1343V57.8561C298 54.5036 295.633 51.645 292.403 51.0935C290.266 50.729 288.091 51.4436 286.562 53.0072L286 53.5827L285.438 53.0072C283.909 51.4436 281.734 50.729 279.597 51.0935C276.367 51.645 274 54.5036 274 57.8561V58.1343C274 60.1247 274.806 62.0288 276.231 63.3861Z" fill="#146566" fill-opacity="0.05"/>
<path d="M276.231 155.386L284.702 163.477C285.053 163.813 285.517 164 286 164C286.483 164 286.947 163.813 287.298 163.477L295.769 155.386C297.194 154.029 298 152.125 298 150.134V149.856C298 146.504 295.633 143.645 292.403 143.093C290.266 142.729 288.091 143.444 286.562 145.007L286 145.583L285.438 145.007C283.909 143.444 281.734 142.729 279.597 143.093C276.367 143.645 274 146.504 274 149.856V150.134C274 152.125 274.806 154.029 276.231 155.386Z" fill="#146566" fill-opacity="0.05"/>
<path d="M276.231 247.386L284.702 255.477C285.053 255.813 285.517 256 286 256C286.483 256 286.947 255.813 287.298 255.477L295.769 247.386C297.194 246.029 298 244.125 298 242.134V241.856C298 238.504 295.633 235.645 292.403 235.093C290.266 234.729 288.091 235.444 286.562 237.007L286 237.583L285.438 237.007C283.909 235.444 281.734 234.729 279.597 235.093C276.367 235.645 274 238.504 274 241.856V242.134C274 244.125 274.806 246.029 276.231 247.386Z" fill="#146566" fill-opacity="0.05"/>
<path d="M276.231 339.386L284.702 347.477C285.053 347.813 285.517 348 286 348C286.483 348 286.947 347.813 287.298 347.477L295.769 339.386C297.194 338.029 298 336.125 298 334.134V333.856C298 330.504 295.633 327.645 292.403 327.093C290.266 326.729 288.091 327.444 286.562 329.007L286 329.583L285.438 329.007C283.909 327.444 281.734 326.729 279.597 327.093C276.367 327.645 274 330.504 274 333.856V334.134C274 336.125 274.806 338.029 276.231 339.386Z" fill="#146566" fill-opacity="0.05"/>
<path d="M276.231 431.386L284.702 439.477C285.053 439.813 285.517 440 286 440C286.483 440 286.947 439.813 287.298 439.477L295.769 431.386C297.194 430.029 298 428.125 298 426.134V425.856C298 422.504 295.633 419.645 292.403 419.093C290.266 418.729 288.091 419.444 286.562 421.007L286 421.583L285.438 421.007C283.909 419.444 281.734 418.729 279.597 419.093C276.367 419.645 274 422.504 274 425.856V426.134C274 428.125 274.806 430.029 276.231 431.386Z" fill="#146566" fill-opacity="0.05"/>
<path d="M276.231 523.386L284.702 531.477C285.053 531.813 285.517 532 286 532C286.483 532 286.947 531.813 287.298 531.477L295.769 523.386C297.194 522.029 298 520.125 298 518.134V517.856C298 514.504 295.633 511.645 292.403 511.093C290.266 510.729 288.091 511.444 286.562 513.007L286 513.583L285.438 513.007C283.909 511.444 281.734 510.729 279.597 511.093C276.367 511.645 274 514.504 274 517.856V518.134C274 520.125 274.806 522.029 276.231 523.386Z" fill="#146566" fill-opacity="0.05"/>
<path d="M54 12.5C54 10.8453 55.3453 9.5 57 9.5C57.0234 9.5 57.0516 9.5 57.075 9.5C57.4219 7.78906 58.9359 6.5 60.75 6.5C61.4531 6.5 62.1094 6.69219 62.6672 7.025C63.2906 5.825 64.5516 5 66 5C67.4484 5 68.7094 5.825 69.3328 7.025C69.8906 6.69219 70.5469 6.5 71.25 6.5C73.0641 6.5 74.5781 7.78906 74.925 9.5C74.9484 9.5 74.9766 9.5 75 9.5C76.6547 9.5 78 10.8453 78 12.5C78 13.0484 77.8547 13.5594 77.5969 14H54.4031C54.1453 13.5594 54 13.0484 54 12.5ZM54 16.7844C54 16.0766 54.5766 15.5 55.2844 15.5H76.7109C77.4188 15.5 77.9953 16.0766 77.9953 16.7844C77.9953 20.0891 75.9141 22.9109 72.9938 24.0078L72.9141 24.6875C72.8203 25.4375 72.1828 26 71.4234 26H60.5719C59.8172 26 59.175 25.4375 59.0813 24.6875L58.9969 24.0125C56.0812 22.9109 54 20.0891 54 16.7844Z" fill="#146566" fill-opacity="0.05"/>
<path d="M54 104.5C54 102.845 55.3453 101.5 57 101.5C57.0234 101.5 57.0516 101.5 57.075 101.5C57.4219 99.7891 58.9359 98.5 60.75 98.5C61.4531 98.5 62.1094 98.6922 62.6672 99.025C63.2906 97.825 64.5516 97 66 97C67.4484 97 68.7094 97.825 69.3328 99.025C69.8906 98.6922 70.5469 98.5 71.25 98.5C73.0641 98.5 74.5781 99.7891 74.925 101.5C74.9484 101.5 74.9766 101.5 75 101.5C76.6547 101.5 78 102.845 78 104.5C78 105.048 77.8547 105.559 77.5969 106H54.4031C54.1453 105.559 54 105.048 54 104.5ZM54 108.784C54 108.077 54.5766 107.5 55.2844 107.5H76.7109C77.4188 107.5 77.9953 108.077 77.9953 108.784C77.9953 112.089 75.9141 114.911 72.9938 116.008L72.9141 116.688C72.8203 117.438 72.1828 118 71.4234 118H60.5719C59.8172 118 59.175 117.438 59.0813 116.688L58.9969 116.013C56.0812 114.911 54 112.089 54 108.784Z" fill="#146566" fill-opacity="0.05"/>
<path d="M54 196.5C54 194.845 55.3453 193.5 57 193.5C57.0234 193.5 57.0516 193.5 57.075 193.5C57.4219 191.789 58.9359 190.5 60.75 190.5C61.4531 190.5 62.1094 190.692 62.6672 191.025C63.2906 189.825 64.5516 189 66 189C67.4484 189 68.7094 189.825 69.3328 191.025C69.8906 190.692 70.5469 190.5 71.25 190.5C73.0641 190.5 74.5781 191.789 74.925 193.5C74.9484 193.5 74.9766 193.5 75 193.5C76.6547 193.5 78 194.845 78 196.5C78 197.048 77.8547 197.559 77.5969 198H54.4031C54.1453 197.559 54 197.048 54 196.5ZM54 200.784C54 200.077 54.5766 199.5 55.2844 199.5H76.7109C77.4188 199.5 77.9953 200.077 77.9953 200.784C77.9953 204.089 75.9141 206.911 72.9938 208.008L72.9141 208.688C72.8203 209.438 72.1828 210 71.4234 210H60.5719C59.8172 210 59.175 209.438 59.0813 208.688L58.9969 208.013C56.0812 206.911 54 204.089 54 200.784Z" fill="#146566" fill-opacity="0.05"/>
<path d="M54 288.5C54 286.845 55.3453 285.5 57 285.5C57.0234 285.5 57.0516 285.5 57.075 285.5C57.4219 283.789 58.9359 282.5 60.75 282.5C61.4531 282.5 62.1094 282.692 62.6672 283.025C63.2906 281.825 64.5516 281 66 281C67.4484 281 68.7094 281.825 69.3328 283.025C69.8906 282.692 70.5469 282.5 71.25 282.5C73.0641 282.5 74.5781 283.789 74.925 285.5C74.9484 285.5 74.9766 285.5 75 285.5C76.6547 285.5 78 286.845 78 288.5C78 289.048 77.8547 289.559 77.5969 290H54.4031C54.1453 289.559 54 289.048 54 288.5ZM54 292.784C54 292.077 54.5766 291.5 55.2844 291.5H76.7109C77.4188 291.5 77.9953 292.077 77.9953 292.784C77.9953 296.089 75.9141 298.911 72.9938 300.008L72.9141 300.688C72.8203 301.438 72.1828 302 71.4234 302H60.5719C59.8172 302 59.175 301.438 59.0813 300.688L58.9969 300.013C56.0812 298.911 54 296.089 54 292.784Z" fill="#146566" fill-opacity="0.05"/>
<path d="M54 380.5C54 378.845 55.3453 377.5 57 377.5C57.0234 377.5 57.0516 377.5 57.075 377.5C57.4219 375.789 58.9359 374.5 60.75 374.5C61.4531 374.5 62.1094 374.692 62.6672 375.025C63.2906 373.825 64.5516 373 66 373C67.4484 373 68.7094 373.825 69.3328 375.025C69.8906 374.692 70.5469 374.5 71.25 374.5C73.0641 374.5 74.5781 375.789 74.925 377.5C74.9484 377.5 74.9766 377.5 75 377.5C76.6547 377.5 78 378.845 78 380.5C78 381.048 77.8547 381.559 77.5969 382H54.4031C54.1453 381.559 54 381.048 54 380.5ZM54 384.784C54 384.077 54.5766 383.5 55.2844 383.5H76.7109C77.4188 383.5 77.9953 384.077 77.9953 384.784C77.9953 388.089 75.9141 390.911 72.9938 392.008L72.9141 392.688C72.8203 393.438 72.1828 394 71.4234 394H60.5719C59.8172 394 59.175 393.438 59.0813 392.688L58.9969 392.013C56.0812 390.911 54 388.089 54 384.784Z" fill="#146566" fill-opacity="0.05"/>
<path d="M54 472.5C54 470.845 55.3453 469.5 57 469.5C57.0234 469.5 57.0516 469.5 57.075 469.5C57.4219 467.789 58.9359 466.5 60.75 466.5C61.4531 466.5 62.1094 466.692 62.6672 467.025C63.2906 465.825 64.5516 465 66 465C67.4484 465 68.7094 465.825 69.3328 467.025C69.8906 466.692 70.5469 466.5 71.25 466.5C73.0641 466.5 74.5781 467.789 74.925 469.5C74.9484 469.5 74.9766 469.5 75 469.5C76.6547 469.5 78 470.845 78 472.5C78 473.048 77.8547 473.559 77.5969 474H54.4031C54.1453 473.559 54 473.048 54 472.5ZM54 476.784C54 476.077 54.5766 475.5 55.2844 475.5H76.7109C77.4188 475.5 77.9953 476.077 77.9953 476.784C77.9953 480.089 75.9141 482.911 72.9938 484.008L72.9141 484.688C72.8203 485.438 72.1828 486 71.4234 486H60.5719C59.8172 486 59.175 485.438 59.0813 484.688L58.9969 484.013C56.0812 482.911 54 480.089 54 476.784Z" fill="#146566" fill-opacity="0.05"/>
<path d="M54 564.5C54 562.845 55.3453 561.5 57 561.5C57.0234 561.5 57.0516 561.5 57.075 561.5C57.4219 559.789 58.9359 558.5 60.75 558.5C61.4531 558.5 62.1094 558.692 62.6672 559.025C63.2906 557.825 64.5516 557 66 557C67.4484 557 68.7094 557.825 69.3328 559.025C69.8906 558.692 70.5469 558.5 71.25 558.5C73.0641 558.5 74.5781 559.789 74.925 561.5C74.9484 561.5 74.9766 561.5 75 561.5C76.6547 561.5 78 562.845 78 564.5C78 565.048 77.8547 565.559 77.5969 566H54.4031C54.1453 565.559 54 565.048 54 564.5ZM54 568.784C54 568.077 54.5766 567.5 55.2844 567.5H76.7109C77.4188 567.5 77.9953 568.077 77.9953 568.784C77.9953 572.089 75.9141 574.911 72.9938 576.008L72.9141 576.688C72.8203 577.438 72.1828 578 71.4234 578H60.5719C59.8172 578 59.175 577.438 59.0813 576.688L58.9969 576.013C56.0812 574.911 54 572.089 54 568.784Z" fill="#146566" fill-opacity="0.05"/>
<path d="M29 58.5C29 56.8453 30.3453 55.5 32 55.5C32.0234 55.5 32.0516 55.5 32.075 55.5C32.4219 53.7891 33.9359 52.5 35.75 52.5C36.4531 52.5 37.1094 52.6922 37.6672 53.025C38.2906 51.825 39.5516 51 41 51C42.4484 51 43.7094 51.825 44.3328 53.025C44.8906 52.6922 45.5469 52.5 46.25 52.5C48.0641 52.5 49.5781 53.7891 49.925 55.5C49.9484 55.5 49.9766 55.5 50 55.5C51.6547 55.5 53 56.8453 53 58.5C53 59.0484 52.8547 59.5594 52.5969 60H29.4031C29.1453 59.5594 29 59.0484 29 58.5ZM29 62.7844C29 62.0766 29.5766 61.5 30.2844 61.5H51.7109C52.4188 61.5 52.9953 62.0766 52.9953 62.7844C52.9953 66.0891 50.9141 68.9109 47.9938 70.0078L47.9141 70.6875C47.8203 71.4375 47.1828 72 46.4234 72H35.5719C34.8172 72 34.175 71.4375 34.0813 70.6875L33.9969 70.0125C31.0812 68.9109 29 66.0891 29 62.7844Z" fill="#146566" fill-opacity="0.05"/>
<path d="M29 150.5C29 148.845 30.3453 147.5 32 147.5C32.0234 147.5 32.0516 147.5 32.075 147.5C32.4219 145.789 33.9359 144.5 35.75 144.5C36.4531 144.5 37.1094 144.692 37.6672 145.025C38.2906 143.825 39.5516 143 41 143C42.4484 143 43.7094 143.825 44.3328 145.025C44.8906 144.692 45.5469 144.5 46.25 144.5C48.0641 144.5 49.5781 145.789 49.925 147.5C49.9484 147.5 49.9766 147.5 50 147.5C51.6547 147.5 53 148.845 53 150.5C53 151.048 52.8547 151.559 52.5969 152H29.4031C29.1453 151.559 29 151.048 29 150.5ZM29 154.784C29 154.077 29.5766 153.5 30.2844 153.5H51.7109C52.4188 153.5 52.9953 154.077 52.9953 154.784C52.9953 158.089 50.9141 160.911 47.9938 162.008L47.9141 162.688C47.8203 163.438 47.1828 164 46.4234 164H35.5719C34.8172 164 34.175 163.438 34.0813 162.688L33.9969 162.013C31.0812 160.911 29 158.089 29 154.784Z" fill="#146566" fill-opacity="0.05"/>
<path d="M29 242.5C29 240.845 30.3453 239.5 32 239.5C32.0234 239.5 32.0516 239.5 32.075 239.5C32.4219 237.789 33.9359 236.5 35.75 236.5C36.4531 236.5 37.1094 236.692 37.6672 237.025C38.2906 235.825 39.5516 235 41 235C42.4484 235 43.7094 235.825 44.3328 237.025C44.8906 236.692 45.5469 236.5 46.25 236.5C48.0641 236.5 49.5781 237.789 49.925 239.5C49.9484 239.5 49.9766 239.5 50 239.5C51.6547 239.5 53 240.845 53 242.5C53 243.048 52.8547 243.559 52.5969 244H29.4031C29.1453 243.559 29 243.048 29 242.5ZM29 246.784C29 246.077 29.5766 245.5 30.2844 245.5H51.7109C52.4188 245.5 52.9953 246.077 52.9953 246.784C52.9953 250.089 50.9141 252.911 47.9938 254.008L47.9141 254.688C47.8203 255.438 47.1828 256 46.4234 256H35.5719C34.8172 256 34.175 255.438 34.0813 254.688L33.9969 254.013C31.0812 252.911 29 250.089 29 246.784Z" fill="#146566" fill-opacity="0.05"/>
<path d="M29 334.5C29 332.845 30.3453 331.5 32 331.5C32.0234 331.5 32.0516 331.5 32.075 331.5C32.4219 329.789 33.9359 328.5 35.75 328.5C36.4531 328.5 37.1094 328.692 37.6672 329.025C38.2906 327.825 39.5516 327 41 327C42.4484 327 43.7094 327.825 44.3328 329.025C44.8906 328.692 45.5469 328.5 46.25 328.5C48.0641 328.5 49.5781 329.789 49.925 331.5C49.9484 331.5 49.9766 331.5 50 331.5C51.6547 331.5 53 332.845 53 334.5C53 335.048 52.8547 335.559 52.5969 336H29.4031C29.1453 335.559 29 335.048 29 334.5ZM29 338.784C29 338.077 29.5766 337.5 30.2844 337.5H51.7109C52.4188 337.5 52.9953 338.077 52.9953 338.784C52.9953 342.089 50.9141 344.911 47.9938 346.008L47.9141 346.688C47.8203 347.438 47.1828 348 46.4234 348H35.5719C34.8172 348 34.175 347.438 34.0813 346.688L33.9969 346.013C31.0812 344.911 29 342.089 29 338.784Z" fill="#146566" fill-opacity="0.05"/>
<path d="M29 426.5C29 424.845 30.3453 423.5 32 423.5C32.0234 423.5 32.0516 423.5 32.075 423.5C32.4219 421.789 33.9359 420.5 35.75 420.5C36.4531 420.5 37.1094 420.692 37.6672 421.025C38.2906 419.825 39.5516 419 41 419C42.4484 419 43.7094 419.825 44.3328 421.025C44.8906 420.692 45.5469 420.5 46.25 420.5C48.0641 420.5 49.5781 421.789 49.925 423.5C49.9484 423.5 49.9766 423.5 50 423.5C51.6547 423.5 53 424.845 53 426.5C53 427.048 52.8547 427.559 52.5969 428H29.4031C29.1453 427.559 29 427.048 29 426.5ZM29 430.784C29 430.077 29.5766 429.5 30.2844 429.5H51.7109C52.4188 429.5 52.9953 430.077 52.9953 430.784C52.9953 434.089 50.9141 436.911 47.9938 438.008L47.9141 438.688C47.8203 439.438 47.1828 440 46.4234 440H35.5719C34.8172 440 34.175 439.438 34.0813 438.688L33.9969 438.013C31.0812 436.911 29 434.089 29 430.784Z" fill="#146566" fill-opacity="0.05"/>
<path d="M29 518.5C29 516.845 30.3453 515.5 32 515.5C32.0234 515.5 32.0516 515.5 32.075 515.5C32.4219 513.789 33.9359 512.5 35.75 512.5C36.4531 512.5 37.1094 512.692 37.6672 513.025C38.2906 511.825 39.5516 511 41 511C42.4484 511 43.7094 511.825 44.3328 513.025C44.8906 512.692 45.5469 512.5 46.25 512.5C48.0641 512.5 49.5781 513.789 49.925 515.5C49.9484 515.5 49.9766 515.5 50 515.5C51.6547 515.5 53 516.845 53 518.5C53 519.048 52.8547 519.559 52.5969 520H29.4031C29.1453 519.559 29 519.048 29 518.5ZM29 522.784C29 522.077 29.5766 521.5 30.2844 521.5H51.7109C52.4188 521.5 52.9953 522.077 52.9953 522.784C52.9953 526.089 50.9141 528.911 47.9938 530.008L47.9141 530.688C47.8203 531.438 47.1828 532 46.4234 532H35.5719C34.8172 532 34.175 531.438 34.0813 530.688L33.9969 530.013C31.0812 528.911 29 526.089 29 522.784Z" fill="#146566" fill-opacity="0.05"/>
<path d="M348 12.5C348 10.8453 349.345 9.5 351 9.5C351.023 9.5 351.052 9.5 351.075 9.5C351.422 7.78906 352.936 6.5 354.75 6.5C355.453 6.5 356.109 6.69219 356.667 7.025C357.291 5.825 358.552 5 360 5C361.448 5 362.709 5.825 363.333 7.025C363.891 6.69219 364.547 6.5 365.25 6.5C367.064 6.5 368.578 7.78906 368.925 9.5C368.948 9.5 368.977 9.5 369 9.5C370.655 9.5 372 10.8453 372 12.5C372 13.0484 371.855 13.5594 371.597 14H348.403C348.145 13.5594 348 13.0484 348 12.5ZM348 16.7844C348 16.0766 348.577 15.5 349.284 15.5H370.711C371.419 15.5 371.995 16.0766 371.995 16.7844C371.995 20.0891 369.914 22.9109 366.994 24.0078L366.914 24.6875C366.82 25.4375 366.183 26 365.423 26H354.572C353.817 26 353.175 25.4375 353.081 24.6875L352.997 24.0125C350.081 22.9109 348 20.0891 348 16.7844Z" fill="#146566" fill-opacity="0.05"/>
<path d="M348 104.5C348 102.845 349.345 101.5 351 101.5C351.023 101.5 351.052 101.5 351.075 101.5C351.422 99.7891 352.936 98.5 354.75 98.5C355.453 98.5 356.109 98.6922 356.667 99.025C357.291 97.825 358.552 97 360 97C361.448 97 362.709 97.825 363.333 99.025C363.891 98.6922 364.547 98.5 365.25 98.5C367.064 98.5 368.578 99.7891 368.925 101.5C368.948 101.5 368.977 101.5 369 101.5C370.655 101.5 372 102.845 372 104.5C372 105.048 371.855 105.559 371.597 106H348.403C348.145 105.559 348 105.048 348 104.5ZM348 108.784C348 108.077 348.577 107.5 349.284 107.5H370.711C371.419 107.5 371.995 108.077 371.995 108.784C371.995 112.089 369.914 114.911 366.994 116.008L366.914 116.688C366.82 117.438 366.183 118 365.423 118H354.572C353.817 118 353.175 117.438 353.081 116.688L352.997 116.013C350.081 114.911 348 112.089 348 108.784Z" fill="#146566" fill-opacity="0.05"/>
<path d="M348 196.5C348 194.845 349.345 193.5 351 193.5C351.023 193.5 351.052 193.5 351.075 193.5C351.422 191.789 352.936 190.5 354.75 190.5C355.453 190.5 356.109 190.692 356.667 191.025C357.291 189.825 358.552 189 360 189C361.448 189 362.709 189.825 363.333 191.025C363.891 190.692 364.547 190.5 365.25 190.5C367.064 190.5 368.578 191.789 368.925 193.5C368.948 193.5 368.977 193.5 369 193.5C370.655 193.5 372 194.845 372 196.5C372 197.048 371.855 197.559 371.597 198H348.403C348.145 197.559 348 197.048 348 196.5ZM348 200.784C348 200.077 348.577 199.5 349.284 199.5H370.711C371.419 199.5 371.995 200.077 371.995 200.784C371.995 204.089 369.914 206.911 366.994 208.008L366.914 208.688C366.82 209.438 366.183 210 365.423 210H354.572C353.817 210 353.175 209.438 353.081 208.688L352.997 208.013C350.081 206.911 348 204.089 348 200.784Z" fill="#146566" fill-opacity="0.05"/>
<path d="M348 288.5C348 286.845 349.345 285.5 351 285.5C351.023 285.5 351.052 285.5 351.075 285.5C351.422 283.789 352.936 282.5 354.75 282.5C355.453 282.5 356.109 282.692 356.667 283.025C357.291 281.825 358.552 281 360 281C361.448 281 362.709 281.825 363.333 283.025C363.891 282.692 364.547 282.5 365.25 282.5C367.064 282.5 368.578 283.789 368.925 285.5C368.948 285.5 368.977 285.5 369 285.5C370.655 285.5 372 286.845 372 288.5C372 289.048 371.855 289.559 371.597 290H348.403C348.145 289.559 348 289.048 348 288.5ZM348 292.784C348 292.077 348.577 291.5 349.284 291.5H370.711C371.419 291.5 371.995 292.077 371.995 292.784C371.995 296.089 369.914 298.911 366.994 300.008L366.914 300.688C366.82 301.438 366.183 302 365.423 302H354.572C353.817 302 353.175 301.438 353.081 300.688L352.997 300.013C350.081 298.911 348 296.089 348 292.784Z" fill="#146566" fill-opacity="0.05"/>
<path d="M348 380.5C348 378.845 349.345 377.5 351 377.5C351.023 377.5 351.052 377.5 351.075 377.5C351.422 375.789 352.936 374.5 354.75 374.5C355.453 374.5 356.109 374.692 356.667 375.025C357.291 373.825 358.552 373 360 373C361.448 373 362.709 373.825 363.333 375.025C363.891 374.692 364.547 374.5 365.25 374.5C367.064 374.5 368.578 375.789 368.925 377.5C368.948 377.5 368.977 377.5 369 377.5C370.655 377.5 372 378.845 372 380.5C372 381.048 371.855 381.559 371.597 382H348.403C348.145 381.559 348 381.048 348 380.5ZM348 384.784C348 384.077 348.577 383.5 349.284 383.5H370.711C371.419 383.5 371.995 384.077 371.995 384.784C371.995 388.089 369.914 390.911 366.994 392.008L366.914 392.688C366.82 393.438 366.183 394 365.423 394H354.572C353.817 394 353.175 393.438 353.081 392.688L352.997 392.013C350.081 390.911 348 388.089 348 384.784Z" fill="#146566" fill-opacity="0.05"/>
<path d="M348 472.5C348 470.845 349.345 469.5 351 469.5C351.023 469.5 351.052 469.5 351.075 469.5C351.422 467.789 352.936 466.5 354.75 466.5C355.453 466.5 356.109 466.692 356.667 467.025C357.291 465.825 358.552 465 360 465C361.448 465 362.709 465.825 363.333 467.025C363.891 466.692 364.547 466.5 365.25 466.5C367.064 466.5 368.578 467.789 368.925 469.5C368.948 469.5 368.977 469.5 369 469.5C370.655 469.5 372 470.845 372 472.5C372 473.048 371.855 473.559 371.597 474H348.403C348.145 473.559 348 473.048 348 472.5ZM348 476.784C348 476.077 348.577 475.5 349.284 475.5H370.711C371.419 475.5 371.995 476.077 371.995 476.784C371.995 480.089 369.914 482.911 366.994 484.008L366.914 484.688C366.82 485.438 366.183 486 365.423 486H354.572C353.817 486 353.175 485.438 353.081 484.688L352.997 484.013C350.081 482.911 348 480.089 348 476.784Z" fill="#146566" fill-opacity="0.05"/>
<path d="M348 564.5C348 562.845 349.345 561.5 351 561.5C351.023 561.5 351.052 561.5 351.075 561.5C351.422 559.789 352.936 558.5 354.75 558.5C355.453 558.5 356.109 558.692 356.667 559.025C357.291 557.825 358.552 557 360 557C361.448 557 362.709 557.825 363.333 559.025C363.891 558.692 364.547 558.5 365.25 558.5C367.064 558.5 368.578 559.789 368.925 561.5C368.948 561.5 368.977 561.5 369 561.5C370.655 561.5 372 562.845 372 564.5C372 565.048 371.855 565.559 371.597 566H348.403C348.145 565.559 348 565.048 348 564.5ZM348 568.784C348 568.077 348.577 567.5 349.284 567.5H370.711C371.419 567.5 371.995 568.077 371.995 568.784C371.995 572.089 369.914 574.911 366.994 576.008L366.914 576.688C366.82 577.438 366.183 578 365.423 578H354.572C353.817 578 353.175 577.438 353.081 576.688L352.997 576.013C350.081 574.911 348 572.089 348 568.784Z" fill="#146566" fill-opacity="0.05"/>
<path d="M323 58.5C323 56.8453 324.345 55.5 326 55.5C326.023 55.5 326.052 55.5 326.075 55.5C326.422 53.7891 327.936 52.5 329.75 52.5C330.453 52.5 331.109 52.6922 331.667 53.025C332.291 51.825 333.552 51 335 51C336.448 51 337.709 51.825 338.333 53.025C338.891 52.6922 339.547 52.5 340.25 52.5C342.064 52.5 343.578 53.7891 343.925 55.5C343.948 55.5 343.977 55.5 344 55.5C345.655 55.5 347 56.8453 347 58.5C347 59.0484 346.855 59.5594 346.597 60H323.403C323.145 59.5594 323 59.0484 323 58.5ZM323 62.7844C323 62.0766 323.577 61.5 324.284 61.5H345.711C346.419 61.5 346.995 62.0766 346.995 62.7844C346.995 66.0891 344.914 68.9109 341.994 70.0078L341.914 70.6875C341.82 71.4375 341.183 72 340.423 72H329.572C328.817 72 328.175 71.4375 328.081 70.6875L327.997 70.0125C325.081 68.9109 323 66.0891 323 62.7844Z" fill="#146566" fill-opacity="0.05"/>
<path d="M323 150.5C323 148.845 324.345 147.5 326 147.5C326.023 147.5 326.052 147.5 326.075 147.5C326.422 145.789 327.936 144.5 329.75 144.5C330.453 144.5 331.109 144.692 331.667 145.025C332.291 143.825 333.552 143 335 143C336.448 143 337.709 143.825 338.333 145.025C338.891 144.692 339.547 144.5 340.25 144.5C342.064 144.5 343.578 145.789 343.925 147.5C343.948 147.5 343.977 147.5 344 147.5C345.655 147.5 347 148.845 347 150.5C347 151.048 346.855 151.559 346.597 152H323.403C323.145 151.559 323 151.048 323 150.5ZM323 154.784C323 154.077 323.577 153.5 324.284 153.5H345.711C346.419 153.5 346.995 154.077 346.995 154.784C346.995 158.089 344.914 160.911 341.994 162.008L341.914 162.688C341.82 163.438 341.183 164 340.423 164H329.572C328.817 164 328.175 163.438 328.081 162.688L327.997 162.013C325.081 160.911 323 158.089 323 154.784Z" fill="#146566" fill-opacity="0.05"/>
<path d="M323 242.5C323 240.845 324.345 239.5 326 239.5C326.023 239.5 326.052 239.5 326.075 239.5C326.422 237.789 327.936 236.5 329.75 236.5C330.453 236.5 331.109 236.692 331.667 237.025C332.291 235.825 333.552 235 335 235C336.448 235 337.709 235.825 338.333 237.025C338.891 236.692 339.547 236.5 340.25 236.5C342.064 236.5 343.578 237.789 343.925 239.5C343.948 239.5 343.977 239.5 344 239.5C345.655 239.5 347 240.845 347 242.5C347 243.048 346.855 243.559 346.597 244H323.403C323.145 243.559 323 243.048 323 242.5ZM323 246.784C323 246.077 323.577 245.5 324.284 245.5H345.711C346.419 245.5 346.995 246.077 346.995 246.784C346.995 250.089 344.914 252.911 341.994 254.008L341.914 254.688C341.82 255.438 341.183 256 340.423 256H329.572C328.817 256 328.175 255.438 328.081 254.688L327.997 254.013C325.081 252.911 323 250.089 323 246.784Z" fill="#146566" fill-opacity="0.05"/>
<path d="M323 334.5C323 332.845 324.345 331.5 326 331.5C326.023 331.5 326.052 331.5 326.075 331.5C326.422 329.789 327.936 328.5 329.75 328.5C330.453 328.5 331.109 328.692 331.667 329.025C332.291 327.825 333.552 327 335 327C336.448 327 337.709 327.825 338.333 329.025C338.891 328.692 339.547 328.5 340.25 328.5C342.064 328.5 343.578 329.789 343.925 331.5C343.948 331.5 343.977 331.5 344 331.5C345.655 331.5 347 332.845 347 334.5C347 335.048 346.855 335.559 346.597 336H323.403C323.145 335.559 323 335.048 323 334.5ZM323 338.784C323 338.077 323.577 337.5 324.284 337.5H345.711C346.419 337.5 346.995 338.077 346.995 338.784C346.995 342.089 344.914 344.911 341.994 346.008L341.914 346.688C341.82 347.438 341.183 348 340.423 348H329.572C328.817 348 328.175 347.438 328.081 346.688L327.997 346.013C325.081 344.911 323 342.089 323 338.784Z" fill="#146566" fill-opacity="0.05"/>
<path d="M323 426.5C323 424.845 324.345 423.5 326 423.5C326.023 423.5 326.052 423.5 326.075 423.5C326.422 421.789 327.936 420.5 329.75 420.5C330.453 420.5 331.109 420.692 331.667 421.025C332.291 419.825 333.552 419 335 419C336.448 419 337.709 419.825 338.333 421.025C338.891 420.692 339.547 420.5 340.25 420.5C342.064 420.5 343.578 421.789 343.925 423.5C343.948 423.5 343.977 423.5 344 423.5C345.655 423.5 347 424.845 347 426.5C347 427.048 346.855 427.559 346.597 428H323.403C323.145 427.559 323 427.048 323 426.5ZM323 430.784C323 430.077 323.577 429.5 324.284 429.5H345.711C346.419 429.5 346.995 430.077 346.995 430.784C346.995 434.089 344.914 436.911 341.994 438.008L341.914 438.688C341.82 439.438 341.183 440 340.423 440H329.572C328.817 440 328.175 439.438 328.081 438.688L327.997 438.013C325.081 436.911 323 434.089 323 430.784Z" fill="#146566" fill-opacity="0.05"/>
<path d="M323 518.5C323 516.845 324.345 515.5 326 515.5C326.023 515.5 326.052 515.5 326.075 515.5C326.422 513.789 327.936 512.5 329.75 512.5C330.453 512.5 331.109 512.692 331.667 513.025C332.291 511.825 333.552 511 335 511C336.448 511 337.709 511.825 338.333 513.025C338.891 512.692 339.547 512.5 340.25 512.5C342.064 512.5 343.578 513.789 343.925 515.5C343.948 515.5 343.977 515.5 344 515.5C345.655 515.5 347 516.845 347 518.5C347 519.048 346.855 519.559 346.597 520H323.403C323.145 519.559 323 519.048 323 518.5ZM323 522.784C323 522.077 323.577 521.5 324.284 521.5H345.711C346.419 521.5 346.995 522.077 346.995 522.784C346.995 526.089 344.914 528.911 341.994 530.008L341.914 530.688C341.82 531.438 341.183 532 340.423 532H329.572C328.817 532 328.175 531.438 328.081 530.688L327.997 530.013C325.081 528.911 323 526.089 323 522.784Z" fill="#146566" fill-opacity="0.05"/>
<path d="M105.719 5C104.218 5 103 6.17578 103 7.625C103 8.45078 103.402 9.22734 104.088 9.725L116.413 18.65C117.058 19.1148 117.942 19.1148 118.588 18.65L130.912 9.725C131.598 9.22734 132 8.45078 132 7.625C132 6.17578 130.782 5 129.281 5H105.719ZM103 11.125V22.5C103 24.4305 104.626 26 106.625 26H128.375C130.374 26 132 24.4305 132 22.5V11.125L119.675 20.05C118.384 20.9852 116.616 20.9852 115.325 20.05L103 11.125Z" fill="#146566" fill-opacity="0.05"/>
<path d="M105.719 97C104.218 97 103 98.1758 103 99.625C103 100.451 103.402 101.227 104.088 101.725L116.413 110.65C117.058 111.115 117.942 111.115 118.588 110.65L130.912 101.725C131.598 101.227 132 100.451 132 99.625C132 98.1758 130.782 97 129.281 97H105.719ZM103 103.125V114.5C103 116.43 104.626 118 106.625 118H128.375C130.374 118 132 116.43 132 114.5V103.125L119.675 112.05C118.384 112.985 116.616 112.985 115.325 112.05L103 103.125Z" fill="#146566" fill-opacity="0.05"/>
<path d="M105.719 189C104.218 189 103 190.176 103 191.625C103 192.451 103.402 193.227 104.088 193.725L116.413 202.65C117.058 203.115 117.942 203.115 118.588 202.65L130.912 193.725C131.598 193.227 132 192.451 132 191.625C132 190.176 130.782 189 129.281 189H105.719ZM103 195.125V206.5C103 208.43 104.626 210 106.625 210H128.375C130.374 210 132 208.43 132 206.5V195.125L119.675 204.05C118.384 204.985 116.616 204.985 115.325 204.05L103 195.125Z" fill="#146566" fill-opacity="0.05"/>
<path d="M105.719 281C104.218 281 103 282.176 103 283.625C103 284.451 103.402 285.227 104.088 285.725L116.413 294.65C117.058 295.115 117.942 295.115 118.588 294.65L130.912 285.725C131.598 285.227 132 284.451 132 283.625C132 282.176 130.782 281 129.281 281H105.719ZM103 287.125V298.5C103 300.43 104.626 302 106.625 302H128.375C130.374 302 132 300.43 132 298.5V287.125L119.675 296.05C118.384 296.985 116.616 296.985 115.325 296.05L103 287.125Z" fill="#146566" fill-opacity="0.05"/>
<path d="M105.719 373C104.218 373 103 374.176 103 375.625C103 376.451 103.402 377.227 104.088 377.725L116.413 386.65C117.058 387.115 117.942 387.115 118.588 386.65L130.912 377.725C131.598 377.227 132 376.451 132 375.625C132 374.176 130.782 373 129.281 373H105.719ZM103 379.125V390.5C103 392.43 104.626 394 106.625 394H128.375C130.374 394 132 392.43 132 390.5V379.125L119.675 388.05C118.384 388.985 116.616 388.985 115.325 388.05L103 379.125Z" fill="#146566" fill-opacity="0.05"/>
<path d="M105.719 465C104.218 465 103 466.176 103 467.625C103 468.451 103.402 469.227 104.088 469.725L116.413 478.65C117.058 479.115 117.942 479.115 118.588 478.65L130.912 469.725C131.598 469.227 132 468.451 132 467.625C132 466.176 130.782 465 129.281 465H105.719ZM103 471.125V482.5C103 484.43 104.626 486 106.625 486H128.375C130.374 486 132 484.43 132 482.5V471.125L119.675 480.05C118.384 480.985 116.616 480.985 115.325 480.05L103 471.125Z" fill="#146566" fill-opacity="0.05"/>
<path d="M105.719 557C104.218 557 103 558.176 103 559.625C103 560.451 103.402 561.227 104.088 561.725L116.413 570.65C117.058 571.115 117.942 571.115 118.588 570.65L130.912 561.725C131.598 561.227 132 560.451 132 559.625C132 558.176 130.782 557 129.281 557H105.719ZM103 563.125V574.5C103 576.43 104.626 578 106.625 578H128.375C130.374 578 132 576.43 132 574.5V563.125L119.675 572.05C118.384 572.985 116.616 572.985 115.325 572.05L103 563.125Z" fill="#146566" fill-opacity="0.05"/>
<path d="M80.7188 51C79.2178 51 78 52.1758 78 53.625C78 54.4508 78.4021 55.2273 79.0875 55.725L91.4125 64.65C92.0582 65.1148 92.9418 65.1148 93.5875 64.65L105.912 55.725C106.598 55.2273 107 54.4508 107 53.625C107 52.1758 105.782 51 104.281 51H80.7188ZM78 57.125V68.5C78 70.4305 79.6256 72 81.625 72H103.375C105.374 72 107 70.4305 107 68.5V57.125L94.675 66.05C93.3836 66.9852 91.6164 66.9852 90.325 66.05L78 57.125Z" fill="#146566" fill-opacity="0.05"/>
<path d="M80.7188 143C79.2178 143 78 144.176 78 145.625C78 146.451 78.4021 147.227 79.0875 147.725L91.4125 156.65C92.0582 157.115 92.9418 157.115 93.5875 156.65L105.912 147.725C106.598 147.227 107 146.451 107 145.625C107 144.176 105.782 143 104.281 143H80.7188ZM78 149.125V160.5C78 162.43 79.6256 164 81.625 164H103.375C105.374 164 107 162.43 107 160.5V149.125L94.675 158.05C93.3836 158.985 91.6164 158.985 90.325 158.05L78 149.125Z" fill="#146566" fill-opacity="0.05"/>
<path d="M80.7188 235C79.2178 235 78 236.176 78 237.625C78 238.451 78.4021 239.227 79.0875 239.725L91.4125 248.65C92.0582 249.115 92.9418 249.115 93.5875 248.65L105.912 239.725C106.598 239.227 107 238.451 107 237.625C107 236.176 105.782 235 104.281 235H80.7188ZM78 241.125V252.5C78 254.43 79.6256 256 81.625 256H103.375C105.374 256 107 254.43 107 252.5V241.125L94.675 250.05C93.3836 250.985 91.6164 250.985 90.325 250.05L78 241.125Z" fill="#146566" fill-opacity="0.05"/>
<path d="M80.7188 327C79.2178 327 78 328.176 78 329.625C78 330.451 78.4021 331.227 79.0875 331.725L91.4125 340.65C92.0582 341.115 92.9418 341.115 93.5875 340.65L105.912 331.725C106.598 331.227 107 330.451 107 329.625C107 328.176 105.782 327 104.281 327H80.7188ZM78 333.125V344.5C78 346.43 79.6256 348 81.625 348H103.375C105.374 348 107 346.43 107 344.5V333.125L94.675 342.05C93.3836 342.985 91.6164 342.985 90.325 342.05L78 333.125Z" fill="#146566" fill-opacity="0.05"/>
<path d="M80.7188 419C79.2178 419 78 420.176 78 421.625C78 422.451 78.4021 423.227 79.0875 423.725L91.4125 432.65C92.0582 433.115 92.9418 433.115 93.5875 432.65L105.912 423.725C106.598 423.227 107 422.451 107 421.625C107 420.176 105.782 419 104.281 419H80.7188ZM78 425.125V436.5C78 438.43 79.6256 440 81.625 440H103.375C105.374 440 107 438.43 107 436.5V425.125L94.675 434.05C93.3836 434.985 91.6164 434.985 90.325 434.05L78 425.125Z" fill="#146566" fill-opacity="0.05"/>
<path d="M80.7188 511C79.2178 511 78 512.176 78 513.625C78 514.451 78.4021 515.227 79.0875 515.725L91.4125 524.65C92.0582 525.115 92.9418 525.115 93.5875 524.65L105.912 515.725C106.598 515.227 107 514.451 107 513.625C107 512.176 105.782 511 104.281 511H80.7188ZM78 517.125V528.5C78 530.43 79.6256 532 81.625 532H103.375C105.374 532 107 530.43 107 528.5V517.125L94.675 526.05C93.3836 526.985 91.6164 526.985 90.325 526.05L78 517.125Z" fill="#146566" fill-opacity="0.05"/>
<path d="M399.719 5C398.218 5 397 6.17578 397 7.625C397 8.45078 397.402 9.22734 398.088 9.725L410.413 18.65C411.058 19.1148 411.942 19.1148 412.588 18.65L424.912 9.725C425.598 9.22734 426 8.45078 426 7.625C426 6.17578 424.782 5 423.281 5H399.719ZM397 11.125V22.5C397 24.4305 398.626 26 400.625 26H422.375C424.374 26 426 24.4305 426 22.5V11.125L413.675 20.05C412.384 20.9852 410.616 20.9852 409.325 20.05L397 11.125Z" fill="#146566" fill-opacity="0.05"/>
<path d="M399.719 97C398.218 97 397 98.1758 397 99.625C397 100.451 397.402 101.227 398.088 101.725L410.413 110.65C411.058 111.115 411.942 111.115 412.588 110.65L424.912 101.725C425.598 101.227 426 100.451 426 99.625C426 98.1758 424.782 97 423.281 97H399.719ZM397 103.125V114.5C397 116.43 398.626 118 400.625 118H422.375C424.374 118 426 116.43 426 114.5V103.125L413.675 112.05C412.384 112.985 410.616 112.985 409.325 112.05L397 103.125Z" fill="#146566" fill-opacity="0.05"/>
<path d="M399.719 189C398.218 189 397 190.176 397 191.625C397 192.451 397.402 193.227 398.088 193.725L410.413 202.65C411.058 203.115 411.942 203.115 412.588 202.65L424.912 193.725C425.598 193.227 426 192.451 426 191.625C426 190.176 424.782 189 423.281 189H399.719ZM397 195.125V206.5C397 208.43 398.626 210 400.625 210H422.375C424.374 210 426 208.43 426 206.5V195.125L413.675 204.05C412.384 204.985 410.616 204.985 409.325 204.05L397 195.125Z" fill="#146566" fill-opacity="0.05"/>
<path d="M399.719 281C398.218 281 397 282.176 397 283.625C397 284.451 397.402 285.227 398.088 285.725L410.413 294.65C411.058 295.115 411.942 295.115 412.588 294.65L424.912 285.725C425.598 285.227 426 284.451 426 283.625C426 282.176 424.782 281 423.281 281H399.719ZM397 287.125V298.5C397 300.43 398.626 302 400.625 302H422.375C424.374 302 426 300.43 426 298.5V287.125L413.675 296.05C412.384 296.985 410.616 296.985 409.325 296.05L397 287.125Z" fill="#146566" fill-opacity="0.05"/>
<path d="M399.719 373C398.218 373 397 374.176 397 375.625C397 376.451 397.402 377.227 398.088 377.725L410.413 386.65C411.058 387.115 411.942 387.115 412.588 386.65L424.912 377.725C425.598 377.227 426 376.451 426 375.625C426 374.176 424.782 373 423.281 373H399.719ZM397 379.125V390.5C397 392.43 398.626 394 400.625 394H422.375C424.374 394 426 392.43 426 390.5V379.125L413.675 388.05C412.384 388.985 410.616 388.985 409.325 388.05L397 379.125Z" fill="#146566" fill-opacity="0.05"/>
<path d="M399.719 465C398.218 465 397 466.176 397 467.625C397 468.451 397.402 469.227 398.088 469.725L410.413 478.65C411.058 479.115 411.942 479.115 412.588 478.65L424.912 469.725C425.598 469.227 426 468.451 426 467.625C426 466.176 424.782 465 423.281 465H399.719ZM397 471.125V482.5C397 484.43 398.626 486 400.625 486H422.375C424.374 486 426 484.43 426 482.5V471.125L413.675 480.05C412.384 480.985 410.616 480.985 409.325 480.05L397 471.125Z" fill="#146566" fill-opacity="0.05"/>
<path d="M399.719 557C398.218 557 397 558.176 397 559.625C397 560.451 397.402 561.227 398.088 561.725L410.413 570.65C411.058 571.115 411.942 571.115 412.588 570.65L424.912 561.725C425.598 561.227 426 560.451 426 559.625C426 558.176 424.782 557 423.281 557H399.719ZM397 563.125V574.5C397 576.43 398.626 578 400.625 578H422.375C424.374 578 426 576.43 426 574.5V563.125L413.675 572.05C412.384 572.985 410.616 572.985 409.325 572.05L397 563.125Z" fill="#146566" fill-opacity="0.05"/>
<path d="M374.719 51C373.218 51 372 52.1758 372 53.625C372 54.4508 372.402 55.2273 373.088 55.725L385.413 64.65C386.058 65.1148 386.942 65.1148 387.588 64.65L399.912 55.725C400.598 55.2273 401 54.4508 401 53.625C401 52.1758 399.782 51 398.281 51H374.719ZM372 57.125V68.5C372 70.4305 373.626 72 375.625 72H397.375C399.374 72 401 70.4305 401 68.5V57.125L388.675 66.05C387.384 66.9852 385.616 66.9852 384.325 66.05L372 57.125Z" fill="#146566" fill-opacity="0.05"/>
<path d="M374.719 143C373.218 143 372 144.176 372 145.625C372 146.451 372.402 147.227 373.088 147.725L385.413 156.65C386.058 157.115 386.942 157.115 387.588 156.65L399.912 147.725C400.598 147.227 401 146.451 401 145.625C401 144.176 399.782 143 398.281 143H374.719ZM372 149.125V160.5C372 162.43 373.626 164 375.625 164H397.375C399.374 164 401 162.43 401 160.5V149.125L388.675 158.05C387.384 158.985 385.616 158.985 384.325 158.05L372 149.125Z" fill="#146566" fill-opacity="0.05"/>
<path d="M374.719 235C373.218 235 372 236.176 372 237.625C372 238.451 372.402 239.227 373.088 239.725L385.413 248.65C386.058 249.115 386.942 249.115 387.588 248.65L399.912 239.725C400.598 239.227 401 238.451 401 237.625C401 236.176 399.782 235 398.281 235H374.719ZM372 241.125V252.5C372 254.43 373.626 256 375.625 256H397.375C399.374 256 401 254.43 401 252.5V241.125L388.675 250.05C387.384 250.985 385.616 250.985 384.325 250.05L372 241.125Z" fill="#146566" fill-opacity="0.05"/>
<path d="M374.719 327C373.218 327 372 328.176 372 329.625C372 330.451 372.402 331.227 373.088 331.725L385.413 340.65C386.058 341.115 386.942 341.115 387.588 340.65L399.912 331.725C400.598 331.227 401 330.451 401 329.625C401 328.176 399.782 327 398.281 327H374.719ZM372 333.125V344.5C372 346.43 373.626 348 375.625 348H397.375C399.374 348 401 346.43 401 344.5V333.125L388.675 342.05C387.384 342.985 385.616 342.985 384.325 342.05L372 333.125Z" fill="#146566" fill-opacity="0.05"/>
<path d="M374.719 419C373.218 419 372 420.176 372 421.625C372 422.451 372.402 423.227 373.088 423.725L385.413 432.65C386.058 433.115 386.942 433.115 387.588 432.65L399.912 423.725C400.598 423.227 401 422.451 401 421.625C401 420.176 399.782 419 398.281 419H374.719ZM372 425.125V436.5C372 438.43 373.626 440 375.625 440H397.375C399.374 440 401 438.43 401 436.5V425.125L388.675 434.05C387.384 434.985 385.616 434.985 384.325 434.05L372 425.125Z" fill="#146566" fill-opacity="0.05"/>
<path d="M374.719 511C373.218 511 372 512.176 372 513.625C372 514.451 372.402 515.227 373.088 515.725L385.413 524.65C386.058 525.115 386.942 525.115 387.588 524.65L399.912 515.725C400.598 515.227 401 514.451 401 513.625C401 512.176 399.782 511 398.281 511H374.719ZM372 517.125V528.5C372 530.43 373.626 532 375.625 532H397.375C399.374 532 401 530.43 401 528.5V517.125L388.675 526.05C387.384 526.985 385.616 526.985 384.325 526.05L372 517.125Z" fill="#146566" fill-opacity="0.05"/>
<path d="M157.175 6.07347C157.472 5.4172 158.1 5 158.797 5H178.205C178.902 5 179.531 5.4172 179.827 6.07347C180.124 6.72974 180.034 7.5032 179.594 8.06572L171.376 18.5426V24.5006C171.376 25.0678 171.071 25.5881 170.581 25.8413C170.092 26.0944 169.512 26.0428 169.076 25.7006L166.201 23.4506C165.837 23.1693 165.626 22.724 165.626 22.2505V18.5426L157.404 8.06103C156.968 7.5032 156.874 6.72505 157.175 6.07347Z" fill="#146566" fill-opacity="0.05"/>
<path d="M157.175 98.0735C157.472 97.4172 158.1 97 158.797 97H178.205C178.902 97 179.531 97.4172 179.827 98.0735C180.124 98.7297 180.034 99.5032 179.594 100.066L171.376 110.543V116.501C171.376 117.068 171.071 117.588 170.581 117.841C170.092 118.094 169.512 118.043 169.076 117.701L166.201 115.451C165.837 115.169 165.626 114.724 165.626 114.251V110.543L157.404 100.061C156.968 99.5032 156.874 98.7251 157.175 98.0735Z" fill="#146566" fill-opacity="0.05"/>
<path d="M157.175 190.073C157.472 189.417 158.1 189 158.797 189H178.205C178.902 189 179.531 189.417 179.827 190.073C180.124 190.73 180.034 191.503 179.594 192.066L171.376 202.543V208.501C171.376 209.068 171.071 209.588 170.581 209.841C170.092 210.094 169.512 210.043 169.076 209.701L166.201 207.451C165.837 207.169 165.626 206.724 165.626 206.251V202.543L157.404 192.061C156.968 191.503 156.874 190.725 157.175 190.073Z" fill="#146566" fill-opacity="0.05"/>
<path d="M157.175 282.073C157.472 281.417 158.1 281 158.797 281H178.205C178.902 281 179.531 281.417 179.827 282.073C180.124 282.73 180.034 283.503 179.594 284.066L171.376 294.543V300.501C171.376 301.068 171.071 301.588 170.581 301.841C170.092 302.094 169.512 302.043 169.076 301.701L166.201 299.451C165.837 299.169 165.626 298.724 165.626 298.251V294.543L157.404 284.061C156.968 283.503 156.874 282.725 157.175 282.073Z" fill="#146566" fill-opacity="0.05"/>
<path d="M157.175 374.073C157.472 373.417 158.1 373 158.797 373H178.205C178.902 373 179.531 373.417 179.827 374.073C180.124 374.73 180.034 375.503 179.594 376.066L171.376 386.543V392.501C171.376 393.068 171.071 393.588 170.581 393.841C170.092 394.094 169.512 394.043 169.076 393.701L166.201 391.451C165.837 391.169 165.626 390.724 165.626 390.251V386.543L157.404 376.061C156.968 375.503 156.874 374.725 157.175 374.073Z" fill="#146566" fill-opacity="0.05"/>
<path d="M157.175 466.073C157.472 465.417 158.1 465 158.797 465H178.205C178.902 465 179.531 465.417 179.827 466.073C180.124 466.73 180.034 467.503 179.594 468.066L171.376 478.543V484.501C171.376 485.068 171.071 485.588 170.581 485.841C170.092 486.094 169.512 486.043 169.076 485.701L166.201 483.451C165.837 483.169 165.626 482.724 165.626 482.251V478.543L157.404 468.061C156.968 467.503 156.874 466.725 157.175 466.073Z" fill="#146566" fill-opacity="0.05"/>
<path d="M157.175 558.073C157.472 557.417 158.1 557 158.797 557H178.205C178.902 557 179.531 557.417 179.827 558.073C180.124 558.73 180.034 559.503 179.594 560.066L171.376 570.543V576.501C171.376 577.068 171.071 577.588 170.581 577.841C170.092 578.094 169.512 578.043 169.076 577.701L166.201 575.451C165.837 575.169 165.626 574.724 165.626 574.251V570.543L157.404 560.061C156.968 559.503 156.874 558.725 157.175 558.073Z" fill="#146566" fill-opacity="0.05"/>
<path d="M132.175 52.0735C132.472 51.4172 133.1 51 133.797 51H153.205C153.902 51 154.531 51.4172 154.827 52.0735C155.124 52.7297 155.034 53.5032 154.594 54.0657L146.376 64.5426V70.5006C146.376 71.0678 146.071 71.5881 145.581 71.8413C145.092 72.0944 144.512 72.0428 144.076 71.7006L141.201 69.4506C140.837 69.1693 140.626 68.724 140.626 68.2505V64.5426L132.404 54.061C131.968 53.5032 131.874 52.7251 132.175 52.0735Z" fill="#146566" fill-opacity="0.05"/>
<path d="M132.175 144.073C132.472 143.417 133.1 143 133.797 143H153.205C153.902 143 154.531 143.417 154.827 144.073C155.124 144.73 155.034 145.503 154.594 146.066L146.376 156.543V162.501C146.376 163.068 146.071 163.588 145.581 163.841C145.092 164.094 144.512 164.043 144.076 163.701L141.201 161.451C140.837 161.169 140.626 160.724 140.626 160.251V156.543L132.404 146.061C131.968 145.503 131.874 144.725 132.175 144.073Z" fill="#146566" fill-opacity="0.05"/>
<path d="M132.175 236.073C132.472 235.417 133.1 235 133.797 235H153.205C153.902 235 154.531 235.417 154.827 236.073C155.124 236.73 155.034 237.503 154.594 238.066L146.376 248.543V254.501C146.376 255.068 146.071 255.588 145.581 255.841C145.092 256.094 144.512 256.043 144.076 255.701L141.201 253.451C140.837 253.169 140.626 252.724 140.626 252.251V248.543L132.404 238.061C131.968 237.503 131.874 236.725 132.175 236.073Z" fill="#146566" fill-opacity="0.05"/>
<path d="M132.175 328.073C132.472 327.417 133.1 327 133.797 327H153.205C153.902 327 154.531 327.417 154.827 328.073C155.124 328.73 155.034 329.503 154.594 330.066L146.376 340.543V346.501C146.376 347.068 146.071 347.588 145.581 347.841C145.092 348.094 144.512 348.043 144.076 347.701L141.201 345.451C140.837 345.169 140.626 344.724 140.626 344.251V340.543L132.404 330.061C131.968 329.503 131.874 328.725 132.175 328.073Z" fill="#146566" fill-opacity="0.05"/>
<path d="M132.175 420.073C132.472 419.417 133.1 419 133.797 419H153.205C153.902 419 154.531 419.417 154.827 420.073C155.124 420.73 155.034 421.503 154.594 422.066L146.376 432.543V438.501C146.376 439.068 146.071 439.588 145.581 439.841C145.092 440.094 144.512 440.043 144.076 439.701L141.201 437.451C140.837 437.169 140.626 436.724 140.626 436.251V432.543L132.404 422.061C131.968 421.503 131.874 420.725 132.175 420.073Z" fill="#146566" fill-opacity="0.05"/>
<path d="M132.175 512.073C132.472 511.417 133.1 511 133.797 511H153.205C153.902 511 154.531 511.417 154.827 512.073C155.124 512.73 155.034 513.503 154.594 514.066L146.376 524.543V530.501C146.376 531.068 146.071 531.588 145.581 531.841C145.092 532.094 144.512 532.043 144.076 531.701L141.201 529.451C140.837 529.169 140.626 528.724 140.626 528.251V524.543L132.404 514.061C131.968 513.503 131.874 512.725 132.175 512.073Z" fill="#146566" fill-opacity="0.05"/>
<path d="M212.219 7.45V9.2H218.781V7.45C218.781 7.2575 218.634 7.1 218.453 7.1H212.547C212.366 7.1 212.219 7.2575 212.219 7.45ZM210.25 9.2V7.45C210.25 6.09812 211.279 5 212.547 5H218.453C219.721 5 220.75 6.09812 220.75 7.45V9.2V10.6V26H210.25V10.6V9.2ZM207.625 9.2H208.938V26H207.625C206.177 26 205 24.7444 205 23.2V12C205 10.4556 206.177 9.2 207.625 9.2ZM223.375 26H222.062V9.2H223.375C224.823 9.2 226 10.4556 226 12V23.2C226 24.7444 224.823 26 223.375 26Z" fill="#146566" fill-opacity="0.05"/>
<path d="M212.219 99.45V101.2H218.781V99.45C218.781 99.2575 218.634 99.1 218.453 99.1H212.547C212.366 99.1 212.219 99.2575 212.219 99.45ZM210.25 101.2V99.45C210.25 98.0981 211.279 97 212.547 97H218.453C219.721 97 220.75 98.0981 220.75 99.45V101.2V102.6V118H210.25V102.6V101.2ZM207.625 101.2H208.938V118H207.625C206.177 118 205 116.744 205 115.2V104C205 102.456 206.177 101.2 207.625 101.2ZM223.375 118H222.062V101.2H223.375C224.823 101.2 226 102.456 226 104V115.2C226 116.744 224.823 118 223.375 118Z" fill="#146566" fill-opacity="0.05"/>
<path d="M212.219 191.45V193.2H218.781V191.45C218.781 191.257 218.634 191.1 218.453 191.1H212.547C212.366 191.1 212.219 191.257 212.219 191.45ZM210.25 193.2V191.45C210.25 190.098 211.279 189 212.547 189H218.453C219.721 189 220.75 190.098 220.75 191.45V193.2V194.6V210H210.25V194.6V193.2ZM207.625 193.2H208.938V210H207.625C206.177 210 205 208.744 205 207.2V196C205 194.456 206.177 193.2 207.625 193.2ZM223.375 210H222.062V193.2H223.375C224.823 193.2 226 194.456 226 196V207.2C226 208.744 224.823 210 223.375 210Z" fill="#146566" fill-opacity="0.05"/>
<path d="M212.219 283.45V285.2H218.781V283.45C218.781 283.257 218.634 283.1 218.453 283.1H212.547C212.366 283.1 212.219 283.257 212.219 283.45ZM210.25 285.2V283.45C210.25 282.098 211.279 281 212.547 281H218.453C219.721 281 220.75 282.098 220.75 283.45V285.2V286.6V302H210.25V286.6V285.2ZM207.625 285.2H208.938V302H207.625C206.177 302 205 300.744 205 299.2V288C205 286.456 206.177 285.2 207.625 285.2ZM223.375 302H222.062V285.2H223.375C224.823 285.2 226 286.456 226 288V299.2C226 300.744 224.823 302 223.375 302Z" fill="#146566" fill-opacity="0.05"/>
<path d="M212.219 375.45V377.2H218.781V375.45C218.781 375.257 218.634 375.1 218.453 375.1H212.547C212.366 375.1 212.219 375.257 212.219 375.45ZM210.25 377.2V375.45C210.25 374.098 211.279 373 212.547 373H218.453C219.721 373 220.75 374.098 220.75 375.45V377.2V378.6V394H210.25V378.6V377.2ZM207.625 377.2H208.938V394H207.625C206.177 394 205 392.744 205 391.2V380C205 378.456 206.177 377.2 207.625 377.2ZM223.375 394H222.062V377.2H223.375C224.823 377.2 226 378.456 226 380V391.2C226 392.744 224.823 394 223.375 394Z" fill="#146566" fill-opacity="0.05"/>
<path d="M212.219 467.45V469.2H218.781V467.45C218.781 467.257 218.634 467.1 218.453 467.1H212.547C212.366 467.1 212.219 467.257 212.219 467.45ZM210.25 469.2V467.45C210.25 466.098 211.279 465 212.547 465H218.453C219.721 465 220.75 466.098 220.75 467.45V469.2V470.6V486H210.25V470.6V469.2ZM207.625 469.2H208.938V486H207.625C206.177 486 205 484.744 205 483.2V472C205 470.456 206.177 469.2 207.625 469.2ZM223.375 486H222.062V469.2H223.375C224.823 469.2 226 470.456 226 472V483.2C226 484.744 224.823 486 223.375 486Z" fill="#146566" fill-opacity="0.05"/>
<path d="M212.219 559.45V561.2H218.781V559.45C218.781 559.257 218.634 559.1 218.453 559.1H212.547C212.366 559.1 212.219 559.257 212.219 559.45ZM210.25 561.2V559.45C210.25 558.098 211.279 557 212.547 557H218.453C219.721 557 220.75 558.098 220.75 559.45V561.2V562.6V578H210.25V562.6V561.2ZM207.625 561.2H208.938V578H207.625C206.177 578 205 576.744 205 575.2V564C205 562.456 206.177 561.2 207.625 561.2ZM223.375 578H222.062V561.2H223.375C224.823 561.2 226 562.456 226 564V575.2C226 576.744 224.823 578 223.375 578Z" fill="#146566" fill-opacity="0.05"/>
<path d="M187.219 53.45V55.2H193.781V53.45C193.781 53.2575 193.634 53.1 193.453 53.1H187.547C187.366 53.1 187.219 53.2575 187.219 53.45ZM185.25 55.2V53.45C185.25 52.0981 186.279 51 187.547 51H193.453C194.721 51 195.75 52.0981 195.75 53.45V55.2V56.6V72H185.25V56.6V55.2ZM182.625 55.2H183.938V72H182.625C181.177 72 180 70.7444 180 69.2V58C180 56.4556 181.177 55.2 182.625 55.2ZM198.375 72H197.062V55.2H198.375C199.823 55.2 201 56.4556 201 58V69.2C201 70.7444 199.823 72 198.375 72Z" fill="#146566" fill-opacity="0.05"/>
<path d="M187.219 145.45V147.2H193.781V145.45C193.781 145.257 193.634 145.1 193.453 145.1H187.547C187.366 145.1 187.219 145.257 187.219 145.45ZM185.25 147.2V145.45C185.25 144.098 186.279 143 187.547 143H193.453C194.721 143 195.75 144.098 195.75 145.45V147.2V148.6V164H185.25V148.6V147.2ZM182.625 147.2H183.938V164H182.625C181.177 164 180 162.744 180 161.2V150C180 148.456 181.177 147.2 182.625 147.2ZM198.375 164H197.062V147.2H198.375C199.823 147.2 201 148.456 201 150V161.2C201 162.744 199.823 164 198.375 164Z" fill="#146566" fill-opacity="0.05"/>
<path d="M187.219 237.45V239.2H193.781V237.45C193.781 237.257 193.634 237.1 193.453 237.1H187.547C187.366 237.1 187.219 237.257 187.219 237.45ZM185.25 239.2V237.45C185.25 236.098 186.279 235 187.547 235H193.453C194.721 235 195.75 236.098 195.75 237.45V239.2V240.6V256H185.25V240.6V239.2ZM182.625 239.2H183.938V256H182.625C181.177 256 180 254.744 180 253.2V242C180 240.456 181.177 239.2 182.625 239.2ZM198.375 256H197.062V239.2H198.375C199.823 239.2 201 240.456 201 242V253.2C201 254.744 199.823 256 198.375 256Z" fill="#146566" fill-opacity="0.05"/>
<path d="M187.219 329.45V331.2H193.781V329.45C193.781 329.257 193.634 329.1 193.453 329.1H187.547C187.366 329.1 187.219 329.257 187.219 329.45ZM185.25 331.2V329.45C185.25 328.098 186.279 327 187.547 327H193.453C194.721 327 195.75 328.098 195.75 329.45V331.2V332.6V348H185.25V332.6V331.2ZM182.625 331.2H183.938V348H182.625C181.177 348 180 346.744 180 345.2V334C180 332.456 181.177 331.2 182.625 331.2ZM198.375 348H197.062V331.2H198.375C199.823 331.2 201 332.456 201 334V345.2C201 346.744 199.823 348 198.375 348Z" fill="#146566" fill-opacity="0.05"/>
<path d="M187.219 421.45V423.2H193.781V421.45C193.781 421.257 193.634 421.1 193.453 421.1H187.547C187.366 421.1 187.219 421.257 187.219 421.45ZM185.25 423.2V421.45C185.25 420.098 186.279 419 187.547 419H193.453C194.721 419 195.75 420.098 195.75 421.45V423.2V424.6V440H185.25V424.6V423.2ZM182.625 423.2H183.938V440H182.625C181.177 440 180 438.744 180 437.2V426C180 424.456 181.177 423.2 182.625 423.2ZM198.375 440H197.062V423.2H198.375C199.823 423.2 201 424.456 201 426V437.2C201 438.744 199.823 440 198.375 440Z" fill="#146566" fill-opacity="0.05"/>
<path d="M187.219 513.45V515.2H193.781V513.45C193.781 513.257 193.634 513.1 193.453 513.1H187.547C187.366 513.1 187.219 513.257 187.219 513.45ZM185.25 515.2V513.45C185.25 512.098 186.279 511 187.547 511H193.453C194.721 511 195.75 512.098 195.75 513.45V515.2V516.6V532H185.25V516.6V515.2ZM182.625 515.2H183.938V532H182.625C181.177 532 180 530.744 180 529.2V518C180 516.456 181.177 515.2 182.625 515.2ZM198.375 532H197.062V515.2H198.375C199.823 515.2 201 516.456 201 518V529.2C201 530.744 199.823 532 198.375 532Z" fill="#146566" fill-opacity="0.05"/>
<path d="M273.994 15.4774C273.994 16.2156 273.395 16.7938 272.716 16.7938H271.438L271.466 23.3632C271.466 23.4739 271.458 23.5847 271.446 23.6954V24.3597C271.446 25.266 270.731 26 269.848 26H269.209C269.165 26 269.121 26 269.077 25.9959C269.021 26 268.965 26 268.909 26L267.611 25.9959H266.653C265.77 25.9959 265.055 25.2619 265.055 24.3556V23.3714V20.7469C265.055 20.0211 264.484 19.4347 263.777 19.4347H261.221C260.514 19.4347 259.943 20.0211 259.943 20.7469V23.3714V24.3556C259.943 25.2619 259.228 25.9959 258.345 25.9959H257.387H256.112C256.053 25.9959 255.993 25.9918 255.933 25.9877C255.885 25.9918 255.837 25.9959 255.789 25.9959H255.15C254.267 25.9959 253.552 25.2619 253.552 24.3556V19.7627C253.552 19.7258 253.552 19.6848 253.556 19.6479V16.7897H252.278C251.559 16.7897 251 16.2156 251 15.4733C251 15.1043 251.12 14.7762 251.399 14.4892L261.636 5.32806C261.916 5.04101 262.235 5 262.515 5C262.795 5 263.114 5.08202 263.354 5.28705L273.555 14.4933C273.874 14.7803 274.034 15.1084 273.994 15.4774Z" fill="#146566" fill-opacity="0.05"/>
<path d="M273.994 107.477C273.994 108.216 273.395 108.794 272.716 108.794H271.438L271.466 115.363C271.466 115.474 271.458 115.585 271.446 115.695V116.36C271.446 117.266 270.731 118 269.848 118H269.209C269.165 118 269.121 118 269.077 117.996C269.021 118 268.965 118 268.909 118L267.611 117.996H266.653C265.77 117.996 265.055 117.262 265.055 116.356V115.371V112.747C265.055 112.021 264.484 111.435 263.777 111.435H261.221C260.514 111.435 259.943 112.021 259.943 112.747V115.371V116.356C259.943 117.262 259.228 117.996 258.345 117.996H257.387H256.112C256.053 117.996 255.993 117.992 255.933 117.988C255.885 117.992 255.837 117.996 255.789 117.996H255.15C254.267 117.996 253.552 117.262 253.552 116.356V111.763C253.552 111.726 253.552 111.685 253.556 111.648V108.79H252.278C251.559 108.79 251 108.216 251 107.473C251 107.104 251.12 106.776 251.399 106.489L261.636 97.3281C261.916 97.041 262.235 97 262.515 97C262.795 97 263.114 97.082 263.354 97.2871L273.555 106.493C273.874 106.78 274.034 107.108 273.994 107.477Z" fill="#146566" fill-opacity="0.05"/>
<path d="M273.994 199.477C273.994 200.216 273.395 200.794 272.716 200.794H271.438L271.466 207.363C271.466 207.474 271.458 207.585 271.446 207.695V208.36C271.446 209.266 270.731 210 269.848 210H269.209C269.165 210 269.121 210 269.077 209.996C269.021 210 268.965 210 268.909 210L267.611 209.996H266.653C265.77 209.996 265.055 209.262 265.055 208.356V207.371V204.747C265.055 204.021 264.484 203.435 263.777 203.435H261.221C260.514 203.435 259.943 204.021 259.943 204.747V207.371V208.356C259.943 209.262 259.228 209.996 258.345 209.996H257.387H256.112C256.053 209.996 255.993 209.992 255.933 209.988C255.885 209.992 255.837 209.996 255.789 209.996H255.15C254.267 209.996 253.552 209.262 253.552 208.356V203.763C253.552 203.726 253.552 203.685 253.556 203.648V200.79H252.278C251.559 200.79 251 200.216 251 199.473C251 199.104 251.12 198.776 251.399 198.489L261.636 189.328C261.916 189.041 262.235 189 262.515 189C262.795 189 263.114 189.082 263.354 189.287L273.555 198.493C273.874 198.78 274.034 199.108 273.994 199.477Z" fill="#146566" fill-opacity="0.05"/>
<path d="M273.994 291.477C273.994 292.216 273.395 292.794 272.716 292.794H271.438L271.466 299.363C271.466 299.474 271.458 299.585 271.446 299.695V300.36C271.446 301.266 270.731 302 269.848 302H269.209C269.165 302 269.121 302 269.077 301.996C269.021 302 268.965 302 268.909 302L267.611 301.996H266.653C265.77 301.996 265.055 301.262 265.055 300.356V299.371V296.747C265.055 296.021 264.484 295.435 263.777 295.435H261.221C260.514 295.435 259.943 296.021 259.943 296.747V299.371V300.356C259.943 301.262 259.228 301.996 258.345 301.996H257.387H256.112C256.053 301.996 255.993 301.992 255.933 301.988C255.885 301.992 255.837 301.996 255.789 301.996H255.15C254.267 301.996 253.552 301.262 253.552 300.356V295.763C253.552 295.726 253.552 295.685 253.556 295.648V292.79H252.278C251.559 292.79 251 292.216 251 291.473C251 291.104 251.12 290.776 251.399 290.489L261.636 281.328C261.916 281.041 262.235 281 262.515 281C262.795 281 263.114 281.082 263.354 281.287L273.555 290.493C273.874 290.78 274.034 291.108 273.994 291.477Z" fill="#146566" fill-opacity="0.05"/>
<path d="M273.994 383.477C273.994 384.216 273.395 384.794 272.716 384.794H271.438L271.466 391.363C271.466 391.474 271.458 391.585 271.446 391.695V392.36C271.446 393.266 270.731 394 269.848 394H269.209C269.165 394 269.121 394 269.077 393.996C269.021 394 268.965 394 268.909 394L267.611 393.996H266.653C265.77 393.996 265.055 393.262 265.055 392.356V391.371V388.747C265.055 388.021 264.484 387.435 263.777 387.435H261.221C260.514 387.435 259.943 388.021 259.943 388.747V391.371V392.356C259.943 393.262 259.228 393.996 258.345 393.996H257.387H256.112C256.053 393.996 255.993 393.992 255.933 393.988C255.885 393.992 255.837 393.996 255.789 393.996H255.15C254.267 393.996 253.552 393.262 253.552 392.356V387.763C253.552 387.726 253.552 387.685 253.556 387.648V384.79H252.278C251.559 384.79 251 384.216 251 383.473C251 383.104 251.12 382.776 251.399 382.489L261.636 373.328C261.916 373.041 262.235 373 262.515 373C262.795 373 263.114 373.082 263.354 373.287L273.555 382.493C273.874 382.78 274.034 383.108 273.994 383.477Z" fill="#146566" fill-opacity="0.05"/>
<path d="M273.994 475.477C273.994 476.216 273.395 476.794 272.716 476.794H271.438L271.466 483.363C271.466 483.474 271.458 483.585 271.446 483.695V484.36C271.446 485.266 270.731 486 269.848 486H269.209C269.165 486 269.121 486 269.077 485.996C269.021 486 268.965 486 268.909 486L267.611 485.996H266.653C265.77 485.996 265.055 485.262 265.055 484.356V483.371V480.747C265.055 480.021 264.484 479.435 263.777 479.435H261.221C260.514 479.435 259.943 480.021 259.943 480.747V483.371V484.356C259.943 485.262 259.228 485.996 258.345 485.996H257.387H256.112C256.053 485.996 255.993 485.992 255.933 485.988C255.885 485.992 255.837 485.996 255.789 485.996H255.15C254.267 485.996 253.552 485.262 253.552 484.356V479.763C253.552 479.726 253.552 479.685 253.556 479.648V476.79H252.278C251.559 476.79 251 476.216 251 475.473C251 475.104 251.12 474.776 251.399 474.489L261.636 465.328C261.916 465.041 262.235 465 262.515 465C262.795 465 263.114 465.082 263.354 465.287L273.555 474.493C273.874 474.78 274.034 475.108 273.994 475.477Z" fill="#146566" fill-opacity="0.05"/>
<path d="M273.994 567.477C273.994 568.216 273.395 568.794 272.716 568.794H271.438L271.466 575.363C271.466 575.474 271.458 575.585 271.446 575.695V576.36C271.446 577.266 270.731 578 269.848 578H269.209C269.165 578 269.121 578 269.077 577.996C269.021 578 268.965 578 268.909 578L267.611 577.996H266.653C265.77 577.996 265.055 577.262 265.055 576.356V575.371V572.747C265.055 572.021 264.484 571.435 263.777 571.435H261.221C260.514 571.435 259.943 572.021 259.943 572.747V575.371V576.356C259.943 577.262 259.228 577.996 258.345 577.996H257.387H256.112C256.053 577.996 255.993 577.992 255.933 577.988C255.885 577.992 255.837 577.996 255.789 577.996H255.15C254.267 577.996 253.552 577.262 253.552 576.356V571.763C253.552 571.726 253.552 571.685 253.556 571.648V568.79H252.278C251.559 568.79 251 568.216 251 567.473C251 567.104 251.12 566.776 251.399 566.489L261.636 557.328C261.916 557.041 262.235 557 262.515 557C262.795 557 263.114 557.082 263.354 557.287L273.555 566.493C273.874 566.78 274.034 567.108 273.994 567.477Z" fill="#146566" fill-opacity="0.05"/>
<path d="M248.994 61.4774C248.994 62.2156 248.395 62.7938 247.716 62.7938H246.438L246.466 69.3632C246.466 69.4739 246.458 69.5847 246.446 69.6954V70.3597C246.446 71.266 245.731 72 244.848 72H244.209C244.165 72 244.121 72 244.077 71.9959C244.021 72 243.965 72 243.909 72L242.611 71.9959H241.653C240.77 71.9959 240.055 71.2619 240.055 70.3556V69.3714V66.7469C240.055 66.0211 239.484 65.4347 238.777 65.4347H236.221C235.514 65.4347 234.943 66.0211 234.943 66.7469V69.3714V70.3556C234.943 71.2619 234.228 71.9959 233.345 71.9959H232.387H231.112C231.053 71.9959 230.993 71.9918 230.933 71.9877C230.885 71.9918 230.837 71.9959 230.789 71.9959H230.15C229.267 71.9959 228.552 71.2619 228.552 70.3556V65.7627C228.552 65.7258 228.552 65.6848 228.556 65.6479V62.7897H227.278C226.559 62.7897 226 62.2156 226 61.4733C226 61.1043 226.12 60.7762 226.399 60.4892L236.636 51.3281C236.916 51.041 237.235 51 237.515 51C237.795 51 238.114 51.082 238.354 51.2871L248.555 60.4933C248.874 60.7803 249.034 61.1084 248.994 61.4774Z" fill="#146566" fill-opacity="0.05"/>
<path d="M248.994 153.477C248.994 154.216 248.395 154.794 247.716 154.794H246.438L246.466 161.363C246.466 161.474 246.458 161.585 246.446 161.695V162.36C246.446 163.266 245.731 164 244.848 164H244.209C244.165 164 244.121 164 244.077 163.996C244.021 164 243.965 164 243.909 164L242.611 163.996H241.653C240.77 163.996 240.055 163.262 240.055 162.356V161.371V158.747C240.055 158.021 239.484 157.435 238.777 157.435H236.221C235.514 157.435 234.943 158.021 234.943 158.747V161.371V162.356C234.943 163.262 234.228 163.996 233.345 163.996H232.387H231.112C231.053 163.996 230.993 163.992 230.933 163.988C230.885 163.992 230.837 163.996 230.789 163.996H230.15C229.267 163.996 228.552 163.262 228.552 162.356V157.763C228.552 157.726 228.552 157.685 228.556 157.648V154.79H227.278C226.559 154.79 226 154.216 226 153.473C226 153.104 226.12 152.776 226.399 152.489L236.636 143.328C236.916 143.041 237.235 143 237.515 143C237.795 143 238.114 143.082 238.354 143.287L248.555 152.493C248.874 152.78 249.034 153.108 248.994 153.477Z" fill="#146566" fill-opacity="0.05"/>
<path d="M248.994 245.477C248.994 246.216 248.395 246.794 247.716 246.794H246.438L246.466 253.363C246.466 253.474 246.458 253.585 246.446 253.695V254.36C246.446 255.266 245.731 256 244.848 256H244.209C244.165 256 244.121 256 244.077 255.996C244.021 256 243.965 256 243.909 256L242.611 255.996H241.653C240.77 255.996 240.055 255.262 240.055 254.356V253.371V250.747C240.055 250.021 239.484 249.435 238.777 249.435H236.221C235.514 249.435 234.943 250.021 234.943 250.747V253.371V254.356C234.943 255.262 234.228 255.996 233.345 255.996H232.387H231.112C231.053 255.996 230.993 255.992 230.933 255.988C230.885 255.992 230.837 255.996 230.789 255.996H230.15C229.267 255.996 228.552 255.262 228.552 254.356V249.763C228.552 249.726 228.552 249.685 228.556 249.648V246.79H227.278C226.559 246.79 226 246.216 226 245.473C226 245.104 226.12 244.776 226.399 244.489L236.636 235.328C236.916 235.041 237.235 235 237.515 235C237.795 235 238.114 235.082 238.354 235.287L248.555 244.493C248.874 244.78 249.034 245.108 248.994 245.477Z" fill="#146566" fill-opacity="0.05"/>
<path d="M248.994 337.477C248.994 338.216 248.395 338.794 247.716 338.794H246.438L246.466 345.363C246.466 345.474 246.458 345.585 246.446 345.695V346.36C246.446 347.266 245.731 348 244.848 348H244.209C244.165 348 244.121 348 244.077 347.996C244.021 348 243.965 348 243.909 348L242.611 347.996H241.653C240.77 347.996 240.055 347.262 240.055 346.356V345.371V342.747C240.055 342.021 239.484 341.435 238.777 341.435H236.221C235.514 341.435 234.943 342.021 234.943 342.747V345.371V346.356C234.943 347.262 234.228 347.996 233.345 347.996H232.387H231.112C231.053 347.996 230.993 347.992 230.933 347.988C230.885 347.992 230.837 347.996 230.789 347.996H230.15C229.267 347.996 228.552 347.262 228.552 346.356V341.763C228.552 341.726 228.552 341.685 228.556 341.648V338.79H227.278C226.559 338.79 226 338.216 226 337.473C226 337.104 226.12 336.776 226.399 336.489L236.636 327.328C236.916 327.041 237.235 327 237.515 327C237.795 327 238.114 327.082 238.354 327.287L248.555 336.493C248.874 336.78 249.034 337.108 248.994 337.477Z" fill="#146566" fill-opacity="0.05"/>
<path d="M248.994 429.477C248.994 430.216 248.395 430.794 247.716 430.794H246.438L246.466 437.363C246.466 437.474 246.458 437.585 246.446 437.695V438.36C246.446 439.266 245.731 440 244.848 440H244.209C244.165 440 244.121 440 244.077 439.996C244.021 440 243.965 440 243.909 440L242.611 439.996H241.653C240.77 439.996 240.055 439.262 240.055 438.356V437.371V434.747C240.055 434.021 239.484 433.435 238.777 433.435H236.221C235.514 433.435 234.943 434.021 234.943 434.747V437.371V438.356C234.943 439.262 234.228 439.996 233.345 439.996H232.387H231.112C231.053 439.996 230.993 439.992 230.933 439.988C230.885 439.992 230.837 439.996 230.789 439.996H230.15C229.267 439.996 228.552 439.262 228.552 438.356V433.763C228.552 433.726 228.552 433.685 228.556 433.648V430.79H227.278C226.559 430.79 226 430.216 226 429.473C226 429.104 226.12 428.776 226.399 428.489L236.636 419.328C236.916 419.041 237.235 419 237.515 419C237.795 419 238.114 419.082 238.354 419.287L248.555 428.493C248.874 428.78 249.034 429.108 248.994 429.477Z" fill="#146566" fill-opacity="0.05"/>
<path d="M248.994 521.477C248.994 522.216 248.395 522.794 247.716 522.794H246.438L246.466 529.363C246.466 529.474 246.458 529.585 246.446 529.695V530.36C246.446 531.266 245.731 532 244.848 532H244.209C244.165 532 244.121 532 244.077 531.996C244.021 532 243.965 532 243.909 532L242.611 531.996H241.653C240.77 531.996 240.055 531.262 240.055 530.356V529.371V526.747C240.055 526.021 239.484 525.435 238.777 525.435H236.221C235.514 525.435 234.943 526.021 234.943 526.747V529.371V530.356C234.943 531.262 234.228 531.996 233.345 531.996H232.387H231.112C231.053 531.996 230.993 531.992 230.933 531.988C230.885 531.992 230.837 531.996 230.789 531.996H230.15C229.267 531.996 228.552 531.262 228.552 530.356V525.763C228.552 525.726 228.552 525.685 228.556 525.648V522.79H227.278C226.559 522.79 226 522.216 226 521.473C226 521.104 226.12 520.776 226.399 520.489L236.636 511.328C236.916 511.041 237.235 511 237.515 511C237.795 511 238.114 511.082 238.354 511.287L248.555 520.493C248.874 520.78 249.034 521.108 248.994 521.477Z" fill="#146566" fill-opacity="0.05"/>
<path d="M203.72 194.427C210.46 189.801 213.081 180.936 213.549 177.082C221.413 327.401 214.018 416.051 209.337 441.586L203.72 435.804C108.239 337.519 163.936 233.933 203.72 194.427Z" fill="#136669" stroke="#136669"/>
<path d="M224.596 197.078C220.118 191.19 214.333 179.906 212 175C216.479 240.939 214.799 357.51 213.4 407.553C215.639 429.926 221.797 437.481 224.596 438.462C323.127 350.151 265.651 240.743 224.596 197.078Z" fill="#0C494C" stroke="#0C494C"/>
<path d="M212.25 411.387L208 441.812C211.4 448.767 212.25 466.926 212.25 475.136L220.75 478.033V447.608L225 438.915C219.333 436.597 214.139 419.597 212.25 411.387Z" fill="#E8E8D6"/>
</g>
<defs>
<clipPath id="clip0_330_996">
<rect width="413" height="600" fill="white"/>
</clipPath>
</defs>
</svg>
