<svg width="676" height="413" viewBox="0 0 676 413" fill="none" xmlns="http://www.w3.org/2000/svg">
<g clip-path="url(#clip0_340_3480)">
<rect width="413" height="676" transform="translate(676) rotate(90)" fill="#C7C7F1"/>
<path d="M251.553 298.276C236.336 271.919 245.366 238.217 271.723 223L343.589 181.508C369.946 166.291 403.648 175.322 418.865 201.678V201.678C434.082 228.035 425.052 261.737 398.695 276.955L326.829 318.446C300.472 333.663 266.77 324.633 251.553 298.276V298.276Z" fill="white"/>
<path d="M343.84 82.1045L270.851 124.244C238.108 143.149 226.89 185.017 245.794 217.759C264.698 250.502 306.566 261.721 339.309 242.817L412.297 200.677C445.04 181.773 456.259 139.905 437.355 107.162C418.451 74.4189 376.583 63.2004 343.84 82.1045Z" stroke="#6868E2" stroke-width="28"/>
<path d="M257.918 210.759C242.88 184.713 251.805 151.407 277.851 136.369L350.84 94.2289C376.886 79.1908 410.192 88.115 425.23 114.162V114.162C440.268 140.209 431.344 173.514 405.297 188.552L332.309 230.692C306.262 245.73 272.956 236.806 257.918 210.759V210.759Z" fill="white"/>
<mask id="path-4-outside-1_340_3480" maskUnits="userSpaceOnUse" x="185.751" y="115.304" width="300.006" height="269.626" fill="black">
<rect fill="white" x="185.751" y="115.304" width="300.006" height="269.626"/>
<path d="M251.553 298.276C236.336 271.919 245.366 238.217 271.723 223L343.589 181.508C369.946 166.291 403.648 175.322 418.865 201.678V201.678C434.082 228.035 425.052 261.737 398.695 276.955L326.829 318.446C300.472 333.663 266.77 324.633 251.553 298.276V298.276Z"/>
</mask>
<path d="M285.723 247.248L357.589 205.757L329.589 157.259L257.723 198.751L285.723 247.248ZM384.695 252.706L312.829 294.197L340.829 342.695L412.695 301.203L384.695 252.706ZM312.829 294.197C299.865 301.683 283.287 297.241 275.802 284.276L227.304 312.276C250.253 352.025 301.08 365.644 340.829 342.695L312.829 294.197ZM394.616 215.678C402.101 228.643 397.659 245.221 384.695 252.706L412.695 301.203C452.444 278.254 466.063 227.427 443.114 187.678L394.616 215.678ZM357.589 205.757C370.553 198.272 387.131 202.714 394.616 215.678L443.114 187.678C420.165 147.929 369.338 134.31 329.589 157.259L357.589 205.757ZM257.723 198.751C217.974 221.7 204.355 272.527 227.304 312.276L275.802 284.276C268.317 271.311 272.759 254.734 285.723 247.248L257.723 198.751Z" fill="#6868E2" mask="url(#path-4-outside-1_340_3480)"/>
<path d="M419.687 200.507C435.159 226.01 430.332 261.735 396.709 277.404C382.77 253.262 384.372 256.039 369.155 229.682C353.938 203.325 354.894 204.977 341.603 181.958C368.466 164.952 404.555 175.565 419.687 200.507Z" fill="white"/>
<path d="M257.98 210.84C242.723 185.709 247.75 150.343 281.341 134.638C295.079 158.432 293.5 155.696 308.498 181.673C323.496 207.65 322.554 206.021 335.653 228.709C308.788 245.695 272.901 235.418 257.98 210.84Z" fill="white"/>
<path d="M288.758 188.972C284.34 181.319 286.962 171.534 294.614 167.115L365.803 126.015C375.268 120.55 387.372 123.793 392.837 133.258V133.258C397.755 141.777 394.837 152.671 386.317 157.589L315.147 198.679C306.538 203.65 295.529 200.7 290.559 192.091L288.758 188.972Z" fill="#6868E2"/>
<path d="M283.041 277.612C278.623 269.96 281.245 260.174 288.897 255.756L360.677 214.314C369.816 209.037 381.502 212.169 386.779 221.308V221.308C391.528 229.533 388.71 240.051 380.484 244.8L308.782 286.197C300.173 291.168 289.164 288.218 284.194 279.609L283.041 277.612Z" fill="#6868E2"/>
</g>
<defs>
<clipPath id="clip0_340_3480">
<rect width="413" height="676" fill="white" transform="translate(676) rotate(90)"/>
</clipPath>
</defs>
</svg>
