<svg width="413" height="600" viewBox="0 0 413 600" fill="none" xmlns="http://www.w3.org/2000/svg">
<g clip-path="url(#clip0_331_1346)">
<rect width="413" height="600" fill="#C7C7F1"/>
<path d="M120.553 392.276C105.336 365.919 114.366 332.217 140.723 317L212.589 275.508C238.946 260.291 272.648 269.322 287.865 295.678C303.082 322.035 294.052 355.737 267.695 370.955L195.829 412.446C169.472 427.663 135.77 418.633 120.553 392.276Z" fill="white"/>
<path d="M139.851 218.244C107.108 237.149 95.8899 279.017 114.794 311.759C133.698 344.502 175.566 355.721 208.309 336.817L281.297 294.677C314.04 275.773 325.259 233.905 306.355 201.162C287.451 168.419 245.583 157.2 212.84 176.105L139.851 218.244Z" stroke="#6868E2" stroke-width="28"/>
<path d="M126.918 304.759C111.88 278.713 120.805 245.407 146.851 230.369L219.84 188.229C245.886 173.191 279.192 182.115 294.23 208.162C309.268 234.209 300.344 267.514 274.297 282.552L201.309 324.692C175.262 339.73 141.956 330.806 126.918 304.759Z" fill="white"/>
<mask id="path-4-outside-1_331_1346" maskUnits="userSpaceOnUse" x="54.7513" y="209.304" width="300.006" height="269.626" fill="black">
<rect fill="white" x="54.7513" y="209.304" width="300.006" height="269.626"/>
<path d="M120.553 392.276C105.336 365.919 114.366 332.217 140.723 317L212.589 275.508C238.946 260.291 272.648 269.322 287.865 295.678C303.082 322.035 294.052 355.737 267.695 370.955L195.829 412.446C169.472 427.663 135.77 418.633 120.553 392.276Z"/>
</mask>
<path d="M154.723 341.248L226.589 299.757L198.589 251.259L126.723 292.751L154.723 341.248ZM253.695 346.706L181.829 388.197L209.829 436.695L281.695 395.203L253.695 346.706ZM181.829 388.197C168.865 395.683 152.287 391.241 144.802 378.276L96.3043 406.276C119.253 446.025 170.08 459.644 209.829 436.695L181.829 388.197ZM263.616 309.678C271.101 322.643 266.659 339.221 253.695 346.706L281.695 395.203C321.444 372.254 335.063 321.427 312.114 281.678L263.616 309.678ZM226.589 299.757C239.553 292.272 256.131 296.714 263.616 309.678L312.114 281.678C289.165 241.929 238.338 228.31 198.589 251.259L226.589 299.757ZM126.723 292.751C86.9742 315.7 73.3552 366.527 96.3043 406.276L144.802 378.276C137.317 365.311 141.759 348.734 154.723 341.248L126.723 292.751Z" fill="#6868E2" mask="url(#path-4-outside-1_331_1346)"/>
<path d="M288.686 294.507C304.158 320.01 299.332 355.735 265.709 371.404C251.77 347.262 253.372 350.039 238.155 323.682C222.938 297.325 223.893 298.977 210.603 275.958C237.465 258.952 273.554 269.565 288.686 294.507Z" fill="white"/>
<path d="M126.981 304.84C111.724 279.709 116.751 244.343 150.342 228.638C164.08 252.432 162.501 249.696 177.499 275.673C192.497 301.65 191.555 300.021 204.654 322.709C177.789 339.695 141.902 329.418 126.981 304.84Z" fill="white"/>
<path d="M157.757 282.972C153.339 275.319 155.961 265.534 163.614 261.115L234.802 220.015C244.268 214.55 256.371 217.793 261.836 227.258C266.755 235.777 263.836 246.671 255.317 251.589L184.147 292.679C175.537 297.65 164.529 294.7 159.558 286.091L157.757 282.972Z" fill="#6868E2"/>
<path d="M152.041 371.612C147.623 363.96 150.245 354.174 157.897 349.756L229.677 308.314C238.816 303.037 250.502 306.169 255.779 315.308C260.528 323.533 257.71 334.051 249.484 338.8L177.782 380.197C169.173 385.168 158.164 382.218 153.194 373.609L152.041 371.612Z" fill="#6868E2"/>
</g>
<defs>
<clipPath id="clip0_331_1346">
<rect width="413" height="600" fill="white"/>
</clipPath>
</defs>
</svg>
