<svg width="600" height="413" viewBox="0 0 600 413" fill="none" xmlns="http://www.w3.org/2000/svg">
<g clip-path="url(#clip0_461_1538)">
<rect width="413" height="600" transform="translate(600) rotate(90)" fill="white"/>
<path d="M24.9163 5H20.625L17.5 9.8491L14.8214 5H5L17.5 26L30 5H24.9163ZM8.10826 6.75137H11.1105L17.5 17.5989L23.8839 6.75137H26.8862L17.5 22.5246L8.10826 6.75137Z" fill="#003A67" fill-opacity="0.1"/>
<path d="M24.9163 97H20.625L17.5 101.849L14.8214 97H5L17.5 118L30 97H24.9163ZM8.10826 98.7514H11.1105L17.5 109.599L23.8839 98.7514H26.8862L17.5 114.525L8.10826 98.7514Z" fill="#003A67" fill-opacity="0.1"/>
<path d="M24.9163 189H20.625L17.5 193.849L14.8214 189H5L17.5 210L30 189H24.9163ZM8.10826 190.751H11.1105L17.5 201.599L23.8839 190.751H26.8862L17.5 206.525L8.10826 190.751Z" fill="#003A67" fill-opacity="0.1"/>
<path d="M24.9163 281H20.625L17.5 285.849L14.8214 281H5L17.5 302L30 281H24.9163ZM8.10826 282.751H11.1105L17.5 293.599L23.8839 282.751H26.8862L17.5 298.525L8.10826 282.751Z" fill="#003A67" fill-opacity="0.1"/>
<path d="M24.9163 373H20.625L17.5 377.849L14.8214 373H5L17.5 394L30 373H24.9163ZM8.10826 374.751H11.1105L17.5 385.599L23.8839 374.751H26.8862L17.5 390.525L8.10826 374.751Z" fill="#003A67" fill-opacity="0.1"/>
<path d="M-0.0837059 51H-4.375L-7.5 55.8491L-10.1786 51H-20L-7.5 72L5 51H-0.0837059ZM-16.8917 52.7514H-13.8895L-7.5 63.5989L-1.11607 52.7514H1.88616L-7.5 68.5246L-16.8917 52.7514Z" fill="#003A67" fill-opacity="0.1"/>
<path d="M-0.0837059 143H-4.375L-7.5 147.849L-10.1786 143H-20L-7.5 164L5 143H-0.0837059ZM-16.8917 144.751H-13.8895L-7.5 155.599L-1.11607 144.751H1.88616L-7.5 160.525L-16.8917 144.751Z" fill="#003A67" fill-opacity="0.1"/>
<path d="M-0.0837059 235H-4.375L-7.5 239.849L-10.1786 235H-20L-7.5 256L5 235H-0.0837059ZM-16.8917 236.751H-13.8895L-7.5 247.599L-1.11607 236.751H1.88616L-7.5 252.525L-16.8917 236.751Z" fill="#003A67" fill-opacity="0.1"/>
<path d="M-0.0837059 327H-4.375L-7.5 331.849L-10.1786 327H-20L-7.5 348L5 327H-0.0837059ZM-16.8917 328.751H-13.8895L-7.5 339.599L-1.11607 328.751H1.88616L-7.5 344.525L-16.8917 328.751Z" fill="#003A67" fill-opacity="0.1"/>
<path d="M74.9163 5H70.625L67.5 9.8491L64.8214 5H55L67.5 26L80 5H74.9163ZM58.1083 6.75137H61.1105L67.5 17.5989L73.8839 6.75137H76.8862L67.5 22.5246L58.1083 6.75137Z" fill="#003A67" fill-opacity="0.1"/>
<path d="M74.9163 97H70.625L67.5 101.849L64.8214 97H55L67.5 118L80 97H74.9163ZM58.1083 98.7514H61.1105L67.5 109.599L73.8839 98.7514H76.8862L67.5 114.525L58.1083 98.7514Z" fill="#003A67" fill-opacity="0.1"/>
<path d="M74.9163 189H70.625L67.5 193.849L64.8214 189H55L67.5 210L80 189H74.9163ZM58.1083 190.751H61.1105L67.5 201.599L73.8839 190.751H76.8862L67.5 206.525L58.1083 190.751Z" fill="#003A67" fill-opacity="0.1"/>
<path d="M74.9163 281H70.625L67.5 285.849L64.8214 281H55L67.5 302L80 281H74.9163ZM58.1083 282.751H61.1105L67.5 293.599L73.8839 282.751H76.8862L67.5 298.525L58.1083 282.751Z" fill="#003A67" fill-opacity="0.1"/>
<path d="M74.9163 373H70.625L67.5 377.849L64.8214 373H55L67.5 394L80 373H74.9163ZM58.1083 374.751H61.1105L67.5 385.599L73.8839 374.751H76.8862L67.5 390.525L58.1083 374.751Z" fill="#003A67" fill-opacity="0.1"/>
<path d="M49.9163 51H45.625L42.5 55.8491L39.8214 51H30L42.5 72L55 51H49.9163ZM33.1083 52.7514H36.1105L42.5 63.5989L48.8839 52.7514H51.8862L42.5 68.5246L33.1083 52.7514Z" fill="#003A67" fill-opacity="0.1"/>
<path d="M49.9163 143H45.625L42.5 147.849L39.8214 143H30L42.5 164L55 143H49.9163ZM33.1083 144.751H36.1105L42.5 155.599L48.8839 144.751H51.8862L42.5 160.525L33.1083 144.751Z" fill="#003A67" fill-opacity="0.1"/>
<path d="M49.9163 235H45.625L42.5 239.849L39.8214 235H30L42.5 256L55 235H49.9163ZM33.1083 236.751H36.1105L42.5 247.599L48.8839 236.751H51.8862L42.5 252.525L33.1083 236.751Z" fill="#003A67" fill-opacity="0.1"/>
<path d="M49.9163 327H45.625L42.5 331.849L39.8214 327H30L42.5 348L55 327H49.9163ZM33.1083 328.751H36.1105L42.5 339.599L48.8839 328.751H51.8862L42.5 344.525L33.1083 328.751Z" fill="#003A67" fill-opacity="0.1"/>
<path d="M124.916 5H120.625L117.5 9.8491L114.821 5H105L117.5 26L130 5H124.916ZM108.108 6.75137H111.11L117.5 17.5989L123.884 6.75137H126.886L117.5 22.5246L108.108 6.75137Z" fill="#003A67" fill-opacity="0.1"/>
<path d="M124.916 97H120.625L117.5 101.849L114.821 97H105L117.5 118L130 97H124.916ZM108.108 98.7514H111.11L117.5 109.599L123.884 98.7514H126.886L117.5 114.525L108.108 98.7514Z" fill="#003A67" fill-opacity="0.1"/>
<path d="M124.916 189H120.625L117.5 193.849L114.821 189H105L117.5 210L130 189H124.916ZM108.108 190.751H111.11L117.5 201.599L123.884 190.751H126.886L117.5 206.525L108.108 190.751Z" fill="#003A67" fill-opacity="0.1"/>
<path d="M124.916 281H120.625L117.5 285.849L114.821 281H105L117.5 302L130 281H124.916ZM108.108 282.751H111.11L117.5 293.599L123.884 282.751H126.886L117.5 298.525L108.108 282.751Z" fill="#003A67" fill-opacity="0.1"/>
<path d="M124.916 373H120.625L117.5 377.849L114.821 373H105L117.5 394L130 373H124.916ZM108.108 374.751H111.11L117.5 385.599L123.884 374.751H126.886L117.5 390.525L108.108 374.751Z" fill="#003A67" fill-opacity="0.1"/>
<path d="M99.9163 51H95.625L92.5 55.8491L89.8214 51H80L92.5 72L105 51H99.9163ZM83.1083 52.7514H86.1105L92.5 63.5989L98.8839 52.7514H101.886L92.5 68.5246L83.1083 52.7514Z" fill="#003A67" fill-opacity="0.1"/>
<path d="M99.9163 143H95.625L92.5 147.849L89.8214 143H80L92.5 164L105 143H99.9163ZM83.1083 144.751H86.1105L92.5 155.599L98.8839 144.751H101.886L92.5 160.525L83.1083 144.751Z" fill="#003A67" fill-opacity="0.1"/>
<path d="M99.9163 235H95.625L92.5 239.849L89.8214 235H80L92.5 256L105 235H99.9163ZM83.1083 236.751H86.1105L92.5 247.599L98.8839 236.751H101.886L92.5 252.525L83.1083 236.751Z" fill="#003A67" fill-opacity="0.1"/>
<path d="M99.9163 327H95.625L92.5 331.849L89.8214 327H80L92.5 348L105 327H99.9163ZM83.1083 328.751H86.1105L92.5 339.599L98.8839 328.751H101.886L92.5 344.525L83.1083 328.751Z" fill="#003A67" fill-opacity="0.1"/>
<path d="M174.916 5H170.625L167.5 9.8491L164.821 5H155L167.5 26L180 5H174.916ZM158.108 6.75137H161.11L167.5 17.5989L173.884 6.75137H176.886L167.5 22.5246L158.108 6.75137Z" fill="#003A67" fill-opacity="0.1"/>
<path d="M174.916 97H170.625L167.5 101.849L164.821 97H155L167.5 118L180 97H174.916ZM158.108 98.7514H161.11L167.5 109.599L173.884 98.7514H176.886L167.5 114.525L158.108 98.7514Z" fill="#003A67" fill-opacity="0.1"/>
<path d="M174.916 189H170.625L167.5 193.849L164.821 189H155L167.5 210L180 189H174.916ZM158.108 190.751H161.11L167.5 201.599L173.884 190.751H176.886L167.5 206.525L158.108 190.751Z" fill="#003A67" fill-opacity="0.1"/>
<path d="M174.916 281H170.625L167.5 285.849L164.821 281H155L167.5 302L180 281H174.916ZM158.108 282.751H161.11L167.5 293.599L173.884 282.751H176.886L167.5 298.525L158.108 282.751Z" fill="#003A67" fill-opacity="0.1"/>
<path d="M174.916 373H170.625L167.5 377.849L164.821 373H155L167.5 394L180 373H174.916ZM158.108 374.751H161.11L167.5 385.599L173.884 374.751H176.886L167.5 390.525L158.108 374.751Z" fill="#003A67" fill-opacity="0.1"/>
<path d="M149.916 51H145.625L142.5 55.8491L139.821 51H130L142.5 72L155 51H149.916ZM133.108 52.7514H136.11L142.5 63.5989L148.884 52.7514H151.886L142.5 68.5246L133.108 52.7514Z" fill="#003A67" fill-opacity="0.1"/>
<path d="M149.916 143H145.625L142.5 147.849L139.821 143H130L142.5 164L155 143H149.916ZM133.108 144.751H136.11L142.5 155.599L148.884 144.751H151.886L142.5 160.525L133.108 144.751Z" fill="#003A67" fill-opacity="0.1"/>
<path d="M149.916 235H145.625L142.5 239.849L139.821 235H130L142.5 256L155 235H149.916ZM133.108 236.751H136.11L142.5 247.599L148.884 236.751H151.886L142.5 252.525L133.108 236.751Z" fill="#003A67" fill-opacity="0.1"/>
<path d="M149.916 327H145.625L142.5 331.849L139.821 327H130L142.5 348L155 327H149.916ZM133.108 328.751H136.11L142.5 339.599L148.884 328.751H151.886L142.5 344.525L133.108 328.751Z" fill="#003A67" fill-opacity="0.1"/>
<path d="M224.916 5H220.625L217.5 9.8491L214.821 5H205L217.5 26L230 5H224.916ZM208.108 6.75137H211.11L217.5 17.5989L223.884 6.75137H226.886L217.5 22.5246L208.108 6.75137Z" fill="#003A67" fill-opacity="0.1"/>
<path d="M224.916 97H220.625L217.5 101.849L214.821 97H205L217.5 118L230 97H224.916ZM208.108 98.7514H211.11L217.5 109.599L223.884 98.7514H226.886L217.5 114.525L208.108 98.7514Z" fill="#003A67" fill-opacity="0.1"/>
<path d="M224.916 189H220.625L217.5 193.849L214.821 189H205L217.5 210L230 189H224.916ZM208.108 190.751H211.11L217.5 201.599L223.884 190.751H226.886L217.5 206.525L208.108 190.751Z" fill="#003A67" fill-opacity="0.1"/>
<path d="M224.916 281H220.625L217.5 285.849L214.821 281H205L217.5 302L230 281H224.916ZM208.108 282.751H211.11L217.5 293.599L223.884 282.751H226.886L217.5 298.525L208.108 282.751Z" fill="#003A67" fill-opacity="0.1"/>
<path d="M224.916 373H220.625L217.5 377.849L214.821 373H205L217.5 394L230 373H224.916ZM208.108 374.751H211.11L217.5 385.599L223.884 374.751H226.886L217.5 390.525L208.108 374.751Z" fill="#003A67" fill-opacity="0.1"/>
<path d="M199.916 51H195.625L192.5 55.8491L189.821 51H180L192.5 72L205 51H199.916ZM183.108 52.7514H186.11L192.5 63.5989L198.884 52.7514H201.886L192.5 68.5246L183.108 52.7514Z" fill="#003A67" fill-opacity="0.1"/>
<path d="M199.916 143H195.625L192.5 147.849L189.821 143H180L192.5 164L205 143H199.916ZM183.108 144.751H186.11L192.5 155.599L198.884 144.751H201.886L192.5 160.525L183.108 144.751Z" fill="#003A67" fill-opacity="0.1"/>
<path d="M199.916 235H195.625L192.5 239.849L189.821 235H180L192.5 256L205 235H199.916ZM183.108 236.751H186.11L192.5 247.599L198.884 236.751H201.886L192.5 252.525L183.108 236.751Z" fill="#003A67" fill-opacity="0.1"/>
<path d="M199.916 327H195.625L192.5 331.849L189.821 327H180L192.5 348L205 327H199.916ZM183.108 328.751H186.11L192.5 339.599L198.884 328.751H201.886L192.5 344.525L183.108 328.751Z" fill="#003A67" fill-opacity="0.1"/>
<path d="M274.916 5H270.625L267.5 9.8491L264.821 5H255L267.5 26L280 5H274.916ZM258.108 6.75137H261.11L267.5 17.5989L273.884 6.75137H276.886L267.5 22.5246L258.108 6.75137Z" fill="#003A67" fill-opacity="0.1"/>
<path d="M274.916 97H270.625L267.5 101.849L264.821 97H255L267.5 118L280 97H274.916ZM258.108 98.7514H261.11L267.5 109.599L273.884 98.7514H276.886L267.5 114.525L258.108 98.7514Z" fill="#003A67" fill-opacity="0.1"/>
<path d="M274.916 189H270.625L267.5 193.849L264.821 189H255L267.5 210L280 189H274.916ZM258.108 190.751H261.11L267.5 201.599L273.884 190.751H276.886L267.5 206.525L258.108 190.751Z" fill="#003A67" fill-opacity="0.1"/>
<path d="M274.916 281H270.625L267.5 285.849L264.821 281H255L267.5 302L280 281H274.916ZM258.108 282.751H261.11L267.5 293.599L273.884 282.751H276.886L267.5 298.525L258.108 282.751Z" fill="#003A67" fill-opacity="0.1"/>
<path d="M274.916 373H270.625L267.5 377.849L264.821 373H255L267.5 394L280 373H274.916ZM258.108 374.751H261.11L267.5 385.599L273.884 374.751H276.886L267.5 390.525L258.108 374.751Z" fill="#003A67" fill-opacity="0.1"/>
<path d="M249.916 51H245.625L242.5 55.8491L239.821 51H230L242.5 72L255 51H249.916ZM233.108 52.7514H236.11L242.5 63.5989L248.884 52.7514H251.886L242.5 68.5246L233.108 52.7514Z" fill="#003A67" fill-opacity="0.1"/>
<path d="M249.916 143H245.625L242.5 147.849L239.821 143H230L242.5 164L255 143H249.916ZM233.108 144.751H236.11L242.5 155.599L248.884 144.751H251.886L242.5 160.525L233.108 144.751Z" fill="#003A67" fill-opacity="0.1"/>
<path d="M249.916 235H245.625L242.5 239.849L239.821 235H230L242.5 256L255 235H249.916ZM233.108 236.751H236.11L242.5 247.599L248.884 236.751H251.886L242.5 252.525L233.108 236.751Z" fill="#003A67" fill-opacity="0.1"/>
<path d="M249.916 327H245.625L242.5 331.849L239.821 327H230L242.5 348L255 327H249.916ZM233.108 328.751H236.11L242.5 339.599L248.884 328.751H251.886L242.5 344.525L233.108 328.751Z" fill="#003A67" fill-opacity="0.1"/>
<path d="M324.916 5H320.625L317.5 9.8491L314.821 5H305L317.5 26L330 5H324.916ZM308.108 6.75137H311.11L317.5 17.5989L323.884 6.75137H326.886L317.5 22.5246L308.108 6.75137Z" fill="#003A67" fill-opacity="0.1"/>
<path d="M324.916 97H320.625L317.5 101.849L314.821 97H305L317.5 118L330 97H324.916ZM308.108 98.7514H311.11L317.5 109.599L323.884 98.7514H326.886L317.5 114.525L308.108 98.7514Z" fill="#003A67" fill-opacity="0.1"/>
<path d="M324.916 189H320.625L317.5 193.849L314.821 189H305L317.5 210L330 189H324.916ZM308.108 190.751H311.11L317.5 201.599L323.884 190.751H326.886L317.5 206.525L308.108 190.751Z" fill="#003A67" fill-opacity="0.1"/>
<path d="M324.916 281H320.625L317.5 285.849L314.821 281H305L317.5 302L330 281H324.916ZM308.108 282.751H311.11L317.5 293.599L323.884 282.751H326.886L317.5 298.525L308.108 282.751Z" fill="#003A67" fill-opacity="0.1"/>
<path d="M324.916 373H320.625L317.5 377.849L314.821 373H305L317.5 394L330 373H324.916ZM308.108 374.751H311.11L317.5 385.599L323.884 374.751H326.886L317.5 390.525L308.108 374.751Z" fill="#003A67" fill-opacity="0.1"/>
<path d="M299.916 51H295.625L292.5 55.8491L289.821 51H280L292.5 72L305 51H299.916ZM283.108 52.7514H286.11L292.5 63.5989L298.884 52.7514H301.886L292.5 68.5246L283.108 52.7514Z" fill="#003A67" fill-opacity="0.1"/>
<path d="M299.916 143H295.625L292.5 147.849L289.821 143H280L292.5 164L305 143H299.916ZM283.108 144.751H286.11L292.5 155.599L298.884 144.751H301.886L292.5 160.525L283.108 144.751Z" fill="#003A67" fill-opacity="0.1"/>
<path d="M299.916 235H295.625L292.5 239.849L289.821 235H280L292.5 256L305 235H299.916ZM283.108 236.751H286.11L292.5 247.599L298.884 236.751H301.886L292.5 252.525L283.108 236.751Z" fill="#003A67" fill-opacity="0.1"/>
<path d="M299.916 327H295.625L292.5 331.849L289.821 327H280L292.5 348L305 327H299.916ZM283.108 328.751H286.11L292.5 339.599L298.884 328.751H301.886L292.5 344.525L283.108 328.751Z" fill="#003A67" fill-opacity="0.1"/>
<path d="M374.916 5H370.625L367.5 9.8491L364.821 5H355L367.5 26L380 5H374.916ZM358.108 6.75137H361.11L367.5 17.5989L373.884 6.75137H376.886L367.5 22.5246L358.108 6.75137Z" fill="#003A67" fill-opacity="0.1"/>
<path d="M374.916 97H370.625L367.5 101.849L364.821 97H355L367.5 118L380 97H374.916ZM358.108 98.7514H361.11L367.5 109.599L373.884 98.7514H376.886L367.5 114.525L358.108 98.7514Z" fill="#003A67" fill-opacity="0.1"/>
<path d="M374.916 189H370.625L367.5 193.849L364.821 189H355L367.5 210L380 189H374.916ZM358.108 190.751H361.11L367.5 201.599L373.884 190.751H376.886L367.5 206.525L358.108 190.751Z" fill="#003A67" fill-opacity="0.1"/>
<path d="M374.916 281H370.625L367.5 285.849L364.821 281H355L367.5 302L380 281H374.916ZM358.108 282.751H361.11L367.5 293.599L373.884 282.751H376.886L367.5 298.525L358.108 282.751Z" fill="#003A67" fill-opacity="0.1"/>
<path d="M374.916 373H370.625L367.5 377.849L364.821 373H355L367.5 394L380 373H374.916ZM358.108 374.751H361.11L367.5 385.599L373.884 374.751H376.886L367.5 390.525L358.108 374.751Z" fill="#003A67" fill-opacity="0.1"/>
<path d="M349.916 51H345.625L342.5 55.8491L339.821 51H330L342.5 72L355 51H349.916ZM333.108 52.7514H336.11L342.5 63.5989L348.884 52.7514H351.886L342.5 68.5246L333.108 52.7514Z" fill="#003A67" fill-opacity="0.1"/>
<path d="M349.916 143H345.625L342.5 147.849L339.821 143H330L342.5 164L355 143H349.916ZM333.108 144.751H336.11L342.5 155.599L348.884 144.751H351.886L342.5 160.525L333.108 144.751Z" fill="#003A67" fill-opacity="0.1"/>
<path d="M349.916 235H345.625L342.5 239.849L339.821 235H330L342.5 256L355 235H349.916ZM333.108 236.751H336.11L342.5 247.599L348.884 236.751H351.886L342.5 252.525L333.108 236.751Z" fill="#003A67" fill-opacity="0.1"/>
<path d="M349.916 327H345.625L342.5 331.849L339.821 327H330L342.5 348L355 327H349.916ZM333.108 328.751H336.11L342.5 339.599L348.884 328.751H351.886L342.5 344.525L333.108 328.751Z" fill="#003A67" fill-opacity="0.1"/>
<path d="M424.916 5H420.625L417.5 9.8491L414.821 5H405L417.5 26L430 5H424.916ZM408.108 6.75137H411.11L417.5 17.5989L423.884 6.75137H426.886L417.5 22.5246L408.108 6.75137Z" fill="#003A67" fill-opacity="0.1"/>
<path d="M424.916 97H420.625L417.5 101.849L414.821 97H405L417.5 118L430 97H424.916ZM408.108 98.7514H411.11L417.5 109.599L423.884 98.7514H426.886L417.5 114.525L408.108 98.7514Z" fill="#003A67" fill-opacity="0.1"/>
<path d="M424.916 189H420.625L417.5 193.849L414.821 189H405L417.5 210L430 189H424.916ZM408.108 190.751H411.11L417.5 201.599L423.884 190.751H426.886L417.5 206.525L408.108 190.751Z" fill="#003A67" fill-opacity="0.1"/>
<path d="M424.916 281H420.625L417.5 285.849L414.821 281H405L417.5 302L430 281H424.916ZM408.108 282.751H411.11L417.5 293.599L423.884 282.751H426.886L417.5 298.525L408.108 282.751Z" fill="#003A67" fill-opacity="0.1"/>
<path d="M424.916 373H420.625L417.5 377.849L414.821 373H405L417.5 394L430 373H424.916ZM408.108 374.751H411.11L417.5 385.599L423.884 374.751H426.886L417.5 390.525L408.108 374.751Z" fill="#003A67" fill-opacity="0.1"/>
<path d="M399.916 51H395.625L392.5 55.8491L389.821 51H380L392.5 72L405 51H399.916ZM383.108 52.7514H386.11L392.5 63.5989L398.884 52.7514H401.886L392.5 68.5246L383.108 52.7514Z" fill="#003A67" fill-opacity="0.1"/>
<path d="M399.916 143H395.625L392.5 147.849L389.821 143H380L392.5 164L405 143H399.916ZM383.108 144.751H386.11L392.5 155.599L398.884 144.751H401.886L392.5 160.525L383.108 144.751Z" fill="#003A67" fill-opacity="0.1"/>
<path d="M399.916 235H395.625L392.5 239.849L389.821 235H380L392.5 256L405 235H399.916ZM383.108 236.751H386.11L392.5 247.599L398.884 236.751H401.886L392.5 252.525L383.108 236.751Z" fill="#003A67" fill-opacity="0.1"/>
<path d="M399.916 327H395.625L392.5 331.849L389.821 327H380L392.5 348L405 327H399.916ZM383.108 328.751H386.11L392.5 339.599L398.884 328.751H401.886L392.5 344.525L383.108 328.751Z" fill="#003A67" fill-opacity="0.1"/>
<path d="M474.916 5H470.625L467.5 9.8491L464.821 5H455L467.5 26L480 5H474.916ZM458.108 6.75137H461.11L467.5 17.5989L473.884 6.75137H476.886L467.5 22.5246L458.108 6.75137Z" fill="#003A67" fill-opacity="0.1"/>
<path d="M474.916 97H470.625L467.5 101.849L464.821 97H455L467.5 118L480 97H474.916ZM458.108 98.7514H461.11L467.5 109.599L473.884 98.7514H476.886L467.5 114.525L458.108 98.7514Z" fill="#003A67" fill-opacity="0.1"/>
<path d="M474.916 189H470.625L467.5 193.849L464.821 189H455L467.5 210L480 189H474.916ZM458.108 190.751H461.11L467.5 201.599L473.884 190.751H476.886L467.5 206.525L458.108 190.751Z" fill="#003A67" fill-opacity="0.1"/>
<path d="M474.916 281H470.625L467.5 285.849L464.821 281H455L467.5 302L480 281H474.916ZM458.108 282.751H461.11L467.5 293.599L473.884 282.751H476.886L467.5 298.525L458.108 282.751Z" fill="#003A67" fill-opacity="0.1"/>
<path d="M474.916 373H470.625L467.5 377.849L464.821 373H455L467.5 394L480 373H474.916ZM458.108 374.751H461.11L467.5 385.599L473.884 374.751H476.886L467.5 390.525L458.108 374.751Z" fill="#003A67" fill-opacity="0.1"/>
<path d="M449.916 51H445.625L442.5 55.8491L439.821 51H430L442.5 72L455 51H449.916ZM433.108 52.7514H436.11L442.5 63.5989L448.884 52.7514H451.886L442.5 68.5246L433.108 52.7514Z" fill="#003A67" fill-opacity="0.1"/>
<path d="M449.916 143H445.625L442.5 147.849L439.821 143H430L442.5 164L455 143H449.916ZM433.108 144.751H436.11L442.5 155.599L448.884 144.751H451.886L442.5 160.525L433.108 144.751Z" fill="#003A67" fill-opacity="0.1"/>
<path d="M449.916 235H445.625L442.5 239.849L439.821 235H430L442.5 256L455 235H449.916ZM433.108 236.751H436.11L442.5 247.599L448.884 236.751H451.886L442.5 252.525L433.108 236.751Z" fill="#003A67" fill-opacity="0.1"/>
<path d="M449.916 327H445.625L442.5 331.849L439.821 327H430L442.5 348L455 327H449.916ZM433.108 328.751H436.11L442.5 339.599L448.884 328.751H451.886L442.5 344.525L433.108 328.751Z" fill="#003A67" fill-opacity="0.1"/>
<path d="M524.916 5H520.625L517.5 9.8491L514.821 5H505L517.5 26L530 5H524.916ZM508.108 6.75137H511.11L517.5 17.5989L523.884 6.75137H526.886L517.5 22.5246L508.108 6.75137Z" fill="#003A67" fill-opacity="0.1"/>
<path d="M524.916 97H520.625L517.5 101.849L514.821 97H505L517.5 118L530 97H524.916ZM508.108 98.7514H511.11L517.5 109.599L523.884 98.7514H526.886L517.5 114.525L508.108 98.7514Z" fill="#003A67" fill-opacity="0.1"/>
<path d="M524.916 189H520.625L517.5 193.849L514.821 189H505L517.5 210L530 189H524.916ZM508.108 190.751H511.11L517.5 201.599L523.884 190.751H526.886L517.5 206.525L508.108 190.751Z" fill="#003A67" fill-opacity="0.1"/>
<path d="M524.916 281H520.625L517.5 285.849L514.821 281H505L517.5 302L530 281H524.916ZM508.108 282.751H511.11L517.5 293.599L523.884 282.751H526.886L517.5 298.525L508.108 282.751Z" fill="#003A67" fill-opacity="0.1"/>
<path d="M524.916 373H520.625L517.5 377.849L514.821 373H505L517.5 394L530 373H524.916ZM508.108 374.751H511.11L517.5 385.599L523.884 374.751H526.886L517.5 390.525L508.108 374.751Z" fill="#003A67" fill-opacity="0.1"/>
<path d="M499.916 51H495.625L492.5 55.8491L489.821 51H480L492.5 72L505 51H499.916ZM483.108 52.7514H486.11L492.5 63.5989L498.884 52.7514H501.886L492.5 68.5246L483.108 52.7514Z" fill="#003A67" fill-opacity="0.1"/>
<path d="M499.916 143H495.625L492.5 147.849L489.821 143H480L492.5 164L505 143H499.916ZM483.108 144.751H486.11L492.5 155.599L498.884 144.751H501.886L492.5 160.525L483.108 144.751Z" fill="#003A67" fill-opacity="0.1"/>
<path d="M499.916 235H495.625L492.5 239.849L489.821 235H480L492.5 256L505 235H499.916ZM483.108 236.751H486.11L492.5 247.599L498.884 236.751H501.886L492.5 252.525L483.108 236.751Z" fill="#003A67" fill-opacity="0.1"/>
<path d="M499.916 327H495.625L492.5 331.849L489.821 327H480L492.5 348L505 327H499.916ZM483.108 328.751H486.11L492.5 339.599L498.884 328.751H501.886L492.5 344.525L483.108 328.751Z" fill="#003A67" fill-opacity="0.1"/>
<path d="M574.916 5H570.625L567.5 9.8491L564.821 5H555L567.5 26L580 5H574.916ZM558.108 6.75137H561.11L567.5 17.5989L573.884 6.75137H576.886L567.5 22.5246L558.108 6.75137Z" fill="#003A67" fill-opacity="0.1"/>
<path d="M574.916 97H570.625L567.5 101.849L564.821 97H555L567.5 118L580 97H574.916ZM558.108 98.7514H561.11L567.5 109.599L573.884 98.7514H576.886L567.5 114.525L558.108 98.7514Z" fill="#003A67" fill-opacity="0.1"/>
<path d="M574.916 189H570.625L567.5 193.849L564.821 189H555L567.5 210L580 189H574.916ZM558.108 190.751H561.11L567.5 201.599L573.884 190.751H576.886L567.5 206.525L558.108 190.751Z" fill="#003A67" fill-opacity="0.1"/>
<path d="M574.916 281H570.625L567.5 285.849L564.821 281H555L567.5 302L580 281H574.916ZM558.108 282.751H561.11L567.5 293.599L573.884 282.751H576.886L567.5 298.525L558.108 282.751Z" fill="#003A67" fill-opacity="0.1"/>
<path d="M574.916 373H570.625L567.5 377.849L564.821 373H555L567.5 394L580 373H574.916ZM558.108 374.751H561.11L567.5 385.599L573.884 374.751H576.886L567.5 390.525L558.108 374.751Z" fill="#003A67" fill-opacity="0.1"/>
<path d="M549.916 51H545.625L542.5 55.8491L539.821 51H530L542.5 72L555 51H549.916ZM533.108 52.7514H536.11L542.5 63.5989L548.884 52.7514H551.886L542.5 68.5246L533.108 52.7514Z" fill="#003A67" fill-opacity="0.1"/>
<path d="M549.916 143H545.625L542.5 147.849L539.821 143H530L542.5 164L555 143H549.916ZM533.108 144.751H536.11L542.5 155.599L548.884 144.751H551.886L542.5 160.525L533.108 144.751Z" fill="#003A67" fill-opacity="0.1"/>
<path d="M549.916 235H545.625L542.5 239.849L539.821 235H530L542.5 256L555 235H549.916ZM533.108 236.751H536.11L542.5 247.599L548.884 236.751H551.886L542.5 252.525L533.108 236.751Z" fill="#003A67" fill-opacity="0.1"/>
<path d="M549.916 327H545.625L542.5 331.849L539.821 327H530L542.5 348L555 327H549.916ZM533.108 328.751H536.11L542.5 339.599L548.884 328.751H551.886L542.5 344.525L533.108 328.751Z" fill="#003A67" fill-opacity="0.1"/>
<path d="M599.916 51H595.625L592.5 55.8491L589.821 51H580L592.5 72L605 51H599.916ZM583.108 52.7514H586.11L592.5 63.5989L598.884 52.7514H601.886L592.5 68.5246L583.108 52.7514Z" fill="#003A67" fill-opacity="0.1"/>
<path d="M599.916 143H595.625L592.5 147.849L589.821 143H580L592.5 164L605 143H599.916ZM583.108 144.751H586.11L592.5 155.599L598.884 144.751H601.886L592.5 160.525L583.108 144.751Z" fill="#003A67" fill-opacity="0.1"/>
<path d="M599.916 235H595.625L592.5 239.849L589.821 235H580L592.5 256L605 235H599.916ZM583.108 236.751H586.11L592.5 247.599L598.884 236.751H601.886L592.5 252.525L583.108 236.751Z" fill="#003A67" fill-opacity="0.1"/>
<path d="M599.916 327H595.625L592.5 331.849L589.821 327H580L592.5 348L605 327H599.916ZM583.108 328.751H586.11L592.5 339.599L598.884 328.751H601.886L592.5 344.525L583.108 328.751Z" fill="#003A67" fill-opacity="0.1"/>
<path d="M384.842 85H335.75L300 141.342L269.357 85H157L300 329L443 85H384.842ZM192.558 105.349H226.904L300 231.387L373.032 105.349H407.378L300 288.619L192.558 105.349Z" fill="#003A67"/>
</g>
<defs>
<clipPath id="clip0_461_1538">
<rect width="413" height="600" fill="white" transform="translate(600) rotate(90)"/>
</clipPath>
</defs>
</svg>
