<svg width="413" height="600" viewBox="0 0 413 600" fill="none" xmlns="http://www.w3.org/2000/svg">
<g clip-path="url(#clip0_335_3048)">
<rect width="413" height="600" fill="white"/>
<path d="M24.9163 5H20.625L17.5 9.8491L14.8214 5H5L17.5 26L30 5H24.9163ZM8.10826 6.75137H11.1105L17.5 17.5989L23.8839 6.75137H26.8862L17.5 22.5246L8.10826 6.75137Z" fill="#003A67" fill-opacity="0.1"/>
<path d="M24.9163 97H20.625L17.5 101.849L14.8214 97H5L17.5 118L30 97H24.9163ZM8.10826 98.7514H11.1105L17.5 109.599L23.8839 98.7514H26.8862L17.5 114.525L8.10826 98.7514Z" fill="#003A67" fill-opacity="0.1"/>
<path d="M24.9163 189H20.625L17.5 193.849L14.8214 189H5L17.5 210L30 189H24.9163ZM8.10826 190.751H11.1105L17.5 201.599L23.8839 190.751H26.8862L17.5 206.525L8.10826 190.751Z" fill="#003A67" fill-opacity="0.1"/>
<path d="M24.9163 281H20.625L17.5 285.849L14.8214 281H5L17.5 302L30 281H24.9163ZM8.10826 282.751H11.1105L17.5 293.599L23.8839 282.751H26.8862L17.5 298.525L8.10826 282.751Z" fill="#003A67" fill-opacity="0.1"/>
<path d="M24.9163 373H20.625L17.5 377.849L14.8214 373H5L17.5 394L30 373H24.9163ZM8.10826 374.751H11.1105L17.5 385.599L23.8839 374.751H26.8862L17.5 390.525L8.10826 374.751Z" fill="#003A67" fill-opacity="0.1"/>
<path d="M24.9163 465H20.625L17.5 469.849L14.8214 465H5L17.5 486L30 465H24.9163ZM8.10826 466.751H11.1105L17.5 477.599L23.8839 466.751H26.8862L17.5 482.525L8.10826 466.751Z" fill="#003A67" fill-opacity="0.1"/>
<path d="M24.9163 557H20.625L17.5 561.849L14.8214 557H5L17.5 578L30 557H24.9163ZM8.10826 558.751H11.1105L17.5 569.599L23.8839 558.751H26.8862L17.5 574.525L8.10826 558.751Z" fill="#003A67" fill-opacity="0.1"/>
<path d="M49.9163 51H45.625L42.5 55.8491L39.8214 51H30L42.5 72L55 51H49.9163ZM33.1083 52.7514H36.1105L42.5 63.5989L48.8839 52.7514H51.8862L42.5 68.5246L33.1083 52.7514Z" fill="#003A67" fill-opacity="0.1"/>
<path d="M49.9163 143H45.625L42.5 147.849L39.8214 143H30L42.5 164L55 143H49.9163ZM33.1083 144.751H36.1105L42.5 155.599L48.8839 144.751H51.8862L42.5 160.525L33.1083 144.751Z" fill="#003A67" fill-opacity="0.1"/>
<path d="M49.9163 235H45.625L42.5 239.849L39.8214 235H30L42.5 256L55 235H49.9163ZM33.1083 236.751H36.1105L42.5 247.599L48.8839 236.751H51.8862L42.5 252.525L33.1083 236.751Z" fill="#003A67" fill-opacity="0.1"/>
<path d="M49.9163 327H45.625L42.5 331.849L39.8214 327H30L42.5 348L55 327H49.9163ZM33.1083 328.751H36.1105L42.5 339.599L48.8839 328.751H51.8862L42.5 344.525L33.1083 328.751Z" fill="#003A67" fill-opacity="0.1"/>
<path d="M49.9163 419H45.625L42.5 423.849L39.8214 419H30L42.5 440L55 419H49.9163ZM33.1083 420.751H36.1105L42.5 431.599L48.8839 420.751H51.8862L42.5 436.525L33.1083 420.751Z" fill="#003A67" fill-opacity="0.1"/>
<path d="M49.9163 511H45.625L42.5 515.849L39.8214 511H30L42.5 532L55 511H49.9163ZM33.1083 512.751H36.1105L42.5 523.599L48.8839 512.751H51.8862L42.5 528.525L33.1083 512.751Z" fill="#003A67" fill-opacity="0.1"/>
<path d="M99.9163 51H95.625L92.5 55.8491L89.8214 51H80L92.5 72L105 51H99.9163ZM83.1083 52.7514H86.1105L92.5 63.5989L98.8839 52.7514H101.886L92.5 68.5246L83.1083 52.7514Z" fill="#003A67" fill-opacity="0.1"/>
<path d="M99.9163 143H95.625L92.5 147.849L89.8214 143H80L92.5 164L105 143H99.9163ZM83.1083 144.751H86.1105L92.5 155.599L98.8839 144.751H101.886L92.5 160.525L83.1083 144.751Z" fill="#003A67" fill-opacity="0.1"/>
<path d="M99.9163 235H95.625L92.5 239.849L89.8214 235H80L92.5 256L105 235H99.9163ZM83.1083 236.751H86.1105L92.5 247.599L98.8839 236.751H101.886L92.5 252.525L83.1083 236.751Z" fill="#003A67" fill-opacity="0.1"/>
<path d="M99.9163 327H95.625L92.5 331.849L89.8214 327H80L92.5 348L105 327H99.9163ZM83.1083 328.751H86.1105L92.5 339.599L98.8839 328.751H101.886L92.5 344.525L83.1083 328.751Z" fill="#003A67" fill-opacity="0.1"/>
<path d="M99.9163 419H95.625L92.5 423.849L89.8214 419H80L92.5 440L105 419H99.9163ZM83.1083 420.751H86.1105L92.5 431.599L98.8839 420.751H101.886L92.5 436.525L83.1083 420.751Z" fill="#003A67" fill-opacity="0.1"/>
<path d="M99.9163 511H95.625L92.5 515.849L89.8214 511H80L92.5 532L105 511H99.9163ZM83.1083 512.751H86.1105L92.5 523.599L98.8839 512.751H101.886L92.5 528.525L83.1083 512.751Z" fill="#003A67" fill-opacity="0.1"/>
<path d="M149.916 51H145.625L142.5 55.8491L139.821 51H130L142.5 72L155 51H149.916ZM133.108 52.7514H136.11L142.5 63.5989L148.884 52.7514H151.886L142.5 68.5246L133.108 52.7514Z" fill="#003A67" fill-opacity="0.1"/>
<path d="M149.916 143H145.625L142.5 147.849L139.821 143H130L142.5 164L155 143H149.916ZM133.108 144.751H136.11L142.5 155.599L148.884 144.751H151.886L142.5 160.525L133.108 144.751Z" fill="#003A67" fill-opacity="0.1"/>
<path d="M149.916 235H145.625L142.5 239.849L139.821 235H130L142.5 256L155 235H149.916ZM133.108 236.751H136.11L142.5 247.599L148.884 236.751H151.886L142.5 252.525L133.108 236.751Z" fill="#003A67" fill-opacity="0.1"/>
<path d="M149.916 327H145.625L142.5 331.849L139.821 327H130L142.5 348L155 327H149.916ZM133.108 328.751H136.11L142.5 339.599L148.884 328.751H151.886L142.5 344.525L133.108 328.751Z" fill="#003A67" fill-opacity="0.1"/>
<path d="M149.916 419H145.625L142.5 423.849L139.821 419H130L142.5 440L155 419H149.916ZM133.108 420.751H136.11L142.5 431.599L148.884 420.751H151.886L142.5 436.525L133.108 420.751Z" fill="#003A67" fill-opacity="0.1"/>
<path d="M149.916 511H145.625L142.5 515.849L139.821 511H130L142.5 532L155 511H149.916ZM133.108 512.751H136.11L142.5 523.599L148.884 512.751H151.886L142.5 528.525L133.108 512.751Z" fill="#003A67" fill-opacity="0.1"/>
<path d="M199.916 51H195.625L192.5 55.8491L189.821 51H180L192.5 72L205 51H199.916ZM183.108 52.7514H186.11L192.5 63.5989L198.884 52.7514H201.886L192.5 68.5246L183.108 52.7514Z" fill="#003A67" fill-opacity="0.1"/>
<path d="M199.916 143H195.625L192.5 147.849L189.821 143H180L192.5 164L205 143H199.916ZM183.108 144.751H186.11L192.5 155.599L198.884 144.751H201.886L192.5 160.525L183.108 144.751Z" fill="#003A67" fill-opacity="0.1"/>
<path d="M199.916 235H195.625L192.5 239.849L189.821 235H180L192.5 256L205 235H199.916ZM183.108 236.751H186.11L192.5 247.599L198.884 236.751H201.886L192.5 252.525L183.108 236.751Z" fill="#003A67" fill-opacity="0.1"/>
<path d="M199.916 327H195.625L192.5 331.849L189.821 327H180L192.5 348L205 327H199.916ZM183.108 328.751H186.11L192.5 339.599L198.884 328.751H201.886L192.5 344.525L183.108 328.751Z" fill="#003A67" fill-opacity="0.1"/>
<path d="M199.916 419H195.625L192.5 423.849L189.821 419H180L192.5 440L205 419H199.916ZM183.108 420.751H186.11L192.5 431.599L198.884 420.751H201.886L192.5 436.525L183.108 420.751Z" fill="#003A67" fill-opacity="0.1"/>
<path d="M199.916 511H195.625L192.5 515.849L189.821 511H180L192.5 532L205 511H199.916ZM183.108 512.751H186.11L192.5 523.599L198.884 512.751H201.886L192.5 528.525L183.108 512.751Z" fill="#003A67" fill-opacity="0.1"/>
<path d="M249.916 51H245.625L242.5 55.8491L239.821 51H230L242.5 72L255 51H249.916ZM233.108 52.7514H236.11L242.5 63.5989L248.884 52.7514H251.886L242.5 68.5246L233.108 52.7514Z" fill="#003A67" fill-opacity="0.1"/>
<path d="M249.916 143H245.625L242.5 147.849L239.821 143H230L242.5 164L255 143H249.916ZM233.108 144.751H236.11L242.5 155.599L248.884 144.751H251.886L242.5 160.525L233.108 144.751Z" fill="#003A67" fill-opacity="0.1"/>
<path d="M249.916 235H245.625L242.5 239.849L239.821 235H230L242.5 256L255 235H249.916ZM233.108 236.751H236.11L242.5 247.599L248.884 236.751H251.886L242.5 252.525L233.108 236.751Z" fill="#003A67" fill-opacity="0.1"/>
<path d="M249.916 327H245.625L242.5 331.849L239.821 327H230L242.5 348L255 327H249.916ZM233.108 328.751H236.11L242.5 339.599L248.884 328.751H251.886L242.5 344.525L233.108 328.751Z" fill="#003A67" fill-opacity="0.1"/>
<path d="M249.916 419H245.625L242.5 423.849L239.821 419H230L242.5 440L255 419H249.916ZM233.108 420.751H236.11L242.5 431.599L248.884 420.751H251.886L242.5 436.525L233.108 420.751Z" fill="#003A67" fill-opacity="0.1"/>
<path d="M249.916 511H245.625L242.5 515.849L239.821 511H230L242.5 532L255 511H249.916ZM233.108 512.751H236.11L242.5 523.599L248.884 512.751H251.886L242.5 528.525L233.108 512.751Z" fill="#003A67" fill-opacity="0.1"/>
<path d="M299.916 51H295.625L292.5 55.8491L289.821 51H280L292.5 72L305 51H299.916ZM283.108 52.7514H286.11L292.5 63.5989L298.884 52.7514H301.886L292.5 68.5246L283.108 52.7514Z" fill="#003A67" fill-opacity="0.1"/>
<path d="M299.916 143H295.625L292.5 147.849L289.821 143H280L292.5 164L305 143H299.916ZM283.108 144.751H286.11L292.5 155.599L298.884 144.751H301.886L292.5 160.525L283.108 144.751Z" fill="#003A67" fill-opacity="0.1"/>
<path d="M299.916 235H295.625L292.5 239.849L289.821 235H280L292.5 256L305 235H299.916ZM283.108 236.751H286.11L292.5 247.599L298.884 236.751H301.886L292.5 252.525L283.108 236.751Z" fill="#003A67" fill-opacity="0.1"/>
<path d="M299.916 327H295.625L292.5 331.849L289.821 327H280L292.5 348L305 327H299.916ZM283.108 328.751H286.11L292.5 339.599L298.884 328.751H301.886L292.5 344.525L283.108 328.751Z" fill="#003A67" fill-opacity="0.1"/>
<path d="M299.916 419H295.625L292.5 423.849L289.821 419H280L292.5 440L305 419H299.916ZM283.108 420.751H286.11L292.5 431.599L298.884 420.751H301.886L292.5 436.525L283.108 420.751Z" fill="#003A67" fill-opacity="0.1"/>
<path d="M299.916 511H295.625L292.5 515.849L289.821 511H280L292.5 532L305 511H299.916ZM283.108 512.751H286.11L292.5 523.599L298.884 512.751H301.886L292.5 528.525L283.108 512.751Z" fill="#003A67" fill-opacity="0.1"/>
<path d="M349.916 51H345.625L342.5 55.8491L339.821 51H330L342.5 72L355 51H349.916ZM333.108 52.7514H336.11L342.5 63.5989L348.884 52.7514H351.886L342.5 68.5246L333.108 52.7514Z" fill="#003A67" fill-opacity="0.1"/>
<path d="M349.916 143H345.625L342.5 147.849L339.821 143H330L342.5 164L355 143H349.916ZM333.108 144.751H336.11L342.5 155.599L348.884 144.751H351.886L342.5 160.525L333.108 144.751Z" fill="#003A67" fill-opacity="0.1"/>
<path d="M349.916 235H345.625L342.5 239.849L339.821 235H330L342.5 256L355 235H349.916ZM333.108 236.751H336.11L342.5 247.599L348.884 236.751H351.886L342.5 252.525L333.108 236.751Z" fill="#003A67" fill-opacity="0.1"/>
<path d="M349.916 327H345.625L342.5 331.849L339.821 327H330L342.5 348L355 327H349.916ZM333.108 328.751H336.11L342.5 339.599L348.884 328.751H351.886L342.5 344.525L333.108 328.751Z" fill="#003A67" fill-opacity="0.1"/>
<path d="M349.916 419H345.625L342.5 423.849L339.821 419H330L342.5 440L355 419H349.916ZM333.108 420.751H336.11L342.5 431.599L348.884 420.751H351.886L342.5 436.525L333.108 420.751Z" fill="#003A67" fill-opacity="0.1"/>
<path d="M349.916 511H345.625L342.5 515.849L339.821 511H330L342.5 532L355 511H349.916ZM333.108 512.751H336.11L342.5 523.599L348.884 512.751H351.886L342.5 528.525L333.108 512.751Z" fill="#003A67" fill-opacity="0.1"/>
<path d="M399.916 51H395.625L392.5 55.8491L389.821 51H380L392.5 72L405 51H399.916ZM383.108 52.7514H386.11L392.5 63.5989L398.884 52.7514H401.886L392.5 68.5246L383.108 52.7514Z" fill="#003A67" fill-opacity="0.1"/>
<path d="M399.916 143H395.625L392.5 147.849L389.821 143H380L392.5 164L405 143H399.916ZM383.108 144.751H386.11L392.5 155.599L398.884 144.751H401.886L392.5 160.525L383.108 144.751Z" fill="#003A67" fill-opacity="0.1"/>
<path d="M399.916 235H395.625L392.5 239.849L389.821 235H380L392.5 256L405 235H399.916ZM383.108 236.751H386.11L392.5 247.599L398.884 236.751H401.886L392.5 252.525L383.108 236.751Z" fill="#003A67" fill-opacity="0.1"/>
<path d="M399.916 327H395.625L392.5 331.849L389.821 327H380L392.5 348L405 327H399.916ZM383.108 328.751H386.11L392.5 339.599L398.884 328.751H401.886L392.5 344.525L383.108 328.751Z" fill="#003A67" fill-opacity="0.1"/>
<path d="M399.916 419H395.625L392.5 423.849L389.821 419H380L392.5 440L405 419H399.916ZM383.108 420.751H386.11L392.5 431.599L398.884 420.751H401.886L392.5 436.525L383.108 420.751Z" fill="#003A67" fill-opacity="0.1"/>
<path d="M399.916 511H395.625L392.5 515.849L389.821 511H380L392.5 532L405 511H399.916ZM383.108 512.751H386.11L392.5 523.599L398.884 512.751H401.886L392.5 528.525L383.108 512.751Z" fill="#003A67" fill-opacity="0.1"/>
<path d="M-0.0837059 51H-4.375L-7.5 55.8491L-10.1786 51H-20L-7.5 72L5 51H-0.0837059ZM-16.8917 52.7514H-13.8895L-7.5 63.5989L-1.11607 52.7514H1.88616L-7.5 68.5246L-16.8917 52.7514Z" fill="#003A67" fill-opacity="0.1"/>
<path d="M-0.0837059 143H-4.375L-7.5 147.849L-10.1786 143H-20L-7.5 164L5 143H-0.0837059ZM-16.8917 144.751H-13.8895L-7.5 155.599L-1.11607 144.751H1.88616L-7.5 160.525L-16.8917 144.751Z" fill="#003A67" fill-opacity="0.1"/>
<path d="M-0.0837059 235H-4.375L-7.5 239.849L-10.1786 235H-20L-7.5 256L5 235H-0.0837059ZM-16.8917 236.751H-13.8895L-7.5 247.599L-1.11607 236.751H1.88616L-7.5 252.525L-16.8917 236.751Z" fill="#003A67" fill-opacity="0.1"/>
<path d="M-0.0837059 327H-4.375L-7.5 331.849L-10.1786 327H-20L-7.5 348L5 327H-0.0837059ZM-16.8917 328.751H-13.8895L-7.5 339.599L-1.11607 328.751H1.88616L-7.5 344.525L-16.8917 328.751Z" fill="#003A67" fill-opacity="0.1"/>
<path d="M-0.0837059 419H-4.375L-7.5 423.849L-10.1786 419H-20L-7.5 440L5 419H-0.0837059ZM-16.8917 420.751H-13.8895L-7.5 431.599L-1.11607 420.751H1.88616L-7.5 436.525L-16.8917 420.751Z" fill="#003A67" fill-opacity="0.1"/>
<path d="M-0.0837059 511H-4.375L-7.5 515.849L-10.1786 511H-20L-7.5 532L5 511H-0.0837059ZM-16.8917 512.751H-13.8895L-7.5 523.599L-1.11607 512.751H1.88616L-7.5 528.525L-16.8917 512.751Z" fill="#003A67" fill-opacity="0.1"/>
<path d="M74.9163 5H70.625L67.5 9.8491L64.8214 5H55L67.5 26L80 5H74.9163ZM58.1083 6.75137H61.1105L67.5 17.5989L73.8839 6.75137H76.8862L67.5 22.5246L58.1083 6.75137Z" fill="#003A67" fill-opacity="0.1"/>
<path d="M74.9163 97H70.625L67.5 101.849L64.8214 97H55L67.5 118L80 97H74.9163ZM58.1083 98.7514H61.1105L67.5 109.599L73.8839 98.7514H76.8862L67.5 114.525L58.1083 98.7514Z" fill="#003A67" fill-opacity="0.1"/>
<path d="M74.9163 189H70.625L67.5 193.849L64.8214 189H55L67.5 210L80 189H74.9163ZM58.1083 190.751H61.1105L67.5 201.599L73.8839 190.751H76.8862L67.5 206.525L58.1083 190.751Z" fill="#003A67" fill-opacity="0.1"/>
<path d="M74.9163 281H70.625L67.5 285.849L64.8214 281H55L67.5 302L80 281H74.9163ZM58.1083 282.751H61.1105L67.5 293.599L73.8839 282.751H76.8862L67.5 298.525L58.1083 282.751Z" fill="#003A67" fill-opacity="0.1"/>
<path d="M74.9163 373H70.625L67.5 377.849L64.8214 373H55L67.5 394L80 373H74.9163ZM58.1083 374.751H61.1105L67.5 385.599L73.8839 374.751H76.8862L67.5 390.525L58.1083 374.751Z" fill="#003A67" fill-opacity="0.1"/>
<path d="M74.9163 465H70.625L67.5 469.849L64.8214 465H55L67.5 486L80 465H74.9163ZM58.1083 466.751H61.1105L67.5 477.599L73.8839 466.751H76.8862L67.5 482.525L58.1083 466.751Z" fill="#003A67" fill-opacity="0.1"/>
<path d="M74.9163 557H70.625L67.5 561.849L64.8214 557H55L67.5 578L80 557H74.9163ZM58.1083 558.751H61.1105L67.5 569.599L73.8839 558.751H76.8862L67.5 574.525L58.1083 558.751Z" fill="#003A67" fill-opacity="0.1"/>
<path d="M124.916 5H120.625L117.5 9.8491L114.821 5H105L117.5 26L130 5H124.916ZM108.108 6.75137H111.11L117.5 17.5989L123.884 6.75137H126.886L117.5 22.5246L108.108 6.75137Z" fill="#003A67" fill-opacity="0.1"/>
<path d="M124.916 97H120.625L117.5 101.849L114.821 97H105L117.5 118L130 97H124.916ZM108.108 98.7514H111.11L117.5 109.599L123.884 98.7514H126.886L117.5 114.525L108.108 98.7514Z" fill="#003A67" fill-opacity="0.1"/>
<path d="M124.916 189H120.625L117.5 193.849L114.821 189H105L117.5 210L130 189H124.916ZM108.108 190.751H111.11L117.5 201.599L123.884 190.751H126.886L117.5 206.525L108.108 190.751Z" fill="#003A67" fill-opacity="0.1"/>
<path d="M124.916 281H120.625L117.5 285.849L114.821 281H105L117.5 302L130 281H124.916ZM108.108 282.751H111.11L117.5 293.599L123.884 282.751H126.886L117.5 298.525L108.108 282.751Z" fill="#003A67" fill-opacity="0.1"/>
<path d="M124.916 373H120.625L117.5 377.849L114.821 373H105L117.5 394L130 373H124.916ZM108.108 374.751H111.11L117.5 385.599L123.884 374.751H126.886L117.5 390.525L108.108 374.751Z" fill="#003A67" fill-opacity="0.1"/>
<path d="M124.916 465H120.625L117.5 469.849L114.821 465H105L117.5 486L130 465H124.916ZM108.108 466.751H111.11L117.5 477.599L123.884 466.751H126.886L117.5 482.525L108.108 466.751Z" fill="#003A67" fill-opacity="0.1"/>
<path d="M124.916 557H120.625L117.5 561.849L114.821 557H105L117.5 578L130 557H124.916ZM108.108 558.751H111.11L117.5 569.599L123.884 558.751H126.886L117.5 574.525L108.108 558.751Z" fill="#003A67" fill-opacity="0.1"/>
<path d="M174.916 5H170.625L167.5 9.8491L164.821 5H155L167.5 26L180 5H174.916ZM158.108 6.75137H161.11L167.5 17.5989L173.884 6.75137H176.886L167.5 22.5246L158.108 6.75137Z" fill="#003A67" fill-opacity="0.1"/>
<path d="M174.916 97H170.625L167.5 101.849L164.821 97H155L167.5 118L180 97H174.916ZM158.108 98.7514H161.11L167.5 109.599L173.884 98.7514H176.886L167.5 114.525L158.108 98.7514Z" fill="#003A67" fill-opacity="0.1"/>
<path d="M174.916 189H170.625L167.5 193.849L164.821 189H155L167.5 210L180 189H174.916ZM158.108 190.751H161.11L167.5 201.599L173.884 190.751H176.886L167.5 206.525L158.108 190.751Z" fill="#003A67" fill-opacity="0.1"/>
<path d="M174.916 281H170.625L167.5 285.849L164.821 281H155L167.5 302L180 281H174.916ZM158.108 282.751H161.11L167.5 293.599L173.884 282.751H176.886L167.5 298.525L158.108 282.751Z" fill="#003A67" fill-opacity="0.1"/>
<path d="M174.916 373H170.625L167.5 377.849L164.821 373H155L167.5 394L180 373H174.916ZM158.108 374.751H161.11L167.5 385.599L173.884 374.751H176.886L167.5 390.525L158.108 374.751Z" fill="#003A67" fill-opacity="0.1"/>
<path d="M174.916 465H170.625L167.5 469.849L164.821 465H155L167.5 486L180 465H174.916ZM158.108 466.751H161.11L167.5 477.599L173.884 466.751H176.886L167.5 482.525L158.108 466.751Z" fill="#003A67" fill-opacity="0.1"/>
<path d="M174.916 557H170.625L167.5 561.849L164.821 557H155L167.5 578L180 557H174.916ZM158.108 558.751H161.11L167.5 569.599L173.884 558.751H176.886L167.5 574.525L158.108 558.751Z" fill="#003A67" fill-opacity="0.1"/>
<path d="M224.916 5H220.625L217.5 9.8491L214.821 5H205L217.5 26L230 5H224.916ZM208.108 6.75137H211.11L217.5 17.5989L223.884 6.75137H226.886L217.5 22.5246L208.108 6.75137Z" fill="#003A67" fill-opacity="0.1"/>
<path d="M224.916 97H220.625L217.5 101.849L214.821 97H205L217.5 118L230 97H224.916ZM208.108 98.7514H211.11L217.5 109.599L223.884 98.7514H226.886L217.5 114.525L208.108 98.7514Z" fill="#003A67" fill-opacity="0.1"/>
<path d="M224.916 189H220.625L217.5 193.849L214.821 189H205L217.5 210L230 189H224.916ZM208.108 190.751H211.11L217.5 201.599L223.884 190.751H226.886L217.5 206.525L208.108 190.751Z" fill="#003A67" fill-opacity="0.1"/>
<path d="M224.916 281H220.625L217.5 285.849L214.821 281H205L217.5 302L230 281H224.916ZM208.108 282.751H211.11L217.5 293.599L223.884 282.751H226.886L217.5 298.525L208.108 282.751Z" fill="#003A67" fill-opacity="0.1"/>
<path d="M224.916 373H220.625L217.5 377.849L214.821 373H205L217.5 394L230 373H224.916ZM208.108 374.751H211.11L217.5 385.599L223.884 374.751H226.886L217.5 390.525L208.108 374.751Z" fill="#003A67" fill-opacity="0.1"/>
<path d="M224.916 465H220.625L217.5 469.849L214.821 465H205L217.5 486L230 465H224.916ZM208.108 466.751H211.11L217.5 477.599L223.884 466.751H226.886L217.5 482.525L208.108 466.751Z" fill="#003A67" fill-opacity="0.1"/>
<path d="M224.916 557H220.625L217.5 561.849L214.821 557H205L217.5 578L230 557H224.916ZM208.108 558.751H211.11L217.5 569.599L223.884 558.751H226.886L217.5 574.525L208.108 558.751Z" fill="#003A67" fill-opacity="0.1"/>
<path d="M274.916 5H270.625L267.5 9.8491L264.821 5H255L267.5 26L280 5H274.916ZM258.108 6.75137H261.11L267.5 17.5989L273.884 6.75137H276.886L267.5 22.5246L258.108 6.75137Z" fill="#003A67" fill-opacity="0.1"/>
<path d="M274.916 97H270.625L267.5 101.849L264.821 97H255L267.5 118L280 97H274.916ZM258.108 98.7514H261.11L267.5 109.599L273.884 98.7514H276.886L267.5 114.525L258.108 98.7514Z" fill="#003A67" fill-opacity="0.1"/>
<path d="M274.916 189H270.625L267.5 193.849L264.821 189H255L267.5 210L280 189H274.916ZM258.108 190.751H261.11L267.5 201.599L273.884 190.751H276.886L267.5 206.525L258.108 190.751Z" fill="#003A67" fill-opacity="0.1"/>
<path d="M274.916 281H270.625L267.5 285.849L264.821 281H255L267.5 302L280 281H274.916ZM258.108 282.751H261.11L267.5 293.599L273.884 282.751H276.886L267.5 298.525L258.108 282.751Z" fill="#003A67" fill-opacity="0.1"/>
<path d="M274.916 373H270.625L267.5 377.849L264.821 373H255L267.5 394L280 373H274.916ZM258.108 374.751H261.11L267.5 385.599L273.884 374.751H276.886L267.5 390.525L258.108 374.751Z" fill="#003A67" fill-opacity="0.1"/>
<path d="M274.916 465H270.625L267.5 469.849L264.821 465H255L267.5 486L280 465H274.916ZM258.108 466.751H261.11L267.5 477.599L273.884 466.751H276.886L267.5 482.525L258.108 466.751Z" fill="#003A67" fill-opacity="0.1"/>
<path d="M274.916 557H270.625L267.5 561.849L264.821 557H255L267.5 578L280 557H274.916ZM258.108 558.751H261.11L267.5 569.599L273.884 558.751H276.886L267.5 574.525L258.108 558.751Z" fill="#003A67" fill-opacity="0.1"/>
<path d="M324.916 5H320.625L317.5 9.8491L314.821 5H305L317.5 26L330 5H324.916ZM308.108 6.75137H311.11L317.5 17.5989L323.884 6.75137H326.886L317.5 22.5246L308.108 6.75137Z" fill="#003A67" fill-opacity="0.1"/>
<path d="M324.916 97H320.625L317.5 101.849L314.821 97H305L317.5 118L330 97H324.916ZM308.108 98.7514H311.11L317.5 109.599L323.884 98.7514H326.886L317.5 114.525L308.108 98.7514Z" fill="#003A67" fill-opacity="0.1"/>
<path d="M324.916 189H320.625L317.5 193.849L314.821 189H305L317.5 210L330 189H324.916ZM308.108 190.751H311.11L317.5 201.599L323.884 190.751H326.886L317.5 206.525L308.108 190.751Z" fill="#003A67" fill-opacity="0.1"/>
<path d="M324.916 281H320.625L317.5 285.849L314.821 281H305L317.5 302L330 281H324.916ZM308.108 282.751H311.11L317.5 293.599L323.884 282.751H326.886L317.5 298.525L308.108 282.751Z" fill="#003A67" fill-opacity="0.1"/>
<path d="M324.916 373H320.625L317.5 377.849L314.821 373H305L317.5 394L330 373H324.916ZM308.108 374.751H311.11L317.5 385.599L323.884 374.751H326.886L317.5 390.525L308.108 374.751Z" fill="#003A67" fill-opacity="0.1"/>
<path d="M324.916 465H320.625L317.5 469.849L314.821 465H305L317.5 486L330 465H324.916ZM308.108 466.751H311.11L317.5 477.599L323.884 466.751H326.886L317.5 482.525L308.108 466.751Z" fill="#003A67" fill-opacity="0.1"/>
<path d="M324.916 557H320.625L317.5 561.849L314.821 557H305L317.5 578L330 557H324.916ZM308.108 558.751H311.11L317.5 569.599L323.884 558.751H326.886L317.5 574.525L308.108 558.751Z" fill="#003A67" fill-opacity="0.1"/>
<path d="M374.916 5H370.625L367.5 9.8491L364.821 5H355L367.5 26L380 5H374.916ZM358.108 6.75137H361.11L367.5 17.5989L373.884 6.75137H376.886L367.5 22.5246L358.108 6.75137Z" fill="#003A67" fill-opacity="0.1"/>
<path d="M374.916 97H370.625L367.5 101.849L364.821 97H355L367.5 118L380 97H374.916ZM358.108 98.7514H361.11L367.5 109.599L373.884 98.7514H376.886L367.5 114.525L358.108 98.7514Z" fill="#003A67" fill-opacity="0.1"/>
<path d="M374.916 189H370.625L367.5 193.849L364.821 189H355L367.5 210L380 189H374.916ZM358.108 190.751H361.11L367.5 201.599L373.884 190.751H376.886L367.5 206.525L358.108 190.751Z" fill="#003A67" fill-opacity="0.1"/>
<path d="M374.916 281H370.625L367.5 285.849L364.821 281H355L367.5 302L380 281H374.916ZM358.108 282.751H361.11L367.5 293.599L373.884 282.751H376.886L367.5 298.525L358.108 282.751Z" fill="#003A67" fill-opacity="0.1"/>
<path d="M374.916 373H370.625L367.5 377.849L364.821 373H355L367.5 394L380 373H374.916ZM358.108 374.751H361.11L367.5 385.599L373.884 374.751H376.886L367.5 390.525L358.108 374.751Z" fill="#003A67" fill-opacity="0.1"/>
<path d="M374.916 465H370.625L367.5 469.849L364.821 465H355L367.5 486L380 465H374.916ZM358.108 466.751H361.11L367.5 477.599L373.884 466.751H376.886L367.5 482.525L358.108 466.751Z" fill="#003A67" fill-opacity="0.1"/>
<path d="M374.916 557H370.625L367.5 561.849L364.821 557H355L367.5 578L380 557H374.916ZM358.108 558.751H361.11L367.5 569.599L373.884 558.751H376.886L367.5 574.525L358.108 558.751Z" fill="#003A67" fill-opacity="0.1"/>
<path d="M424.916 5H420.625L417.5 9.8491L414.821 5H405L417.5 26L430 5H424.916ZM408.108 6.75137H411.11L417.5 17.5989L423.884 6.75137H426.886L417.5 22.5246L408.108 6.75137Z" fill="#003A67" fill-opacity="0.1"/>
<path d="M424.916 97H420.625L417.5 101.849L414.821 97H405L417.5 118L430 97H424.916ZM408.108 98.7514H411.11L417.5 109.599L423.884 98.7514H426.886L417.5 114.525L408.108 98.7514Z" fill="#003A67" fill-opacity="0.1"/>
<path d="M424.916 189H420.625L417.5 193.849L414.821 189H405L417.5 210L430 189H424.916ZM408.108 190.751H411.11L417.5 201.599L423.884 190.751H426.886L417.5 206.525L408.108 190.751Z" fill="#003A67" fill-opacity="0.1"/>
<path d="M424.916 281H420.625L417.5 285.849L414.821 281H405L417.5 302L430 281H424.916ZM408.108 282.751H411.11L417.5 293.599L423.884 282.751H426.886L417.5 298.525L408.108 282.751Z" fill="#003A67" fill-opacity="0.1"/>
<path d="M424.916 373H420.625L417.5 377.849L414.821 373H405L417.5 394L430 373H424.916ZM408.108 374.751H411.11L417.5 385.599L423.884 374.751H426.886L417.5 390.525L408.108 374.751Z" fill="#003A67" fill-opacity="0.1"/>
<path d="M424.916 465H420.625L417.5 469.849L414.821 465H405L417.5 486L430 465H424.916ZM408.108 466.751H411.11L417.5 477.599L423.884 466.751H426.886L417.5 482.525L408.108 466.751Z" fill="#003A67" fill-opacity="0.1"/>
<path d="M424.916 557H420.625L417.5 561.849L414.821 557H405L417.5 578L430 557H424.916ZM408.108 558.751H411.11L417.5 569.599L423.884 558.751H426.886L417.5 574.525L408.108 558.751Z" fill="#003A67" fill-opacity="0.1"/>
<path d="M291.842 178H242.75L207 234.342L176.357 178H64L207 422L350 178H291.842ZM99.5585 198.349H133.904L207 324.387L280.032 198.349H314.378L207 381.619L99.5585 198.349Z" fill="#003A67"/>
</g>
<defs>
<clipPath id="clip0_335_3048">
<rect width="413" height="600" fill="white"/>
</clipPath>
</defs>
</svg>
