<svg width="676" height="413" viewBox="0 0 676 413" fill="none" xmlns="http://www.w3.org/2000/svg">
<g clip-path="url(#clip0_461_1538)">
<rect width="413" height="676" transform="translate(676) rotate(90)" fill="white"/>
<path d="M69.9163 11H65.625L62.5 15.8491L59.8214 11H50L62.5 32L75 11H69.9163ZM53.1083 12.7514H56.1105L62.5 23.5989L68.8839 12.7514H71.8862L62.5 28.5246L53.1083 12.7514Z" fill="#003A67" fill-opacity="0.1"/>
<path d="M19.9163 11H15.625L12.5 15.8491L9.82143 11H0L12.5 32L25 11H19.9163ZM3.10826 12.7514H6.11049L12.5 23.5989L18.8839 12.7514H21.8862L12.5 28.5246L3.10826 12.7514Z" fill="#003A67" fill-opacity="0.1"/>
<path d="M19.9163 103H15.625L12.5 107.849L9.82143 103H0L12.5 124L25 103H19.9163ZM3.10826 104.751H6.11049L12.5 115.599L18.8839 104.751H21.8862L12.5 120.525L3.10826 104.751Z" fill="#003A67" fill-opacity="0.1"/>
<path d="M19.9163 195H15.625L12.5 199.849L9.82143 195H0L12.5 216L25 195H19.9163ZM3.10826 196.751H6.11049L12.5 207.599L18.8839 196.751H21.8862L12.5 212.525L3.10826 196.751Z" fill="#003A67" fill-opacity="0.1"/>
<path d="M19.9163 287H15.625L12.5 291.849L9.82143 287H0L12.5 308L25 287H19.9163ZM3.10826 288.751H6.11049L12.5 299.599L18.8839 288.751H21.8862L12.5 304.525L3.10826 288.751Z" fill="#003A67" fill-opacity="0.1"/>
<path d="M19.9163 379H15.625L12.5 383.849L9.82143 379H0L12.5 400L25 379H19.9163ZM3.10826 380.751H6.11049L12.5 391.599L18.8839 380.751H21.8862L12.5 396.525L3.10826 380.751Z" fill="#003A67" fill-opacity="0.1"/>
<path d="M69.9163 103H65.625L62.5 107.849L59.8214 103H50L62.5 124L75 103H69.9163ZM53.1083 104.751H56.1105L62.5 115.599L68.8839 104.751H71.8862L62.5 120.525L53.1083 104.751Z" fill="#003A67" fill-opacity="0.1"/>
<path d="M69.9163 195H65.625L62.5 199.849L59.8214 195H50L62.5 216L75 195H69.9163ZM53.1083 196.751H56.1105L62.5 207.599L68.8839 196.751H71.8862L62.5 212.525L53.1083 196.751Z" fill="#003A67" fill-opacity="0.1"/>
<path d="M69.9163 287H65.625L62.5 291.849L59.8214 287H50L62.5 308L75 287H69.9163ZM53.1083 288.751H56.1105L62.5 299.599L68.8839 288.751H71.8862L62.5 304.525L53.1083 288.751Z" fill="#003A67" fill-opacity="0.1"/>
<path d="M69.9163 379H65.625L62.5 383.849L59.8214 379H50L62.5 400L75 379H69.9163ZM53.1083 380.751H56.1105L62.5 391.599L68.8839 380.751H71.8862L62.5 396.525L53.1083 380.751Z" fill="#003A67" fill-opacity="0.1"/>
<path d="M44.9163 57H40.625L37.5 61.8491L34.8214 57H25L37.5 78L50 57H44.9163ZM28.1083 58.7514H31.1105L37.5 69.5989L43.8839 58.7514H46.8862L37.5 74.5246L28.1083 58.7514Z" fill="#003A67" fill-opacity="0.1"/>
<path d="M44.9163 149H40.625L37.5 153.849L34.8214 149H25L37.5 170L50 149H44.9163ZM28.1083 150.751H31.1105L37.5 161.599L43.8839 150.751H46.8862L37.5 166.525L28.1083 150.751Z" fill="#003A67" fill-opacity="0.1"/>
<path d="M44.9163 241H40.625L37.5 245.849L34.8214 241H25L37.5 262L50 241H44.9163ZM28.1083 242.751H31.1105L37.5 253.599L43.8839 242.751H46.8862L37.5 258.525L28.1083 242.751Z" fill="#003A67" fill-opacity="0.1"/>
<path d="M44.9163 333H40.625L37.5 337.849L34.8214 333H25L37.5 354L50 333H44.9163ZM28.1083 334.751H31.1105L37.5 345.599L43.8839 334.751H46.8862L37.5 350.525L28.1083 334.751Z" fill="#003A67" fill-opacity="0.1"/>
<path d="M119.916 11H115.625L112.5 15.8491L109.821 11H100L112.5 32L125 11H119.916ZM103.108 12.7514H106.11L112.5 23.5989L118.884 12.7514H121.886L112.5 28.5246L103.108 12.7514Z" fill="#003A67" fill-opacity="0.1"/>
<path d="M119.916 103H115.625L112.5 107.849L109.821 103H100L112.5 124L125 103H119.916ZM103.108 104.751H106.11L112.5 115.599L118.884 104.751H121.886L112.5 120.525L103.108 104.751Z" fill="#003A67" fill-opacity="0.1"/>
<path d="M119.916 195H115.625L112.5 199.849L109.821 195H100L112.5 216L125 195H119.916ZM103.108 196.751H106.11L112.5 207.599L118.884 196.751H121.886L112.5 212.525L103.108 196.751Z" fill="#003A67" fill-opacity="0.1"/>
<path d="M119.916 287H115.625L112.5 291.849L109.821 287H100L112.5 308L125 287H119.916ZM103.108 288.751H106.11L112.5 299.599L118.884 288.751H121.886L112.5 304.525L103.108 288.751Z" fill="#003A67" fill-opacity="0.1"/>
<path d="M119.916 379H115.625L112.5 383.849L109.821 379H100L112.5 400L125 379H119.916ZM103.108 380.751H106.11L112.5 391.599L118.884 380.751H121.886L112.5 396.525L103.108 380.751Z" fill="#003A67" fill-opacity="0.1"/>
<path d="M94.9163 57H90.625L87.5 61.8491L84.8214 57H75L87.5 78L100 57H94.9163ZM78.1083 58.7514H81.1105L87.5 69.5989L93.8839 58.7514H96.8862L87.5 74.5246L78.1083 58.7514Z" fill="#003A67" fill-opacity="0.1"/>
<path d="M94.9163 149H90.625L87.5 153.849L84.8214 149H75L87.5 170L100 149H94.9163ZM78.1083 150.751H81.1105L87.5 161.599L93.8839 150.751H96.8862L87.5 166.525L78.1083 150.751Z" fill="#003A67" fill-opacity="0.1"/>
<path d="M94.9163 241H90.625L87.5 245.849L84.8214 241H75L87.5 262L100 241H94.9163ZM78.1083 242.751H81.1105L87.5 253.599L93.8839 242.751H96.8862L87.5 258.525L78.1083 242.751Z" fill="#003A67" fill-opacity="0.1"/>
<path d="M94.9163 333H90.625L87.5 337.849L84.8214 333H75L87.5 354L100 333H94.9163ZM78.1083 334.751H81.1105L87.5 345.599L93.8839 334.751H96.8862L87.5 350.525L78.1083 334.751Z" fill="#003A67" fill-opacity="0.1"/>
<path d="M169.916 11H165.625L162.5 15.8491L159.821 11H150L162.5 32L175 11H169.916ZM153.108 12.7514H156.11L162.5 23.5989L168.884 12.7514H171.886L162.5 28.5246L153.108 12.7514Z" fill="#003A67" fill-opacity="0.1"/>
<path d="M169.916 103H165.625L162.5 107.849L159.821 103H150L162.5 124L175 103H169.916ZM153.108 104.751H156.11L162.5 115.599L168.884 104.751H171.886L162.5 120.525L153.108 104.751Z" fill="#003A67" fill-opacity="0.1"/>
<path d="M169.916 195H165.625L162.5 199.849L159.821 195H150L162.5 216L175 195H169.916ZM153.108 196.751H156.11L162.5 207.599L168.884 196.751H171.886L162.5 212.525L153.108 196.751Z" fill="#003A67" fill-opacity="0.1"/>
<path d="M169.916 287H165.625L162.5 291.849L159.821 287H150L162.5 308L175 287H169.916ZM153.108 288.751H156.11L162.5 299.599L168.884 288.751H171.886L162.5 304.525L153.108 288.751Z" fill="#003A67" fill-opacity="0.1"/>
<path d="M169.916 379H165.625L162.5 383.849L159.821 379H150L162.5 400L175 379H169.916ZM153.108 380.751H156.11L162.5 391.599L168.884 380.751H171.886L162.5 396.525L153.108 380.751Z" fill="#003A67" fill-opacity="0.1"/>
<path d="M144.916 57H140.625L137.5 61.8491L134.821 57H125L137.5 78L150 57H144.916ZM128.108 58.7514H131.11L137.5 69.5989L143.884 58.7514H146.886L137.5 74.5246L128.108 58.7514Z" fill="#003A67" fill-opacity="0.1"/>
<path d="M144.916 149H140.625L137.5 153.849L134.821 149H125L137.5 170L150 149H144.916ZM128.108 150.751H131.11L137.5 161.599L143.884 150.751H146.886L137.5 166.525L128.108 150.751Z" fill="#003A67" fill-opacity="0.1"/>
<path d="M144.916 241H140.625L137.5 245.849L134.821 241H125L137.5 262L150 241H144.916ZM128.108 242.751H131.11L137.5 253.599L143.884 242.751H146.886L137.5 258.525L128.108 242.751Z" fill="#003A67" fill-opacity="0.1"/>
<path d="M144.916 333H140.625L137.5 337.849L134.821 333H125L137.5 354L150 333H144.916ZM128.108 334.751H131.11L137.5 345.599L143.884 334.751H146.886L137.5 350.525L128.108 334.751Z" fill="#003A67" fill-opacity="0.1"/>
<path d="M219.916 11H215.625L212.5 15.8491L209.821 11H200L212.5 32L225 11H219.916ZM203.108 12.7514H206.11L212.5 23.5989L218.884 12.7514H221.886L212.5 28.5246L203.108 12.7514Z" fill="#003A67" fill-opacity="0.1"/>
<path d="M219.916 103H215.625L212.5 107.849L209.821 103H200L212.5 124L225 103H219.916ZM203.108 104.751H206.11L212.5 115.599L218.884 104.751H221.886L212.5 120.525L203.108 104.751Z" fill="#003A67" fill-opacity="0.1"/>
<path d="M219.916 195H215.625L212.5 199.849L209.821 195H200L212.5 216L225 195H219.916ZM203.108 196.751H206.11L212.5 207.599L218.884 196.751H221.886L212.5 212.525L203.108 196.751Z" fill="#003A67" fill-opacity="0.1"/>
<path d="M219.916 287H215.625L212.5 291.849L209.821 287H200L212.5 308L225 287H219.916ZM203.108 288.751H206.11L212.5 299.599L218.884 288.751H221.886L212.5 304.525L203.108 288.751Z" fill="#003A67" fill-opacity="0.1"/>
<path d="M219.916 379H215.625L212.5 383.849L209.821 379H200L212.5 400L225 379H219.916ZM203.108 380.751H206.11L212.5 391.599L218.884 380.751H221.886L212.5 396.525L203.108 380.751Z" fill="#003A67" fill-opacity="0.1"/>
<path d="M194.916 57H190.625L187.5 61.8491L184.821 57H175L187.5 78L200 57H194.916ZM178.108 58.7514H181.11L187.5 69.5989L193.884 58.7514H196.886L187.5 74.5246L178.108 58.7514Z" fill="#003A67" fill-opacity="0.1"/>
<path d="M194.916 149H190.625L187.5 153.849L184.821 149H175L187.5 170L200 149H194.916ZM178.108 150.751H181.11L187.5 161.599L193.884 150.751H196.886L187.5 166.525L178.108 150.751Z" fill="#003A67" fill-opacity="0.1"/>
<path d="M194.916 241H190.625L187.5 245.849L184.821 241H175L187.5 262L200 241H194.916ZM178.108 242.751H181.11L187.5 253.599L193.884 242.751H196.886L187.5 258.525L178.108 242.751Z" fill="#003A67" fill-opacity="0.1"/>
<path d="M194.916 333H190.625L187.5 337.849L184.821 333H175L187.5 354L200 333H194.916ZM178.108 334.751H181.11L187.5 345.599L193.884 334.751H196.886L187.5 350.525L178.108 334.751Z" fill="#003A67" fill-opacity="0.1"/>
<path d="M269.916 11H265.625L262.5 15.8491L259.821 11H250L262.5 32L275 11H269.916ZM253.108 12.7514H256.11L262.5 23.5989L268.884 12.7514H271.886L262.5 28.5246L253.108 12.7514Z" fill="#003A67" fill-opacity="0.1"/>
<path d="M269.916 103H265.625L262.5 107.849L259.821 103H250L262.5 124L275 103H269.916ZM253.108 104.751H256.11L262.5 115.599L268.884 104.751H271.886L262.5 120.525L253.108 104.751Z" fill="#003A67" fill-opacity="0.1"/>
<path d="M269.916 195H265.625L262.5 199.849L259.821 195H250L262.5 216L275 195H269.916ZM253.108 196.751H256.11L262.5 207.599L268.884 196.751H271.886L262.5 212.525L253.108 196.751Z" fill="#003A67" fill-opacity="0.1"/>
<path d="M269.916 287H265.625L262.5 291.849L259.821 287H250L262.5 308L275 287H269.916ZM253.108 288.751H256.11L262.5 299.599L268.884 288.751H271.886L262.5 304.525L253.108 288.751Z" fill="#003A67" fill-opacity="0.1"/>
<path d="M269.916 379H265.625L262.5 383.849L259.821 379H250L262.5 400L275 379H269.916ZM253.108 380.751H256.11L262.5 391.599L268.884 380.751H271.886L262.5 396.525L253.108 380.751Z" fill="#003A67" fill-opacity="0.1"/>
<path d="M244.916 57H240.625L237.5 61.8491L234.821 57H225L237.5 78L250 57H244.916ZM228.108 58.7514H231.11L237.5 69.5989L243.884 58.7514H246.886L237.5 74.5246L228.108 58.7514Z" fill="#003A67" fill-opacity="0.1"/>
<path d="M244.916 149H240.625L237.5 153.849L234.821 149H225L237.5 170L250 149H244.916ZM228.108 150.751H231.11L237.5 161.599L243.884 150.751H246.886L237.5 166.525L228.108 150.751Z" fill="#003A67" fill-opacity="0.1"/>
<path d="M244.916 241H240.625L237.5 245.849L234.821 241H225L237.5 262L250 241H244.916ZM228.108 242.751H231.11L237.5 253.599L243.884 242.751H246.886L237.5 258.525L228.108 242.751Z" fill="#003A67" fill-opacity="0.1"/>
<path d="M244.916 333H240.625L237.5 337.849L234.821 333H225L237.5 354L250 333H244.916ZM228.108 334.751H231.11L237.5 345.599L243.884 334.751H246.886L237.5 350.525L228.108 334.751Z" fill="#003A67" fill-opacity="0.1"/>
<path d="M319.916 11H315.625L312.5 15.8491L309.821 11H300L312.5 32L325 11H319.916ZM303.108 12.7514H306.11L312.5 23.5989L318.884 12.7514H321.886L312.5 28.5246L303.108 12.7514Z" fill="#003A67" fill-opacity="0.1"/>
<path d="M319.916 103H315.625L312.5 107.849L309.821 103H300L312.5 124L325 103H319.916ZM303.108 104.751H306.11L312.5 115.599L318.884 104.751H321.886L312.5 120.525L303.108 104.751Z" fill="#003A67" fill-opacity="0.1"/>
<path d="M319.916 195H315.625L312.5 199.849L309.821 195H300L312.5 216L325 195H319.916ZM303.108 196.751H306.11L312.5 207.599L318.884 196.751H321.886L312.5 212.525L303.108 196.751Z" fill="#003A67" fill-opacity="0.1"/>
<path d="M319.916 287H315.625L312.5 291.849L309.821 287H300L312.5 308L325 287H319.916ZM303.108 288.751H306.11L312.5 299.599L318.884 288.751H321.886L312.5 304.525L303.108 288.751Z" fill="#003A67" fill-opacity="0.1"/>
<path d="M319.916 379H315.625L312.5 383.849L309.821 379H300L312.5 400L325 379H319.916ZM303.108 380.751H306.11L312.5 391.599L318.884 380.751H321.886L312.5 396.525L303.108 380.751Z" fill="#003A67" fill-opacity="0.1"/>
<path d="M294.916 57H290.625L287.5 61.8491L284.821 57H275L287.5 78L300 57H294.916ZM278.108 58.7514H281.11L287.5 69.5989L293.884 58.7514H296.886L287.5 74.5246L278.108 58.7514Z" fill="#003A67" fill-opacity="0.1"/>
<path d="M294.916 149H290.625L287.5 153.849L284.821 149H275L287.5 170L300 149H294.916ZM278.108 150.751H281.11L287.5 161.599L293.884 150.751H296.886L287.5 166.525L278.108 150.751Z" fill="#003A67" fill-opacity="0.1"/>
<path d="M294.916 241H290.625L287.5 245.849L284.821 241H275L287.5 262L300 241H294.916ZM278.108 242.751H281.11L287.5 253.599L293.884 242.751H296.886L287.5 258.525L278.108 242.751Z" fill="#003A67" fill-opacity="0.1"/>
<path d="M294.916 333H290.625L287.5 337.849L284.821 333H275L287.5 354L300 333H294.916ZM278.108 334.751H281.11L287.5 345.599L293.884 334.751H296.886L287.5 350.525L278.108 334.751Z" fill="#003A67" fill-opacity="0.1"/>
<path d="M369.916 11H365.625L362.5 15.8491L359.821 11H350L362.5 32L375 11H369.916ZM353.108 12.7514H356.11L362.5 23.5989L368.884 12.7514H371.886L362.5 28.5246L353.108 12.7514Z" fill="#003A67" fill-opacity="0.1"/>
<path d="M369.916 103H365.625L362.5 107.849L359.821 103H350L362.5 124L375 103H369.916ZM353.108 104.751H356.11L362.5 115.599L368.884 104.751H371.886L362.5 120.525L353.108 104.751Z" fill="#003A67" fill-opacity="0.1"/>
<path d="M369.916 195H365.625L362.5 199.849L359.821 195H350L362.5 216L375 195H369.916ZM353.108 196.751H356.11L362.5 207.599L368.884 196.751H371.886L362.5 212.525L353.108 196.751Z" fill="#003A67" fill-opacity="0.1"/>
<path d="M369.916 287H365.625L362.5 291.849L359.821 287H350L362.5 308L375 287H369.916ZM353.108 288.751H356.11L362.5 299.599L368.884 288.751H371.886L362.5 304.525L353.108 288.751Z" fill="#003A67" fill-opacity="0.1"/>
<path d="M369.916 379H365.625L362.5 383.849L359.821 379H350L362.5 400L375 379H369.916ZM353.108 380.751H356.11L362.5 391.599L368.884 380.751H371.886L362.5 396.525L353.108 380.751Z" fill="#003A67" fill-opacity="0.1"/>
<path d="M344.916 57H340.625L337.5 61.8491L334.821 57H325L337.5 78L350 57H344.916ZM328.108 58.7514H331.11L337.5 69.5989L343.884 58.7514H346.886L337.5 74.5246L328.108 58.7514Z" fill="#003A67" fill-opacity="0.1"/>
<path d="M344.916 149H340.625L337.5 153.849L334.821 149H325L337.5 170L350 149H344.916ZM328.108 150.751H331.11L337.5 161.599L343.884 150.751H346.886L337.5 166.525L328.108 150.751Z" fill="#003A67" fill-opacity="0.1"/>
<path d="M344.916 241H340.625L337.5 245.849L334.821 241H325L337.5 262L350 241H344.916ZM328.108 242.751H331.11L337.5 253.599L343.884 242.751H346.886L337.5 258.525L328.108 242.751Z" fill="#003A67" fill-opacity="0.1"/>
<path d="M344.916 333H340.625L337.5 337.849L334.821 333H325L337.5 354L350 333H344.916ZM328.108 334.751H331.11L337.5 345.599L343.884 334.751H346.886L337.5 350.525L328.108 334.751Z" fill="#003A67" fill-opacity="0.1"/>
<path d="M419.916 11H415.625L412.5 15.8491L409.821 11H400L412.5 32L425 11H419.916ZM403.108 12.7514H406.11L412.5 23.5989L418.884 12.7514H421.886L412.5 28.5246L403.108 12.7514Z" fill="#003A67" fill-opacity="0.1"/>
<path d="M419.916 103H415.625L412.5 107.849L409.821 103H400L412.5 124L425 103H419.916ZM403.108 104.751H406.11L412.5 115.599L418.884 104.751H421.886L412.5 120.525L403.108 104.751Z" fill="#003A67" fill-opacity="0.1"/>
<path d="M419.916 195H415.625L412.5 199.849L409.821 195H400L412.5 216L425 195H419.916ZM403.108 196.751H406.11L412.5 207.599L418.884 196.751H421.886L412.5 212.525L403.108 196.751Z" fill="#003A67" fill-opacity="0.1"/>
<path d="M419.916 287H415.625L412.5 291.849L409.821 287H400L412.5 308L425 287H419.916ZM403.108 288.751H406.11L412.5 299.599L418.884 288.751H421.886L412.5 304.525L403.108 288.751Z" fill="#003A67" fill-opacity="0.1"/>
<path d="M419.916 379H415.625L412.5 383.849L409.821 379H400L412.5 400L425 379H419.916ZM403.108 380.751H406.11L412.5 391.599L418.884 380.751H421.886L412.5 396.525L403.108 380.751Z" fill="#003A67" fill-opacity="0.1"/>
<path d="M394.916 57H390.625L387.5 61.8491L384.821 57H375L387.5 78L400 57H394.916ZM378.108 58.7514H381.11L387.5 69.5989L393.884 58.7514H396.886L387.5 74.5246L378.108 58.7514Z" fill="#003A67" fill-opacity="0.1"/>
<path d="M394.916 149H390.625L387.5 153.849L384.821 149H375L387.5 170L400 149H394.916ZM378.108 150.751H381.11L387.5 161.599L393.884 150.751H396.886L387.5 166.525L378.108 150.751Z" fill="#003A67" fill-opacity="0.1"/>
<path d="M394.916 241H390.625L387.5 245.849L384.821 241H375L387.5 262L400 241H394.916ZM378.108 242.751H381.11L387.5 253.599L393.884 242.751H396.886L387.5 258.525L378.108 242.751Z" fill="#003A67" fill-opacity="0.1"/>
<path d="M394.916 333H390.625L387.5 337.849L384.821 333H375L387.5 354L400 333H394.916ZM378.108 334.751H381.11L387.5 345.599L393.884 334.751H396.886L387.5 350.525L378.108 334.751Z" fill="#003A67" fill-opacity="0.1"/>
<path d="M469.916 11H465.625L462.5 15.8491L459.821 11H450L462.5 32L475 11H469.916ZM453.108 12.7514H456.11L462.5 23.5989L468.884 12.7514H471.886L462.5 28.5246L453.108 12.7514Z" fill="#003A67" fill-opacity="0.1"/>
<path d="M469.916 103H465.625L462.5 107.849L459.821 103H450L462.5 124L475 103H469.916ZM453.108 104.751H456.11L462.5 115.599L468.884 104.751H471.886L462.5 120.525L453.108 104.751Z" fill="#003A67" fill-opacity="0.1"/>
<path d="M469.916 195H465.625L462.5 199.849L459.821 195H450L462.5 216L475 195H469.916ZM453.108 196.751H456.11L462.5 207.599L468.884 196.751H471.886L462.5 212.525L453.108 196.751Z" fill="#003A67" fill-opacity="0.1"/>
<path d="M469.916 287H465.625L462.5 291.849L459.821 287H450L462.5 308L475 287H469.916ZM453.108 288.751H456.11L462.5 299.599L468.884 288.751H471.886L462.5 304.525L453.108 288.751Z" fill="#003A67" fill-opacity="0.1"/>
<path d="M469.916 379H465.625L462.5 383.849L459.821 379H450L462.5 400L475 379H469.916ZM453.108 380.751H456.11L462.5 391.599L468.884 380.751H471.886L462.5 396.525L453.108 380.751Z" fill="#003A67" fill-opacity="0.1"/>
<path d="M444.916 57H440.625L437.5 61.8491L434.821 57H425L437.5 78L450 57H444.916ZM428.108 58.7514H431.11L437.5 69.5989L443.884 58.7514H446.886L437.5 74.5246L428.108 58.7514Z" fill="#003A67" fill-opacity="0.1"/>
<path d="M444.916 149H440.625L437.5 153.849L434.821 149H425L437.5 170L450 149H444.916ZM428.108 150.751H431.11L437.5 161.599L443.884 150.751H446.886L437.5 166.525L428.108 150.751Z" fill="#003A67" fill-opacity="0.1"/>
<path d="M444.916 241H440.625L437.5 245.849L434.821 241H425L437.5 262L450 241H444.916ZM428.108 242.751H431.11L437.5 253.599L443.884 242.751H446.886L437.5 258.525L428.108 242.751Z" fill="#003A67" fill-opacity="0.1"/>
<path d="M444.916 333H440.625L437.5 337.849L434.821 333H425L437.5 354L450 333H444.916ZM428.108 334.751H431.11L437.5 345.599L443.884 334.751H446.886L437.5 350.525L428.108 334.751Z" fill="#003A67" fill-opacity="0.1"/>
<path d="M519.916 11H515.625L512.5 15.8491L509.821 11H500L512.5 32L525 11H519.916ZM503.108 12.7514H506.11L512.5 23.5989L518.884 12.7514H521.886L512.5 28.5246L503.108 12.7514Z" fill="#003A67" fill-opacity="0.1"/>
<path d="M519.916 103H515.625L512.5 107.849L509.821 103H500L512.5 124L525 103H519.916ZM503.108 104.751H506.11L512.5 115.599L518.884 104.751H521.886L512.5 120.525L503.108 104.751Z" fill="#003A67" fill-opacity="0.1"/>
<path d="M519.916 195H515.625L512.5 199.849L509.821 195H500L512.5 216L525 195H519.916ZM503.108 196.751H506.11L512.5 207.599L518.884 196.751H521.886L512.5 212.525L503.108 196.751Z" fill="#003A67" fill-opacity="0.1"/>
<path d="M519.916 287H515.625L512.5 291.849L509.821 287H500L512.5 308L525 287H519.916ZM503.108 288.751H506.11L512.5 299.599L518.884 288.751H521.886L512.5 304.525L503.108 288.751Z" fill="#003A67" fill-opacity="0.1"/>
<path d="M519.916 379H515.625L512.5 383.849L509.821 379H500L512.5 400L525 379H519.916ZM503.108 380.751H506.11L512.5 391.599L518.884 380.751H521.886L512.5 396.525L503.108 380.751Z" fill="#003A67" fill-opacity="0.1"/>
<path d="M494.916 57H490.625L487.5 61.8491L484.821 57H475L487.5 78L500 57H494.916ZM478.108 58.7514H481.11L487.5 69.5989L493.884 58.7514H496.886L487.5 74.5246L478.108 58.7514Z" fill="#003A67" fill-opacity="0.1"/>
<path d="M494.916 149H490.625L487.5 153.849L484.821 149H475L487.5 170L500 149H494.916ZM478.108 150.751H481.11L487.5 161.599L493.884 150.751H496.886L487.5 166.525L478.108 150.751Z" fill="#003A67" fill-opacity="0.1"/>
<path d="M494.916 241H490.625L487.5 245.849L484.821 241H475L487.5 262L500 241H494.916ZM478.108 242.751H481.11L487.5 253.599L493.884 242.751H496.886L487.5 258.525L478.108 242.751Z" fill="#003A67" fill-opacity="0.1"/>
<path d="M494.916 333H490.625L487.5 337.849L484.821 333H475L487.5 354L500 333H494.916ZM478.108 334.751H481.11L487.5 345.599L493.884 334.751H496.886L487.5 350.525L478.108 334.751Z" fill="#003A67" fill-opacity="0.1"/>
<path d="M569.916 11H565.625L562.5 15.8491L559.821 11H550L562.5 32L575 11H569.916ZM553.108 12.7514H556.11L562.5 23.5989L568.884 12.7514H571.886L562.5 28.5246L553.108 12.7514Z" fill="#003A67" fill-opacity="0.1"/>
<path d="M569.916 103H565.625L562.5 107.849L559.821 103H550L562.5 124L575 103H569.916ZM553.108 104.751H556.11L562.5 115.599L568.884 104.751H571.886L562.5 120.525L553.108 104.751Z" fill="#003A67" fill-opacity="0.1"/>
<path d="M569.916 195H565.625L562.5 199.849L559.821 195H550L562.5 216L575 195H569.916ZM553.108 196.751H556.11L562.5 207.599L568.884 196.751H571.886L562.5 212.525L553.108 196.751Z" fill="#003A67" fill-opacity="0.1"/>
<path d="M569.916 287H565.625L562.5 291.849L559.821 287H550L562.5 308L575 287H569.916ZM553.108 288.751H556.11L562.5 299.599L568.884 288.751H571.886L562.5 304.525L553.108 288.751Z" fill="#003A67" fill-opacity="0.1"/>
<path d="M569.916 379H565.625L562.5 383.849L559.821 379H550L562.5 400L575 379H569.916ZM553.108 380.751H556.11L562.5 391.599L568.884 380.751H571.886L562.5 396.525L553.108 380.751Z" fill="#003A67" fill-opacity="0.1"/>
<path d="M544.916 57H540.625L537.5 61.8491L534.821 57H525L537.5 78L550 57H544.916ZM528.108 58.7514H531.11L537.5 69.5989L543.884 58.7514H546.886L537.5 74.5246L528.108 58.7514Z" fill="#003A67" fill-opacity="0.1"/>
<path d="M544.916 149H540.625L537.5 153.849L534.821 149H525L537.5 170L550 149H544.916ZM528.108 150.751H531.11L537.5 161.599L543.884 150.751H546.886L537.5 166.525L528.108 150.751Z" fill="#003A67" fill-opacity="0.1"/>
<path d="M544.916 241H540.625L537.5 245.849L534.821 241H525L537.5 262L550 241H544.916ZM528.108 242.751H531.11L537.5 253.599L543.884 242.751H546.886L537.5 258.525L528.108 242.751Z" fill="#003A67" fill-opacity="0.1"/>
<path d="M544.916 333H540.625L537.5 337.849L534.821 333H525L537.5 354L550 333H544.916ZM528.108 334.751H531.11L537.5 345.599L543.884 334.751H546.886L537.5 350.525L528.108 334.751Z" fill="#003A67" fill-opacity="0.1"/>
<path d="M619.916 11H615.625L612.5 15.8491L609.821 11H600L612.5 32L625 11H619.916ZM603.108 12.7514H606.11L612.5 23.5989L618.884 12.7514H621.886L612.5 28.5246L603.108 12.7514Z" fill="#003A67" fill-opacity="0.1"/>
<path d="M669.916 11H665.625L662.5 15.8491L659.821 11H650L662.5 32L675 11H669.916ZM653.108 12.7514H656.11L662.5 23.5989L668.884 12.7514H671.886L662.5 28.5246L653.108 12.7514Z" fill="#003A67" fill-opacity="0.1"/>
<path d="M669.916 103H665.625L662.5 107.849L659.821 103H650L662.5 124L675 103H669.916ZM653.108 104.751H656.11L662.5 115.599L668.884 104.751H671.886L662.5 120.525L653.108 104.751Z" fill="#003A67" fill-opacity="0.1"/>
<path d="M669.916 195H665.625L662.5 199.849L659.821 195H650L662.5 216L675 195H669.916ZM653.108 196.751H656.11L662.5 207.599L668.884 196.751H671.886L662.5 212.525L653.108 196.751Z" fill="#003A67" fill-opacity="0.1"/>
<path d="M669.916 287H665.625L662.5 291.849L659.821 287H650L662.5 308L675 287H669.916ZM653.108 288.751H656.11L662.5 299.599L668.884 288.751H671.886L662.5 304.525L653.108 288.751Z" fill="#003A67" fill-opacity="0.1"/>
<path d="M669.916 379H665.625L662.5 383.849L659.821 379H650L662.5 400L675 379H669.916ZM653.108 380.751H656.11L662.5 391.599L668.884 380.751H671.886L662.5 396.525L653.108 380.751Z" fill="#003A67" fill-opacity="0.1"/>
<path d="M619.916 103H615.625L612.5 107.849L609.821 103H600L612.5 124L625 103H619.916ZM603.108 104.751H606.11L612.5 115.599L618.884 104.751H621.886L612.5 120.525L603.108 104.751Z" fill="#003A67" fill-opacity="0.1"/>
<path d="M619.916 195H615.625L612.5 199.849L609.821 195H600L612.5 216L625 195H619.916ZM603.108 196.751H606.11L612.5 207.599L618.884 196.751H621.886L612.5 212.525L603.108 196.751Z" fill="#003A67" fill-opacity="0.1"/>
<path d="M619.916 287H615.625L612.5 291.849L609.821 287H600L612.5 308L625 287H619.916ZM603.108 288.751H606.11L612.5 299.599L618.884 288.751H621.886L612.5 304.525L603.108 288.751Z" fill="#003A67" fill-opacity="0.1"/>
<path d="M619.916 379H615.625L612.5 383.849L609.821 379H600L612.5 400L625 379H619.916ZM603.108 380.751H606.11L612.5 391.599L618.884 380.751H621.886L612.5 396.525L603.108 380.751Z" fill="#003A67" fill-opacity="0.1"/>
<path d="M594.916 57H590.625L587.5 61.8491L584.821 57H575L587.5 78L600 57H594.916ZM578.108 58.7514H581.11L587.5 69.5989L593.884 58.7514H596.886L587.5 74.5246L578.108 58.7514Z" fill="#003A67" fill-opacity="0.1"/>
<path d="M594.916 149H590.625L587.5 153.849L584.821 149H575L587.5 170L600 149H594.916ZM578.108 150.751H581.11L587.5 161.599L593.884 150.751H596.886L587.5 166.525L578.108 150.751Z" fill="#003A67" fill-opacity="0.1"/>
<path d="M594.916 241H590.625L587.5 245.849L584.821 241H575L587.5 262L600 241H594.916ZM578.108 242.751H581.11L587.5 253.599L593.884 242.751H596.886L587.5 258.525L578.108 242.751Z" fill="#003A67" fill-opacity="0.1"/>
<path d="M594.916 333H590.625L587.5 337.849L584.821 333H575L587.5 354L600 333H594.916ZM578.108 334.751H581.11L587.5 345.599L593.884 334.751H596.886L587.5 350.525L578.108 334.751Z" fill="#003A67" fill-opacity="0.1"/>
<path d="M644.916 57H640.625L637.5 61.8491L634.821 57H625L637.5 78L650 57H644.916ZM628.108 58.7514H631.11L637.5 69.5989L643.884 58.7514H646.886L637.5 74.5246L628.108 58.7514Z" fill="#003A67" fill-opacity="0.1"/>
<path d="M644.916 149H640.625L637.5 153.849L634.821 149H625L637.5 170L650 149H644.916ZM628.108 150.751H631.11L637.5 161.599L643.884 150.751H646.886L637.5 166.525L628.108 150.751Z" fill="#003A67" fill-opacity="0.1"/>
<path d="M644.916 241H640.625L637.5 245.849L634.821 241H625L637.5 262L650 241H644.916ZM628.108 242.751H631.11L637.5 253.599L643.884 242.751H646.886L637.5 258.525L628.108 242.751Z" fill="#003A67" fill-opacity="0.1"/>
<path d="M644.916 333H640.625L637.5 337.849L634.821 333H625L637.5 354L650 333H644.916ZM628.108 334.751H631.11L637.5 345.599L643.884 334.751H646.886L637.5 350.525L628.108 334.751Z" fill="#003A67" fill-opacity="0.1"/>
<path d="M429.842 91H380.75L345 147.342L314.357 91H202L345 335L488 91H429.842ZM237.558 111.349H271.904L345 237.387L418.032 111.349H452.378L345 294.619L237.558 111.349Z" fill="#003A67"/>
</g>
<defs>
<clipPath id="clip0_461_1538">
<rect width="413" height="676" fill="white" transform="translate(676) rotate(90)"/>
</clipPath>
</defs>
</svg>
