<svg width="206" height="240" viewBox="0 0 206 240" fill="none" xmlns="http://www.w3.org/2000/svg">
<g clip-path="url(#clip0_320_891)">
<path d="M99.1349 14.8361C104.649 11.1464 106.794 4.07468 107.177 1C113.61 120.913 107.56 191.63 103.73 212L99.1349 207.388C21.0134 128.984 66.5843 46.3516 99.1349 14.8361Z" fill="#6868E2" stroke="#6868E2"/>
<path d="M116.528 16.6816C112.785 11.9665 107.95 2.92924 106 -1C109.743 51.8089 108.34 145.168 107.17 185.246C109.041 203.163 114.189 209.214 116.528 210C198.882 139.274 150.842 51.6518 116.528 16.6816Z" fill="#5454E4" stroke="#5454E4"/>
<path d="M106.5 187L103 211.652C105.8 217.287 106.5 232 106.5 238.652L113.5 241V216.348L117 209.304C112.333 207.426 108.056 193.652 106.5 187Z" fill="#E8E8D6"/>
</g>
<defs>
<clipPath id="clip0_320_891">
<rect width="206" height="240" fill="white"/>
</clipPath>
</defs>
</svg>
