<svg width="206" height="240" viewBox="0 0 206 240" fill="none" xmlns="http://www.w3.org/2000/svg">
<mask id="path-1-outside-1_284_765" maskUnits="userSpaceOnUse" x="-23.2487" y="40.8157" width="248.035" height="224.61" fill="black">
<rect fill="white" x="-23.2487" y="40.8157" width="248.035" height="224.61"/>
<path d="M35 188.205C23.9543 169.074 30.5093 144.61 49.641 133.564L105.933 101.064C126.978 88.9142 153.888 96.1247 166.038 117.17L167.038 118.902C177.807 137.555 171.416 161.407 152.763 172.177L95.6051 205.177C74.5602 217.327 47.6503 210.116 35.5 189.071L35 188.205Z"/>
</mask>
<path d="M63.641 157.813L119.933 125.313L91.9327 76.8157L35.641 109.316L63.641 157.813ZM141.789 131.17L142.789 132.902L191.286 104.902L190.286 103.17L141.789 131.17ZM138.763 147.928L81.6051 180.928L109.605 229.425L166.763 196.425L138.763 147.928ZM59.7487 175.071L59.2487 174.205L10.7513 202.205L11.2513 203.071L59.7487 175.071ZM81.6051 180.928C73.9524 185.346 64.167 182.724 59.7487 175.071L11.2513 203.071C31.1335 237.509 75.1681 249.308 109.605 229.425L81.6051 180.928ZM142.789 132.902C145.827 138.163 144.024 144.89 138.763 147.928L166.763 196.425C198.808 177.924 209.788 136.947 191.286 104.902L142.789 132.902ZM119.933 125.313C127.585 120.895 137.371 123.517 141.789 131.17L190.286 103.17C170.404 68.7325 126.37 56.9335 91.9327 76.8157L119.933 125.313ZM35.641 109.316C3.11712 128.093 -8.02639 169.682 10.7513 202.205L59.2487 174.205C55.935 168.466 57.9015 161.127 63.641 157.813L35.641 109.316Z" fill="#FF3E00" mask="url(#path-1-outside-1_284_765)"/>
<path d="M35 188.205C23.9543 169.074 30.5093 144.61 49.641 133.564L105.933 101.064C126.978 88.9142 153.888 96.1247 166.038 117.17L167.038 118.902C177.807 137.555 171.416 161.407 152.763 172.177L95.6051 205.177C74.5602 217.327 47.6503 210.116 35.5 189.071L35 188.205Z" fill="white"/>
<path d="M104.092 21.8756L47.8002 54.3756C21.9724 69.2873 13.1231 102.313 28.0348 128.141C44.0511 155.882 79.5233 165.387 107.264 149.37L164.422 116.37C189.771 101.735 198.457 69.3206 183.821 43.9711L183.321 43.1051C167.305 15.3641 131.833 5.85939 104.092 21.8756Z" stroke="#659C97" stroke-width="28"/>
<mask id="path-5-outside-2_284_765" maskUnits="userSpaceOnUse" x="-23.2487" y="40.8157" width="248.035" height="224.61" fill="black">
<rect fill="white" x="-23.2487" y="40.8157" width="248.035" height="224.61"/>
<path d="M35 188.205C23.9543 169.074 30.5093 144.61 49.641 133.564L105.933 101.064C126.978 88.9142 153.888 96.1247 166.038 117.17L167.038 118.902C177.807 137.555 171.416 161.407 152.763 172.177L95.6051 205.177C74.5602 217.327 47.6503 210.116 35.5 189.071L35 188.205Z"/>
</mask>
<path d="M63.641 157.813L119.933 125.313L91.9327 76.8157L35.641 109.316L63.641 157.813ZM141.789 131.17L142.789 132.902L191.286 104.902L190.286 103.17L141.789 131.17ZM138.763 147.928L81.6051 180.928L109.605 229.425L166.763 196.425L138.763 147.928ZM59.7487 175.071L59.2487 174.205L10.7513 202.205L11.2513 203.071L59.7487 175.071ZM81.6051 180.928C73.9524 185.346 64.167 182.724 59.7487 175.071L11.2513 203.071C31.1335 237.509 75.1681 249.308 109.605 229.425L81.6051 180.928ZM142.789 132.902C145.827 138.163 144.024 144.89 138.763 147.928L166.763 196.425C198.808 177.924 209.788 136.947 191.286 104.902L142.789 132.902ZM119.933 125.313C127.585 120.895 137.371 123.517 141.789 131.17L190.286 103.17C170.404 68.7325 126.37 56.9335 91.9327 76.8157L119.933 125.313ZM35.641 109.316C3.11712 128.093 -8.02639 169.682 10.7513 202.205L59.2487 174.205C55.935 168.466 57.9015 161.127 63.641 157.813L35.641 109.316Z" fill="#FF3E00" mask="url(#path-5-outside-2_284_765)"/>
<path d="M40.1592 121.141C29.1135 102.009 35.6685 77.5457 54.8002 66.5L111.092 34C132.137 21.8497 159.047 29.0602 171.197 50.1051L171.697 50.9711C182.467 69.6246 176.075 93.4766 157.422 104.246L100.264 137.246C79.2194 149.396 52.3094 142.186 40.1592 121.141V121.141Z" fill="white"/>
<mask id="path-8-outside-3_284_765" maskUnits="userSpaceOnUse" x="-23.2487" y="40.8157" width="248.035" height="224.61" fill="black">
<rect fill="white" x="-23.2487" y="40.8157" width="248.035" height="224.61"/>
<path d="M35 188.205C23.9543 169.074 30.5093 144.61 49.641 133.564L105.933 101.064C126.978 88.9142 153.888 96.1247 166.038 117.17L167.038 118.902C177.807 137.555 171.416 161.407 152.763 172.177L95.6051 205.177C74.5602 217.327 47.6503 210.116 35.5 189.071L35 188.205Z"/>
</mask>
<path d="M63.641 157.813L119.933 125.313L91.9327 76.8157L35.641 109.316L63.641 157.813ZM141.789 131.17L142.789 132.902L191.286 104.902L190.286 103.17L141.789 131.17ZM138.763 147.928L81.6051 180.928L109.605 229.425L166.763 196.425L138.763 147.928ZM59.7487 175.071L59.2487 174.205L10.7513 202.205L11.2513 203.071L59.7487 175.071ZM81.6051 180.928C73.9524 185.346 64.167 182.724 59.7487 175.071L11.2513 203.071C31.1335 237.509 75.1681 249.308 109.605 229.425L81.6051 180.928ZM142.789 132.902C145.827 138.163 144.024 144.89 138.763 147.928L166.763 196.425C198.808 177.924 209.788 136.947 191.286 104.902L142.789 132.902ZM119.933 125.313C127.585 120.895 137.371 123.517 141.789 131.17L190.286 103.17C170.404 68.7325 126.37 56.9335 91.9327 76.8157L119.933 125.313ZM35.641 109.316C3.11712 128.093 -8.02639 169.682 10.7513 202.205L59.2487 174.205C55.935 168.466 57.9015 161.127 63.641 157.813L35.641 109.316Z" fill="#659C97" mask="url(#path-8-outside-3_284_765)"/>
<path d="M165.922 114.966C177.854 134.635 174.132 162.188 148.201 174.272C137.45 155.653 138.686 157.794 126.95 137.467C115.214 117.139 115.951 118.414 105.701 100.66C126.418 87.5443 154.251 95.7294 165.922 114.966Z" fill="white"/>
<path d="M41.2075 122.936C29.4409 103.554 33.318 76.2787 59.2249 64.1665C69.8203 82.5174 68.6025 80.4071 80.1694 100.441C91.7362 120.476 91.0099 119.22 101.112 136.717C80.3932 149.817 52.7157 141.892 41.2075 122.936Z" fill="white"/>
<path d="M65.597 107.202C61.8284 100.674 64.0648 92.3278 70.5921 88.5593L124.363 57.5144C131.664 53.2996 140.999 55.8008 145.213 63.1011V63.1011C149.007 69.6713 146.756 78.0726 140.185 81.866L86.5695 112.821C79.2263 117.061 69.8366 114.545 65.597 107.202V107.202Z" fill="#659C97"/>
<path d="M60.953 175.157C57.3144 168.855 59.4737 160.796 65.7759 157.158L120.411 125.615C127.459 121.545 136.472 123.96 140.541 131.009V131.009C144.204 137.352 142.03 145.464 135.687 149.126L81.2023 180.583C74.1123 184.676 65.0464 182.247 60.953 175.157V175.157Z" fill="#659C97"/>
</svg>
