<svg width="234" height="206" viewBox="0 0 234 206" fill="none" xmlns="http://www.w3.org/2000/svg">
<g clip-path="url(#clip0_356_4547)">
<path d="M191.13 66.7568C188.663 65.9291 186.195 65.1475 183.727 64.4118C184.138 62.7105 184.504 61.0093 184.869 59.308C190.491 31.9042 186.789 9.87988 174.312 2.61509C162.292 -4.32784 142.685 2.89097 122.85 20.2713C120.885 21.9725 118.965 23.7657 117.137 25.559C115.903 24.3635 114.623 23.168 113.344 22.0185C92.5488 3.44273 71.7082 -4.37382 59.2313 2.93695C47.257 9.92586 43.6922 30.6627 48.7195 56.5952C49.2223 59.1701 49.7707 61.699 50.4105 64.2739C47.4855 65.1015 44.6062 66.0211 41.9098 66.9867C17.5043 75.4929 0 88.919 0 102.805C0 117.15 18.6469 131.542 44.0121 140.278C46.0688 140.968 48.1254 141.658 50.2277 142.255C49.5422 145.014 48.948 147.727 48.3996 150.532C43.6008 176.05 47.3484 196.282 59.3227 203.224C71.6625 210.397 92.4117 203.041 112.612 185.246C114.212 183.821 115.812 182.35 117.411 180.786C119.422 182.764 121.525 184.649 123.627 186.488C143.188 203.408 162.52 210.259 174.449 203.316C186.789 196.144 190.811 174.395 185.6 147.911C185.189 145.888 184.732 143.819 184.229 141.704C185.692 141.29 187.109 140.83 188.525 140.37C214.896 131.588 234 117.38 234 102.805C234 88.873 215.993 75.355 191.13 66.7568ZM129.294 27.72C146.296 12.8226 162.155 6.98316 169.376 11.1673C177.1 15.6273 180.07 33.6514 175.226 57.3309C174.906 58.8942 174.586 60.4116 174.175 61.9289C164.029 59.6299 153.745 57.9746 143.416 57.055C137.475 48.5028 130.985 40.3184 123.947 32.6398C125.729 30.9386 127.466 29.3293 129.294 27.72ZM76.4156 126.668C78.7465 130.669 81.123 134.669 83.6367 138.577C76.507 137.795 69.423 136.646 62.4305 135.129C64.4414 128.507 66.9551 121.656 69.8801 114.668C71.9824 118.714 74.1305 122.714 76.4156 126.668ZM62.5676 71.3547C69.1488 69.8834 76.1414 68.6879 83.4082 67.7683C80.9859 71.5846 78.6094 75.4929 76.3699 79.4471C74.1305 83.3554 71.9367 87.3557 69.8801 91.4019C67.0008 84.5509 64.5785 77.8379 62.5676 71.3547ZM75.0902 103.035C78.1066 96.6895 81.3973 90.4823 84.8707 84.367C88.3441 78.2517 92.0918 72.3203 96.0223 66.4809C102.878 65.9751 109.87 65.6992 117 65.6992C124.13 65.6992 131.168 65.9751 137.978 66.4809C141.862 72.2743 145.564 78.2057 149.084 84.275C152.603 90.3443 155.893 96.5516 159.001 102.851C155.939 109.196 152.648 115.449 149.129 121.611C145.656 127.726 141.954 133.657 138.069 139.543C131.259 140.048 124.175 140.278 117 140.278C109.825 140.278 102.878 140.048 96.1594 139.635C92.1832 133.795 88.4355 127.818 84.9164 121.702C81.3973 115.587 78.1523 109.38 75.0902 103.035ZM157.63 126.576C159.961 122.53 162.155 118.438 164.303 114.3C167.228 120.967 169.787 127.726 172.027 134.669C164.943 136.278 157.767 137.519 150.546 138.347C153.014 134.485 155.345 130.531 157.63 126.576ZM164.211 91.4019C162.063 87.3557 159.87 83.3094 157.584 79.3552C155.345 75.4469 153.014 71.5846 150.592 67.7683C157.95 68.6879 164.988 69.9293 171.57 71.4467C169.467 78.2517 166.999 84.8728 164.211 91.4019ZM117.091 39.6747C121.89 44.9164 126.415 50.434 130.62 56.1355C121.57 55.7216 112.475 55.7216 103.426 56.1355C107.905 50.2041 112.521 44.6865 117.091 39.6747ZM64.0758 11.4892C71.7539 6.98316 88.8012 13.4203 106.763 29.4213C107.905 30.4328 109.048 31.5363 110.236 32.6398C103.152 40.3184 96.6164 48.5028 90.6293 57.055C80.3004 57.9746 70.0629 59.5839 59.9168 61.8369C59.3227 59.492 58.8199 57.101 58.3172 54.7101C54.0211 32.4559 56.8547 15.6733 64.0758 11.4892ZM52.8785 132.692C50.959 132.14 49.0852 131.542 47.2113 130.898C37.4766 127.818 26.4164 122.944 18.4184 116.553C13.8023 113.334 10.6945 108.368 9.82617 102.805C9.82617 94.3905 24.2684 83.6313 45.109 76.3205C47.7141 75.4009 50.3648 74.5733 53.0156 73.7916C56.1234 83.7692 59.8711 93.5629 64.2129 103.035C59.8254 112.644 56.032 122.576 52.8785 132.692ZM106.168 177.752C98.6273 184.695 89.898 190.212 80.3918 193.983C75.3187 196.419 69.4688 196.649 64.2586 194.58C56.9918 190.35 53.9754 174.119 58.0887 152.279C58.5914 149.704 59.1398 147.129 59.7797 144.6C70.0172 146.807 80.3461 148.325 90.8121 149.106C96.8449 157.705 103.472 165.935 110.556 173.66C109.093 175.085 107.631 176.464 106.168 177.752ZM117.366 166.579C112.704 161.521 108.042 155.911 103.518 149.888C107.905 150.072 112.43 150.164 117 150.164C121.707 150.164 126.323 150.072 130.894 149.842C126.689 155.681 122.164 161.245 117.366 166.579ZM177.1 180.373C176.688 185.982 173.946 191.224 169.559 194.764C162.292 198.994 146.798 193.477 130.071 179.039C128.152 177.384 126.232 175.591 124.267 173.751C131.259 165.981 137.704 157.751 143.554 149.106C154.02 148.233 164.44 146.623 174.723 144.279C175.18 146.164 175.591 148.049 175.957 149.888C178.196 159.82 178.562 170.165 177.1 180.373ZM185.418 130.944C184.138 131.358 182.858 131.772 181.533 132.14C178.334 122.116 174.403 112.323 169.879 102.805C174.266 93.425 177.968 83.7692 181.076 73.8836C183.452 74.5733 185.738 75.309 187.931 76.0446C209.229 83.4014 224.174 94.3446 224.174 102.713C224.174 111.725 208.223 123.358 185.418 130.944ZM117 124.047C128.563 124.047 137.932 114.622 137.932 102.989C137.932 91.3559 128.563 81.93 117 81.93C105.437 81.93 96.068 91.3559 96.068 102.989C96.068 114.622 105.437 124.047 117 124.047Z" fill="#00BA9E"/>
</g>
<defs>
<clipPath id="clip0_356_4547">
<rect width="234" height="206" fill="white"/>
</clipPath>
</defs>
</svg>
